%TF.GenerationSoftware,KiCad,Pcbnew,(5.1.12)-1*%
%TF.CreationDate,2022-08-06T16:21:54+02:00*%
%TF.ProjectId,PrototypV1_rx,50726f74-6f74-4797-9056-315f72782e6b,rev?*%
%TF.SameCoordinates,Original*%
%TF.FileFunction,Legend,Bot*%
%TF.FilePolarity,Positive*%
%FSLAX46Y46*%
G04 Gerber Fmt 4.6, Leading zero omitted, Abs format (unit mm)*
G04 Created by KiCad (PCBNEW (5.1.12)-1) date 2022-08-06 16:21:54*
%MOMM*%
%LPD*%
G01*
G04 APERTURE LIST*
%ADD10C,4.000000*%
%ADD11O,4.000000X4.000000*%
%ADD12R,1.700000X1.700000*%
%ADD13O,1.700000X1.700000*%
%ADD14R,1.500000X1.050000*%
%ADD15O,1.500000X1.050000*%
%ADD16O,1.600000X1.600000*%
%ADD17C,1.600000*%
%ADD18C,3.000000*%
%ADD19R,3.000000X3.000000*%
%ADD20O,1.000000X1.000000*%
%ADD21R,1.000000X1.000000*%
%ADD22C,1.980000*%
%ADD23R,1.980000X1.980000*%
%ADD24C,1.160000*%
%ADD25R,1.160000X1.160000*%
G04 APERTURE END LIST*
%LPC*%
D10*
X17600000Y-89000000D03*
D11*
X106400000Y-152000000D03*
D12*
X32400000Y-93000000D03*
X85400000Y-89000000D03*
X57200000Y-132800000D03*
D13*
X60800000Y-126940000D03*
D12*
X60800000Y-124400000D03*
D13*
X89400000Y-103260000D03*
D12*
X89400000Y-105800000D03*
D13*
X81540000Y-89000000D03*
D12*
X79000000Y-89000000D03*
D13*
X40000000Y-95540000D03*
D12*
X40000000Y-93000000D03*
X23200000Y-93200000D03*
X26400000Y-114800000D03*
X22000000Y-114800000D03*
X84800000Y-101400000D03*
X19400000Y-135400000D03*
D13*
X74200000Y-106000000D03*
D12*
X74200000Y-108540000D03*
D13*
X17800000Y-114340000D03*
D12*
X17800000Y-111800000D03*
D14*
X81400000Y-108800000D03*
D15*
X81400000Y-106260000D03*
X81400000Y-107530000D03*
D16*
X31800000Y-101760000D03*
D17*
X31800000Y-117000000D03*
D13*
X17800000Y-103400000D03*
D12*
X17800000Y-100860000D03*
D13*
X85600000Y-124160000D03*
X85600000Y-121620000D03*
X85600000Y-119080000D03*
X85600000Y-116540000D03*
D12*
X85600000Y-114000000D03*
D13*
X28600000Y-132160000D03*
X28600000Y-129620000D03*
X28600000Y-127080000D03*
X28600000Y-124540000D03*
D12*
X28600000Y-122000000D03*
D18*
X77080000Y-147400000D03*
D19*
X61840000Y-147400000D03*
D18*
X72000000Y-147400000D03*
X66920000Y-147400000D03*
D13*
X93200000Y-110760000D03*
X93200000Y-108220000D03*
X93200000Y-105680000D03*
X93200000Y-103140000D03*
D12*
X93200000Y-100600000D03*
D20*
X62410000Y-109000000D03*
X61140000Y-109000000D03*
X59870000Y-109000000D03*
D21*
X58600000Y-109000000D03*
D13*
X80180000Y-97600000D03*
X77640000Y-97600000D03*
X75100000Y-97600000D03*
X72560000Y-97600000D03*
X70020000Y-97600000D03*
X67480000Y-97600000D03*
X64940000Y-97600000D03*
D12*
X62400000Y-97600000D03*
D22*
X40000000Y-134700000D03*
X40000000Y-132150000D03*
D23*
X40000000Y-129600000D03*
D24*
X73210000Y-136370000D03*
X70670000Y-136370000D03*
X68130000Y-136370000D03*
X65590000Y-136370000D03*
X65590000Y-128430000D03*
X68130000Y-128430000D03*
X70670000Y-128430000D03*
D25*
X73210000Y-128430000D03*
M02*
