%TF.GenerationSoftware,KiCad,Pcbnew,(5.1.12)-1*%
%TF.CreationDate,2022-08-06T16:21:54+02:00*%
%TF.ProjectId,PrototypV1_rx,50726f74-6f74-4797-9056-315f72782e6b,rev?*%
%TF.SameCoordinates,Original*%
%TF.FileFunction,Legend,Top*%
%TF.FilePolarity,Positive*%
%FSLAX46Y46*%
G04 Gerber Fmt 4.6, Leading zero omitted, Abs format (unit mm)*
G04 Created by KiCad (PCBNEW (5.1.12)-1) date 2022-08-06 16:21:54*
%MOMM*%
%LPD*%
G01*
G04 APERTURE LIST*
%ADD10C,0.150000*%
%ADD11C,0.120000*%
%ADD12C,0.200000*%
%ADD13C,0.254000*%
%ADD14C,4.000000*%
%ADD15O,4.000000X4.000000*%
%ADD16R,1.700000X1.700000*%
%ADD17O,1.700000X1.700000*%
%ADD18R,1.300000X1.550000*%
%ADD19R,0.650000X1.060000*%
%ADD20R,1.475000X0.450000*%
%ADD21R,1.500000X1.050000*%
%ADD22O,1.500000X1.050000*%
%ADD23O,1.600000X1.600000*%
%ADD24C,1.600000*%
%ADD25R,2.513000X3.402000*%
%ADD26R,1.525000X0.700000*%
%ADD27C,3.000000*%
%ADD28R,3.000000X3.000000*%
%ADD29O,1.000000X1.000000*%
%ADD30R,1.000000X1.000000*%
%ADD31C,1.980000*%
%ADD32R,1.980000X1.980000*%
%ADD33C,1.160000*%
%ADD34R,1.160000X1.160000*%
G04 APERTURE END LIST*
D10*
X106452380Y-99619047D02*
X107166666Y-99619047D01*
X107309523Y-99666666D01*
X107404761Y-99761904D01*
X107452380Y-99904761D01*
X107452380Y-100000000D01*
X107452380Y-98666666D02*
X107452380Y-99142857D01*
X106452380Y-99142857D01*
X107357142Y-97761904D02*
X107404761Y-97809523D01*
X107452380Y-97952380D01*
X107452380Y-98047619D01*
X107404761Y-98190476D01*
X107309523Y-98285714D01*
X107214285Y-98333333D01*
X107023809Y-98380952D01*
X106880952Y-98380952D01*
X106690476Y-98333333D01*
X106595238Y-98285714D01*
X106500000Y-98190476D01*
X106452380Y-98047619D01*
X106452380Y-97952380D01*
X106500000Y-97809523D01*
X106547619Y-97761904D01*
X106452380Y-97047619D02*
X107166666Y-97047619D01*
X107309523Y-97095238D01*
X107404761Y-97190476D01*
X107452380Y-97333333D01*
X107452380Y-97428571D01*
X107452380Y-96095238D02*
X107452380Y-96571428D01*
X106452380Y-96571428D01*
X107357142Y-95190476D02*
X107404761Y-95238095D01*
X107452380Y-95380952D01*
X107452380Y-95476190D01*
X107404761Y-95619047D01*
X107309523Y-95714285D01*
X107214285Y-95761904D01*
X107023809Y-95809523D01*
X106880952Y-95809523D01*
X106690476Y-95761904D01*
X106595238Y-95714285D01*
X106500000Y-95619047D01*
X106452380Y-95476190D01*
X106452380Y-95380952D01*
X106500000Y-95238095D01*
X106547619Y-95190476D01*
X106452380Y-94476190D02*
X107166666Y-94476190D01*
X107309523Y-94523809D01*
X107404761Y-94619047D01*
X107452380Y-94761904D01*
X107452380Y-94857142D01*
X107452380Y-93523809D02*
X107452380Y-94000000D01*
X106452380Y-94000000D01*
X107357142Y-92619047D02*
X107404761Y-92666666D01*
X107452380Y-92809523D01*
X107452380Y-92904761D01*
X107404761Y-93047619D01*
X107309523Y-93142857D01*
X107214285Y-93190476D01*
X107023809Y-93238095D01*
X106880952Y-93238095D01*
X106690476Y-93190476D01*
X106595238Y-93142857D01*
X106500000Y-93047619D01*
X106452380Y-92904761D01*
X106452380Y-92809523D01*
X106500000Y-92666666D01*
X106547619Y-92619047D01*
X106452380Y-91904761D02*
X107166666Y-91904761D01*
X107309523Y-91952380D01*
X107404761Y-92047619D01*
X107452380Y-92190476D01*
X107452380Y-92285714D01*
X107452380Y-90952380D02*
X107452380Y-91428571D01*
X106452380Y-91428571D01*
X107357142Y-90047619D02*
X107404761Y-90095238D01*
X107452380Y-90238095D01*
X107452380Y-90333333D01*
X107404761Y-90476190D01*
X107309523Y-90571428D01*
X107214285Y-90619047D01*
X107023809Y-90666666D01*
X106880952Y-90666666D01*
X106690476Y-90619047D01*
X106595238Y-90571428D01*
X106500000Y-90476190D01*
X106452380Y-90333333D01*
X106452380Y-90238095D01*
X106500000Y-90095238D01*
X106547619Y-90047619D01*
X98552380Y-131702380D02*
X98647619Y-131702380D01*
X98742857Y-131750000D01*
X98790476Y-131797619D01*
X98838095Y-131892857D01*
X98885714Y-132083333D01*
X98885714Y-132321428D01*
X98838095Y-132511904D01*
X98790476Y-132607142D01*
X98742857Y-132654761D01*
X98647619Y-132702380D01*
X98552380Y-132702380D01*
X98457142Y-132654761D01*
X98409523Y-132607142D01*
X98361904Y-132511904D01*
X98314285Y-132321428D01*
X98314285Y-132083333D01*
X98361904Y-131892857D01*
X98409523Y-131797619D01*
X98457142Y-131750000D01*
X98552380Y-131702380D01*
X98885714Y-136002380D02*
X98314285Y-136002380D01*
X98600000Y-136002380D02*
X98600000Y-135002380D01*
X98504761Y-135145238D01*
X98409523Y-135240476D01*
X98314285Y-135288095D01*
X98314285Y-138397619D02*
X98361904Y-138350000D01*
X98457142Y-138302380D01*
X98695238Y-138302380D01*
X98790476Y-138350000D01*
X98838095Y-138397619D01*
X98885714Y-138492857D01*
X98885714Y-138588095D01*
X98838095Y-138730952D01*
X98266666Y-139302380D01*
X98885714Y-139302380D01*
X98266666Y-141602380D02*
X98885714Y-141602380D01*
X98552380Y-141983333D01*
X98695238Y-141983333D01*
X98790476Y-142030952D01*
X98838095Y-142078571D01*
X98885714Y-142173809D01*
X98885714Y-142411904D01*
X98838095Y-142507142D01*
X98790476Y-142554761D01*
X98695238Y-142602380D01*
X98409523Y-142602380D01*
X98314285Y-142554761D01*
X98266666Y-142507142D01*
X102252380Y-147119047D02*
X101252380Y-147119047D01*
X101252380Y-146738095D01*
X101300000Y-146642857D01*
X101347619Y-146595238D01*
X101442857Y-146547619D01*
X101585714Y-146547619D01*
X101680952Y-146595238D01*
X101728571Y-146642857D01*
X101776190Y-146738095D01*
X101776190Y-147119047D01*
X102252380Y-146119047D02*
X101252380Y-146119047D01*
X101966666Y-145785714D01*
X101252380Y-145452380D01*
X102252380Y-145452380D01*
X102204761Y-145023809D02*
X102252380Y-144880952D01*
X102252380Y-144642857D01*
X102204761Y-144547619D01*
X102157142Y-144500000D01*
X102061904Y-144452380D01*
X101966666Y-144452380D01*
X101871428Y-144500000D01*
X101823809Y-144547619D01*
X101776190Y-144642857D01*
X101728571Y-144833333D01*
X101680952Y-144928571D01*
X101633333Y-144976190D01*
X101538095Y-145023809D01*
X101442857Y-145023809D01*
X101347619Y-144976190D01*
X101300000Y-144928571D01*
X101252380Y-144833333D01*
X101252380Y-144595238D01*
X101300000Y-144452380D01*
X102252380Y-143261904D02*
X101252380Y-143261904D01*
X101728571Y-143261904D02*
X101728571Y-142690476D01*
X102252380Y-142690476D02*
X101252380Y-142690476D01*
X102157142Y-141642857D02*
X102204761Y-141690476D01*
X102252380Y-141833333D01*
X102252380Y-141928571D01*
X102204761Y-142071428D01*
X102109523Y-142166666D01*
X102014285Y-142214285D01*
X101823809Y-142261904D01*
X101680952Y-142261904D01*
X101490476Y-142214285D01*
X101395238Y-142166666D01*
X101300000Y-142071428D01*
X101252380Y-141928571D01*
X101252380Y-141833333D01*
X101300000Y-141690476D01*
X101347619Y-141642857D01*
X102252380Y-140690476D02*
X102252380Y-141261904D01*
X102252380Y-140976190D02*
X101252380Y-140976190D01*
X101395238Y-141071428D01*
X101490476Y-141166666D01*
X101538095Y-141261904D01*
X101347619Y-140309523D02*
X101300000Y-140261904D01*
X101252380Y-140166666D01*
X101252380Y-139928571D01*
X101300000Y-139833333D01*
X101347619Y-139785714D01*
X101442857Y-139738095D01*
X101538095Y-139738095D01*
X101680952Y-139785714D01*
X102252380Y-140357142D01*
X102252380Y-139738095D01*
X101966666Y-138595238D02*
X101966666Y-138119047D01*
X102252380Y-138690476D02*
X101252380Y-138357142D01*
X102252380Y-138023809D01*
X102252380Y-137690476D02*
X101252380Y-137690476D01*
X101728571Y-137690476D02*
X101728571Y-137119047D01*
X102252380Y-137119047D02*
X101252380Y-137119047D01*
X101252380Y-136785714D02*
X101252380Y-136214285D01*
X102252380Y-136500000D02*
X101252380Y-136500000D01*
X102252380Y-135357142D02*
X102252380Y-135928571D01*
X102252380Y-135642857D02*
X101252380Y-135642857D01*
X101395238Y-135738095D01*
X101490476Y-135833333D01*
X101538095Y-135928571D01*
X101252380Y-134452380D02*
X101252380Y-134928571D01*
X101728571Y-134976190D01*
X101680952Y-134928571D01*
X101633333Y-134833333D01*
X101633333Y-134595238D01*
X101680952Y-134500000D01*
X101728571Y-134452380D01*
X101823809Y-134404761D01*
X102061904Y-134404761D01*
X102157142Y-134452380D01*
X102204761Y-134500000D01*
X102252380Y-134595238D01*
X102252380Y-134833333D01*
X102204761Y-134928571D01*
X102157142Y-134976190D01*
X102252380Y-132642857D02*
X101776190Y-132976190D01*
X102252380Y-133214285D02*
X101252380Y-133214285D01*
X101252380Y-132833333D01*
X101300000Y-132738095D01*
X101347619Y-132690476D01*
X101442857Y-132642857D01*
X101585714Y-132642857D01*
X101680952Y-132690476D01*
X101728571Y-132738095D01*
X101776190Y-132833333D01*
X101776190Y-133214285D01*
X102204761Y-132261904D02*
X102252380Y-132119047D01*
X102252380Y-131880952D01*
X102204761Y-131785714D01*
X102157142Y-131738095D01*
X102061904Y-131690476D01*
X101966666Y-131690476D01*
X101871428Y-131738095D01*
X101823809Y-131785714D01*
X101776190Y-131880952D01*
X101728571Y-132071428D01*
X101680952Y-132166666D01*
X101633333Y-132214285D01*
X101538095Y-132261904D01*
X101442857Y-132261904D01*
X101347619Y-132214285D01*
X101300000Y-132166666D01*
X101252380Y-132071428D01*
X101252380Y-131833333D01*
X101300000Y-131690476D01*
X101585714Y-130833333D02*
X102252380Y-130833333D01*
X101204761Y-131071428D02*
X101919047Y-131309523D01*
X101919047Y-130690476D01*
X101680952Y-130166666D02*
X101633333Y-130261904D01*
X101585714Y-130309523D01*
X101490476Y-130357142D01*
X101442857Y-130357142D01*
X101347619Y-130309523D01*
X101300000Y-130261904D01*
X101252380Y-130166666D01*
X101252380Y-129976190D01*
X101300000Y-129880952D01*
X101347619Y-129833333D01*
X101442857Y-129785714D01*
X101490476Y-129785714D01*
X101585714Y-129833333D01*
X101633333Y-129880952D01*
X101680952Y-129976190D01*
X101680952Y-130166666D01*
X101728571Y-130261904D01*
X101776190Y-130309523D01*
X101871428Y-130357142D01*
X102061904Y-130357142D01*
X102157142Y-130309523D01*
X102204761Y-130261904D01*
X102252380Y-130166666D01*
X102252380Y-129976190D01*
X102204761Y-129880952D01*
X102157142Y-129833333D01*
X102061904Y-129785714D01*
X101871428Y-129785714D01*
X101776190Y-129833333D01*
X101728571Y-129880952D01*
X101680952Y-129976190D01*
X101252380Y-128880952D02*
X101252380Y-129357142D01*
X101728571Y-129404761D01*
X101680952Y-129357142D01*
X101633333Y-129261904D01*
X101633333Y-129023809D01*
X101680952Y-128928571D01*
X101728571Y-128880952D01*
X101823809Y-128833333D01*
X102061904Y-128833333D01*
X102157142Y-128880952D01*
X102204761Y-128928571D01*
X102252380Y-129023809D01*
X102252380Y-129261904D01*
X102204761Y-129357142D01*
X102157142Y-129404761D01*
X58471428Y-99452380D02*
X57995238Y-99452380D01*
X57947619Y-99928571D01*
X57995238Y-99880952D01*
X58090476Y-99833333D01*
X58328571Y-99833333D01*
X58423809Y-99880952D01*
X58471428Y-99928571D01*
X58519047Y-100023809D01*
X58519047Y-100261904D01*
X58471428Y-100357142D01*
X58423809Y-100404761D01*
X58328571Y-100452380D01*
X58090476Y-100452380D01*
X57995238Y-100404761D01*
X57947619Y-100357142D01*
X58804761Y-99452380D02*
X59138095Y-100452380D01*
X59471428Y-99452380D01*
X61090476Y-99500000D02*
X60995238Y-99452380D01*
X60852380Y-99452380D01*
X60709523Y-99500000D01*
X60614285Y-99595238D01*
X60566666Y-99690476D01*
X60519047Y-99880952D01*
X60519047Y-100023809D01*
X60566666Y-100214285D01*
X60614285Y-100309523D01*
X60709523Y-100404761D01*
X60852380Y-100452380D01*
X60947619Y-100452380D01*
X61090476Y-100404761D01*
X61138095Y-100357142D01*
X61138095Y-100023809D01*
X60947619Y-100023809D01*
X61566666Y-100452380D02*
X61566666Y-99452380D01*
X62138095Y-100452380D01*
X62138095Y-99452380D01*
X62614285Y-100452380D02*
X62614285Y-99452380D01*
X62852380Y-99452380D01*
X62995238Y-99500000D01*
X63090476Y-99595238D01*
X63138095Y-99690476D01*
X63185714Y-99880952D01*
X63185714Y-100023809D01*
X63138095Y-100214285D01*
X63090476Y-100309523D01*
X62995238Y-100404761D01*
X62852380Y-100452380D01*
X62614285Y-100452380D01*
X64328571Y-100404761D02*
X64471428Y-100452380D01*
X64709523Y-100452380D01*
X64804761Y-100404761D01*
X64852380Y-100357142D01*
X64899999Y-100261904D01*
X64899999Y-100166666D01*
X64852380Y-100071428D01*
X64804761Y-100023809D01*
X64709523Y-99976190D01*
X64519047Y-99928571D01*
X64423809Y-99880952D01*
X64376190Y-99833333D01*
X64328571Y-99738095D01*
X64328571Y-99642857D01*
X64376190Y-99547619D01*
X64423809Y-99500000D01*
X64519047Y-99452380D01*
X64757142Y-99452380D01*
X64899999Y-99500000D01*
X65328571Y-99928571D02*
X65661904Y-99928571D01*
X65804761Y-100452380D02*
X65328571Y-100452380D01*
X65328571Y-99452380D01*
X65804761Y-99452380D01*
X66090476Y-99452380D02*
X66661904Y-99452380D01*
X66376190Y-100452380D02*
X66376190Y-99452380D01*
X68280952Y-99500000D02*
X68185714Y-99452380D01*
X68042857Y-99452380D01*
X67900000Y-99500000D01*
X67804761Y-99595238D01*
X67757142Y-99690476D01*
X67709523Y-99880952D01*
X67709523Y-100023809D01*
X67757142Y-100214285D01*
X67804761Y-100309523D01*
X67900000Y-100404761D01*
X68042857Y-100452380D01*
X68138095Y-100452380D01*
X68280952Y-100404761D01*
X68328571Y-100357142D01*
X68328571Y-100023809D01*
X68138095Y-100023809D01*
X68757142Y-100452380D02*
X68757142Y-99452380D01*
X69328571Y-100452380D01*
X69328571Y-99452380D01*
X69804761Y-100452380D02*
X69804761Y-99452380D01*
X70042857Y-99452380D01*
X70185714Y-99500000D01*
X70280952Y-99595238D01*
X70328571Y-99690476D01*
X70376190Y-99880952D01*
X70376190Y-100023809D01*
X70328571Y-100214285D01*
X70280952Y-100309523D01*
X70185714Y-100404761D01*
X70042857Y-100452380D01*
X69804761Y-100452380D01*
X72138095Y-100452380D02*
X71804761Y-99976190D01*
X71566666Y-100452380D02*
X71566666Y-99452380D01*
X71947619Y-99452380D01*
X72042857Y-99500000D01*
X72090476Y-99547619D01*
X72138095Y-99642857D01*
X72138095Y-99785714D01*
X72090476Y-99880952D01*
X72042857Y-99928571D01*
X71947619Y-99976190D01*
X71566666Y-99976190D01*
X72519047Y-100404761D02*
X72661904Y-100452380D01*
X72899999Y-100452380D01*
X72995238Y-100404761D01*
X73042857Y-100357142D01*
X73090476Y-100261904D01*
X73090476Y-100166666D01*
X73042857Y-100071428D01*
X72995238Y-100023809D01*
X72899999Y-99976190D01*
X72709523Y-99928571D01*
X72614285Y-99880952D01*
X72566666Y-99833333D01*
X72519047Y-99738095D01*
X72519047Y-99642857D01*
X72566666Y-99547619D01*
X72614285Y-99500000D01*
X72709523Y-99452380D01*
X72947619Y-99452380D01*
X73090476Y-99500000D01*
X73376190Y-99452380D02*
X73947619Y-99452380D01*
X73661904Y-100452380D02*
X73661904Y-99452380D01*
X74900000Y-99452380D02*
X75471428Y-99452380D01*
X75185714Y-100452380D02*
X75185714Y-99452380D01*
X75709523Y-99452380D02*
X76376190Y-100452380D01*
X76376190Y-99452380D02*
X75709523Y-100452380D01*
X78042857Y-99500000D02*
X77947619Y-99452380D01*
X77804761Y-99452380D01*
X77661904Y-99500000D01*
X77566666Y-99595238D01*
X77519047Y-99690476D01*
X77471428Y-99880952D01*
X77471428Y-100023809D01*
X77519047Y-100214285D01*
X77566666Y-100309523D01*
X77661904Y-100404761D01*
X77804761Y-100452380D01*
X77899999Y-100452380D01*
X78042857Y-100404761D01*
X78090476Y-100357142D01*
X78090476Y-100023809D01*
X77899999Y-100023809D01*
X78519047Y-100452380D02*
X78519047Y-99452380D01*
X79090476Y-100452380D01*
X79090476Y-99452380D01*
X79566666Y-100452380D02*
X79566666Y-99452380D01*
X79804761Y-99452380D01*
X79947619Y-99500000D01*
X80042857Y-99595238D01*
X80090476Y-99690476D01*
X80138095Y-99880952D01*
X80138095Y-100023809D01*
X80090476Y-100214285D01*
X80042857Y-100309523D01*
X79947619Y-100404761D01*
X79804761Y-100452380D01*
X79566666Y-100452380D01*
X81899999Y-100452380D02*
X81566666Y-99976190D01*
X81328571Y-100452380D02*
X81328571Y-99452380D01*
X81709523Y-99452380D01*
X81804761Y-99500000D01*
X81852380Y-99547619D01*
X81899999Y-99642857D01*
X81899999Y-99785714D01*
X81852380Y-99880952D01*
X81804761Y-99928571D01*
X81709523Y-99976190D01*
X81328571Y-99976190D01*
X82233333Y-99452380D02*
X82899999Y-100452380D01*
X82899999Y-99452380D02*
X82233333Y-100452380D01*
X16647619Y-143754761D02*
X16647619Y-141754761D01*
X17409523Y-141754761D01*
X17600000Y-141850000D01*
X17695238Y-141945238D01*
X17790476Y-142135714D01*
X17790476Y-142421428D01*
X17695238Y-142611904D01*
X17600000Y-142707142D01*
X17409523Y-142802380D01*
X16647619Y-142802380D01*
X19790476Y-143754761D02*
X19123809Y-142802380D01*
X18647619Y-143754761D02*
X18647619Y-141754761D01*
X19409523Y-141754761D01*
X19600000Y-141850000D01*
X19695238Y-141945238D01*
X19790476Y-142135714D01*
X19790476Y-142421428D01*
X19695238Y-142611904D01*
X19600000Y-142707142D01*
X19409523Y-142802380D01*
X18647619Y-142802380D01*
X21028571Y-141754761D02*
X21409523Y-141754761D01*
X21600000Y-141850000D01*
X21790476Y-142040476D01*
X21885714Y-142421428D01*
X21885714Y-143088095D01*
X21790476Y-143469047D01*
X21600000Y-143659523D01*
X21409523Y-143754761D01*
X21028571Y-143754761D01*
X20838095Y-143659523D01*
X20647619Y-143469047D01*
X20552380Y-143088095D01*
X20552380Y-142421428D01*
X20647619Y-142040476D01*
X20838095Y-141850000D01*
X21028571Y-141754761D01*
X23314285Y-141754761D02*
X23314285Y-143183333D01*
X23219047Y-143469047D01*
X23028571Y-143659523D01*
X22742857Y-143754761D01*
X22552380Y-143754761D01*
X24266666Y-142707142D02*
X24933333Y-142707142D01*
X25219047Y-143754761D02*
X24266666Y-143754761D01*
X24266666Y-141754761D01*
X25219047Y-141754761D01*
X26076190Y-143754761D02*
X26076190Y-141754761D01*
X27219047Y-143754761D02*
X26361904Y-142611904D01*
X27219047Y-141754761D02*
X26076190Y-142897619D01*
X27790476Y-141754761D02*
X28933333Y-141754761D01*
X28361904Y-143754761D02*
X28361904Y-141754761D01*
X31123809Y-143754761D02*
X31123809Y-141754761D01*
X32076190Y-143754761D02*
X32076190Y-141754761D01*
X33219047Y-143754761D01*
X33219047Y-141754761D01*
X33980952Y-141754761D02*
X35314285Y-141754761D01*
X33980952Y-143754761D01*
X35314285Y-143754761D01*
X36457142Y-142802380D02*
X36457142Y-143754761D01*
X35790476Y-141754761D02*
X36457142Y-142802380D01*
X37123809Y-141754761D01*
X37790476Y-143754761D02*
X37790476Y-141754761D01*
X38933333Y-143754761D01*
X38933333Y-141754761D01*
X39885714Y-143754761D02*
X39885714Y-141754761D01*
X40838095Y-142707142D02*
X41504761Y-142707142D01*
X41790476Y-143754761D02*
X40838095Y-143754761D01*
X40838095Y-141754761D01*
X41790476Y-141754761D01*
X43790476Y-143754761D02*
X43123809Y-142802380D01*
X42647619Y-143754761D02*
X42647619Y-141754761D01*
X43409523Y-141754761D01*
X43599999Y-141850000D01*
X43695238Y-141945238D01*
X43790476Y-142135714D01*
X43790476Y-142421428D01*
X43695238Y-142611904D01*
X43599999Y-142707142D01*
X43409523Y-142802380D01*
X42647619Y-142802380D01*
X44552380Y-143659523D02*
X44838095Y-143754761D01*
X45314285Y-143754761D01*
X45504761Y-143659523D01*
X45599999Y-143564285D01*
X45695238Y-143373809D01*
X45695238Y-143183333D01*
X45599999Y-142992857D01*
X45504761Y-142897619D01*
X45314285Y-142802380D01*
X44933333Y-142707142D01*
X44742857Y-142611904D01*
X44647619Y-142516666D01*
X44552380Y-142326190D01*
X44552380Y-142135714D01*
X44647619Y-141945238D01*
X44742857Y-141850000D01*
X44933333Y-141754761D01*
X45409523Y-141754761D01*
X45695238Y-141850000D01*
X46552380Y-143754761D02*
X46552380Y-141754761D01*
X47695238Y-143754761D02*
X46838095Y-142611904D01*
X47695238Y-141754761D02*
X46552380Y-142897619D01*
X48552380Y-143754761D02*
X48552380Y-141754761D01*
X14885714Y-146809523D02*
X15171428Y-146904761D01*
X15647619Y-146904761D01*
X15838095Y-146809523D01*
X15933333Y-146714285D01*
X16028571Y-146523809D01*
X16028571Y-146333333D01*
X15933333Y-146142857D01*
X15838095Y-146047619D01*
X15647619Y-145952380D01*
X15266666Y-145857142D01*
X15076190Y-145761904D01*
X14980952Y-145666666D01*
X14885714Y-145476190D01*
X14885714Y-145285714D01*
X14980952Y-145095238D01*
X15076190Y-145000000D01*
X15266666Y-144904761D01*
X15742857Y-144904761D01*
X16028571Y-145000000D01*
X16600000Y-144904761D02*
X17742857Y-144904761D01*
X17171428Y-146904761D02*
X17171428Y-144904761D01*
X18314285Y-146333333D02*
X19266666Y-146333333D01*
X18123809Y-146904761D02*
X18790476Y-144904761D01*
X19457142Y-146904761D01*
X21266666Y-146714285D02*
X21171428Y-146809523D01*
X20885714Y-146904761D01*
X20695238Y-146904761D01*
X20409523Y-146809523D01*
X20219047Y-146619047D01*
X20123809Y-146428571D01*
X20028571Y-146047619D01*
X20028571Y-145761904D01*
X20123809Y-145380952D01*
X20219047Y-145190476D01*
X20409523Y-145000000D01*
X20695238Y-144904761D01*
X20885714Y-144904761D01*
X21171428Y-145000000D01*
X21266666Y-145095238D01*
X22695238Y-144904761D02*
X22695238Y-146333333D01*
X22600000Y-146619047D01*
X22409523Y-146809523D01*
X22123809Y-146904761D01*
X21933333Y-146904761D01*
X23552380Y-146333333D02*
X24504761Y-146333333D01*
X23361904Y-146904761D02*
X24028571Y-144904761D01*
X24695238Y-146904761D01*
X26695238Y-144904761D02*
X28028571Y-144904761D01*
X26695238Y-146904761D01*
X28028571Y-146904761D01*
X28790476Y-145857142D02*
X29457142Y-145857142D01*
X29742857Y-146904761D02*
X28790476Y-146904761D01*
X28790476Y-144904761D01*
X29742857Y-144904761D01*
X30409523Y-144904761D02*
X30885714Y-146904761D01*
X31266666Y-145476190D01*
X31647619Y-146904761D01*
X32123809Y-144904761D01*
X32885714Y-146904761D02*
X32885714Y-144904761D01*
X34028571Y-146904761D01*
X34028571Y-144904761D01*
X34980952Y-145857142D02*
X35647619Y-145857142D01*
X35933333Y-146904761D02*
X34980952Y-146904761D01*
X34980952Y-144904761D01*
X35933333Y-144904761D01*
X36504761Y-144904761D02*
X37647619Y-144904761D01*
X37076190Y-146904761D02*
X37076190Y-144904761D01*
X39457142Y-146904761D02*
X38790476Y-145952380D01*
X38314285Y-146904761D02*
X38314285Y-144904761D01*
X39076190Y-144904761D01*
X39266666Y-145000000D01*
X39361904Y-145095238D01*
X39457142Y-145285714D01*
X39457142Y-145571428D01*
X39361904Y-145761904D01*
X39266666Y-145857142D01*
X39076190Y-145952380D01*
X38314285Y-145952380D01*
X40123809Y-144904761D02*
X41457142Y-144904761D01*
X40123809Y-146904761D01*
X41457142Y-146904761D01*
X42219047Y-146904761D02*
X42219047Y-144904761D01*
X43361904Y-146904761D01*
X43361904Y-144904761D01*
X44219047Y-146333333D02*
X45171428Y-146333333D01*
X44028571Y-146904761D02*
X44695238Y-144904761D01*
X45361904Y-146904761D01*
X47266666Y-144904761D02*
X47933333Y-146904761D01*
X48599999Y-144904761D01*
X50314285Y-146904761D02*
X49171428Y-146904761D01*
X49742857Y-146904761D02*
X49742857Y-144904761D01*
X49552380Y-145190476D01*
X49361904Y-145380952D01*
X49171428Y-145476190D01*
X17314285Y-150054761D02*
X17314285Y-148054761D01*
X17980952Y-149483333D01*
X18647619Y-148054761D01*
X18647619Y-150054761D01*
X19504761Y-149483333D02*
X20457142Y-149483333D01*
X19314285Y-150054761D02*
X19980952Y-148054761D01*
X20647619Y-150054761D01*
X22457142Y-150054761D02*
X21790476Y-149102380D01*
X21314285Y-150054761D02*
X21314285Y-148054761D01*
X22076190Y-148054761D01*
X22266666Y-148150000D01*
X22361904Y-148245238D01*
X22457142Y-148435714D01*
X22457142Y-148721428D01*
X22361904Y-148911904D01*
X22266666Y-149007142D01*
X22076190Y-149102380D01*
X21314285Y-149102380D01*
X24457142Y-149864285D02*
X24361904Y-149959523D01*
X24076190Y-150054761D01*
X23885714Y-150054761D01*
X23600000Y-149959523D01*
X23409523Y-149769047D01*
X23314285Y-149578571D01*
X23219047Y-149197619D01*
X23219047Y-148911904D01*
X23314285Y-148530952D01*
X23409523Y-148340476D01*
X23600000Y-148150000D01*
X23885714Y-148054761D01*
X24076190Y-148054761D01*
X24361904Y-148150000D01*
X24457142Y-148245238D01*
X25314285Y-150054761D02*
X25314285Y-148054761D01*
X26266666Y-150054761D02*
X26266666Y-148054761D01*
X27409523Y-150054761D01*
X27409523Y-148054761D01*
X29695238Y-148054761D02*
X30171428Y-150054761D01*
X30552380Y-148626190D01*
X30933333Y-150054761D01*
X31409523Y-148054761D01*
X32552380Y-148054761D02*
X32933333Y-148054761D01*
X33123809Y-148150000D01*
X33314285Y-148340476D01*
X33409523Y-148721428D01*
X33409523Y-149388095D01*
X33314285Y-149769047D01*
X33123809Y-149959523D01*
X32933333Y-150054761D01*
X32552380Y-150054761D01*
X32361904Y-149959523D01*
X32171428Y-149769047D01*
X32076190Y-149388095D01*
X32076190Y-148721428D01*
X32171428Y-148340476D01*
X32361904Y-148150000D01*
X32552380Y-148054761D01*
X34838095Y-148054761D02*
X34838095Y-149483333D01*
X34742857Y-149769047D01*
X34552380Y-149959523D01*
X34266666Y-150054761D01*
X34076190Y-150054761D01*
X35790476Y-149007142D02*
X36457142Y-149007142D01*
X36742857Y-150054761D02*
X35790476Y-150054761D01*
X35790476Y-148054761D01*
X36742857Y-148054761D01*
X37409523Y-148054761D02*
X37885714Y-150054761D01*
X38266666Y-148626190D01*
X38647619Y-150054761D01*
X39123809Y-148054761D01*
X40266666Y-148054761D02*
X40647619Y-148054761D01*
X40838095Y-148150000D01*
X41028571Y-148340476D01*
X41123809Y-148721428D01*
X41123809Y-149388095D01*
X41028571Y-149769047D01*
X40838095Y-149959523D01*
X40647619Y-150054761D01*
X40266666Y-150054761D01*
X40076190Y-149959523D01*
X39885714Y-149769047D01*
X39790476Y-149388095D01*
X39790476Y-148721428D01*
X39885714Y-148340476D01*
X40076190Y-148150000D01*
X40266666Y-148054761D01*
X41980952Y-150054761D02*
X41980952Y-148054761D01*
X42457142Y-148054761D01*
X42742857Y-148150000D01*
X42933333Y-148340476D01*
X43028571Y-148530952D01*
X43123809Y-148911904D01*
X43123809Y-149197619D01*
X43028571Y-149578571D01*
X42933333Y-149769047D01*
X42742857Y-149959523D01*
X42457142Y-150054761D01*
X41980952Y-150054761D01*
X43790476Y-148054761D02*
X45123809Y-148054761D01*
X43790476Y-150054761D01*
X45123809Y-150054761D01*
X45885714Y-150054761D02*
X45885714Y-148054761D01*
X47980952Y-149864285D02*
X47885714Y-149959523D01*
X47599999Y-150054761D01*
X47409523Y-150054761D01*
X47123809Y-149959523D01*
X46933333Y-149769047D01*
X46838095Y-149578571D01*
X46742857Y-149197619D01*
X46742857Y-148911904D01*
X46838095Y-148530952D01*
X46933333Y-148340476D01*
X47123809Y-148150000D01*
X47409523Y-148054761D01*
X47599999Y-148054761D01*
X47885714Y-148150000D01*
X47980952Y-148245238D01*
X65366666Y-108495238D02*
X65366666Y-108019047D01*
X65652380Y-108590476D02*
X64652380Y-108257142D01*
X65652380Y-107923809D01*
X65652380Y-107590476D02*
X64652380Y-107590476D01*
X65128571Y-107590476D02*
X65128571Y-107019047D01*
X65652380Y-107019047D02*
X64652380Y-107019047D01*
X64652380Y-106685714D02*
X64652380Y-106114285D01*
X65652380Y-106400000D02*
X64652380Y-106400000D01*
X65652380Y-105257142D02*
X65652380Y-105828571D01*
X65652380Y-105542857D02*
X64652380Y-105542857D01*
X64795238Y-105638095D01*
X64890476Y-105733333D01*
X64938095Y-105828571D01*
X64652380Y-104352380D02*
X64652380Y-104828571D01*
X65128571Y-104876190D01*
X65080952Y-104828571D01*
X65033333Y-104733333D01*
X65033333Y-104495238D01*
X65080952Y-104400000D01*
X65128571Y-104352380D01*
X65223809Y-104304761D01*
X65461904Y-104304761D01*
X65557142Y-104352380D01*
X65604761Y-104400000D01*
X65652380Y-104495238D01*
X65652380Y-104733333D01*
X65604761Y-104828571D01*
X65557142Y-104876190D01*
X63809523Y-104097619D02*
X64000000Y-103954761D01*
X64190476Y-104097619D01*
X64000000Y-106985714D02*
X64000000Y-105557142D01*
X64000000Y-108635714D02*
X64000000Y-107207142D01*
X31838095Y-88700000D02*
X31742857Y-88652380D01*
X31600000Y-88652380D01*
X31457142Y-88700000D01*
X31361904Y-88795238D01*
X31314285Y-88890476D01*
X31266666Y-89080952D01*
X31266666Y-89223809D01*
X31314285Y-89414285D01*
X31361904Y-89509523D01*
X31457142Y-89604761D01*
X31600000Y-89652380D01*
X31695238Y-89652380D01*
X31838095Y-89604761D01*
X31885714Y-89557142D01*
X31885714Y-89223809D01*
X31695238Y-89223809D01*
X32314285Y-89652380D02*
X32314285Y-88652380D01*
X32885714Y-89652380D01*
X32885714Y-88652380D01*
X33361904Y-89652380D02*
X33361904Y-88652380D01*
X33600000Y-88652380D01*
X33742857Y-88700000D01*
X33838095Y-88795238D01*
X33885714Y-88890476D01*
X33933333Y-89080952D01*
X33933333Y-89223809D01*
X33885714Y-89414285D01*
X33838095Y-89509523D01*
X33742857Y-89604761D01*
X33600000Y-89652380D01*
X33361904Y-89652380D01*
X87500000Y-87761904D02*
X87452380Y-87857142D01*
X87452380Y-88000000D01*
X87500000Y-88142857D01*
X87595238Y-88238095D01*
X87690476Y-88285714D01*
X87880952Y-88333333D01*
X88023809Y-88333333D01*
X88214285Y-88285714D01*
X88309523Y-88238095D01*
X88404761Y-88142857D01*
X88452380Y-88000000D01*
X88452380Y-87904761D01*
X88404761Y-87761904D01*
X88357142Y-87714285D01*
X88023809Y-87714285D01*
X88023809Y-87904761D01*
X88452380Y-87285714D02*
X87452380Y-87285714D01*
X88452380Y-86714285D01*
X87452380Y-86714285D01*
X88452380Y-86238095D02*
X87452380Y-86238095D01*
X87452380Y-86000000D01*
X87500000Y-85857142D01*
X87595238Y-85761904D01*
X87690476Y-85714285D01*
X87880952Y-85666666D01*
X88023809Y-85666666D01*
X88214285Y-85714285D01*
X88309523Y-85761904D01*
X88404761Y-85857142D01*
X88452380Y-86000000D01*
X88452380Y-86238095D01*
X56438095Y-135300000D02*
X56342857Y-135252380D01*
X56200000Y-135252380D01*
X56057142Y-135300000D01*
X55961904Y-135395238D01*
X55914285Y-135490476D01*
X55866666Y-135680952D01*
X55866666Y-135823809D01*
X55914285Y-136014285D01*
X55961904Y-136109523D01*
X56057142Y-136204761D01*
X56200000Y-136252380D01*
X56295238Y-136252380D01*
X56438095Y-136204761D01*
X56485714Y-136157142D01*
X56485714Y-135823809D01*
X56295238Y-135823809D01*
X56914285Y-136252380D02*
X56914285Y-135252380D01*
X57485714Y-136252380D01*
X57485714Y-135252380D01*
X57961904Y-136252380D02*
X57961904Y-135252380D01*
X58200000Y-135252380D01*
X58342857Y-135300000D01*
X58438095Y-135395238D01*
X58485714Y-135490476D01*
X58533333Y-135680952D01*
X58533333Y-135823809D01*
X58485714Y-136014285D01*
X58438095Y-136109523D01*
X58342857Y-136204761D01*
X58200000Y-136252380D01*
X57961904Y-136252380D01*
X18438095Y-137500000D02*
X18342857Y-137452380D01*
X18200000Y-137452380D01*
X18057142Y-137500000D01*
X17961904Y-137595238D01*
X17914285Y-137690476D01*
X17866666Y-137880952D01*
X17866666Y-138023809D01*
X17914285Y-138214285D01*
X17961904Y-138309523D01*
X18057142Y-138404761D01*
X18200000Y-138452380D01*
X18295238Y-138452380D01*
X18438095Y-138404761D01*
X18485714Y-138357142D01*
X18485714Y-138023809D01*
X18295238Y-138023809D01*
X18914285Y-138452380D02*
X18914285Y-137452380D01*
X19485714Y-138452380D01*
X19485714Y-137452380D01*
X19961904Y-138452380D02*
X19961904Y-137452380D01*
X20200000Y-137452380D01*
X20342857Y-137500000D01*
X20438095Y-137595238D01*
X20485714Y-137690476D01*
X20533333Y-137880952D01*
X20533333Y-138023809D01*
X20485714Y-138214285D01*
X20438095Y-138309523D01*
X20342857Y-138404761D01*
X20200000Y-138452380D01*
X19961904Y-138452380D01*
X57027380Y-129266666D02*
X56551190Y-129600000D01*
X57027380Y-129838095D02*
X56027380Y-129838095D01*
X56027380Y-129457142D01*
X56075000Y-129361904D01*
X56122619Y-129314285D01*
X56217857Y-129266666D01*
X56360714Y-129266666D01*
X56455952Y-129314285D01*
X56503571Y-129361904D01*
X56551190Y-129457142D01*
X56551190Y-129838095D01*
X56979761Y-128885714D02*
X57027380Y-128742857D01*
X57027380Y-128504761D01*
X56979761Y-128409523D01*
X56932142Y-128361904D01*
X56836904Y-128314285D01*
X56741666Y-128314285D01*
X56646428Y-128361904D01*
X56598809Y-128409523D01*
X56551190Y-128504761D01*
X56503571Y-128695238D01*
X56455952Y-128790476D01*
X56408333Y-128838095D01*
X56313095Y-128885714D01*
X56217857Y-128885714D01*
X56122619Y-128838095D01*
X56075000Y-128790476D01*
X56027380Y-128695238D01*
X56027380Y-128457142D01*
X56075000Y-128314285D01*
X56360714Y-127457142D02*
X57027380Y-127457142D01*
X55979761Y-127695238D02*
X56694047Y-127933333D01*
X56694047Y-127314285D01*
X56455952Y-126790476D02*
X56408333Y-126885714D01*
X56360714Y-126933333D01*
X56265476Y-126980952D01*
X56217857Y-126980952D01*
X56122619Y-126933333D01*
X56075000Y-126885714D01*
X56027380Y-126790476D01*
X56027380Y-126600000D01*
X56075000Y-126504761D01*
X56122619Y-126457142D01*
X56217857Y-126409523D01*
X56265476Y-126409523D01*
X56360714Y-126457142D01*
X56408333Y-126504761D01*
X56455952Y-126600000D01*
X56455952Y-126790476D01*
X56503571Y-126885714D01*
X56551190Y-126933333D01*
X56646428Y-126980952D01*
X56836904Y-126980952D01*
X56932142Y-126933333D01*
X56979761Y-126885714D01*
X57027380Y-126790476D01*
X57027380Y-126600000D01*
X56979761Y-126504761D01*
X56932142Y-126457142D01*
X56836904Y-126409523D01*
X56646428Y-126409523D01*
X56551190Y-126457142D01*
X56503571Y-126504761D01*
X56455952Y-126600000D01*
X56027380Y-125504761D02*
X56027380Y-125980952D01*
X56503571Y-126028571D01*
X56455952Y-125980952D01*
X56408333Y-125885714D01*
X56408333Y-125647619D01*
X56455952Y-125552380D01*
X56503571Y-125504761D01*
X56598809Y-125457142D01*
X56836904Y-125457142D01*
X56932142Y-125504761D01*
X56979761Y-125552380D01*
X57027380Y-125647619D01*
X57027380Y-125885714D01*
X56979761Y-125980952D01*
X56932142Y-126028571D01*
X56027380Y-124409523D02*
X56027380Y-123838095D01*
X57027380Y-124123809D02*
X56027380Y-124123809D01*
X56503571Y-123504761D02*
X56503571Y-123171428D01*
X57027380Y-123028571D02*
X57027380Y-123504761D01*
X56027380Y-123504761D01*
X56027380Y-123028571D01*
X56979761Y-122647619D02*
X57027380Y-122504761D01*
X57027380Y-122266666D01*
X56979761Y-122171428D01*
X56932142Y-122123809D01*
X56836904Y-122076190D01*
X56741666Y-122076190D01*
X56646428Y-122123809D01*
X56598809Y-122171428D01*
X56551190Y-122266666D01*
X56503571Y-122457142D01*
X56455952Y-122552380D01*
X56408333Y-122600000D01*
X56313095Y-122647619D01*
X56217857Y-122647619D01*
X56122619Y-122600000D01*
X56075000Y-122552380D01*
X56027380Y-122457142D01*
X56027380Y-122219047D01*
X56075000Y-122076190D01*
X56027380Y-121790476D02*
X56027380Y-121219047D01*
X57027380Y-121504761D02*
X56027380Y-121504761D01*
X58677380Y-127004761D02*
X58201190Y-127338095D01*
X58677380Y-127576190D02*
X57677380Y-127576190D01*
X57677380Y-127195238D01*
X57725000Y-127100000D01*
X57772619Y-127052380D01*
X57867857Y-127004761D01*
X58010714Y-127004761D01*
X58105952Y-127052380D01*
X58153571Y-127100000D01*
X58201190Y-127195238D01*
X58201190Y-127576190D01*
X57677380Y-126671428D02*
X58677380Y-126004761D01*
X57677380Y-126004761D02*
X58677380Y-126671428D01*
X57677380Y-125004761D02*
X57677380Y-124433333D01*
X58677380Y-124719047D02*
X57677380Y-124719047D01*
X57677380Y-124195238D02*
X58677380Y-123528571D01*
X57677380Y-123528571D02*
X58677380Y-124195238D01*
X82390476Y-97852380D02*
X82390476Y-96852380D01*
X82628571Y-96852380D01*
X82771428Y-96900000D01*
X82866666Y-96995238D01*
X82914285Y-97090476D01*
X82961904Y-97280952D01*
X82961904Y-97423809D01*
X82914285Y-97614285D01*
X82866666Y-97709523D01*
X82771428Y-97804761D01*
X82628571Y-97852380D01*
X82390476Y-97852380D01*
X83342857Y-97804761D02*
X83485714Y-97852380D01*
X83723809Y-97852380D01*
X83819047Y-97804761D01*
X83866666Y-97757142D01*
X83914285Y-97661904D01*
X83914285Y-97566666D01*
X83866666Y-97471428D01*
X83819047Y-97423809D01*
X83723809Y-97376190D01*
X83533333Y-97328571D01*
X83438095Y-97280952D01*
X83390476Y-97233333D01*
X83342857Y-97138095D01*
X83342857Y-97042857D01*
X83390476Y-96947619D01*
X83438095Y-96900000D01*
X83533333Y-96852380D01*
X83771428Y-96852380D01*
X83914285Y-96900000D01*
X84961904Y-96852380D02*
X85533333Y-96852380D01*
X85247619Y-97852380D02*
X85247619Y-96852380D01*
X85866666Y-97328571D02*
X86200000Y-97328571D01*
X86342857Y-97852380D02*
X85866666Y-97852380D01*
X85866666Y-96852380D01*
X86342857Y-96852380D01*
X86723809Y-97804761D02*
X86866666Y-97852380D01*
X87104761Y-97852380D01*
X87200000Y-97804761D01*
X87247619Y-97757142D01*
X87295238Y-97661904D01*
X87295238Y-97566666D01*
X87247619Y-97471428D01*
X87200000Y-97423809D01*
X87104761Y-97376190D01*
X86914285Y-97328571D01*
X86819047Y-97280952D01*
X86771428Y-97233333D01*
X86723809Y-97138095D01*
X86723809Y-97042857D01*
X86771428Y-96947619D01*
X86819047Y-96900000D01*
X86914285Y-96852380D01*
X87152380Y-96852380D01*
X87295238Y-96900000D01*
X87580952Y-96852380D02*
X88152380Y-96852380D01*
X87866666Y-97852380D02*
X87866666Y-96852380D01*
X96977380Y-112071428D02*
X97691666Y-112071428D01*
X97834523Y-112119047D01*
X97929761Y-112214285D01*
X97977380Y-112357142D01*
X97977380Y-112452380D01*
X96977380Y-111690476D02*
X96977380Y-111071428D01*
X97358333Y-111404761D01*
X97358333Y-111261904D01*
X97405952Y-111166666D01*
X97453571Y-111119047D01*
X97548809Y-111071428D01*
X97786904Y-111071428D01*
X97882142Y-111119047D01*
X97929761Y-111166666D01*
X97977380Y-111261904D01*
X97977380Y-111547619D01*
X97929761Y-111642857D01*
X97882142Y-111690476D01*
X97977380Y-109880952D02*
X96977380Y-109880952D01*
X96977380Y-109500000D01*
X97025000Y-109404761D01*
X97072619Y-109357142D01*
X97167857Y-109309523D01*
X97310714Y-109309523D01*
X97405952Y-109357142D01*
X97453571Y-109404761D01*
X97501190Y-109500000D01*
X97501190Y-109880952D01*
X97977380Y-108309523D02*
X97501190Y-108642857D01*
X97977380Y-108880952D02*
X96977380Y-108880952D01*
X96977380Y-108500000D01*
X97025000Y-108404761D01*
X97072619Y-108357142D01*
X97167857Y-108309523D01*
X97310714Y-108309523D01*
X97405952Y-108357142D01*
X97453571Y-108404761D01*
X97501190Y-108500000D01*
X97501190Y-108880952D01*
X96977380Y-107690476D02*
X96977380Y-107500000D01*
X97025000Y-107404761D01*
X97120238Y-107309523D01*
X97310714Y-107261904D01*
X97644047Y-107261904D01*
X97834523Y-107309523D01*
X97929761Y-107404761D01*
X97977380Y-107500000D01*
X97977380Y-107690476D01*
X97929761Y-107785714D01*
X97834523Y-107880952D01*
X97644047Y-107928571D01*
X97310714Y-107928571D01*
X97120238Y-107880952D01*
X97025000Y-107785714D01*
X96977380Y-107690476D01*
X97025000Y-106309523D02*
X96977380Y-106404761D01*
X96977380Y-106547619D01*
X97025000Y-106690476D01*
X97120238Y-106785714D01*
X97215476Y-106833333D01*
X97405952Y-106880952D01*
X97548809Y-106880952D01*
X97739285Y-106833333D01*
X97834523Y-106785714D01*
X97929761Y-106690476D01*
X97977380Y-106547619D01*
X97977380Y-106452380D01*
X97929761Y-106309523D01*
X97882142Y-106261904D01*
X97548809Y-106261904D01*
X97548809Y-106452380D01*
X97977380Y-105261904D02*
X97501190Y-105595238D01*
X97977380Y-105833333D02*
X96977380Y-105833333D01*
X96977380Y-105452380D01*
X97025000Y-105357142D01*
X97072619Y-105309523D01*
X97167857Y-105261904D01*
X97310714Y-105261904D01*
X97405952Y-105309523D01*
X97453571Y-105357142D01*
X97501190Y-105452380D01*
X97501190Y-105833333D01*
X97691666Y-104880952D02*
X97691666Y-104404761D01*
X97977380Y-104976190D02*
X96977380Y-104642857D01*
X97977380Y-104309523D01*
X97977380Y-103976190D02*
X96977380Y-103976190D01*
X97691666Y-103642857D01*
X96977380Y-103309523D01*
X97977380Y-103309523D01*
X97691666Y-102880952D02*
X97691666Y-102404761D01*
X97977380Y-102976190D02*
X96977380Y-102642857D01*
X97977380Y-102309523D01*
X96977380Y-102119047D02*
X96977380Y-101547619D01*
X97977380Y-101833333D02*
X96977380Y-101833333D01*
X96977380Y-101023809D02*
X96977380Y-100833333D01*
X97025000Y-100738095D01*
X97120238Y-100642857D01*
X97310714Y-100595238D01*
X97644047Y-100595238D01*
X97834523Y-100642857D01*
X97929761Y-100738095D01*
X97977380Y-100833333D01*
X97977380Y-101023809D01*
X97929761Y-101119047D01*
X97834523Y-101214285D01*
X97644047Y-101261904D01*
X97310714Y-101261904D01*
X97120238Y-101214285D01*
X97025000Y-101119047D01*
X96977380Y-101023809D01*
X97977380Y-99595238D02*
X97501190Y-99928571D01*
X97977380Y-100166666D02*
X96977380Y-100166666D01*
X96977380Y-99785714D01*
X97025000Y-99690476D01*
X97072619Y-99642857D01*
X97167857Y-99595238D01*
X97310714Y-99595238D01*
X97405952Y-99642857D01*
X97453571Y-99690476D01*
X97501190Y-99785714D01*
X97501190Y-100166666D01*
X99627380Y-115261904D02*
X99151190Y-115595238D01*
X99627380Y-115833333D02*
X98627380Y-115833333D01*
X98627380Y-115452380D01*
X98675000Y-115357142D01*
X98722619Y-115309523D01*
X98817857Y-115261904D01*
X98960714Y-115261904D01*
X99055952Y-115309523D01*
X99103571Y-115357142D01*
X99151190Y-115452380D01*
X99151190Y-115833333D01*
X99579761Y-114880952D02*
X99627380Y-114738095D01*
X99627380Y-114500000D01*
X99579761Y-114404761D01*
X99532142Y-114357142D01*
X99436904Y-114309523D01*
X99341666Y-114309523D01*
X99246428Y-114357142D01*
X99198809Y-114404761D01*
X99151190Y-114500000D01*
X99103571Y-114690476D01*
X99055952Y-114785714D01*
X99008333Y-114833333D01*
X98913095Y-114880952D01*
X98817857Y-114880952D01*
X98722619Y-114833333D01*
X98675000Y-114785714D01*
X98627380Y-114690476D01*
X98627380Y-114452380D01*
X98675000Y-114309523D01*
X98627380Y-114023809D02*
X98627380Y-113452380D01*
X99627380Y-113738095D02*
X98627380Y-113738095D01*
X99579761Y-112404761D02*
X99627380Y-112261904D01*
X99627380Y-112023809D01*
X99579761Y-111928571D01*
X99532142Y-111880952D01*
X99436904Y-111833333D01*
X99341666Y-111833333D01*
X99246428Y-111880952D01*
X99198809Y-111928571D01*
X99151190Y-112023809D01*
X99103571Y-112214285D01*
X99055952Y-112309523D01*
X99008333Y-112357142D01*
X98913095Y-112404761D01*
X98817857Y-112404761D01*
X98722619Y-112357142D01*
X98675000Y-112309523D01*
X98627380Y-112214285D01*
X98627380Y-111976190D01*
X98675000Y-111833333D01*
X98627380Y-111500000D02*
X99627380Y-111261904D01*
X98913095Y-111071428D01*
X99627380Y-110880952D01*
X98627380Y-110642857D01*
X99627380Y-110261904D02*
X98627380Y-110261904D01*
X98627380Y-110023809D01*
X98675000Y-109880952D01*
X98770238Y-109785714D01*
X98865476Y-109738095D01*
X99055952Y-109690476D01*
X99198809Y-109690476D01*
X99389285Y-109738095D01*
X99484523Y-109785714D01*
X99579761Y-109880952D01*
X99627380Y-110023809D01*
X99627380Y-110261904D01*
X99627380Y-109261904D02*
X98627380Y-109261904D01*
X98627380Y-108595238D02*
X98627380Y-108404761D01*
X98675000Y-108309523D01*
X98770238Y-108214285D01*
X98960714Y-108166666D01*
X99294047Y-108166666D01*
X99484523Y-108214285D01*
X99579761Y-108309523D01*
X99627380Y-108404761D01*
X99627380Y-108595238D01*
X99579761Y-108690476D01*
X99484523Y-108785714D01*
X99294047Y-108833333D01*
X98960714Y-108833333D01*
X98770238Y-108785714D01*
X98675000Y-108690476D01*
X98627380Y-108595238D01*
X99579761Y-107023809D02*
X99627380Y-106880952D01*
X99627380Y-106642857D01*
X99579761Y-106547619D01*
X99532142Y-106500000D01*
X99436904Y-106452380D01*
X99341666Y-106452380D01*
X99246428Y-106500000D01*
X99198809Y-106547619D01*
X99151190Y-106642857D01*
X99103571Y-106833333D01*
X99055952Y-106928571D01*
X99008333Y-106976190D01*
X98913095Y-107023809D01*
X98817857Y-107023809D01*
X98722619Y-106976190D01*
X98675000Y-106928571D01*
X98627380Y-106833333D01*
X98627380Y-106595238D01*
X98675000Y-106452380D01*
X98627380Y-106119047D02*
X99627380Y-105880952D01*
X98913095Y-105690476D01*
X99627380Y-105500000D01*
X98627380Y-105261904D01*
X99532142Y-104309523D02*
X99579761Y-104357142D01*
X99627380Y-104500000D01*
X99627380Y-104595238D01*
X99579761Y-104738095D01*
X99484523Y-104833333D01*
X99389285Y-104880952D01*
X99198809Y-104928571D01*
X99055952Y-104928571D01*
X98865476Y-104880952D01*
X98770238Y-104833333D01*
X98675000Y-104738095D01*
X98627380Y-104595238D01*
X98627380Y-104500000D01*
X98675000Y-104357142D01*
X98722619Y-104309523D01*
X99627380Y-103404761D02*
X99627380Y-103880952D01*
X98627380Y-103880952D01*
X99627380Y-103071428D02*
X98627380Y-103071428D01*
X99627380Y-102500000D02*
X99055952Y-102928571D01*
X98627380Y-102500000D02*
X99198809Y-103071428D01*
X98627380Y-100833333D02*
X98627380Y-101309523D01*
X99103571Y-101357142D01*
X99055952Y-101309523D01*
X99008333Y-101214285D01*
X99008333Y-100976190D01*
X99055952Y-100880952D01*
X99103571Y-100833333D01*
X99198809Y-100785714D01*
X99436904Y-100785714D01*
X99532142Y-100833333D01*
X99579761Y-100880952D01*
X99627380Y-100976190D01*
X99627380Y-101214285D01*
X99579761Y-101309523D01*
X99532142Y-101357142D01*
X98627380Y-100500000D02*
X99627380Y-100166666D01*
X98627380Y-99833333D01*
X98675000Y-98214285D02*
X98627380Y-98309523D01*
X98627380Y-98452380D01*
X98675000Y-98595238D01*
X98770238Y-98690476D01*
X98865476Y-98738095D01*
X99055952Y-98785714D01*
X99198809Y-98785714D01*
X99389285Y-98738095D01*
X99484523Y-98690476D01*
X99579761Y-98595238D01*
X99627380Y-98452380D01*
X99627380Y-98357142D01*
X99579761Y-98214285D01*
X99532142Y-98166666D01*
X99198809Y-98166666D01*
X99198809Y-98357142D01*
X99627380Y-97738095D02*
X98627380Y-97738095D01*
X99627380Y-97166666D01*
X98627380Y-97166666D01*
X99627380Y-96690476D02*
X98627380Y-96690476D01*
X98627380Y-96452380D01*
X98675000Y-96309523D01*
X98770238Y-96214285D01*
X98865476Y-96166666D01*
X99055952Y-96119047D01*
X99198809Y-96119047D01*
X99389285Y-96166666D01*
X99484523Y-96214285D01*
X99579761Y-96309523D01*
X99627380Y-96452380D01*
X99627380Y-96690476D01*
X100277380Y-111238095D02*
X100991666Y-111238095D01*
X101134523Y-111285714D01*
X101229761Y-111380952D01*
X101277380Y-111523809D01*
X101277380Y-111619047D01*
X101277380Y-110238095D02*
X101277380Y-110809523D01*
X101277380Y-110523809D02*
X100277380Y-110523809D01*
X100420238Y-110619047D01*
X100515476Y-110714285D01*
X100563095Y-110809523D01*
X100705952Y-109666666D02*
X100658333Y-109761904D01*
X100610714Y-109809523D01*
X100515476Y-109857142D01*
X100467857Y-109857142D01*
X100372619Y-109809523D01*
X100325000Y-109761904D01*
X100277380Y-109666666D01*
X100277380Y-109476190D01*
X100325000Y-109380952D01*
X100372619Y-109333333D01*
X100467857Y-109285714D01*
X100515476Y-109285714D01*
X100610714Y-109333333D01*
X100658333Y-109380952D01*
X100705952Y-109476190D01*
X100705952Y-109666666D01*
X100753571Y-109761904D01*
X100801190Y-109809523D01*
X100896428Y-109857142D01*
X101086904Y-109857142D01*
X101182142Y-109809523D01*
X101229761Y-109761904D01*
X101277380Y-109666666D01*
X101277380Y-109476190D01*
X101229761Y-109380952D01*
X101182142Y-109333333D01*
X101086904Y-109285714D01*
X100896428Y-109285714D01*
X100801190Y-109333333D01*
X100753571Y-109380952D01*
X100705952Y-109476190D01*
X101277380Y-108095238D02*
X100277380Y-108095238D01*
X100753571Y-108095238D02*
X100753571Y-107523809D01*
X101277380Y-107523809D02*
X100277380Y-107523809D01*
X101182142Y-106476190D02*
X101229761Y-106523809D01*
X101277380Y-106666666D01*
X101277380Y-106761904D01*
X101229761Y-106904761D01*
X101134523Y-107000000D01*
X101039285Y-107047619D01*
X100848809Y-107095238D01*
X100705952Y-107095238D01*
X100515476Y-107047619D01*
X100420238Y-107000000D01*
X100325000Y-106904761D01*
X100277380Y-106761904D01*
X100277380Y-106666666D01*
X100325000Y-106523809D01*
X100372619Y-106476190D01*
X101277380Y-105523809D02*
X101277380Y-106095238D01*
X101277380Y-105809523D02*
X100277380Y-105809523D01*
X100420238Y-105904761D01*
X100515476Y-106000000D01*
X100563095Y-106095238D01*
X100372619Y-105142857D02*
X100325000Y-105095238D01*
X100277380Y-105000000D01*
X100277380Y-104761904D01*
X100325000Y-104666666D01*
X100372619Y-104619047D01*
X100467857Y-104571428D01*
X100563095Y-104571428D01*
X100705952Y-104619047D01*
X101277380Y-105190476D01*
X101277380Y-104571428D01*
X100277380Y-103523809D02*
X100277380Y-102952380D01*
X101277380Y-103238095D02*
X100277380Y-103238095D01*
X100753571Y-102619047D02*
X100753571Y-102285714D01*
X101277380Y-102142857D02*
X101277380Y-102619047D01*
X100277380Y-102619047D01*
X100277380Y-102142857D01*
X101229761Y-101761904D02*
X101277380Y-101619047D01*
X101277380Y-101380952D01*
X101229761Y-101285714D01*
X101182142Y-101238095D01*
X101086904Y-101190476D01*
X100991666Y-101190476D01*
X100896428Y-101238095D01*
X100848809Y-101285714D01*
X100801190Y-101380952D01*
X100753571Y-101571428D01*
X100705952Y-101666666D01*
X100658333Y-101714285D01*
X100563095Y-101761904D01*
X100467857Y-101761904D01*
X100372619Y-101714285D01*
X100325000Y-101666666D01*
X100277380Y-101571428D01*
X100277380Y-101333333D01*
X100325000Y-101190476D01*
X100277380Y-100904761D02*
X100277380Y-100333333D01*
X101277380Y-100619047D02*
X100277380Y-100619047D01*
X102927380Y-107404761D02*
X102451190Y-107738095D01*
X102927380Y-107976190D02*
X101927380Y-107976190D01*
X101927380Y-107595238D01*
X101975000Y-107500000D01*
X102022619Y-107452380D01*
X102117857Y-107404761D01*
X102260714Y-107404761D01*
X102355952Y-107452380D01*
X102403571Y-107500000D01*
X102451190Y-107595238D01*
X102451190Y-107976190D01*
X101927380Y-107071428D02*
X102927380Y-106404761D01*
X101927380Y-106404761D02*
X102927380Y-107071428D01*
X101927380Y-105404761D02*
X101927380Y-104833333D01*
X102927380Y-105119047D02*
X101927380Y-105119047D01*
X101927380Y-104595238D02*
X102927380Y-103928571D01*
X101927380Y-103928571D02*
X102927380Y-104595238D01*
X75052380Y-93180952D02*
X74052380Y-93180952D01*
X74052380Y-92800000D01*
X74100000Y-92704761D01*
X74147619Y-92657142D01*
X74242857Y-92609523D01*
X74385714Y-92609523D01*
X74480952Y-92657142D01*
X74528571Y-92704761D01*
X74576190Y-92800000D01*
X74576190Y-93180952D01*
X75052380Y-92180952D02*
X74052380Y-92180952D01*
X74766666Y-91847619D01*
X74052380Y-91514285D01*
X75052380Y-91514285D01*
X75004761Y-91085714D02*
X75052380Y-90942857D01*
X75052380Y-90704761D01*
X75004761Y-90609523D01*
X74957142Y-90561904D01*
X74861904Y-90514285D01*
X74766666Y-90514285D01*
X74671428Y-90561904D01*
X74623809Y-90609523D01*
X74576190Y-90704761D01*
X74528571Y-90895238D01*
X74480952Y-90990476D01*
X74433333Y-91038095D01*
X74338095Y-91085714D01*
X74242857Y-91085714D01*
X74147619Y-91038095D01*
X74100000Y-90990476D01*
X74052380Y-90895238D01*
X74052380Y-90657142D01*
X74100000Y-90514285D01*
X74052380Y-89466666D02*
X74052380Y-88895238D01*
X75052380Y-89180952D02*
X74052380Y-89180952D01*
X74528571Y-88561904D02*
X74528571Y-88228571D01*
X75052380Y-88085714D02*
X75052380Y-88561904D01*
X74052380Y-88561904D01*
X74052380Y-88085714D01*
X75004761Y-87704761D02*
X75052380Y-87561904D01*
X75052380Y-87323809D01*
X75004761Y-87228571D01*
X74957142Y-87180952D01*
X74861904Y-87133333D01*
X74766666Y-87133333D01*
X74671428Y-87180952D01*
X74623809Y-87228571D01*
X74576190Y-87323809D01*
X74528571Y-87514285D01*
X74480952Y-87609523D01*
X74433333Y-87657142D01*
X74338095Y-87704761D01*
X74242857Y-87704761D01*
X74147619Y-87657142D01*
X74100000Y-87609523D01*
X74052380Y-87514285D01*
X74052380Y-87276190D01*
X74100000Y-87133333D01*
X74052380Y-86847619D02*
X74052380Y-86276190D01*
X75052380Y-86561904D02*
X74052380Y-86561904D01*
X81433333Y-86852380D02*
X81100000Y-86376190D01*
X80861904Y-86852380D02*
X80861904Y-85852380D01*
X81242857Y-85852380D01*
X81338095Y-85900000D01*
X81385714Y-85947619D01*
X81433333Y-86042857D01*
X81433333Y-86185714D01*
X81385714Y-86280952D01*
X81338095Y-86328571D01*
X81242857Y-86376190D01*
X80861904Y-86376190D01*
X81766666Y-85852380D02*
X82433333Y-86852380D01*
X82433333Y-85852380D02*
X81766666Y-86852380D01*
X78038095Y-85852380D02*
X78609523Y-85852380D01*
X78323809Y-86852380D02*
X78323809Y-85852380D01*
X78847619Y-85852380D02*
X79514285Y-86852380D01*
X79514285Y-85852380D02*
X78847619Y-86852380D01*
X37604761Y-96014285D02*
X37652380Y-95871428D01*
X37652380Y-95633333D01*
X37604761Y-95538095D01*
X37557142Y-95490476D01*
X37461904Y-95442857D01*
X37366666Y-95442857D01*
X37271428Y-95490476D01*
X37223809Y-95538095D01*
X37176190Y-95633333D01*
X37128571Y-95823809D01*
X37080952Y-95919047D01*
X37033333Y-95966666D01*
X36938095Y-96014285D01*
X36842857Y-96014285D01*
X36747619Y-95966666D01*
X36700000Y-95919047D01*
X36652380Y-95823809D01*
X36652380Y-95585714D01*
X36700000Y-95442857D01*
X37652380Y-95014285D02*
X36652380Y-95014285D01*
X36652380Y-94776190D01*
X36700000Y-94633333D01*
X36795238Y-94538095D01*
X36890476Y-94490476D01*
X37080952Y-94442857D01*
X37223809Y-94442857D01*
X37414285Y-94490476D01*
X37509523Y-94538095D01*
X37604761Y-94633333D01*
X37652380Y-94776190D01*
X37652380Y-95014285D01*
X37366666Y-94061904D02*
X37366666Y-93585714D01*
X37652380Y-94157142D02*
X36652380Y-93823809D01*
X37652380Y-93490476D01*
X37604761Y-92990476D02*
X37652380Y-92847619D01*
X37652380Y-92609523D01*
X37604761Y-92514285D01*
X37557142Y-92466666D01*
X37461904Y-92419047D01*
X37366666Y-92419047D01*
X37271428Y-92466666D01*
X37223809Y-92514285D01*
X37176190Y-92609523D01*
X37128571Y-92800000D01*
X37080952Y-92895238D01*
X37033333Y-92942857D01*
X36938095Y-92990476D01*
X36842857Y-92990476D01*
X36747619Y-92942857D01*
X36700000Y-92895238D01*
X36652380Y-92800000D01*
X36652380Y-92561904D01*
X36700000Y-92419047D01*
X37557142Y-91419047D02*
X37604761Y-91466666D01*
X37652380Y-91609523D01*
X37652380Y-91704761D01*
X37604761Y-91847619D01*
X37509523Y-91942857D01*
X37414285Y-91990476D01*
X37223809Y-92038095D01*
X37080952Y-92038095D01*
X36890476Y-91990476D01*
X36795238Y-91942857D01*
X36700000Y-91847619D01*
X36652380Y-91704761D01*
X36652380Y-91609523D01*
X36700000Y-91466666D01*
X36747619Y-91419047D01*
X37652380Y-90514285D02*
X37652380Y-90990476D01*
X36652380Y-90990476D01*
X35633333Y-89166666D02*
X36109523Y-89166666D01*
X35538095Y-89452380D02*
X35871428Y-88452380D01*
X36204761Y-89452380D01*
X36538095Y-89452380D02*
X36538095Y-88452380D01*
X36538095Y-88928571D02*
X37109523Y-88928571D01*
X37109523Y-89452380D02*
X37109523Y-88452380D01*
X37442857Y-88452380D02*
X38014285Y-88452380D01*
X37728571Y-89452380D02*
X37728571Y-88452380D01*
X38871428Y-89452380D02*
X38300000Y-89452380D01*
X38585714Y-89452380D02*
X38585714Y-88452380D01*
X38490476Y-88595238D01*
X38395238Y-88690476D01*
X38300000Y-88738095D01*
X39776190Y-88452380D02*
X39300000Y-88452380D01*
X39252380Y-88928571D01*
X39300000Y-88880952D01*
X39395238Y-88833333D01*
X39633333Y-88833333D01*
X39728571Y-88880952D01*
X39776190Y-88928571D01*
X39823809Y-89023809D01*
X39823809Y-89261904D01*
X39776190Y-89357142D01*
X39728571Y-89404761D01*
X39633333Y-89452380D01*
X39395238Y-89452380D01*
X39300000Y-89404761D01*
X39252380Y-89357142D01*
X40871428Y-88452380D02*
X41442857Y-88452380D01*
X41157142Y-89452380D02*
X41157142Y-88452380D01*
X41776190Y-88928571D02*
X42109523Y-88928571D01*
X42252380Y-89452380D02*
X41776190Y-89452380D01*
X41776190Y-88452380D01*
X42252380Y-88452380D01*
X42633333Y-89404761D02*
X42776190Y-89452380D01*
X43014285Y-89452380D01*
X43109523Y-89404761D01*
X43157142Y-89357142D01*
X43204761Y-89261904D01*
X43204761Y-89166666D01*
X43157142Y-89071428D01*
X43109523Y-89023809D01*
X43014285Y-88976190D01*
X42823809Y-88928571D01*
X42728571Y-88880952D01*
X42680952Y-88833333D01*
X42633333Y-88738095D01*
X42633333Y-88642857D01*
X42680952Y-88547619D01*
X42728571Y-88500000D01*
X42823809Y-88452380D01*
X43061904Y-88452380D01*
X43204761Y-88500000D01*
X43490476Y-88452380D02*
X44061904Y-88452380D01*
X43776190Y-89452380D02*
X43776190Y-88452380D01*
X26252380Y-117328571D02*
X26395238Y-117376190D01*
X26442857Y-117423809D01*
X26490476Y-117519047D01*
X26490476Y-117661904D01*
X26442857Y-117757142D01*
X26395238Y-117804761D01*
X26300000Y-117852380D01*
X25919047Y-117852380D01*
X25919047Y-116852380D01*
X26252380Y-116852380D01*
X26347619Y-116900000D01*
X26395238Y-116947619D01*
X26442857Y-117042857D01*
X26442857Y-117138095D01*
X26395238Y-117233333D01*
X26347619Y-117280952D01*
X26252380Y-117328571D01*
X25919047Y-117328571D01*
X26919047Y-117471428D02*
X27680952Y-117471428D01*
X21652380Y-117328571D02*
X21795238Y-117376190D01*
X21842857Y-117423809D01*
X21890476Y-117519047D01*
X21890476Y-117661904D01*
X21842857Y-117757142D01*
X21795238Y-117804761D01*
X21700000Y-117852380D01*
X21319047Y-117852380D01*
X21319047Y-116852380D01*
X21652380Y-116852380D01*
X21747619Y-116900000D01*
X21795238Y-116947619D01*
X21842857Y-117042857D01*
X21842857Y-117138095D01*
X21795238Y-117233333D01*
X21747619Y-117280952D01*
X21652380Y-117328571D01*
X21319047Y-117328571D01*
X22319047Y-117471428D02*
X23080952Y-117471428D01*
X22700000Y-117852380D02*
X22700000Y-117090476D01*
X15128571Y-112147619D02*
X15176190Y-112004761D01*
X15223809Y-111957142D01*
X15319047Y-111909523D01*
X15461904Y-111909523D01*
X15557142Y-111957142D01*
X15604761Y-112004761D01*
X15652380Y-112100000D01*
X15652380Y-112480952D01*
X14652380Y-112480952D01*
X14652380Y-112147619D01*
X14700000Y-112052380D01*
X14747619Y-112004761D01*
X14842857Y-111957142D01*
X14938095Y-111957142D01*
X15033333Y-112004761D01*
X15080952Y-112052380D01*
X15128571Y-112147619D01*
X15128571Y-112480952D01*
X15271428Y-111480952D02*
X15271428Y-110719047D01*
X15128571Y-115147619D02*
X15176190Y-115004761D01*
X15223809Y-114957142D01*
X15319047Y-114909523D01*
X15461904Y-114909523D01*
X15557142Y-114957142D01*
X15604761Y-115004761D01*
X15652380Y-115100000D01*
X15652380Y-115480952D01*
X14652380Y-115480952D01*
X14652380Y-115147619D01*
X14700000Y-115052380D01*
X14747619Y-115004761D01*
X14842857Y-114957142D01*
X14938095Y-114957142D01*
X15033333Y-115004761D01*
X15080952Y-115052380D01*
X15128571Y-115147619D01*
X15128571Y-115480952D01*
X15271428Y-114480952D02*
X15271428Y-113719047D01*
X15652380Y-114100000D02*
X14890476Y-114100000D01*
X14652380Y-104695238D02*
X15652380Y-104361904D01*
X14652380Y-104028571D01*
X15652380Y-103695238D02*
X14652380Y-103695238D01*
X15652380Y-103219047D02*
X14652380Y-103219047D01*
X15652380Y-102647619D01*
X14652380Y-102647619D01*
X14700000Y-101561904D02*
X14652380Y-101657142D01*
X14652380Y-101800000D01*
X14700000Y-101942857D01*
X14795238Y-102038095D01*
X14890476Y-102085714D01*
X15080952Y-102133333D01*
X15223809Y-102133333D01*
X15414285Y-102085714D01*
X15509523Y-102038095D01*
X15604761Y-101942857D01*
X15652380Y-101800000D01*
X15652380Y-101704761D01*
X15604761Y-101561904D01*
X15557142Y-101514285D01*
X15223809Y-101514285D01*
X15223809Y-101704761D01*
X15652380Y-101085714D02*
X14652380Y-101085714D01*
X15652380Y-100514285D01*
X14652380Y-100514285D01*
X15652380Y-100038095D02*
X14652380Y-100038095D01*
X14652380Y-99800000D01*
X14700000Y-99657142D01*
X14795238Y-99561904D01*
X14890476Y-99514285D01*
X15080952Y-99466666D01*
X15223809Y-99466666D01*
X15414285Y-99514285D01*
X15509523Y-99561904D01*
X15604761Y-99657142D01*
X15652380Y-99800000D01*
X15652380Y-100038095D01*
X26947619Y-89433333D02*
X25947619Y-89766666D01*
X26947619Y-90100000D01*
X25947619Y-90433333D02*
X26947619Y-90433333D01*
X25947619Y-90909523D02*
X26947619Y-90909523D01*
X25947619Y-91480952D01*
X26947619Y-91480952D01*
X26947619Y-92576190D02*
X26947619Y-93147619D01*
X25947619Y-92861904D02*
X26947619Y-92861904D01*
X26471428Y-93480952D02*
X26471428Y-93814285D01*
X25947619Y-93957142D02*
X25947619Y-93480952D01*
X26947619Y-93480952D01*
X26947619Y-93957142D01*
X25995238Y-94338095D02*
X25947619Y-94480952D01*
X25947619Y-94719047D01*
X25995238Y-94814285D01*
X26042857Y-94861904D01*
X26138095Y-94909523D01*
X26233333Y-94909523D01*
X26328571Y-94861904D01*
X26376190Y-94814285D01*
X26423809Y-94719047D01*
X26471428Y-94528571D01*
X26519047Y-94433333D01*
X26566666Y-94385714D01*
X26661904Y-94338095D01*
X26757142Y-94338095D01*
X26852380Y-94385714D01*
X26900000Y-94433333D01*
X26947619Y-94528571D01*
X26947619Y-94766666D01*
X26900000Y-94909523D01*
X26947619Y-95195238D02*
X26947619Y-95766666D01*
X25947619Y-95480952D02*
X26947619Y-95480952D01*
X26452380Y-122561904D02*
X25452380Y-122561904D01*
X25452380Y-122180952D01*
X25500000Y-122085714D01*
X25547619Y-122038095D01*
X25642857Y-121990476D01*
X25785714Y-121990476D01*
X25880952Y-122038095D01*
X25928571Y-122085714D01*
X25976190Y-122180952D01*
X25976190Y-122561904D01*
X25500000Y-121038095D02*
X25452380Y-121133333D01*
X25452380Y-121276190D01*
X25500000Y-121419047D01*
X25595238Y-121514285D01*
X25690476Y-121561904D01*
X25880952Y-121609523D01*
X26023809Y-121609523D01*
X26214285Y-121561904D01*
X26309523Y-121514285D01*
X26404761Y-121419047D01*
X26452380Y-121276190D01*
X26452380Y-121180952D01*
X26404761Y-121038095D01*
X26357142Y-120990476D01*
X26023809Y-120990476D01*
X26023809Y-121180952D01*
X25452380Y-132390476D02*
X25452380Y-132866666D01*
X25928571Y-132914285D01*
X25880952Y-132866666D01*
X25833333Y-132771428D01*
X25833333Y-132533333D01*
X25880952Y-132438095D01*
X25928571Y-132390476D01*
X26023809Y-132342857D01*
X26261904Y-132342857D01*
X26357142Y-132390476D01*
X26404761Y-132438095D01*
X26452380Y-132533333D01*
X26452380Y-132771428D01*
X26404761Y-132866666D01*
X26357142Y-132914285D01*
X25452380Y-132057142D02*
X26452380Y-131723809D01*
X25452380Y-131390476D01*
X76809523Y-152852380D02*
X76333333Y-152852380D01*
X76285714Y-153328571D01*
X76333333Y-153280952D01*
X76428571Y-153233333D01*
X76666666Y-153233333D01*
X76761904Y-153280952D01*
X76809523Y-153328571D01*
X76857142Y-153423809D01*
X76857142Y-153661904D01*
X76809523Y-153757142D01*
X76761904Y-153804761D01*
X76666666Y-153852380D01*
X76428571Y-153852380D01*
X76333333Y-153804761D01*
X76285714Y-153757142D01*
X77142857Y-152852380D02*
X77476190Y-153852380D01*
X77809523Y-152852380D01*
X72071428Y-153328571D02*
X72214285Y-153376190D01*
X72261904Y-153423809D01*
X72309523Y-153519047D01*
X72309523Y-153661904D01*
X72261904Y-153757142D01*
X72214285Y-153804761D01*
X72119047Y-153852380D01*
X71738095Y-153852380D01*
X71738095Y-152852380D01*
X72071428Y-152852380D01*
X72166666Y-152900000D01*
X72214285Y-152947619D01*
X72261904Y-153042857D01*
X72261904Y-153138095D01*
X72214285Y-153233333D01*
X72166666Y-153280952D01*
X72071428Y-153328571D01*
X71738095Y-153328571D01*
X66761904Y-153566666D02*
X67238095Y-153566666D01*
X66666666Y-153852380D02*
X67000000Y-152852380D01*
X67333333Y-153852380D01*
X60838095Y-152900000D02*
X60742857Y-152852380D01*
X60600000Y-152852380D01*
X60457142Y-152900000D01*
X60361904Y-152995238D01*
X60314285Y-153090476D01*
X60266666Y-153280952D01*
X60266666Y-153423809D01*
X60314285Y-153614285D01*
X60361904Y-153709523D01*
X60457142Y-153804761D01*
X60600000Y-153852380D01*
X60695238Y-153852380D01*
X60838095Y-153804761D01*
X60885714Y-153757142D01*
X60885714Y-153423809D01*
X60695238Y-153423809D01*
X61314285Y-153852380D02*
X61314285Y-152852380D01*
X61885714Y-153852380D01*
X61885714Y-152852380D01*
X62361904Y-153852380D02*
X62361904Y-152852380D01*
X62600000Y-152852380D01*
X62742857Y-152900000D01*
X62838095Y-152995238D01*
X62885714Y-153090476D01*
X62933333Y-153280952D01*
X62933333Y-153423809D01*
X62885714Y-153614285D01*
X62838095Y-153709523D01*
X62742857Y-153804761D01*
X62600000Y-153852380D01*
X62361904Y-153852380D01*
D11*
X32510000Y-127288748D02*
X32510000Y-128711252D01*
X30690000Y-127288748D02*
X30690000Y-128711252D01*
X24110000Y-126288748D02*
X24110000Y-127711252D01*
X22290000Y-126288748D02*
X22290000Y-127711252D01*
X16270000Y-90330000D02*
X18930000Y-90330000D01*
X16270000Y-90270000D02*
X16270000Y-90330000D01*
X18930000Y-90270000D02*
X18930000Y-90330000D01*
X16270000Y-90270000D02*
X18930000Y-90270000D01*
X16270000Y-89000000D02*
X16270000Y-87670000D01*
X16270000Y-87670000D02*
X17600000Y-87670000D01*
X105070000Y-153330000D02*
X107730000Y-153330000D01*
X105070000Y-153270000D02*
X105070000Y-153330000D01*
X107730000Y-153270000D02*
X107730000Y-153330000D01*
X105070000Y-153270000D02*
X107730000Y-153270000D01*
X105070000Y-152000000D02*
X105070000Y-150670000D01*
X105070000Y-150670000D02*
X106400000Y-150670000D01*
X31070000Y-94330000D02*
X33730000Y-94330000D01*
X31070000Y-94270000D02*
X31070000Y-94330000D01*
X33730000Y-94270000D02*
X33730000Y-94330000D01*
X31070000Y-94270000D02*
X33730000Y-94270000D01*
X31070000Y-93000000D02*
X31070000Y-91670000D01*
X31070000Y-91670000D02*
X32400000Y-91670000D01*
X84070000Y-90330000D02*
X86730000Y-90330000D01*
X84070000Y-90270000D02*
X84070000Y-90330000D01*
X86730000Y-90270000D02*
X86730000Y-90330000D01*
X84070000Y-90270000D02*
X86730000Y-90270000D01*
X84070000Y-89000000D02*
X84070000Y-87670000D01*
X84070000Y-87670000D02*
X85400000Y-87670000D01*
X55870000Y-134130000D02*
X58530000Y-134130000D01*
X55870000Y-134070000D02*
X55870000Y-134130000D01*
X58530000Y-134070000D02*
X58530000Y-134130000D01*
X55870000Y-134070000D02*
X58530000Y-134070000D01*
X55870000Y-132800000D02*
X55870000Y-131470000D01*
X55870000Y-131470000D02*
X57200000Y-131470000D01*
X59470000Y-128270000D02*
X62130000Y-128270000D01*
X59470000Y-125670000D02*
X59470000Y-128270000D01*
X62130000Y-125670000D02*
X62130000Y-128270000D01*
X59470000Y-125670000D02*
X62130000Y-125670000D01*
X59470000Y-124400000D02*
X59470000Y-123070000D01*
X59470000Y-123070000D02*
X60800000Y-123070000D01*
X90730000Y-101930000D02*
X88070000Y-101930000D01*
X90730000Y-104530000D02*
X90730000Y-101930000D01*
X88070000Y-104530000D02*
X88070000Y-101930000D01*
X90730000Y-104530000D02*
X88070000Y-104530000D01*
X90730000Y-105800000D02*
X90730000Y-107130000D01*
X90730000Y-107130000D02*
X89400000Y-107130000D01*
X82870000Y-90330000D02*
X82870000Y-87670000D01*
X80270000Y-90330000D02*
X82870000Y-90330000D01*
X80270000Y-87670000D02*
X82870000Y-87670000D01*
X80270000Y-90330000D02*
X80270000Y-87670000D01*
X79000000Y-90330000D02*
X77670000Y-90330000D01*
X77670000Y-90330000D02*
X77670000Y-89000000D01*
X38670000Y-96870000D02*
X41330000Y-96870000D01*
X38670000Y-94270000D02*
X38670000Y-96870000D01*
X41330000Y-94270000D02*
X41330000Y-96870000D01*
X38670000Y-94270000D02*
X41330000Y-94270000D01*
X38670000Y-93000000D02*
X38670000Y-91670000D01*
X38670000Y-91670000D02*
X40000000Y-91670000D01*
X21870000Y-94530000D02*
X24530000Y-94530000D01*
X21870000Y-94470000D02*
X21870000Y-94530000D01*
X24530000Y-94470000D02*
X24530000Y-94530000D01*
X21870000Y-94470000D02*
X24530000Y-94470000D01*
X21870000Y-93200000D02*
X21870000Y-91870000D01*
X21870000Y-91870000D02*
X23200000Y-91870000D01*
X25070000Y-116130000D02*
X27730000Y-116130000D01*
X25070000Y-116070000D02*
X25070000Y-116130000D01*
X27730000Y-116070000D02*
X27730000Y-116130000D01*
X25070000Y-116070000D02*
X27730000Y-116070000D01*
X25070000Y-114800000D02*
X25070000Y-113470000D01*
X25070000Y-113470000D02*
X26400000Y-113470000D01*
X20670000Y-116130000D02*
X23330000Y-116130000D01*
X20670000Y-116070000D02*
X20670000Y-116130000D01*
X23330000Y-116070000D02*
X23330000Y-116130000D01*
X20670000Y-116070000D02*
X23330000Y-116070000D01*
X20670000Y-114800000D02*
X20670000Y-113470000D01*
X20670000Y-113470000D02*
X22000000Y-113470000D01*
X83470000Y-102730000D02*
X86130000Y-102730000D01*
X83470000Y-102670000D02*
X83470000Y-102730000D01*
X86130000Y-102670000D02*
X86130000Y-102730000D01*
X83470000Y-102670000D02*
X86130000Y-102670000D01*
X83470000Y-101400000D02*
X83470000Y-100070000D01*
X83470000Y-100070000D02*
X84800000Y-100070000D01*
X18070000Y-136730000D02*
X20730000Y-136730000D01*
X18070000Y-136670000D02*
X18070000Y-136730000D01*
X20730000Y-136670000D02*
X20730000Y-136730000D01*
X18070000Y-136670000D02*
X20730000Y-136670000D01*
X18070000Y-135400000D02*
X18070000Y-134070000D01*
X18070000Y-134070000D02*
X19400000Y-134070000D01*
X95030000Y-96830000D02*
X95000000Y-96830000D01*
X88570000Y-96830000D02*
X88600000Y-96830000D01*
X88570000Y-90370000D02*
X88600000Y-90370000D01*
X95000000Y-90370000D02*
X95030000Y-90370000D01*
X93100000Y-96830000D02*
X90500000Y-96830000D01*
X95030000Y-90370000D02*
X95030000Y-96830000D01*
X93100000Y-90370000D02*
X90500000Y-90370000D01*
X88570000Y-90370000D02*
X88570000Y-96830000D01*
X86072936Y-140490000D02*
X87527064Y-140490000D01*
X86072936Y-142310000D02*
X87527064Y-142310000D01*
X86022936Y-137690000D02*
X87477064Y-137690000D01*
X86022936Y-139510000D02*
X87477064Y-139510000D01*
X86072936Y-134890000D02*
X87527064Y-134890000D01*
X86072936Y-136710000D02*
X87527064Y-136710000D01*
X86072936Y-132090000D02*
X87527064Y-132090000D01*
X86072936Y-133910000D02*
X87527064Y-133910000D01*
X85927064Y-94510000D02*
X84472936Y-94510000D01*
X85927064Y-92690000D02*
X84472936Y-92690000D01*
X90400000Y-142535000D02*
X94460000Y-142535000D01*
X94460000Y-142535000D02*
X94460000Y-140265000D01*
X94460000Y-140265000D02*
X90400000Y-140265000D01*
X90400000Y-139735000D02*
X94460000Y-139735000D01*
X94460000Y-139735000D02*
X94460000Y-137465000D01*
X94460000Y-137465000D02*
X90400000Y-137465000D01*
X90400000Y-136935000D02*
X94460000Y-136935000D01*
X94460000Y-136935000D02*
X94460000Y-134665000D01*
X94460000Y-134665000D02*
X90400000Y-134665000D01*
X90400000Y-134135000D02*
X94460000Y-134135000D01*
X94460000Y-134135000D02*
X94460000Y-131865000D01*
X94460000Y-131865000D02*
X90400000Y-131865000D01*
X92711252Y-88110000D02*
X91288748Y-88110000D01*
X92711252Y-86290000D02*
X91288748Y-86290000D01*
X59310000Y-116672936D02*
X59310000Y-118127064D01*
X57490000Y-116672936D02*
X57490000Y-118127064D01*
X50890000Y-116672936D02*
X50890000Y-118127064D01*
X52710000Y-116672936D02*
X52710000Y-118127064D01*
X54290000Y-116672936D02*
X54290000Y-118127064D01*
X56110000Y-116672936D02*
X56110000Y-118127064D01*
X61327064Y-111690000D02*
X59872936Y-111690000D01*
X61327064Y-113510000D02*
X59872936Y-113510000D01*
X75530000Y-109870000D02*
X74200000Y-109870000D01*
X75530000Y-108540000D02*
X75530000Y-109870000D01*
X75530000Y-107270000D02*
X72870000Y-107270000D01*
X72870000Y-107270000D02*
X72870000Y-104670000D01*
X75530000Y-107270000D02*
X75530000Y-104670000D01*
X75530000Y-104670000D02*
X72870000Y-104670000D01*
X21210000Y-124450000D02*
X20710000Y-124450000D01*
X20960000Y-124200000D02*
X20960000Y-124700000D01*
X18204437Y-124940000D02*
X17140000Y-126004437D01*
X20595563Y-124940000D02*
X21660000Y-126004437D01*
X20595563Y-124940000D02*
X20460000Y-124940000D01*
X18204437Y-124940000D02*
X18340000Y-124940000D01*
X17140000Y-126004437D02*
X17140000Y-129460000D01*
X21660000Y-126004437D02*
X21660000Y-129460000D01*
X21660000Y-129460000D02*
X20460000Y-129460000D01*
X17140000Y-129460000D02*
X18340000Y-129460000D01*
X47272936Y-111690000D02*
X48727064Y-111690000D01*
X47272936Y-113510000D02*
X48727064Y-113510000D01*
X45490000Y-107927064D02*
X45490000Y-106472936D01*
X47310000Y-107927064D02*
X47310000Y-106472936D01*
X16470000Y-115670000D02*
X19130000Y-115670000D01*
X16470000Y-113070000D02*
X16470000Y-115670000D01*
X19130000Y-113070000D02*
X19130000Y-115670000D01*
X16470000Y-113070000D02*
X19130000Y-113070000D01*
X16470000Y-111800000D02*
X16470000Y-110470000D01*
X16470000Y-110470000D02*
X17800000Y-110470000D01*
X45010000Y-111500000D02*
X45010000Y-109700000D01*
X41790000Y-109700000D02*
X41790000Y-112150000D01*
D12*
X41845000Y-114750000D02*
X45545000Y-114750000D01*
X45545000Y-114750000D02*
X45545000Y-117680000D01*
X45545000Y-117680000D02*
X41845000Y-117680000D01*
X41845000Y-117680000D02*
X41845000Y-114750000D01*
X40020000Y-114665000D02*
X41495000Y-114665000D01*
D11*
X39460000Y-114460000D02*
X39460000Y-113260000D01*
X39460000Y-109940000D02*
X39460000Y-111140000D01*
X36004437Y-109940000D02*
X39460000Y-109940000D01*
X36004437Y-114460000D02*
X39460000Y-114460000D01*
X34940000Y-113395563D02*
X34940000Y-113260000D01*
X34940000Y-111004437D02*
X34940000Y-111140000D01*
X34940000Y-111004437D02*
X36004437Y-109940000D01*
X34940000Y-113395563D02*
X36004437Y-114460000D01*
X34200000Y-110640000D02*
X34700000Y-110640000D01*
X34450000Y-110390000D02*
X34450000Y-110890000D01*
X42088748Y-106090000D02*
X43511252Y-106090000D01*
X42088748Y-107910000D02*
X43511252Y-107910000D01*
X83250000Y-109330000D02*
X83250000Y-105730000D01*
X83238478Y-105691522D02*
G75*
G03*
X78800000Y-107530000I-1838478J-1838478D01*
G01*
X83238478Y-109368478D02*
G75*
G02*
X78800000Y-107530000I-1838478J1838478D01*
G01*
X76290000Y-107727064D02*
X76290000Y-106272936D01*
X78110000Y-107727064D02*
X78110000Y-106272936D01*
X77472936Y-110690000D02*
X78927064Y-110690000D01*
X77472936Y-112510000D02*
X78927064Y-112510000D01*
X54727064Y-108710000D02*
X53272936Y-108710000D01*
X54727064Y-106890000D02*
X53272936Y-106890000D01*
X54727064Y-111510000D02*
X53272936Y-111510000D01*
X54727064Y-109690000D02*
X53272936Y-109690000D01*
X30080000Y-114000000D02*
X33520000Y-114000000D01*
X33520000Y-114000000D02*
X33520000Y-104760000D01*
X33520000Y-104760000D02*
X30080000Y-104760000D01*
X30080000Y-104760000D02*
X30080000Y-114000000D01*
X31800000Y-115960000D02*
X31800000Y-114000000D01*
X31800000Y-102800000D02*
X31800000Y-104760000D01*
X70127064Y-141910000D02*
X68672936Y-141910000D01*
X70127064Y-140090000D02*
X68672936Y-140090000D01*
X73272936Y-124290000D02*
X74727064Y-124290000D01*
X73272936Y-126110000D02*
X74727064Y-126110000D01*
X76472936Y-127090000D02*
X77927064Y-127090000D01*
X76472936Y-128910000D02*
X77927064Y-128910000D01*
X16470000Y-104730000D02*
X19130000Y-104730000D01*
X16470000Y-102130000D02*
X16470000Y-104730000D01*
X19130000Y-102130000D02*
X19130000Y-104730000D01*
X16470000Y-102130000D02*
X19130000Y-102130000D01*
X16470000Y-100860000D02*
X16470000Y-99530000D01*
X16470000Y-99530000D02*
X17800000Y-99530000D01*
D12*
X34925000Y-99795000D02*
X36450000Y-99795000D01*
D11*
X84270000Y-125490000D02*
X86930000Y-125490000D01*
X84270000Y-115270000D02*
X84270000Y-125490000D01*
X86930000Y-115270000D02*
X86930000Y-125490000D01*
X84270000Y-115270000D02*
X86930000Y-115270000D01*
X84270000Y-114000000D02*
X84270000Y-112670000D01*
X84270000Y-112670000D02*
X85600000Y-112670000D01*
X27270000Y-133490000D02*
X29930000Y-133490000D01*
X27270000Y-123270000D02*
X27270000Y-133490000D01*
X29930000Y-123270000D02*
X29930000Y-133490000D01*
X27270000Y-123270000D02*
X29930000Y-123270000D01*
X27270000Y-122000000D02*
X27270000Y-120670000D01*
X27270000Y-120670000D02*
X28600000Y-120670000D01*
X59300000Y-143590000D02*
X59300000Y-151210000D01*
X79620000Y-151210000D02*
X79620000Y-143590000D01*
X79620000Y-149940000D02*
X59300000Y-149940000D01*
X59300000Y-143590000D02*
X79620000Y-143590000D01*
X59300000Y-151210000D02*
X79620000Y-151210000D01*
X91870000Y-112090000D02*
X94530000Y-112090000D01*
X91870000Y-101870000D02*
X91870000Y-112090000D01*
X94530000Y-101870000D02*
X94530000Y-112090000D01*
X91870000Y-101870000D02*
X94530000Y-101870000D01*
X91870000Y-100600000D02*
X91870000Y-99270000D01*
X91870000Y-99270000D02*
X93200000Y-99270000D01*
X57905000Y-108240000D02*
X57905000Y-107440000D01*
X57905000Y-107440000D02*
X63105000Y-107440000D01*
X63105000Y-107440000D02*
X63105000Y-108560000D01*
X63105000Y-108560000D02*
X63029677Y-108560000D01*
X58340000Y-107440000D02*
X58340000Y-103440000D01*
X58340000Y-103440000D02*
X58860000Y-103440000D01*
X58860000Y-103440000D02*
X58860000Y-107440000D01*
X58400000Y-107440000D02*
X58400000Y-103440000D01*
X58520000Y-107440000D02*
X58520000Y-103440000D01*
X58640000Y-107440000D02*
X58640000Y-103440000D01*
X58760000Y-107440000D02*
X58760000Y-103440000D01*
X59235000Y-108240000D02*
X59235000Y-107440000D01*
X59610000Y-107440000D02*
X59610000Y-103440000D01*
X59610000Y-103440000D02*
X60130000Y-103440000D01*
X60130000Y-103440000D02*
X60130000Y-107440000D01*
X60505000Y-108560000D02*
X60505000Y-107440000D01*
X60489677Y-108560000D02*
X60520323Y-108560000D01*
X60880000Y-107440000D02*
X60880000Y-103440000D01*
X60880000Y-103440000D02*
X61400000Y-103440000D01*
X61400000Y-103440000D02*
X61400000Y-107440000D01*
X61775000Y-108560000D02*
X61775000Y-107440000D01*
X61759677Y-108560000D02*
X61790323Y-108560000D01*
X62150000Y-107440000D02*
X62150000Y-103440000D01*
X62150000Y-103440000D02*
X62670000Y-103440000D01*
X62670000Y-103440000D02*
X62670000Y-107440000D01*
X58600000Y-109760000D02*
X57840000Y-109760000D01*
X57840000Y-109760000D02*
X57840000Y-109000000D01*
X81510000Y-98930000D02*
X81510000Y-96270000D01*
X63670000Y-98930000D02*
X81510000Y-98930000D01*
X63670000Y-96270000D02*
X81510000Y-96270000D01*
X63670000Y-98930000D02*
X63670000Y-96270000D01*
X62400000Y-98930000D02*
X61070000Y-98930000D01*
X61070000Y-98930000D02*
X61070000Y-97600000D01*
X73910000Y-120010000D02*
X74210000Y-120010000D01*
X74210000Y-120010000D02*
X74210000Y-119710000D01*
X67290000Y-120010000D02*
X66990000Y-120010000D01*
X66990000Y-120010000D02*
X66990000Y-119710000D01*
X73910000Y-112790000D02*
X74210000Y-112790000D01*
X74210000Y-112790000D02*
X74210000Y-113090000D01*
X67290000Y-112790000D02*
X66990000Y-112790000D01*
X66990000Y-112790000D02*
X66990000Y-113090000D01*
X66990000Y-113090000D02*
X65675000Y-113090000D01*
D12*
X38470000Y-137350000D02*
X43070000Y-137350000D01*
X43070000Y-137350000D02*
X43070000Y-126950000D01*
X43070000Y-126950000D02*
X40000000Y-126950000D01*
X74355000Y-127850000D02*
X74355000Y-136335000D01*
X64445000Y-128465000D02*
X64445000Y-136335000D01*
D11*
X46710000Y-101251248D02*
X46710000Y-102673752D01*
X44890000Y-101251248D02*
X44890000Y-102673752D01*
X44890000Y-130311252D02*
X44890000Y-128888748D01*
X46710000Y-130311252D02*
X46710000Y-128888748D01*
X44890000Y-135511252D02*
X44890000Y-134088748D01*
X46710000Y-135511252D02*
X46710000Y-134088748D01*
X81260000Y-120940000D02*
X80060000Y-120940000D01*
X76740000Y-120940000D02*
X77940000Y-120940000D01*
X76740000Y-124395563D02*
X76740000Y-120940000D01*
X81260000Y-124395563D02*
X81260000Y-120940000D01*
X80195563Y-125460000D02*
X80060000Y-125460000D01*
X77804437Y-125460000D02*
X77940000Y-125460000D01*
X77804437Y-125460000D02*
X76740000Y-124395563D01*
X80195563Y-125460000D02*
X81260000Y-124395563D01*
X77440000Y-126200000D02*
X77440000Y-125700000D01*
X77190000Y-125950000D02*
X77690000Y-125950000D01*
X56760000Y-91040000D02*
X55060000Y-91040000D01*
X51240000Y-91040000D02*
X52940000Y-91040000D01*
X51240000Y-95495563D02*
X51240000Y-91040000D01*
X56760000Y-95495563D02*
X56760000Y-91040000D01*
X55695563Y-96560000D02*
X55060000Y-96560000D01*
X52304437Y-96560000D02*
X52940000Y-96560000D01*
X52304437Y-96560000D02*
X51240000Y-95495563D01*
X55695563Y-96560000D02*
X56760000Y-95495563D01*
X52315000Y-97425000D02*
X52315000Y-96800000D01*
X52002500Y-97112500D02*
X52627500Y-97112500D01*
X62688748Y-92490000D02*
X64111252Y-92490000D01*
X62688748Y-94310000D02*
X64111252Y-94310000D01*
X90890000Y-123911252D02*
X90890000Y-122488748D01*
X92710000Y-123911252D02*
X92710000Y-122488748D01*
X59910000Y-137888748D02*
X59910000Y-139311252D01*
X58090000Y-137888748D02*
X58090000Y-139311252D01*
X53660000Y-127460000D02*
X53660000Y-126260000D01*
X53660000Y-122940000D02*
X53660000Y-124140000D01*
X50204437Y-122940000D02*
X53660000Y-122940000D01*
X50204437Y-127460000D02*
X53660000Y-127460000D01*
X49140000Y-126395563D02*
X49140000Y-126260000D01*
X49140000Y-124004437D02*
X49140000Y-124140000D01*
X49140000Y-124004437D02*
X50204437Y-122940000D01*
X49140000Y-126395563D02*
X50204437Y-127460000D01*
X48400000Y-123640000D02*
X48900000Y-123640000D01*
X48650000Y-123390000D02*
X48650000Y-123890000D01*
X49360000Y-96560000D02*
X49360000Y-94860000D01*
X49360000Y-91040000D02*
X49360000Y-92740000D01*
X44904437Y-91040000D02*
X49360000Y-91040000D01*
X44904437Y-96560000D02*
X49360000Y-96560000D01*
X43840000Y-95495563D02*
X43840000Y-94860000D01*
X43840000Y-92104437D02*
X43840000Y-92740000D01*
X43840000Y-92104437D02*
X44904437Y-91040000D01*
X43840000Y-95495563D02*
X44904437Y-96560000D01*
X42975000Y-92115000D02*
X43600000Y-92115000D01*
X43287500Y-91802500D02*
X43287500Y-92427500D01*
X86910000Y-107051248D02*
X86910000Y-108473752D01*
X85090000Y-107051248D02*
X85090000Y-108473752D01*
X62710000Y-116688748D02*
X62710000Y-118111252D01*
X60890000Y-116688748D02*
X60890000Y-118111252D01*
X53288748Y-99490000D02*
X54711252Y-99490000D01*
X53288748Y-101310000D02*
X54711252Y-101310000D01*
X69910000Y-90251248D02*
X69910000Y-91673752D01*
X68090000Y-90251248D02*
X68090000Y-91673752D01*
X29560000Y-98640000D02*
X26710000Y-98640000D01*
X20840000Y-98640000D02*
X23690000Y-98640000D01*
X20840000Y-106295563D02*
X20840000Y-98640000D01*
X29560000Y-106295563D02*
X29560000Y-98640000D01*
X28495563Y-107360000D02*
X26710000Y-107360000D01*
X21904437Y-107360000D02*
X23690000Y-107360000D01*
X21904437Y-107360000D02*
X20840000Y-106295563D01*
X28495563Y-107360000D02*
X29560000Y-106295563D01*
X22690000Y-108600000D02*
X22690000Y-107600000D01*
X22190000Y-108100000D02*
X23190000Y-108100000D01*
X53326248Y-102090000D02*
X54748752Y-102090000D01*
X53326248Y-103910000D02*
X54748752Y-103910000D01*
D10*
X33807142Y-128642857D02*
X33854761Y-128690476D01*
X33902380Y-128833333D01*
X33902380Y-128928571D01*
X33854761Y-129071428D01*
X33759523Y-129166666D01*
X33664285Y-129214285D01*
X33473809Y-129261904D01*
X33330952Y-129261904D01*
X33140476Y-129214285D01*
X33045238Y-129166666D01*
X32950000Y-129071428D01*
X32902380Y-128928571D01*
X32902380Y-128833333D01*
X32950000Y-128690476D01*
X32997619Y-128642857D01*
X32997619Y-128261904D02*
X32950000Y-128214285D01*
X32902380Y-128119047D01*
X32902380Y-127880952D01*
X32950000Y-127785714D01*
X32997619Y-127738095D01*
X33092857Y-127690476D01*
X33188095Y-127690476D01*
X33330952Y-127738095D01*
X33902380Y-128309523D01*
X33902380Y-127690476D01*
X32997619Y-127309523D02*
X32950000Y-127261904D01*
X32902380Y-127166666D01*
X32902380Y-126928571D01*
X32950000Y-126833333D01*
X32997619Y-126785714D01*
X33092857Y-126738095D01*
X33188095Y-126738095D01*
X33330952Y-126785714D01*
X33902380Y-127357142D01*
X33902380Y-126738095D01*
X25407142Y-127642857D02*
X25454761Y-127690476D01*
X25502380Y-127833333D01*
X25502380Y-127928571D01*
X25454761Y-128071428D01*
X25359523Y-128166666D01*
X25264285Y-128214285D01*
X25073809Y-128261904D01*
X24930952Y-128261904D01*
X24740476Y-128214285D01*
X24645238Y-128166666D01*
X24550000Y-128071428D01*
X24502380Y-127928571D01*
X24502380Y-127833333D01*
X24550000Y-127690476D01*
X24597619Y-127642857D01*
X24597619Y-127261904D02*
X24550000Y-127214285D01*
X24502380Y-127119047D01*
X24502380Y-126880952D01*
X24550000Y-126785714D01*
X24597619Y-126738095D01*
X24692857Y-126690476D01*
X24788095Y-126690476D01*
X24930952Y-126738095D01*
X25502380Y-127309523D01*
X25502380Y-126690476D01*
X25502380Y-125738095D02*
X25502380Y-126309523D01*
X25502380Y-126023809D02*
X24502380Y-126023809D01*
X24645238Y-126119047D01*
X24740476Y-126214285D01*
X24788095Y-126309523D01*
X20252380Y-90009523D02*
X20966666Y-90009523D01*
X21109523Y-90057142D01*
X21204761Y-90152380D01*
X21252380Y-90295238D01*
X21252380Y-90390476D01*
X20347619Y-89580952D02*
X20300000Y-89533333D01*
X20252380Y-89438095D01*
X20252380Y-89200000D01*
X20300000Y-89104761D01*
X20347619Y-89057142D01*
X20442857Y-89009523D01*
X20538095Y-89009523D01*
X20680952Y-89057142D01*
X21252380Y-89628571D01*
X21252380Y-89009523D01*
X20252380Y-88676190D02*
X20252380Y-88057142D01*
X20633333Y-88390476D01*
X20633333Y-88247619D01*
X20680952Y-88152380D01*
X20728571Y-88104761D01*
X20823809Y-88057142D01*
X21061904Y-88057142D01*
X21157142Y-88104761D01*
X21204761Y-88152380D01*
X21252380Y-88247619D01*
X21252380Y-88533333D01*
X21204761Y-88628571D01*
X21157142Y-88676190D01*
X105447619Y-148785714D02*
X105447619Y-149595238D01*
X105400000Y-149690476D01*
X105352380Y-149738095D01*
X105257142Y-149785714D01*
X105114285Y-149785714D01*
X105019047Y-149738095D01*
X105447619Y-149404761D02*
X105352380Y-149452380D01*
X105161904Y-149452380D01*
X105066666Y-149404761D01*
X105019047Y-149357142D01*
X104971428Y-149261904D01*
X104971428Y-148976190D01*
X105019047Y-148880952D01*
X105066666Y-148833333D01*
X105161904Y-148785714D01*
X105352380Y-148785714D01*
X105447619Y-148833333D01*
X105923809Y-149452380D02*
X105923809Y-148452380D01*
X106352380Y-149452380D02*
X106352380Y-148928571D01*
X106304761Y-148833333D01*
X106209523Y-148785714D01*
X106066666Y-148785714D01*
X105971428Y-148833333D01*
X105923809Y-148880952D01*
X106828571Y-148785714D02*
X106828571Y-149642857D01*
X106780952Y-149738095D01*
X106685714Y-149785714D01*
X106638095Y-149785714D01*
X106828571Y-148452380D02*
X106780952Y-148500000D01*
X106828571Y-148547619D01*
X106876190Y-148500000D01*
X106828571Y-148452380D01*
X106828571Y-148547619D01*
X107828571Y-149452380D02*
X107257142Y-149452380D01*
X107542857Y-149452380D02*
X107542857Y-148452380D01*
X107447619Y-148595238D01*
X107352380Y-148690476D01*
X107257142Y-148738095D01*
X31590476Y-90122380D02*
X31590476Y-90836666D01*
X31542857Y-90979523D01*
X31447619Y-91074761D01*
X31304761Y-91122380D01*
X31209523Y-91122380D01*
X32019047Y-90217619D02*
X32066666Y-90170000D01*
X32161904Y-90122380D01*
X32400000Y-90122380D01*
X32495238Y-90170000D01*
X32542857Y-90217619D01*
X32590476Y-90312857D01*
X32590476Y-90408095D01*
X32542857Y-90550952D01*
X31971428Y-91122380D01*
X32590476Y-91122380D01*
X33542857Y-91122380D02*
X32971428Y-91122380D01*
X33257142Y-91122380D02*
X33257142Y-90122380D01*
X33161904Y-90265238D01*
X33066666Y-90360476D01*
X32971428Y-90408095D01*
X84590476Y-86122380D02*
X84590476Y-86836666D01*
X84542857Y-86979523D01*
X84447619Y-87074761D01*
X84304761Y-87122380D01*
X84209523Y-87122380D01*
X85019047Y-86217619D02*
X85066666Y-86170000D01*
X85161904Y-86122380D01*
X85400000Y-86122380D01*
X85495238Y-86170000D01*
X85542857Y-86217619D01*
X85590476Y-86312857D01*
X85590476Y-86408095D01*
X85542857Y-86550952D01*
X84971428Y-87122380D01*
X85590476Y-87122380D01*
X86209523Y-86122380D02*
X86304761Y-86122380D01*
X86400000Y-86170000D01*
X86447619Y-86217619D01*
X86495238Y-86312857D01*
X86542857Y-86503333D01*
X86542857Y-86741428D01*
X86495238Y-86931904D01*
X86447619Y-87027142D01*
X86400000Y-87074761D01*
X86304761Y-87122380D01*
X86209523Y-87122380D01*
X86114285Y-87074761D01*
X86066666Y-87027142D01*
X86019047Y-86931904D01*
X85971428Y-86741428D01*
X85971428Y-86503333D01*
X86019047Y-86312857D01*
X86066666Y-86217619D01*
X86114285Y-86170000D01*
X86209523Y-86122380D01*
X53452380Y-133333333D02*
X54166666Y-133333333D01*
X54309523Y-133380952D01*
X54404761Y-133476190D01*
X54452380Y-133619047D01*
X54452380Y-133714285D01*
X53452380Y-132952380D02*
X53452380Y-132285714D01*
X54452380Y-132714285D01*
X59990476Y-121522380D02*
X59990476Y-122236666D01*
X59942857Y-122379523D01*
X59847619Y-122474761D01*
X59704761Y-122522380D01*
X59609523Y-122522380D01*
X60990476Y-122522380D02*
X60419047Y-122522380D01*
X60704761Y-122522380D02*
X60704761Y-121522380D01*
X60609523Y-121665238D01*
X60514285Y-121760476D01*
X60419047Y-121808095D01*
X61466666Y-122522380D02*
X61657142Y-122522380D01*
X61752380Y-122474761D01*
X61800000Y-122427142D01*
X61895238Y-122284285D01*
X61942857Y-122093809D01*
X61942857Y-121712857D01*
X61895238Y-121617619D01*
X61847619Y-121570000D01*
X61752380Y-121522380D01*
X61561904Y-121522380D01*
X61466666Y-121570000D01*
X61419047Y-121617619D01*
X61371428Y-121712857D01*
X61371428Y-121950952D01*
X61419047Y-122046190D01*
X61466666Y-122093809D01*
X61561904Y-122141428D01*
X61752380Y-122141428D01*
X61847619Y-122093809D01*
X61895238Y-122046190D01*
X61942857Y-121950952D01*
X88590476Y-100052380D02*
X88590476Y-100766666D01*
X88542857Y-100909523D01*
X88447619Y-101004761D01*
X88304761Y-101052380D01*
X88209523Y-101052380D01*
X89590476Y-101052380D02*
X89019047Y-101052380D01*
X89304761Y-101052380D02*
X89304761Y-100052380D01*
X89209523Y-100195238D01*
X89114285Y-100290476D01*
X89019047Y-100338095D01*
X90161904Y-100480952D02*
X90066666Y-100433333D01*
X90019047Y-100385714D01*
X89971428Y-100290476D01*
X89971428Y-100242857D01*
X90019047Y-100147619D01*
X90066666Y-100100000D01*
X90161904Y-100052380D01*
X90352380Y-100052380D01*
X90447619Y-100100000D01*
X90495238Y-100147619D01*
X90542857Y-100242857D01*
X90542857Y-100290476D01*
X90495238Y-100385714D01*
X90447619Y-100433333D01*
X90352380Y-100480952D01*
X90161904Y-100480952D01*
X90066666Y-100528571D01*
X90019047Y-100576190D01*
X89971428Y-100671428D01*
X89971428Y-100861904D01*
X90019047Y-100957142D01*
X90066666Y-101004761D01*
X90161904Y-101052380D01*
X90352380Y-101052380D01*
X90447619Y-101004761D01*
X90495238Y-100957142D01*
X90542857Y-100861904D01*
X90542857Y-100671428D01*
X90495238Y-100576190D01*
X90447619Y-100528571D01*
X90352380Y-100480952D01*
X76122380Y-89809523D02*
X76836666Y-89809523D01*
X76979523Y-89857142D01*
X77074761Y-89952380D01*
X77122380Y-90095238D01*
X77122380Y-90190476D01*
X77122380Y-88809523D02*
X77122380Y-89380952D01*
X77122380Y-89095238D02*
X76122380Y-89095238D01*
X76265238Y-89190476D01*
X76360476Y-89285714D01*
X76408095Y-89380952D01*
X76122380Y-88476190D02*
X76122380Y-87809523D01*
X77122380Y-88238095D01*
X39190476Y-90122380D02*
X39190476Y-90836666D01*
X39142857Y-90979523D01*
X39047619Y-91074761D01*
X38904761Y-91122380D01*
X38809523Y-91122380D01*
X40190476Y-91122380D02*
X39619047Y-91122380D01*
X39904761Y-91122380D02*
X39904761Y-90122380D01*
X39809523Y-90265238D01*
X39714285Y-90360476D01*
X39619047Y-90408095D01*
X41047619Y-90122380D02*
X40857142Y-90122380D01*
X40761904Y-90170000D01*
X40714285Y-90217619D01*
X40619047Y-90360476D01*
X40571428Y-90550952D01*
X40571428Y-90931904D01*
X40619047Y-91027142D01*
X40666666Y-91074761D01*
X40761904Y-91122380D01*
X40952380Y-91122380D01*
X41047619Y-91074761D01*
X41095238Y-91027142D01*
X41142857Y-90931904D01*
X41142857Y-90693809D01*
X41095238Y-90598571D01*
X41047619Y-90550952D01*
X40952380Y-90503333D01*
X40761904Y-90503333D01*
X40666666Y-90550952D01*
X40619047Y-90598571D01*
X40571428Y-90693809D01*
X22390476Y-90322380D02*
X22390476Y-91036666D01*
X22342857Y-91179523D01*
X22247619Y-91274761D01*
X22104761Y-91322380D01*
X22009523Y-91322380D01*
X23390476Y-91322380D02*
X22819047Y-91322380D01*
X23104761Y-91322380D02*
X23104761Y-90322380D01*
X23009523Y-90465238D01*
X22914285Y-90560476D01*
X22819047Y-90608095D01*
X24295238Y-90322380D02*
X23819047Y-90322380D01*
X23771428Y-90798571D01*
X23819047Y-90750952D01*
X23914285Y-90703333D01*
X24152380Y-90703333D01*
X24247619Y-90750952D01*
X24295238Y-90798571D01*
X24342857Y-90893809D01*
X24342857Y-91131904D01*
X24295238Y-91227142D01*
X24247619Y-91274761D01*
X24152380Y-91322380D01*
X23914285Y-91322380D01*
X23819047Y-91274761D01*
X23771428Y-91227142D01*
X25590476Y-111922380D02*
X25590476Y-112636666D01*
X25542857Y-112779523D01*
X25447619Y-112874761D01*
X25304761Y-112922380D01*
X25209523Y-112922380D01*
X26590476Y-112922380D02*
X26019047Y-112922380D01*
X26304761Y-112922380D02*
X26304761Y-111922380D01*
X26209523Y-112065238D01*
X26114285Y-112160476D01*
X26019047Y-112208095D01*
X27447619Y-112255714D02*
X27447619Y-112922380D01*
X27209523Y-111874761D02*
X26971428Y-112589047D01*
X27590476Y-112589047D01*
X21190476Y-111922380D02*
X21190476Y-112636666D01*
X21142857Y-112779523D01*
X21047619Y-112874761D01*
X20904761Y-112922380D01*
X20809523Y-112922380D01*
X22190476Y-112922380D02*
X21619047Y-112922380D01*
X21904761Y-112922380D02*
X21904761Y-111922380D01*
X21809523Y-112065238D01*
X21714285Y-112160476D01*
X21619047Y-112208095D01*
X22523809Y-111922380D02*
X23142857Y-111922380D01*
X22809523Y-112303333D01*
X22952380Y-112303333D01*
X23047619Y-112350952D01*
X23095238Y-112398571D01*
X23142857Y-112493809D01*
X23142857Y-112731904D01*
X23095238Y-112827142D01*
X23047619Y-112874761D01*
X22952380Y-112922380D01*
X22666666Y-112922380D01*
X22571428Y-112874761D01*
X22523809Y-112827142D01*
X83990476Y-98522380D02*
X83990476Y-99236666D01*
X83942857Y-99379523D01*
X83847619Y-99474761D01*
X83704761Y-99522380D01*
X83609523Y-99522380D01*
X84990476Y-99522380D02*
X84419047Y-99522380D01*
X84704761Y-99522380D02*
X84704761Y-98522380D01*
X84609523Y-98665238D01*
X84514285Y-98760476D01*
X84419047Y-98808095D01*
X85371428Y-98617619D02*
X85419047Y-98570000D01*
X85514285Y-98522380D01*
X85752380Y-98522380D01*
X85847619Y-98570000D01*
X85895238Y-98617619D01*
X85942857Y-98712857D01*
X85942857Y-98808095D01*
X85895238Y-98950952D01*
X85323809Y-99522380D01*
X85942857Y-99522380D01*
X18590476Y-132522380D02*
X18590476Y-133236666D01*
X18542857Y-133379523D01*
X18447619Y-133474761D01*
X18304761Y-133522380D01*
X18209523Y-133522380D01*
X19590476Y-133522380D02*
X19019047Y-133522380D01*
X19304761Y-133522380D02*
X19304761Y-132522380D01*
X19209523Y-132665238D01*
X19114285Y-132760476D01*
X19019047Y-132808095D01*
X20542857Y-133522380D02*
X19971428Y-133522380D01*
X20257142Y-133522380D02*
X20257142Y-132522380D01*
X20161904Y-132665238D01*
X20066666Y-132760476D01*
X19971428Y-132808095D01*
X96254761Y-94933333D02*
X96302380Y-94790476D01*
X96302380Y-94552380D01*
X96254761Y-94457142D01*
X96207142Y-94409523D01*
X96111904Y-94361904D01*
X96016666Y-94361904D01*
X95921428Y-94409523D01*
X95873809Y-94457142D01*
X95826190Y-94552380D01*
X95778571Y-94742857D01*
X95730952Y-94838095D01*
X95683333Y-94885714D01*
X95588095Y-94933333D01*
X95492857Y-94933333D01*
X95397619Y-94885714D01*
X95350000Y-94838095D01*
X95302380Y-94742857D01*
X95302380Y-94504761D01*
X95350000Y-94361904D01*
X95302380Y-94028571D02*
X96302380Y-93790476D01*
X95588095Y-93600000D01*
X96302380Y-93409523D01*
X95302380Y-93171428D01*
X96302380Y-92266666D02*
X96302380Y-92838095D01*
X96302380Y-92552380D02*
X95302380Y-92552380D01*
X95445238Y-92647619D01*
X95540476Y-92742857D01*
X95588095Y-92838095D01*
X86157142Y-148052380D02*
X85823809Y-147576190D01*
X85585714Y-148052380D02*
X85585714Y-147052380D01*
X85966666Y-147052380D01*
X86061904Y-147100000D01*
X86109523Y-147147619D01*
X86157142Y-147242857D01*
X86157142Y-147385714D01*
X86109523Y-147480952D01*
X86061904Y-147528571D01*
X85966666Y-147576190D01*
X85585714Y-147576190D01*
X87109523Y-148052380D02*
X86538095Y-148052380D01*
X86823809Y-148052380D02*
X86823809Y-147052380D01*
X86728571Y-147195238D01*
X86633333Y-147290476D01*
X86538095Y-147338095D01*
X87585714Y-148052380D02*
X87776190Y-148052380D01*
X87871428Y-148004761D01*
X87919047Y-147957142D01*
X88014285Y-147814285D01*
X88061904Y-147623809D01*
X88061904Y-147242857D01*
X88014285Y-147147619D01*
X87966666Y-147100000D01*
X87871428Y-147052380D01*
X87680952Y-147052380D01*
X87585714Y-147100000D01*
X87538095Y-147147619D01*
X87490476Y-147242857D01*
X87490476Y-147480952D01*
X87538095Y-147576190D01*
X87585714Y-147623809D01*
X87680952Y-147671428D01*
X87871428Y-147671428D01*
X87966666Y-147623809D01*
X88014285Y-147576190D01*
X88061904Y-147480952D01*
X86157142Y-146652380D02*
X85823809Y-146176190D01*
X85585714Y-146652380D02*
X85585714Y-145652380D01*
X85966666Y-145652380D01*
X86061904Y-145700000D01*
X86109523Y-145747619D01*
X86157142Y-145842857D01*
X86157142Y-145985714D01*
X86109523Y-146080952D01*
X86061904Y-146128571D01*
X85966666Y-146176190D01*
X85585714Y-146176190D01*
X87109523Y-146652380D02*
X86538095Y-146652380D01*
X86823809Y-146652380D02*
X86823809Y-145652380D01*
X86728571Y-145795238D01*
X86633333Y-145890476D01*
X86538095Y-145938095D01*
X87680952Y-146080952D02*
X87585714Y-146033333D01*
X87538095Y-145985714D01*
X87490476Y-145890476D01*
X87490476Y-145842857D01*
X87538095Y-145747619D01*
X87585714Y-145700000D01*
X87680952Y-145652380D01*
X87871428Y-145652380D01*
X87966666Y-145700000D01*
X88014285Y-145747619D01*
X88061904Y-145842857D01*
X88061904Y-145890476D01*
X88014285Y-145985714D01*
X87966666Y-146033333D01*
X87871428Y-146080952D01*
X87680952Y-146080952D01*
X87585714Y-146128571D01*
X87538095Y-146176190D01*
X87490476Y-146271428D01*
X87490476Y-146461904D01*
X87538095Y-146557142D01*
X87585714Y-146604761D01*
X87680952Y-146652380D01*
X87871428Y-146652380D01*
X87966666Y-146604761D01*
X88014285Y-146557142D01*
X88061904Y-146461904D01*
X88061904Y-146271428D01*
X88014285Y-146176190D01*
X87966666Y-146128571D01*
X87871428Y-146080952D01*
X86157142Y-145252380D02*
X85823809Y-144776190D01*
X85585714Y-145252380D02*
X85585714Y-144252380D01*
X85966666Y-144252380D01*
X86061904Y-144300000D01*
X86109523Y-144347619D01*
X86157142Y-144442857D01*
X86157142Y-144585714D01*
X86109523Y-144680952D01*
X86061904Y-144728571D01*
X85966666Y-144776190D01*
X85585714Y-144776190D01*
X87109523Y-145252380D02*
X86538095Y-145252380D01*
X86823809Y-145252380D02*
X86823809Y-144252380D01*
X86728571Y-144395238D01*
X86633333Y-144490476D01*
X86538095Y-144538095D01*
X87442857Y-144252380D02*
X88109523Y-144252380D01*
X87680952Y-145252380D01*
X86157142Y-143852380D02*
X85823809Y-143376190D01*
X85585714Y-143852380D02*
X85585714Y-142852380D01*
X85966666Y-142852380D01*
X86061904Y-142900000D01*
X86109523Y-142947619D01*
X86157142Y-143042857D01*
X86157142Y-143185714D01*
X86109523Y-143280952D01*
X86061904Y-143328571D01*
X85966666Y-143376190D01*
X85585714Y-143376190D01*
X87109523Y-143852380D02*
X86538095Y-143852380D01*
X86823809Y-143852380D02*
X86823809Y-142852380D01*
X86728571Y-142995238D01*
X86633333Y-143090476D01*
X86538095Y-143138095D01*
X87966666Y-142852380D02*
X87776190Y-142852380D01*
X87680952Y-142900000D01*
X87633333Y-142947619D01*
X87538095Y-143090476D01*
X87490476Y-143280952D01*
X87490476Y-143661904D01*
X87538095Y-143757142D01*
X87585714Y-143804761D01*
X87680952Y-143852380D01*
X87871428Y-143852380D01*
X87966666Y-143804761D01*
X88014285Y-143757142D01*
X88061904Y-143661904D01*
X88061904Y-143423809D01*
X88014285Y-143328571D01*
X87966666Y-143280952D01*
X87871428Y-143233333D01*
X87680952Y-143233333D01*
X87585714Y-143280952D01*
X87538095Y-143328571D01*
X87490476Y-143423809D01*
X84557142Y-95872380D02*
X84223809Y-95396190D01*
X83985714Y-95872380D02*
X83985714Y-94872380D01*
X84366666Y-94872380D01*
X84461904Y-94920000D01*
X84509523Y-94967619D01*
X84557142Y-95062857D01*
X84557142Y-95205714D01*
X84509523Y-95300952D01*
X84461904Y-95348571D01*
X84366666Y-95396190D01*
X83985714Y-95396190D01*
X85509523Y-95872380D02*
X84938095Y-95872380D01*
X85223809Y-95872380D02*
X85223809Y-94872380D01*
X85128571Y-95015238D01*
X85033333Y-95110476D01*
X84938095Y-95158095D01*
X86414285Y-94872380D02*
X85938095Y-94872380D01*
X85890476Y-95348571D01*
X85938095Y-95300952D01*
X86033333Y-95253333D01*
X86271428Y-95253333D01*
X86366666Y-95300952D01*
X86414285Y-95348571D01*
X86461904Y-95443809D01*
X86461904Y-95681904D01*
X86414285Y-95777142D01*
X86366666Y-95824761D01*
X86271428Y-95872380D01*
X86033333Y-95872380D01*
X85938095Y-95824761D01*
X85890476Y-95777142D01*
X91261904Y-148052380D02*
X91261904Y-147052380D01*
X91500000Y-147052380D01*
X91642857Y-147100000D01*
X91738095Y-147195238D01*
X91785714Y-147290476D01*
X91833333Y-147480952D01*
X91833333Y-147623809D01*
X91785714Y-147814285D01*
X91738095Y-147909523D01*
X91642857Y-148004761D01*
X91500000Y-148052380D01*
X91261904Y-148052380D01*
X92690476Y-147385714D02*
X92690476Y-148052380D01*
X92452380Y-147004761D02*
X92214285Y-147719047D01*
X92833333Y-147719047D01*
X91261904Y-146652380D02*
X91261904Y-145652380D01*
X91500000Y-145652380D01*
X91642857Y-145700000D01*
X91738095Y-145795238D01*
X91785714Y-145890476D01*
X91833333Y-146080952D01*
X91833333Y-146223809D01*
X91785714Y-146414285D01*
X91738095Y-146509523D01*
X91642857Y-146604761D01*
X91500000Y-146652380D01*
X91261904Y-146652380D01*
X92166666Y-145652380D02*
X92785714Y-145652380D01*
X92452380Y-146033333D01*
X92595238Y-146033333D01*
X92690476Y-146080952D01*
X92738095Y-146128571D01*
X92785714Y-146223809D01*
X92785714Y-146461904D01*
X92738095Y-146557142D01*
X92690476Y-146604761D01*
X92595238Y-146652380D01*
X92309523Y-146652380D01*
X92214285Y-146604761D01*
X92166666Y-146557142D01*
X91261904Y-145252380D02*
X91261904Y-144252380D01*
X91500000Y-144252380D01*
X91642857Y-144300000D01*
X91738095Y-144395238D01*
X91785714Y-144490476D01*
X91833333Y-144680952D01*
X91833333Y-144823809D01*
X91785714Y-145014285D01*
X91738095Y-145109523D01*
X91642857Y-145204761D01*
X91500000Y-145252380D01*
X91261904Y-145252380D01*
X92214285Y-144347619D02*
X92261904Y-144300000D01*
X92357142Y-144252380D01*
X92595238Y-144252380D01*
X92690476Y-144300000D01*
X92738095Y-144347619D01*
X92785714Y-144442857D01*
X92785714Y-144538095D01*
X92738095Y-144680952D01*
X92166666Y-145252380D01*
X92785714Y-145252380D01*
X91261904Y-143852380D02*
X91261904Y-142852380D01*
X91500000Y-142852380D01*
X91642857Y-142900000D01*
X91738095Y-142995238D01*
X91785714Y-143090476D01*
X91833333Y-143280952D01*
X91833333Y-143423809D01*
X91785714Y-143614285D01*
X91738095Y-143709523D01*
X91642857Y-143804761D01*
X91500000Y-143852380D01*
X91261904Y-143852380D01*
X92785714Y-143852380D02*
X92214285Y-143852380D01*
X92500000Y-143852380D02*
X92500000Y-142852380D01*
X92404761Y-142995238D01*
X92309523Y-143090476D01*
X92214285Y-143138095D01*
X96157142Y-87557142D02*
X96109523Y-87604761D01*
X95966666Y-87652380D01*
X95871428Y-87652380D01*
X95728571Y-87604761D01*
X95633333Y-87509523D01*
X95585714Y-87414285D01*
X95538095Y-87223809D01*
X95538095Y-87080952D01*
X95585714Y-86890476D01*
X95633333Y-86795238D01*
X95728571Y-86700000D01*
X95871428Y-86652380D01*
X95966666Y-86652380D01*
X96109523Y-86700000D01*
X96157142Y-86747619D01*
X96538095Y-86747619D02*
X96585714Y-86700000D01*
X96680952Y-86652380D01*
X96919047Y-86652380D01*
X97014285Y-86700000D01*
X97061904Y-86747619D01*
X97109523Y-86842857D01*
X97109523Y-86938095D01*
X97061904Y-87080952D01*
X96490476Y-87652380D01*
X97109523Y-87652380D01*
X97728571Y-86652380D02*
X97823809Y-86652380D01*
X97919047Y-86700000D01*
X97966666Y-86747619D01*
X98014285Y-86842857D01*
X98061904Y-87033333D01*
X98061904Y-87271428D01*
X98014285Y-87461904D01*
X97966666Y-87557142D01*
X97919047Y-87604761D01*
X97823809Y-87652380D01*
X97728571Y-87652380D01*
X97633333Y-87604761D01*
X97585714Y-87557142D01*
X97538095Y-87461904D01*
X97490476Y-87271428D01*
X97490476Y-87033333D01*
X97538095Y-86842857D01*
X97585714Y-86747619D01*
X97633333Y-86700000D01*
X97728571Y-86652380D01*
X58233333Y-121052380D02*
X57900000Y-120576190D01*
X57661904Y-121052380D02*
X57661904Y-120052380D01*
X58042857Y-120052380D01*
X58138095Y-120100000D01*
X58185714Y-120147619D01*
X58233333Y-120242857D01*
X58233333Y-120385714D01*
X58185714Y-120480952D01*
X58138095Y-120528571D01*
X58042857Y-120576190D01*
X57661904Y-120576190D01*
X58566666Y-120052380D02*
X59233333Y-120052380D01*
X58804761Y-121052380D01*
X50252380Y-117842857D02*
X49776190Y-118176190D01*
X50252380Y-118414285D02*
X49252380Y-118414285D01*
X49252380Y-118033333D01*
X49300000Y-117938095D01*
X49347619Y-117890476D01*
X49442857Y-117842857D01*
X49585714Y-117842857D01*
X49680952Y-117890476D01*
X49728571Y-117938095D01*
X49776190Y-118033333D01*
X49776190Y-118414285D01*
X50252380Y-116890476D02*
X50252380Y-117461904D01*
X50252380Y-117176190D02*
X49252380Y-117176190D01*
X49395238Y-117271428D01*
X49490476Y-117366666D01*
X49538095Y-117461904D01*
X49585714Y-116033333D02*
X50252380Y-116033333D01*
X49204761Y-116271428D02*
X49919047Y-116509523D01*
X49919047Y-115890476D01*
X54757142Y-114652380D02*
X54423809Y-114176190D01*
X54185714Y-114652380D02*
X54185714Y-113652380D01*
X54566666Y-113652380D01*
X54661904Y-113700000D01*
X54709523Y-113747619D01*
X54757142Y-113842857D01*
X54757142Y-113985714D01*
X54709523Y-114080952D01*
X54661904Y-114128571D01*
X54566666Y-114176190D01*
X54185714Y-114176190D01*
X55709523Y-114652380D02*
X55138095Y-114652380D01*
X55423809Y-114652380D02*
X55423809Y-113652380D01*
X55328571Y-113795238D01*
X55233333Y-113890476D01*
X55138095Y-113938095D01*
X56042857Y-113652380D02*
X56661904Y-113652380D01*
X56328571Y-114033333D01*
X56471428Y-114033333D01*
X56566666Y-114080952D01*
X56614285Y-114128571D01*
X56661904Y-114223809D01*
X56661904Y-114461904D01*
X56614285Y-114557142D01*
X56566666Y-114604761D01*
X56471428Y-114652380D01*
X56185714Y-114652380D01*
X56090476Y-114604761D01*
X56042857Y-114557142D01*
X59957142Y-111252380D02*
X59623809Y-110776190D01*
X59385714Y-111252380D02*
X59385714Y-110252380D01*
X59766666Y-110252380D01*
X59861904Y-110300000D01*
X59909523Y-110347619D01*
X59957142Y-110442857D01*
X59957142Y-110585714D01*
X59909523Y-110680952D01*
X59861904Y-110728571D01*
X59766666Y-110776190D01*
X59385714Y-110776190D01*
X60909523Y-111252380D02*
X60338095Y-111252380D01*
X60623809Y-111252380D02*
X60623809Y-110252380D01*
X60528571Y-110395238D01*
X60433333Y-110490476D01*
X60338095Y-110538095D01*
X61290476Y-110347619D02*
X61338095Y-110300000D01*
X61433333Y-110252380D01*
X61671428Y-110252380D01*
X61766666Y-110300000D01*
X61814285Y-110347619D01*
X61861904Y-110442857D01*
X61861904Y-110538095D01*
X61814285Y-110680952D01*
X61242857Y-111252380D01*
X61861904Y-111252380D01*
X73390476Y-102852380D02*
X73390476Y-103566666D01*
X73342857Y-103709523D01*
X73247619Y-103804761D01*
X73104761Y-103852380D01*
X73009523Y-103852380D01*
X74390476Y-103852380D02*
X73819047Y-103852380D01*
X74104761Y-103852380D02*
X74104761Y-102852380D01*
X74009523Y-102995238D01*
X73914285Y-103090476D01*
X73819047Y-103138095D01*
X75009523Y-102852380D02*
X75104761Y-102852380D01*
X75200000Y-102900000D01*
X75247619Y-102947619D01*
X75295238Y-103042857D01*
X75342857Y-103233333D01*
X75342857Y-103471428D01*
X75295238Y-103661904D01*
X75247619Y-103757142D01*
X75200000Y-103804761D01*
X75104761Y-103852380D01*
X75009523Y-103852380D01*
X74914285Y-103804761D01*
X74866666Y-103757142D01*
X74819047Y-103661904D01*
X74771428Y-103471428D01*
X74771428Y-103233333D01*
X74819047Y-103042857D01*
X74866666Y-102947619D01*
X74914285Y-102900000D01*
X75009523Y-102852380D01*
X22957142Y-127842857D02*
X23004761Y-127890476D01*
X23052380Y-128033333D01*
X23052380Y-128128571D01*
X23004761Y-128271428D01*
X22909523Y-128366666D01*
X22814285Y-128414285D01*
X22623809Y-128461904D01*
X22480952Y-128461904D01*
X22290476Y-128414285D01*
X22195238Y-128366666D01*
X22100000Y-128271428D01*
X22052380Y-128128571D01*
X22052380Y-128033333D01*
X22100000Y-127890476D01*
X22147619Y-127842857D01*
X23052380Y-126890476D02*
X23052380Y-127461904D01*
X23052380Y-127176190D02*
X22052380Y-127176190D01*
X22195238Y-127271428D01*
X22290476Y-127366666D01*
X22338095Y-127461904D01*
X23052380Y-126414285D02*
X23052380Y-126223809D01*
X23004761Y-126128571D01*
X22957142Y-126080952D01*
X22814285Y-125985714D01*
X22623809Y-125938095D01*
X22242857Y-125938095D01*
X22147619Y-125985714D01*
X22100000Y-126033333D01*
X22052380Y-126128571D01*
X22052380Y-126319047D01*
X22100000Y-126414285D01*
X22147619Y-126461904D01*
X22242857Y-126509523D01*
X22480952Y-126509523D01*
X22576190Y-126461904D01*
X22623809Y-126414285D01*
X22671428Y-126319047D01*
X22671428Y-126128571D01*
X22623809Y-126033333D01*
X22576190Y-125985714D01*
X22480952Y-125938095D01*
X48233333Y-114852380D02*
X47900000Y-114376190D01*
X47661904Y-114852380D02*
X47661904Y-113852380D01*
X48042857Y-113852380D01*
X48138095Y-113900000D01*
X48185714Y-113947619D01*
X48233333Y-114042857D01*
X48233333Y-114185714D01*
X48185714Y-114280952D01*
X48138095Y-114328571D01*
X48042857Y-114376190D01*
X47661904Y-114376190D01*
X48614285Y-113947619D02*
X48661904Y-113900000D01*
X48757142Y-113852380D01*
X48995238Y-113852380D01*
X49090476Y-113900000D01*
X49138095Y-113947619D01*
X49185714Y-114042857D01*
X49185714Y-114138095D01*
X49138095Y-114280952D01*
X48566666Y-114852380D01*
X49185714Y-114852380D01*
X46033333Y-111052380D02*
X45700000Y-110576190D01*
X45461904Y-111052380D02*
X45461904Y-110052380D01*
X45842857Y-110052380D01*
X45938095Y-110100000D01*
X45985714Y-110147619D01*
X46033333Y-110242857D01*
X46033333Y-110385714D01*
X45985714Y-110480952D01*
X45938095Y-110528571D01*
X45842857Y-110576190D01*
X45461904Y-110576190D01*
X46985714Y-111052380D02*
X46414285Y-111052380D01*
X46700000Y-111052380D02*
X46700000Y-110052380D01*
X46604761Y-110195238D01*
X46509523Y-110290476D01*
X46414285Y-110338095D01*
X17466666Y-108922380D02*
X17466666Y-109636666D01*
X17419047Y-109779523D01*
X17323809Y-109874761D01*
X17180952Y-109922380D01*
X17085714Y-109922380D01*
X18085714Y-109350952D02*
X17990476Y-109303333D01*
X17942857Y-109255714D01*
X17895238Y-109160476D01*
X17895238Y-109112857D01*
X17942857Y-109017619D01*
X17990476Y-108970000D01*
X18085714Y-108922380D01*
X18276190Y-108922380D01*
X18371428Y-108970000D01*
X18419047Y-109017619D01*
X18466666Y-109112857D01*
X18466666Y-109160476D01*
X18419047Y-109255714D01*
X18371428Y-109303333D01*
X18276190Y-109350952D01*
X18085714Y-109350952D01*
X17990476Y-109398571D01*
X17942857Y-109446190D01*
X17895238Y-109541428D01*
X17895238Y-109731904D01*
X17942857Y-109827142D01*
X17990476Y-109874761D01*
X18085714Y-109922380D01*
X18276190Y-109922380D01*
X18371428Y-109874761D01*
X18419047Y-109827142D01*
X18466666Y-109731904D01*
X18466666Y-109541428D01*
X18419047Y-109446190D01*
X18371428Y-109398571D01*
X18276190Y-109350952D01*
X41252380Y-110776190D02*
X40252380Y-110776190D01*
X41157142Y-109728571D02*
X41204761Y-109776190D01*
X41252380Y-109919047D01*
X41252380Y-110014285D01*
X41204761Y-110157142D01*
X41109523Y-110252380D01*
X41014285Y-110300000D01*
X40823809Y-110347619D01*
X40680952Y-110347619D01*
X40490476Y-110300000D01*
X40395238Y-110252380D01*
X40300000Y-110157142D01*
X40252380Y-110014285D01*
X40252380Y-109919047D01*
X40300000Y-109776190D01*
X40347619Y-109728571D01*
X40347619Y-109347619D02*
X40300000Y-109300000D01*
X40252380Y-109204761D01*
X40252380Y-108966666D01*
X40300000Y-108871428D01*
X40347619Y-108823809D01*
X40442857Y-108776190D01*
X40538095Y-108776190D01*
X40680952Y-108823809D01*
X41252380Y-109395238D01*
X41252380Y-108776190D01*
D13*
X42455238Y-119574523D02*
X42455238Y-118304523D01*
X43785714Y-119453571D02*
X43725238Y-119514047D01*
X43543809Y-119574523D01*
X43422857Y-119574523D01*
X43241428Y-119514047D01*
X43120476Y-119393095D01*
X43060000Y-119272142D01*
X42999523Y-119030238D01*
X42999523Y-118848809D01*
X43060000Y-118606904D01*
X43120476Y-118485952D01*
X43241428Y-118365000D01*
X43422857Y-118304523D01*
X43543809Y-118304523D01*
X43725238Y-118365000D01*
X43785714Y-118425476D01*
X44995238Y-119574523D02*
X44269523Y-119574523D01*
X44632380Y-119574523D02*
X44632380Y-118304523D01*
X44511428Y-118485952D01*
X44390476Y-118606904D01*
X44269523Y-118667380D01*
D10*
X36557142Y-109357142D02*
X36509523Y-109404761D01*
X36366666Y-109452380D01*
X36271428Y-109452380D01*
X36128571Y-109404761D01*
X36033333Y-109309523D01*
X35985714Y-109214285D01*
X35938095Y-109023809D01*
X35938095Y-108880952D01*
X35985714Y-108690476D01*
X36033333Y-108595238D01*
X36128571Y-108500000D01*
X36271428Y-108452380D01*
X36366666Y-108452380D01*
X36509523Y-108500000D01*
X36557142Y-108547619D01*
X37509523Y-109452380D02*
X36938095Y-109452380D01*
X37223809Y-109452380D02*
X37223809Y-108452380D01*
X37128571Y-108595238D01*
X37033333Y-108690476D01*
X36938095Y-108738095D01*
X38461904Y-109452380D02*
X37890476Y-109452380D01*
X38176190Y-109452380D02*
X38176190Y-108452380D01*
X38080952Y-108595238D01*
X37985714Y-108690476D01*
X37890476Y-108738095D01*
X42833333Y-105557142D02*
X42785714Y-105604761D01*
X42642857Y-105652380D01*
X42547619Y-105652380D01*
X42404761Y-105604761D01*
X42309523Y-105509523D01*
X42261904Y-105414285D01*
X42214285Y-105223809D01*
X42214285Y-105080952D01*
X42261904Y-104890476D01*
X42309523Y-104795238D01*
X42404761Y-104700000D01*
X42547619Y-104652380D01*
X42642857Y-104652380D01*
X42785714Y-104700000D01*
X42833333Y-104747619D01*
X43690476Y-104652380D02*
X43500000Y-104652380D01*
X43404761Y-104700000D01*
X43357142Y-104747619D01*
X43261904Y-104890476D01*
X43214285Y-105080952D01*
X43214285Y-105461904D01*
X43261904Y-105557142D01*
X43309523Y-105604761D01*
X43404761Y-105652380D01*
X43595238Y-105652380D01*
X43690476Y-105604761D01*
X43738095Y-105557142D01*
X43785714Y-105461904D01*
X43785714Y-105223809D01*
X43738095Y-105128571D01*
X43690476Y-105080952D01*
X43595238Y-105033333D01*
X43404761Y-105033333D01*
X43309523Y-105080952D01*
X43261904Y-105128571D01*
X43214285Y-105223809D01*
X80423809Y-104652380D02*
X80423809Y-103652380D01*
X81471428Y-104557142D02*
X81423809Y-104604761D01*
X81280952Y-104652380D01*
X81185714Y-104652380D01*
X81042857Y-104604761D01*
X80947619Y-104509523D01*
X80900000Y-104414285D01*
X80852380Y-104223809D01*
X80852380Y-104080952D01*
X80900000Y-103890476D01*
X80947619Y-103795238D01*
X81042857Y-103700000D01*
X81185714Y-103652380D01*
X81280952Y-103652380D01*
X81423809Y-103700000D01*
X81471428Y-103747619D01*
X81804761Y-103652380D02*
X82471428Y-103652380D01*
X82042857Y-104652380D01*
X76757142Y-103852380D02*
X76423809Y-103376190D01*
X76185714Y-103852380D02*
X76185714Y-102852380D01*
X76566666Y-102852380D01*
X76661904Y-102900000D01*
X76709523Y-102947619D01*
X76757142Y-103042857D01*
X76757142Y-103185714D01*
X76709523Y-103280952D01*
X76661904Y-103328571D01*
X76566666Y-103376190D01*
X76185714Y-103376190D01*
X77709523Y-103852380D02*
X77138095Y-103852380D01*
X77423809Y-103852380D02*
X77423809Y-102852380D01*
X77328571Y-102995238D01*
X77233333Y-103090476D01*
X77138095Y-103138095D01*
X78661904Y-103852380D02*
X78090476Y-103852380D01*
X78376190Y-103852380D02*
X78376190Y-102852380D01*
X78280952Y-102995238D01*
X78185714Y-103090476D01*
X78090476Y-103138095D01*
X82052380Y-112242857D02*
X81576190Y-112576190D01*
X82052380Y-112814285D02*
X81052380Y-112814285D01*
X81052380Y-112433333D01*
X81100000Y-112338095D01*
X81147619Y-112290476D01*
X81242857Y-112242857D01*
X81385714Y-112242857D01*
X81480952Y-112290476D01*
X81528571Y-112338095D01*
X81576190Y-112433333D01*
X81576190Y-112814285D01*
X82052380Y-111290476D02*
X82052380Y-111861904D01*
X82052380Y-111576190D02*
X81052380Y-111576190D01*
X81195238Y-111671428D01*
X81290476Y-111766666D01*
X81338095Y-111861904D01*
X81052380Y-110671428D02*
X81052380Y-110576190D01*
X81100000Y-110480952D01*
X81147619Y-110433333D01*
X81242857Y-110385714D01*
X81433333Y-110338095D01*
X81671428Y-110338095D01*
X81861904Y-110385714D01*
X81957142Y-110433333D01*
X82004761Y-110480952D01*
X82052380Y-110576190D01*
X82052380Y-110671428D01*
X82004761Y-110766666D01*
X81957142Y-110814285D01*
X81861904Y-110861904D01*
X81671428Y-110909523D01*
X81433333Y-110909523D01*
X81242857Y-110861904D01*
X81147619Y-110814285D01*
X81100000Y-110766666D01*
X81052380Y-110671428D01*
X53833333Y-110072380D02*
X53500000Y-109596190D01*
X53261904Y-110072380D02*
X53261904Y-109072380D01*
X53642857Y-109072380D01*
X53738095Y-109120000D01*
X53785714Y-109167619D01*
X53833333Y-109262857D01*
X53833333Y-109405714D01*
X53785714Y-109500952D01*
X53738095Y-109548571D01*
X53642857Y-109596190D01*
X53261904Y-109596190D01*
X54309523Y-110072380D02*
X54500000Y-110072380D01*
X54595238Y-110024761D01*
X54642857Y-109977142D01*
X54738095Y-109834285D01*
X54785714Y-109643809D01*
X54785714Y-109262857D01*
X54738095Y-109167619D01*
X54690476Y-109120000D01*
X54595238Y-109072380D01*
X54404761Y-109072380D01*
X54309523Y-109120000D01*
X54261904Y-109167619D01*
X54214285Y-109262857D01*
X54214285Y-109500952D01*
X54261904Y-109596190D01*
X54309523Y-109643809D01*
X54404761Y-109691428D01*
X54595238Y-109691428D01*
X54690476Y-109643809D01*
X54738095Y-109596190D01*
X54785714Y-109500952D01*
X53833333Y-112872380D02*
X53500000Y-112396190D01*
X53261904Y-112872380D02*
X53261904Y-111872380D01*
X53642857Y-111872380D01*
X53738095Y-111920000D01*
X53785714Y-111967619D01*
X53833333Y-112062857D01*
X53833333Y-112205714D01*
X53785714Y-112300952D01*
X53738095Y-112348571D01*
X53642857Y-112396190D01*
X53261904Y-112396190D01*
X54404761Y-112300952D02*
X54309523Y-112253333D01*
X54261904Y-112205714D01*
X54214285Y-112110476D01*
X54214285Y-112062857D01*
X54261904Y-111967619D01*
X54309523Y-111920000D01*
X54404761Y-111872380D01*
X54595238Y-111872380D01*
X54690476Y-111920000D01*
X54738095Y-111967619D01*
X54785714Y-112062857D01*
X54785714Y-112110476D01*
X54738095Y-112205714D01*
X54690476Y-112253333D01*
X54595238Y-112300952D01*
X54404761Y-112300952D01*
X54309523Y-112348571D01*
X54261904Y-112396190D01*
X54214285Y-112491428D01*
X54214285Y-112681904D01*
X54261904Y-112777142D01*
X54309523Y-112824761D01*
X54404761Y-112872380D01*
X54595238Y-112872380D01*
X54690476Y-112824761D01*
X54738095Y-112777142D01*
X54785714Y-112681904D01*
X54785714Y-112491428D01*
X54738095Y-112396190D01*
X54690476Y-112348571D01*
X54595238Y-112300952D01*
X29532380Y-109546666D02*
X29056190Y-109880000D01*
X29532380Y-110118095D02*
X28532380Y-110118095D01*
X28532380Y-109737142D01*
X28580000Y-109641904D01*
X28627619Y-109594285D01*
X28722857Y-109546666D01*
X28865714Y-109546666D01*
X28960952Y-109594285D01*
X29008571Y-109641904D01*
X29056190Y-109737142D01*
X29056190Y-110118095D01*
X28532380Y-108689523D02*
X28532380Y-108880000D01*
X28580000Y-108975238D01*
X28627619Y-109022857D01*
X28770476Y-109118095D01*
X28960952Y-109165714D01*
X29341904Y-109165714D01*
X29437142Y-109118095D01*
X29484761Y-109070476D01*
X29532380Y-108975238D01*
X29532380Y-108784761D01*
X29484761Y-108689523D01*
X29437142Y-108641904D01*
X29341904Y-108594285D01*
X29103809Y-108594285D01*
X29008571Y-108641904D01*
X28960952Y-108689523D01*
X28913333Y-108784761D01*
X28913333Y-108975238D01*
X28960952Y-109070476D01*
X29008571Y-109118095D01*
X29103809Y-109165714D01*
X69233333Y-139452380D02*
X68900000Y-138976190D01*
X68661904Y-139452380D02*
X68661904Y-138452380D01*
X69042857Y-138452380D01*
X69138095Y-138500000D01*
X69185714Y-138547619D01*
X69233333Y-138642857D01*
X69233333Y-138785714D01*
X69185714Y-138880952D01*
X69138095Y-138928571D01*
X69042857Y-138976190D01*
X68661904Y-138976190D01*
X70138095Y-138452380D02*
X69661904Y-138452380D01*
X69614285Y-138928571D01*
X69661904Y-138880952D01*
X69757142Y-138833333D01*
X69995238Y-138833333D01*
X70090476Y-138880952D01*
X70138095Y-138928571D01*
X70185714Y-139023809D01*
X70185714Y-139261904D01*
X70138095Y-139357142D01*
X70090476Y-139404761D01*
X69995238Y-139452380D01*
X69757142Y-139452380D01*
X69661904Y-139404761D01*
X69614285Y-139357142D01*
X73833333Y-123832380D02*
X73500000Y-123356190D01*
X73261904Y-123832380D02*
X73261904Y-122832380D01*
X73642857Y-122832380D01*
X73738095Y-122880000D01*
X73785714Y-122927619D01*
X73833333Y-123022857D01*
X73833333Y-123165714D01*
X73785714Y-123260952D01*
X73738095Y-123308571D01*
X73642857Y-123356190D01*
X73261904Y-123356190D01*
X74690476Y-123165714D02*
X74690476Y-123832380D01*
X74452380Y-122784761D02*
X74214285Y-123499047D01*
X74833333Y-123499047D01*
X77033333Y-130252380D02*
X76700000Y-129776190D01*
X76461904Y-130252380D02*
X76461904Y-129252380D01*
X76842857Y-129252380D01*
X76938095Y-129300000D01*
X76985714Y-129347619D01*
X77033333Y-129442857D01*
X77033333Y-129585714D01*
X76985714Y-129680952D01*
X76938095Y-129728571D01*
X76842857Y-129776190D01*
X76461904Y-129776190D01*
X77366666Y-129252380D02*
X77985714Y-129252380D01*
X77652380Y-129633333D01*
X77795238Y-129633333D01*
X77890476Y-129680952D01*
X77938095Y-129728571D01*
X77985714Y-129823809D01*
X77985714Y-130061904D01*
X77938095Y-130157142D01*
X77890476Y-130204761D01*
X77795238Y-130252380D01*
X77509523Y-130252380D01*
X77414285Y-130204761D01*
X77366666Y-130157142D01*
X17466666Y-97982380D02*
X17466666Y-98696666D01*
X17419047Y-98839523D01*
X17323809Y-98934761D01*
X17180952Y-98982380D01*
X17085714Y-98982380D01*
X17990476Y-98982380D02*
X18180952Y-98982380D01*
X18276190Y-98934761D01*
X18323809Y-98887142D01*
X18419047Y-98744285D01*
X18466666Y-98553809D01*
X18466666Y-98172857D01*
X18419047Y-98077619D01*
X18371428Y-98030000D01*
X18276190Y-97982380D01*
X18085714Y-97982380D01*
X17990476Y-98030000D01*
X17942857Y-98077619D01*
X17895238Y-98172857D01*
X17895238Y-98410952D01*
X17942857Y-98506190D01*
X17990476Y-98553809D01*
X18085714Y-98601428D01*
X18276190Y-98601428D01*
X18371428Y-98553809D01*
X18419047Y-98506190D01*
X18466666Y-98410952D01*
D13*
X35360238Y-99374523D02*
X35360238Y-98104523D01*
X36690714Y-99253571D02*
X36630238Y-99314047D01*
X36448809Y-99374523D01*
X36327857Y-99374523D01*
X36146428Y-99314047D01*
X36025476Y-99193095D01*
X35965000Y-99072142D01*
X35904523Y-98830238D01*
X35904523Y-98648809D01*
X35965000Y-98406904D01*
X36025476Y-98285952D01*
X36146428Y-98165000D01*
X36327857Y-98104523D01*
X36448809Y-98104523D01*
X36630238Y-98165000D01*
X36690714Y-98225476D01*
X37779285Y-98104523D02*
X37537380Y-98104523D01*
X37416428Y-98165000D01*
X37355952Y-98225476D01*
X37235000Y-98406904D01*
X37174523Y-98648809D01*
X37174523Y-99132619D01*
X37235000Y-99253571D01*
X37295476Y-99314047D01*
X37416428Y-99374523D01*
X37658333Y-99374523D01*
X37779285Y-99314047D01*
X37839761Y-99253571D01*
X37900238Y-99132619D01*
X37900238Y-98830238D01*
X37839761Y-98709285D01*
X37779285Y-98648809D01*
X37658333Y-98588333D01*
X37416428Y-98588333D01*
X37295476Y-98648809D01*
X37235000Y-98709285D01*
X37174523Y-98830238D01*
D10*
X87852380Y-119133333D02*
X88566666Y-119133333D01*
X88709523Y-119180952D01*
X88804761Y-119276190D01*
X88852380Y-119419047D01*
X88852380Y-119514285D01*
X87852380Y-118228571D02*
X87852380Y-118419047D01*
X87900000Y-118514285D01*
X87947619Y-118561904D01*
X88090476Y-118657142D01*
X88280952Y-118704761D01*
X88661904Y-118704761D01*
X88757142Y-118657142D01*
X88804761Y-118609523D01*
X88852380Y-118514285D01*
X88852380Y-118323809D01*
X88804761Y-118228571D01*
X88757142Y-118180952D01*
X88661904Y-118133333D01*
X88423809Y-118133333D01*
X88328571Y-118180952D01*
X88280952Y-118228571D01*
X88233333Y-118323809D01*
X88233333Y-118514285D01*
X88280952Y-118609523D01*
X88328571Y-118657142D01*
X88423809Y-118704761D01*
X28266666Y-119122380D02*
X28266666Y-119836666D01*
X28219047Y-119979523D01*
X28123809Y-120074761D01*
X27980952Y-120122380D01*
X27885714Y-120122380D01*
X29219047Y-119122380D02*
X28742857Y-119122380D01*
X28695238Y-119598571D01*
X28742857Y-119550952D01*
X28838095Y-119503333D01*
X29076190Y-119503333D01*
X29171428Y-119550952D01*
X29219047Y-119598571D01*
X29266666Y-119693809D01*
X29266666Y-119931904D01*
X29219047Y-120027142D01*
X29171428Y-120074761D01*
X29076190Y-120122380D01*
X28838095Y-120122380D01*
X28742857Y-120074761D01*
X28695238Y-120027142D01*
X73666666Y-142052380D02*
X73666666Y-142766666D01*
X73619047Y-142909523D01*
X73523809Y-143004761D01*
X73380952Y-143052380D01*
X73285714Y-143052380D01*
X74571428Y-142385714D02*
X74571428Y-143052380D01*
X74333333Y-142004761D02*
X74095238Y-142719047D01*
X74714285Y-142719047D01*
X91666666Y-97722380D02*
X91666666Y-98436666D01*
X91619047Y-98579523D01*
X91523809Y-98674761D01*
X91380952Y-98722380D01*
X91285714Y-98722380D01*
X92047619Y-97722380D02*
X92666666Y-97722380D01*
X92333333Y-98103333D01*
X92476190Y-98103333D01*
X92571428Y-98150952D01*
X92619047Y-98198571D01*
X92666666Y-98293809D01*
X92666666Y-98531904D01*
X92619047Y-98627142D01*
X92571428Y-98674761D01*
X92476190Y-98722380D01*
X92190476Y-98722380D01*
X92095238Y-98674761D01*
X92047619Y-98627142D01*
X56417380Y-106900833D02*
X57131666Y-106900833D01*
X57274523Y-106948452D01*
X57369761Y-107043690D01*
X57417380Y-107186547D01*
X57417380Y-107281785D01*
X56512619Y-106472261D02*
X56465000Y-106424642D01*
X56417380Y-106329404D01*
X56417380Y-106091309D01*
X56465000Y-105996071D01*
X56512619Y-105948452D01*
X56607857Y-105900833D01*
X56703095Y-105900833D01*
X56845952Y-105948452D01*
X57417380Y-106519880D01*
X57417380Y-105900833D01*
X59522380Y-97933333D02*
X60236666Y-97933333D01*
X60379523Y-97980952D01*
X60474761Y-98076190D01*
X60522380Y-98219047D01*
X60522380Y-98314285D01*
X60522380Y-96933333D02*
X60522380Y-97504761D01*
X60522380Y-97219047D02*
X59522380Y-97219047D01*
X59665238Y-97314285D01*
X59760476Y-97409523D01*
X59808095Y-97504761D01*
X69623809Y-110972380D02*
X69623809Y-109972380D01*
X70671428Y-110877142D02*
X70623809Y-110924761D01*
X70480952Y-110972380D01*
X70385714Y-110972380D01*
X70242857Y-110924761D01*
X70147619Y-110829523D01*
X70100000Y-110734285D01*
X70052380Y-110543809D01*
X70052380Y-110400952D01*
X70100000Y-110210476D01*
X70147619Y-110115238D01*
X70242857Y-110020000D01*
X70385714Y-109972380D01*
X70480952Y-109972380D01*
X70623809Y-110020000D01*
X70671428Y-110067619D01*
X71576190Y-109972380D02*
X71100000Y-109972380D01*
X71052380Y-110448571D01*
X71100000Y-110400952D01*
X71195238Y-110353333D01*
X71433333Y-110353333D01*
X71528571Y-110400952D01*
X71576190Y-110448571D01*
X71623809Y-110543809D01*
X71623809Y-110781904D01*
X71576190Y-110877142D01*
X71528571Y-110924761D01*
X71433333Y-110972380D01*
X71195238Y-110972380D01*
X71100000Y-110924761D01*
X71052380Y-110877142D01*
D13*
X40574523Y-126239761D02*
X39304523Y-126239761D01*
X40453571Y-124909285D02*
X40514047Y-124969761D01*
X40574523Y-125151190D01*
X40574523Y-125272142D01*
X40514047Y-125453571D01*
X40393095Y-125574523D01*
X40272142Y-125635000D01*
X40030238Y-125695476D01*
X39848809Y-125695476D01*
X39606904Y-125635000D01*
X39485952Y-125574523D01*
X39365000Y-125453571D01*
X39304523Y-125272142D01*
X39304523Y-125151190D01*
X39365000Y-124969761D01*
X39425476Y-124909285D01*
X39727857Y-123820714D02*
X40574523Y-123820714D01*
X39244047Y-124123095D02*
X40151190Y-124425476D01*
X40151190Y-123639285D01*
X69974523Y-133639761D02*
X68704523Y-133639761D01*
X69853571Y-132309285D02*
X69914047Y-132369761D01*
X69974523Y-132551190D01*
X69974523Y-132672142D01*
X69914047Y-132853571D01*
X69793095Y-132974523D01*
X69672142Y-133035000D01*
X69430238Y-133095476D01*
X69248809Y-133095476D01*
X69006904Y-133035000D01*
X68885952Y-132974523D01*
X68765000Y-132853571D01*
X68704523Y-132672142D01*
X68704523Y-132551190D01*
X68765000Y-132369761D01*
X68825476Y-132309285D01*
X68704523Y-131885952D02*
X68704523Y-131099761D01*
X69188333Y-131523095D01*
X69188333Y-131341666D01*
X69248809Y-131220714D01*
X69309285Y-131160238D01*
X69430238Y-131099761D01*
X69732619Y-131099761D01*
X69853571Y-131160238D01*
X69914047Y-131220714D01*
X69974523Y-131341666D01*
X69974523Y-131704523D01*
X69914047Y-131825476D01*
X69853571Y-131885952D01*
D10*
X48007142Y-102605357D02*
X48054761Y-102652976D01*
X48102380Y-102795833D01*
X48102380Y-102891071D01*
X48054761Y-103033928D01*
X47959523Y-103129166D01*
X47864285Y-103176785D01*
X47673809Y-103224404D01*
X47530952Y-103224404D01*
X47340476Y-103176785D01*
X47245238Y-103129166D01*
X47150000Y-103033928D01*
X47102380Y-102891071D01*
X47102380Y-102795833D01*
X47150000Y-102652976D01*
X47197619Y-102605357D01*
X48102380Y-101652976D02*
X48102380Y-102224404D01*
X48102380Y-101938690D02*
X47102380Y-101938690D01*
X47245238Y-102033928D01*
X47340476Y-102129166D01*
X47388095Y-102224404D01*
X47530952Y-101081547D02*
X47483333Y-101176785D01*
X47435714Y-101224404D01*
X47340476Y-101272023D01*
X47292857Y-101272023D01*
X47197619Y-101224404D01*
X47150000Y-101176785D01*
X47102380Y-101081547D01*
X47102380Y-100891071D01*
X47150000Y-100795833D01*
X47197619Y-100748214D01*
X47292857Y-100700595D01*
X47340476Y-100700595D01*
X47435714Y-100748214D01*
X47483333Y-100795833D01*
X47530952Y-100891071D01*
X47530952Y-101081547D01*
X47578571Y-101176785D01*
X47626190Y-101224404D01*
X47721428Y-101272023D01*
X47911904Y-101272023D01*
X48007142Y-101224404D01*
X48054761Y-101176785D01*
X48102380Y-101081547D01*
X48102380Y-100891071D01*
X48054761Y-100795833D01*
X48007142Y-100748214D01*
X47911904Y-100700595D01*
X47721428Y-100700595D01*
X47626190Y-100748214D01*
X47578571Y-100795833D01*
X47530952Y-100891071D01*
X44307142Y-130242857D02*
X44354761Y-130290476D01*
X44402380Y-130433333D01*
X44402380Y-130528571D01*
X44354761Y-130671428D01*
X44259523Y-130766666D01*
X44164285Y-130814285D01*
X43973809Y-130861904D01*
X43830952Y-130861904D01*
X43640476Y-130814285D01*
X43545238Y-130766666D01*
X43450000Y-130671428D01*
X43402380Y-130528571D01*
X43402380Y-130433333D01*
X43450000Y-130290476D01*
X43497619Y-130242857D01*
X44402380Y-129290476D02*
X44402380Y-129861904D01*
X44402380Y-129576190D02*
X43402380Y-129576190D01*
X43545238Y-129671428D01*
X43640476Y-129766666D01*
X43688095Y-129861904D01*
X43402380Y-128957142D02*
X43402380Y-128290476D01*
X44402380Y-128719047D01*
X44307142Y-135442857D02*
X44354761Y-135490476D01*
X44402380Y-135633333D01*
X44402380Y-135728571D01*
X44354761Y-135871428D01*
X44259523Y-135966666D01*
X44164285Y-136014285D01*
X43973809Y-136061904D01*
X43830952Y-136061904D01*
X43640476Y-136014285D01*
X43545238Y-135966666D01*
X43450000Y-135871428D01*
X43402380Y-135728571D01*
X43402380Y-135633333D01*
X43450000Y-135490476D01*
X43497619Y-135442857D01*
X44402380Y-134490476D02*
X44402380Y-135061904D01*
X44402380Y-134776190D02*
X43402380Y-134776190D01*
X43545238Y-134871428D01*
X43640476Y-134966666D01*
X43688095Y-135061904D01*
X43402380Y-133633333D02*
X43402380Y-133823809D01*
X43450000Y-133919047D01*
X43497619Y-133966666D01*
X43640476Y-134061904D01*
X43830952Y-134109523D01*
X44211904Y-134109523D01*
X44307142Y-134061904D01*
X44354761Y-134014285D01*
X44402380Y-133919047D01*
X44402380Y-133728571D01*
X44354761Y-133633333D01*
X44307142Y-133585714D01*
X44211904Y-133538095D01*
X43973809Y-133538095D01*
X43878571Y-133585714D01*
X43830952Y-133633333D01*
X43783333Y-133728571D01*
X43783333Y-133919047D01*
X43830952Y-134014285D01*
X43878571Y-134061904D01*
X43973809Y-134109523D01*
X76157142Y-123242857D02*
X76204761Y-123290476D01*
X76252380Y-123433333D01*
X76252380Y-123528571D01*
X76204761Y-123671428D01*
X76109523Y-123766666D01*
X76014285Y-123814285D01*
X75823809Y-123861904D01*
X75680952Y-123861904D01*
X75490476Y-123814285D01*
X75395238Y-123766666D01*
X75300000Y-123671428D01*
X75252380Y-123528571D01*
X75252380Y-123433333D01*
X75300000Y-123290476D01*
X75347619Y-123242857D01*
X76252380Y-122290476D02*
X76252380Y-122861904D01*
X76252380Y-122576190D02*
X75252380Y-122576190D01*
X75395238Y-122671428D01*
X75490476Y-122766666D01*
X75538095Y-122861904D01*
X75252380Y-121385714D02*
X75252380Y-121861904D01*
X75728571Y-121909523D01*
X75680952Y-121861904D01*
X75633333Y-121766666D01*
X75633333Y-121528571D01*
X75680952Y-121433333D01*
X75728571Y-121385714D01*
X75823809Y-121338095D01*
X76061904Y-121338095D01*
X76157142Y-121385714D01*
X76204761Y-121433333D01*
X76252380Y-121528571D01*
X76252380Y-121766666D01*
X76204761Y-121861904D01*
X76157142Y-121909523D01*
X50357142Y-90357142D02*
X50309523Y-90404761D01*
X50166666Y-90452380D01*
X50071428Y-90452380D01*
X49928571Y-90404761D01*
X49833333Y-90309523D01*
X49785714Y-90214285D01*
X49738095Y-90023809D01*
X49738095Y-89880952D01*
X49785714Y-89690476D01*
X49833333Y-89595238D01*
X49928571Y-89500000D01*
X50071428Y-89452380D01*
X50166666Y-89452380D01*
X50309523Y-89500000D01*
X50357142Y-89547619D01*
X51309523Y-90452380D02*
X50738095Y-90452380D01*
X51023809Y-90452380D02*
X51023809Y-89452380D01*
X50928571Y-89595238D01*
X50833333Y-89690476D01*
X50738095Y-89738095D01*
X52166666Y-89785714D02*
X52166666Y-90452380D01*
X51928571Y-89404761D02*
X51690476Y-90119047D01*
X52309523Y-90119047D01*
X62757142Y-91907142D02*
X62709523Y-91954761D01*
X62566666Y-92002380D01*
X62471428Y-92002380D01*
X62328571Y-91954761D01*
X62233333Y-91859523D01*
X62185714Y-91764285D01*
X62138095Y-91573809D01*
X62138095Y-91430952D01*
X62185714Y-91240476D01*
X62233333Y-91145238D01*
X62328571Y-91050000D01*
X62471428Y-91002380D01*
X62566666Y-91002380D01*
X62709523Y-91050000D01*
X62757142Y-91097619D01*
X63709523Y-92002380D02*
X63138095Y-92002380D01*
X63423809Y-92002380D02*
X63423809Y-91002380D01*
X63328571Y-91145238D01*
X63233333Y-91240476D01*
X63138095Y-91288095D01*
X64042857Y-91002380D02*
X64661904Y-91002380D01*
X64328571Y-91383333D01*
X64471428Y-91383333D01*
X64566666Y-91430952D01*
X64614285Y-91478571D01*
X64661904Y-91573809D01*
X64661904Y-91811904D01*
X64614285Y-91907142D01*
X64566666Y-91954761D01*
X64471428Y-92002380D01*
X64185714Y-92002380D01*
X64090476Y-91954761D01*
X64042857Y-91907142D01*
X90307142Y-123842857D02*
X90354761Y-123890476D01*
X90402380Y-124033333D01*
X90402380Y-124128571D01*
X90354761Y-124271428D01*
X90259523Y-124366666D01*
X90164285Y-124414285D01*
X89973809Y-124461904D01*
X89830952Y-124461904D01*
X89640476Y-124414285D01*
X89545238Y-124366666D01*
X89450000Y-124271428D01*
X89402380Y-124128571D01*
X89402380Y-124033333D01*
X89450000Y-123890476D01*
X89497619Y-123842857D01*
X90402380Y-122890476D02*
X90402380Y-123461904D01*
X90402380Y-123176190D02*
X89402380Y-123176190D01*
X89545238Y-123271428D01*
X89640476Y-123366666D01*
X89688095Y-123461904D01*
X89497619Y-122509523D02*
X89450000Y-122461904D01*
X89402380Y-122366666D01*
X89402380Y-122128571D01*
X89450000Y-122033333D01*
X89497619Y-121985714D01*
X89592857Y-121938095D01*
X89688095Y-121938095D01*
X89830952Y-121985714D01*
X90402380Y-122557142D01*
X90402380Y-121938095D01*
X61207142Y-139242857D02*
X61254761Y-139290476D01*
X61302380Y-139433333D01*
X61302380Y-139528571D01*
X61254761Y-139671428D01*
X61159523Y-139766666D01*
X61064285Y-139814285D01*
X60873809Y-139861904D01*
X60730952Y-139861904D01*
X60540476Y-139814285D01*
X60445238Y-139766666D01*
X60350000Y-139671428D01*
X60302380Y-139528571D01*
X60302380Y-139433333D01*
X60350000Y-139290476D01*
X60397619Y-139242857D01*
X61302380Y-138290476D02*
X61302380Y-138861904D01*
X61302380Y-138576190D02*
X60302380Y-138576190D01*
X60445238Y-138671428D01*
X60540476Y-138766666D01*
X60588095Y-138861904D01*
X60302380Y-137671428D02*
X60302380Y-137576190D01*
X60350000Y-137480952D01*
X60397619Y-137433333D01*
X60492857Y-137385714D01*
X60683333Y-137338095D01*
X60921428Y-137338095D01*
X61111904Y-137385714D01*
X61207142Y-137433333D01*
X61254761Y-137480952D01*
X61302380Y-137576190D01*
X61302380Y-137671428D01*
X61254761Y-137766666D01*
X61207142Y-137814285D01*
X61111904Y-137861904D01*
X60921428Y-137909523D01*
X60683333Y-137909523D01*
X60492857Y-137861904D01*
X60397619Y-137814285D01*
X60350000Y-137766666D01*
X60302380Y-137671428D01*
X51233333Y-122357142D02*
X51185714Y-122404761D01*
X51042857Y-122452380D01*
X50947619Y-122452380D01*
X50804761Y-122404761D01*
X50709523Y-122309523D01*
X50661904Y-122214285D01*
X50614285Y-122023809D01*
X50614285Y-121880952D01*
X50661904Y-121690476D01*
X50709523Y-121595238D01*
X50804761Y-121500000D01*
X50947619Y-121452380D01*
X51042857Y-121452380D01*
X51185714Y-121500000D01*
X51233333Y-121547619D01*
X51709523Y-122452380D02*
X51900000Y-122452380D01*
X51995238Y-122404761D01*
X52042857Y-122357142D01*
X52138095Y-122214285D01*
X52185714Y-122023809D01*
X52185714Y-121642857D01*
X52138095Y-121547619D01*
X52090476Y-121500000D01*
X51995238Y-121452380D01*
X51804761Y-121452380D01*
X51709523Y-121500000D01*
X51661904Y-121547619D01*
X51614285Y-121642857D01*
X51614285Y-121880952D01*
X51661904Y-121976190D01*
X51709523Y-122023809D01*
X51804761Y-122071428D01*
X51995238Y-122071428D01*
X52090476Y-122023809D01*
X52138095Y-121976190D01*
X52185714Y-121880952D01*
X46433333Y-90457142D02*
X46385714Y-90504761D01*
X46242857Y-90552380D01*
X46147619Y-90552380D01*
X46004761Y-90504761D01*
X45909523Y-90409523D01*
X45861904Y-90314285D01*
X45814285Y-90123809D01*
X45814285Y-89980952D01*
X45861904Y-89790476D01*
X45909523Y-89695238D01*
X46004761Y-89600000D01*
X46147619Y-89552380D01*
X46242857Y-89552380D01*
X46385714Y-89600000D01*
X46433333Y-89647619D01*
X47004761Y-89980952D02*
X46909523Y-89933333D01*
X46861904Y-89885714D01*
X46814285Y-89790476D01*
X46814285Y-89742857D01*
X46861904Y-89647619D01*
X46909523Y-89600000D01*
X47004761Y-89552380D01*
X47195238Y-89552380D01*
X47290476Y-89600000D01*
X47338095Y-89647619D01*
X47385714Y-89742857D01*
X47385714Y-89790476D01*
X47338095Y-89885714D01*
X47290476Y-89933333D01*
X47195238Y-89980952D01*
X47004761Y-89980952D01*
X46909523Y-90028571D01*
X46861904Y-90076190D01*
X46814285Y-90171428D01*
X46814285Y-90361904D01*
X46861904Y-90457142D01*
X46909523Y-90504761D01*
X47004761Y-90552380D01*
X47195238Y-90552380D01*
X47290476Y-90504761D01*
X47338095Y-90457142D01*
X47385714Y-90361904D01*
X47385714Y-90171428D01*
X47338095Y-90076190D01*
X47290476Y-90028571D01*
X47195238Y-89980952D01*
X88207142Y-107929166D02*
X88254761Y-107976785D01*
X88302380Y-108119642D01*
X88302380Y-108214880D01*
X88254761Y-108357738D01*
X88159523Y-108452976D01*
X88064285Y-108500595D01*
X87873809Y-108548214D01*
X87730952Y-108548214D01*
X87540476Y-108500595D01*
X87445238Y-108452976D01*
X87350000Y-108357738D01*
X87302380Y-108214880D01*
X87302380Y-108119642D01*
X87350000Y-107976785D01*
X87397619Y-107929166D01*
X87302380Y-107595833D02*
X87302380Y-106929166D01*
X88302380Y-107357738D01*
X64007142Y-117566666D02*
X64054761Y-117614285D01*
X64102380Y-117757142D01*
X64102380Y-117852380D01*
X64054761Y-117995238D01*
X63959523Y-118090476D01*
X63864285Y-118138095D01*
X63673809Y-118185714D01*
X63530952Y-118185714D01*
X63340476Y-118138095D01*
X63245238Y-118090476D01*
X63150000Y-117995238D01*
X63102380Y-117852380D01*
X63102380Y-117757142D01*
X63150000Y-117614285D01*
X63197619Y-117566666D01*
X63102380Y-116661904D02*
X63102380Y-117138095D01*
X63578571Y-117185714D01*
X63530952Y-117138095D01*
X63483333Y-117042857D01*
X63483333Y-116804761D01*
X63530952Y-116709523D01*
X63578571Y-116661904D01*
X63673809Y-116614285D01*
X63911904Y-116614285D01*
X64007142Y-116661904D01*
X64054761Y-116709523D01*
X64102380Y-116804761D01*
X64102380Y-117042857D01*
X64054761Y-117138095D01*
X64007142Y-117185714D01*
X53833333Y-98907142D02*
X53785714Y-98954761D01*
X53642857Y-99002380D01*
X53547619Y-99002380D01*
X53404761Y-98954761D01*
X53309523Y-98859523D01*
X53261904Y-98764285D01*
X53214285Y-98573809D01*
X53214285Y-98430952D01*
X53261904Y-98240476D01*
X53309523Y-98145238D01*
X53404761Y-98050000D01*
X53547619Y-98002380D01*
X53642857Y-98002380D01*
X53785714Y-98050000D01*
X53833333Y-98097619D01*
X54690476Y-98335714D02*
X54690476Y-99002380D01*
X54452380Y-97954761D02*
X54214285Y-98669047D01*
X54833333Y-98669047D01*
X71207142Y-91129166D02*
X71254761Y-91176785D01*
X71302380Y-91319642D01*
X71302380Y-91414880D01*
X71254761Y-91557738D01*
X71159523Y-91652976D01*
X71064285Y-91700595D01*
X70873809Y-91748214D01*
X70730952Y-91748214D01*
X70540476Y-91700595D01*
X70445238Y-91652976D01*
X70350000Y-91557738D01*
X70302380Y-91414880D01*
X70302380Y-91319642D01*
X70350000Y-91176785D01*
X70397619Y-91129166D01*
X70302380Y-90795833D02*
X70302380Y-90176785D01*
X70683333Y-90510119D01*
X70683333Y-90367261D01*
X70730952Y-90272023D01*
X70778571Y-90224404D01*
X70873809Y-90176785D01*
X71111904Y-90176785D01*
X71207142Y-90224404D01*
X71254761Y-90272023D01*
X71302380Y-90367261D01*
X71302380Y-90652976D01*
X71254761Y-90748214D01*
X71207142Y-90795833D01*
X25557142Y-102966666D02*
X25604761Y-103014285D01*
X25652380Y-103157142D01*
X25652380Y-103252380D01*
X25604761Y-103395238D01*
X25509523Y-103490476D01*
X25414285Y-103538095D01*
X25223809Y-103585714D01*
X25080952Y-103585714D01*
X24890476Y-103538095D01*
X24795238Y-103490476D01*
X24700000Y-103395238D01*
X24652380Y-103252380D01*
X24652380Y-103157142D01*
X24700000Y-103014285D01*
X24747619Y-102966666D01*
X24747619Y-102585714D02*
X24700000Y-102538095D01*
X24652380Y-102442857D01*
X24652380Y-102204761D01*
X24700000Y-102109523D01*
X24747619Y-102061904D01*
X24842857Y-102014285D01*
X24938095Y-102014285D01*
X25080952Y-102061904D01*
X25652380Y-102633333D01*
X25652380Y-102014285D01*
X49833333Y-103357142D02*
X49785714Y-103404761D01*
X49642857Y-103452380D01*
X49547619Y-103452380D01*
X49404761Y-103404761D01*
X49309523Y-103309523D01*
X49261904Y-103214285D01*
X49214285Y-103023809D01*
X49214285Y-102880952D01*
X49261904Y-102690476D01*
X49309523Y-102595238D01*
X49404761Y-102500000D01*
X49547619Y-102452380D01*
X49642857Y-102452380D01*
X49785714Y-102500000D01*
X49833333Y-102547619D01*
X50785714Y-103452380D02*
X50214285Y-103452380D01*
X50500000Y-103452380D02*
X50500000Y-102452380D01*
X50404761Y-102595238D01*
X50309523Y-102690476D01*
X50214285Y-102738095D01*
%LPC*%
G36*
G01*
X30949998Y-128900000D02*
X32250002Y-128900000D01*
G75*
G02*
X32500000Y-129149998I0J-249998D01*
G01*
X32500000Y-129975002D01*
G75*
G02*
X32250002Y-130225000I-249998J0D01*
G01*
X30949998Y-130225000D01*
G75*
G02*
X30700000Y-129975002I0J249998D01*
G01*
X30700000Y-129149998D01*
G75*
G02*
X30949998Y-128900000I249998J0D01*
G01*
G37*
G36*
G01*
X30949998Y-125775000D02*
X32250002Y-125775000D01*
G75*
G02*
X32500000Y-126024998I0J-249998D01*
G01*
X32500000Y-126850002D01*
G75*
G02*
X32250002Y-127100000I-249998J0D01*
G01*
X30949998Y-127100000D01*
G75*
G02*
X30700000Y-126850002I0J249998D01*
G01*
X30700000Y-126024998D01*
G75*
G02*
X30949998Y-125775000I249998J0D01*
G01*
G37*
G36*
G01*
X22549998Y-127900000D02*
X23850002Y-127900000D01*
G75*
G02*
X24100000Y-128149998I0J-249998D01*
G01*
X24100000Y-128975002D01*
G75*
G02*
X23850002Y-129225000I-249998J0D01*
G01*
X22549998Y-129225000D01*
G75*
G02*
X22300000Y-128975002I0J249998D01*
G01*
X22300000Y-128149998D01*
G75*
G02*
X22549998Y-127900000I249998J0D01*
G01*
G37*
G36*
G01*
X22549998Y-124775000D02*
X23850002Y-124775000D01*
G75*
G02*
X24100000Y-125024998I0J-249998D01*
G01*
X24100000Y-125850002D01*
G75*
G02*
X23850002Y-126100000I-249998J0D01*
G01*
X22549998Y-126100000D01*
G75*
G02*
X22300000Y-125850002I0J249998D01*
G01*
X22300000Y-125024998D01*
G75*
G02*
X22549998Y-124775000I249998J0D01*
G01*
G37*
D14*
X17600000Y-89000000D03*
D15*
X106400000Y-152000000D03*
D16*
X32400000Y-93000000D03*
X85400000Y-89000000D03*
X57200000Y-132800000D03*
D17*
X60800000Y-126940000D03*
D16*
X60800000Y-124400000D03*
D17*
X89400000Y-103260000D03*
D16*
X89400000Y-105800000D03*
D17*
X81540000Y-89000000D03*
D16*
X79000000Y-89000000D03*
D17*
X40000000Y-95540000D03*
D16*
X40000000Y-93000000D03*
X23200000Y-93200000D03*
X26400000Y-114800000D03*
X22000000Y-114800000D03*
X84800000Y-101400000D03*
X19400000Y-135400000D03*
D18*
X89550000Y-97575000D03*
X94050000Y-97575000D03*
X94050000Y-89625000D03*
X89550000Y-89625000D03*
G36*
G01*
X87700000Y-142025001D02*
X87700000Y-140774999D01*
G75*
G02*
X87949999Y-140525000I249999J0D01*
G01*
X88750001Y-140525000D01*
G75*
G02*
X89000000Y-140774999I0J-249999D01*
G01*
X89000000Y-142025001D01*
G75*
G02*
X88750001Y-142275000I-249999J0D01*
G01*
X87949999Y-142275000D01*
G75*
G02*
X87700000Y-142025001I0J249999D01*
G01*
G37*
G36*
G01*
X84600000Y-142025001D02*
X84600000Y-140774999D01*
G75*
G02*
X84849999Y-140525000I249999J0D01*
G01*
X85650001Y-140525000D01*
G75*
G02*
X85900000Y-140774999I0J-249999D01*
G01*
X85900000Y-142025001D01*
G75*
G02*
X85650001Y-142275000I-249999J0D01*
G01*
X84849999Y-142275000D01*
G75*
G02*
X84600000Y-142025001I0J249999D01*
G01*
G37*
G36*
G01*
X87650000Y-139225001D02*
X87650000Y-137974999D01*
G75*
G02*
X87899999Y-137725000I249999J0D01*
G01*
X88700001Y-137725000D01*
G75*
G02*
X88950000Y-137974999I0J-249999D01*
G01*
X88950000Y-139225001D01*
G75*
G02*
X88700001Y-139475000I-249999J0D01*
G01*
X87899999Y-139475000D01*
G75*
G02*
X87650000Y-139225001I0J249999D01*
G01*
G37*
G36*
G01*
X84550000Y-139225001D02*
X84550000Y-137974999D01*
G75*
G02*
X84799999Y-137725000I249999J0D01*
G01*
X85600001Y-137725000D01*
G75*
G02*
X85850000Y-137974999I0J-249999D01*
G01*
X85850000Y-139225001D01*
G75*
G02*
X85600001Y-139475000I-249999J0D01*
G01*
X84799999Y-139475000D01*
G75*
G02*
X84550000Y-139225001I0J249999D01*
G01*
G37*
G36*
G01*
X87700000Y-136425001D02*
X87700000Y-135174999D01*
G75*
G02*
X87949999Y-134925000I249999J0D01*
G01*
X88750001Y-134925000D01*
G75*
G02*
X89000000Y-135174999I0J-249999D01*
G01*
X89000000Y-136425001D01*
G75*
G02*
X88750001Y-136675000I-249999J0D01*
G01*
X87949999Y-136675000D01*
G75*
G02*
X87700000Y-136425001I0J249999D01*
G01*
G37*
G36*
G01*
X84600000Y-136425001D02*
X84600000Y-135174999D01*
G75*
G02*
X84849999Y-134925000I249999J0D01*
G01*
X85650001Y-134925000D01*
G75*
G02*
X85900000Y-135174999I0J-249999D01*
G01*
X85900000Y-136425001D01*
G75*
G02*
X85650001Y-136675000I-249999J0D01*
G01*
X84849999Y-136675000D01*
G75*
G02*
X84600000Y-136425001I0J249999D01*
G01*
G37*
G36*
G01*
X87700000Y-133625001D02*
X87700000Y-132374999D01*
G75*
G02*
X87949999Y-132125000I249999J0D01*
G01*
X88750001Y-132125000D01*
G75*
G02*
X89000000Y-132374999I0J-249999D01*
G01*
X89000000Y-133625001D01*
G75*
G02*
X88750001Y-133875000I-249999J0D01*
G01*
X87949999Y-133875000D01*
G75*
G02*
X87700000Y-133625001I0J249999D01*
G01*
G37*
G36*
G01*
X84600000Y-133625001D02*
X84600000Y-132374999D01*
G75*
G02*
X84849999Y-132125000I249999J0D01*
G01*
X85650001Y-132125000D01*
G75*
G02*
X85900000Y-132374999I0J-249999D01*
G01*
X85900000Y-133625001D01*
G75*
G02*
X85650001Y-133875000I-249999J0D01*
G01*
X84849999Y-133875000D01*
G75*
G02*
X84600000Y-133625001I0J249999D01*
G01*
G37*
G36*
G01*
X84300000Y-92974999D02*
X84300000Y-94225001D01*
G75*
G02*
X84050001Y-94475000I-249999J0D01*
G01*
X83249999Y-94475000D01*
G75*
G02*
X83000000Y-94225001I0J249999D01*
G01*
X83000000Y-92974999D01*
G75*
G02*
X83249999Y-92725000I249999J0D01*
G01*
X84050001Y-92725000D01*
G75*
G02*
X84300000Y-92974999I0J-249999D01*
G01*
G37*
G36*
G01*
X87400000Y-92974999D02*
X87400000Y-94225001D01*
G75*
G02*
X87150001Y-94475000I-249999J0D01*
G01*
X86349999Y-94475000D01*
G75*
G02*
X86100000Y-94225001I0J249999D01*
G01*
X86100000Y-92974999D01*
G75*
G02*
X86349999Y-92725000I249999J0D01*
G01*
X87150001Y-92725000D01*
G75*
G02*
X87400000Y-92974999I0J-249999D01*
G01*
G37*
G36*
G01*
X91225000Y-140775000D02*
X91225000Y-142025000D01*
G75*
G02*
X90975000Y-142275000I-250000J0D01*
G01*
X90050000Y-142275000D01*
G75*
G02*
X89800000Y-142025000I0J250000D01*
G01*
X89800000Y-140775000D01*
G75*
G02*
X90050000Y-140525000I250000J0D01*
G01*
X90975000Y-140525000D01*
G75*
G02*
X91225000Y-140775000I0J-250000D01*
G01*
G37*
G36*
G01*
X94200000Y-140775000D02*
X94200000Y-142025000D01*
G75*
G02*
X93950000Y-142275000I-250000J0D01*
G01*
X93025000Y-142275000D01*
G75*
G02*
X92775000Y-142025000I0J250000D01*
G01*
X92775000Y-140775000D01*
G75*
G02*
X93025000Y-140525000I250000J0D01*
G01*
X93950000Y-140525000D01*
G75*
G02*
X94200000Y-140775000I0J-250000D01*
G01*
G37*
G36*
G01*
X91225000Y-137975000D02*
X91225000Y-139225000D01*
G75*
G02*
X90975000Y-139475000I-250000J0D01*
G01*
X90050000Y-139475000D01*
G75*
G02*
X89800000Y-139225000I0J250000D01*
G01*
X89800000Y-137975000D01*
G75*
G02*
X90050000Y-137725000I250000J0D01*
G01*
X90975000Y-137725000D01*
G75*
G02*
X91225000Y-137975000I0J-250000D01*
G01*
G37*
G36*
G01*
X94200000Y-137975000D02*
X94200000Y-139225000D01*
G75*
G02*
X93950000Y-139475000I-250000J0D01*
G01*
X93025000Y-139475000D01*
G75*
G02*
X92775000Y-139225000I0J250000D01*
G01*
X92775000Y-137975000D01*
G75*
G02*
X93025000Y-137725000I250000J0D01*
G01*
X93950000Y-137725000D01*
G75*
G02*
X94200000Y-137975000I0J-250000D01*
G01*
G37*
G36*
G01*
X91225000Y-135175000D02*
X91225000Y-136425000D01*
G75*
G02*
X90975000Y-136675000I-250000J0D01*
G01*
X90050000Y-136675000D01*
G75*
G02*
X89800000Y-136425000I0J250000D01*
G01*
X89800000Y-135175000D01*
G75*
G02*
X90050000Y-134925000I250000J0D01*
G01*
X90975000Y-134925000D01*
G75*
G02*
X91225000Y-135175000I0J-250000D01*
G01*
G37*
G36*
G01*
X94200000Y-135175000D02*
X94200000Y-136425000D01*
G75*
G02*
X93950000Y-136675000I-250000J0D01*
G01*
X93025000Y-136675000D01*
G75*
G02*
X92775000Y-136425000I0J250000D01*
G01*
X92775000Y-135175000D01*
G75*
G02*
X93025000Y-134925000I250000J0D01*
G01*
X93950000Y-134925000D01*
G75*
G02*
X94200000Y-135175000I0J-250000D01*
G01*
G37*
G36*
G01*
X91225000Y-132375000D02*
X91225000Y-133625000D01*
G75*
G02*
X90975000Y-133875000I-250000J0D01*
G01*
X90050000Y-133875000D01*
G75*
G02*
X89800000Y-133625000I0J250000D01*
G01*
X89800000Y-132375000D01*
G75*
G02*
X90050000Y-132125000I250000J0D01*
G01*
X90975000Y-132125000D01*
G75*
G02*
X91225000Y-132375000I0J-250000D01*
G01*
G37*
G36*
G01*
X94200000Y-132375000D02*
X94200000Y-133625000D01*
G75*
G02*
X93950000Y-133875000I-250000J0D01*
G01*
X93025000Y-133875000D01*
G75*
G02*
X92775000Y-133625000I0J250000D01*
G01*
X92775000Y-132375000D01*
G75*
G02*
X93025000Y-132125000I250000J0D01*
G01*
X93950000Y-132125000D01*
G75*
G02*
X94200000Y-132375000I0J-250000D01*
G01*
G37*
G36*
G01*
X91100000Y-86549998D02*
X91100000Y-87850002D01*
G75*
G02*
X90850002Y-88100000I-249998J0D01*
G01*
X90024998Y-88100000D01*
G75*
G02*
X89775000Y-87850002I0J249998D01*
G01*
X89775000Y-86549998D01*
G75*
G02*
X90024998Y-86300000I249998J0D01*
G01*
X90850002Y-86300000D01*
G75*
G02*
X91100000Y-86549998I0J-249998D01*
G01*
G37*
G36*
G01*
X94225000Y-86549998D02*
X94225000Y-87850002D01*
G75*
G02*
X93975002Y-88100000I-249998J0D01*
G01*
X93149998Y-88100000D01*
G75*
G02*
X92900000Y-87850002I0J249998D01*
G01*
X92900000Y-86549998D01*
G75*
G02*
X93149998Y-86300000I249998J0D01*
G01*
X93975002Y-86300000D01*
G75*
G02*
X94225000Y-86549998I0J-249998D01*
G01*
G37*
G36*
G01*
X57774999Y-118300000D02*
X59025001Y-118300000D01*
G75*
G02*
X59275000Y-118549999I0J-249999D01*
G01*
X59275000Y-119350001D01*
G75*
G02*
X59025001Y-119600000I-249999J0D01*
G01*
X57774999Y-119600000D01*
G75*
G02*
X57525000Y-119350001I0J249999D01*
G01*
X57525000Y-118549999D01*
G75*
G02*
X57774999Y-118300000I249999J0D01*
G01*
G37*
G36*
G01*
X57774999Y-115200000D02*
X59025001Y-115200000D01*
G75*
G02*
X59275000Y-115449999I0J-249999D01*
G01*
X59275000Y-116250001D01*
G75*
G02*
X59025001Y-116500000I-249999J0D01*
G01*
X57774999Y-116500000D01*
G75*
G02*
X57525000Y-116250001I0J249999D01*
G01*
X57525000Y-115449999D01*
G75*
G02*
X57774999Y-115200000I249999J0D01*
G01*
G37*
G36*
G01*
X51174999Y-118300000D02*
X52425001Y-118300000D01*
G75*
G02*
X52675000Y-118549999I0J-249999D01*
G01*
X52675000Y-119350001D01*
G75*
G02*
X52425001Y-119600000I-249999J0D01*
G01*
X51174999Y-119600000D01*
G75*
G02*
X50925000Y-119350001I0J249999D01*
G01*
X50925000Y-118549999D01*
G75*
G02*
X51174999Y-118300000I249999J0D01*
G01*
G37*
G36*
G01*
X51174999Y-115200000D02*
X52425001Y-115200000D01*
G75*
G02*
X52675000Y-115449999I0J-249999D01*
G01*
X52675000Y-116250001D01*
G75*
G02*
X52425001Y-116500000I-249999J0D01*
G01*
X51174999Y-116500000D01*
G75*
G02*
X50925000Y-116250001I0J249999D01*
G01*
X50925000Y-115449999D01*
G75*
G02*
X51174999Y-115200000I249999J0D01*
G01*
G37*
G36*
G01*
X54574999Y-118300000D02*
X55825001Y-118300000D01*
G75*
G02*
X56075000Y-118549999I0J-249999D01*
G01*
X56075000Y-119350001D01*
G75*
G02*
X55825001Y-119600000I-249999J0D01*
G01*
X54574999Y-119600000D01*
G75*
G02*
X54325000Y-119350001I0J249999D01*
G01*
X54325000Y-118549999D01*
G75*
G02*
X54574999Y-118300000I249999J0D01*
G01*
G37*
G36*
G01*
X54574999Y-115200000D02*
X55825001Y-115200000D01*
G75*
G02*
X56075000Y-115449999I0J-249999D01*
G01*
X56075000Y-116250001D01*
G75*
G02*
X55825001Y-116500000I-249999J0D01*
G01*
X54574999Y-116500000D01*
G75*
G02*
X54325000Y-116250001I0J249999D01*
G01*
X54325000Y-115449999D01*
G75*
G02*
X54574999Y-115200000I249999J0D01*
G01*
G37*
G36*
G01*
X59700000Y-111974999D02*
X59700000Y-113225001D01*
G75*
G02*
X59450001Y-113475000I-249999J0D01*
G01*
X58649999Y-113475000D01*
G75*
G02*
X58400000Y-113225001I0J249999D01*
G01*
X58400000Y-111974999D01*
G75*
G02*
X58649999Y-111725000I249999J0D01*
G01*
X59450001Y-111725000D01*
G75*
G02*
X59700000Y-111974999I0J-249999D01*
G01*
G37*
G36*
G01*
X62800000Y-111974999D02*
X62800000Y-113225001D01*
G75*
G02*
X62550001Y-113475000I-249999J0D01*
G01*
X61749999Y-113475000D01*
G75*
G02*
X61500000Y-113225001I0J249999D01*
G01*
X61500000Y-111974999D01*
G75*
G02*
X61749999Y-111725000I249999J0D01*
G01*
X62550001Y-111725000D01*
G75*
G02*
X62800000Y-111974999I0J-249999D01*
G01*
G37*
D17*
X74200000Y-106000000D03*
D16*
X74200000Y-108540000D03*
G36*
G01*
X18850000Y-127700000D02*
X19950000Y-127700000D01*
G75*
G02*
X20200000Y-127950000I0J-250000D01*
G01*
X20200000Y-130050000D01*
G75*
G02*
X19950000Y-130300000I-250000J0D01*
G01*
X18850000Y-130300000D01*
G75*
G02*
X18600000Y-130050000I0J250000D01*
G01*
X18600000Y-127950000D01*
G75*
G02*
X18850000Y-127700000I250000J0D01*
G01*
G37*
G36*
G01*
X18850000Y-124100000D02*
X19950000Y-124100000D01*
G75*
G02*
X20200000Y-124350000I0J-250000D01*
G01*
X20200000Y-126450000D01*
G75*
G02*
X19950000Y-126700000I-250000J0D01*
G01*
X18850000Y-126700000D01*
G75*
G02*
X18600000Y-126450000I0J250000D01*
G01*
X18600000Y-124350000D01*
G75*
G02*
X18850000Y-124100000I250000J0D01*
G01*
G37*
G36*
G01*
X48900000Y-113225001D02*
X48900000Y-111974999D01*
G75*
G02*
X49149999Y-111725000I249999J0D01*
G01*
X49950001Y-111725000D01*
G75*
G02*
X50200000Y-111974999I0J-249999D01*
G01*
X50200000Y-113225001D01*
G75*
G02*
X49950001Y-113475000I-249999J0D01*
G01*
X49149999Y-113475000D01*
G75*
G02*
X48900000Y-113225001I0J249999D01*
G01*
G37*
G36*
G01*
X45800000Y-113225001D02*
X45800000Y-111974999D01*
G75*
G02*
X46049999Y-111725000I249999J0D01*
G01*
X46850001Y-111725000D01*
G75*
G02*
X47100000Y-111974999I0J-249999D01*
G01*
X47100000Y-113225001D01*
G75*
G02*
X46850001Y-113475000I-249999J0D01*
G01*
X46049999Y-113475000D01*
G75*
G02*
X45800000Y-113225001I0J249999D01*
G01*
G37*
G36*
G01*
X47025001Y-106300000D02*
X45774999Y-106300000D01*
G75*
G02*
X45525000Y-106050001I0J249999D01*
G01*
X45525000Y-105249999D01*
G75*
G02*
X45774999Y-105000000I249999J0D01*
G01*
X47025001Y-105000000D01*
G75*
G02*
X47275000Y-105249999I0J-249999D01*
G01*
X47275000Y-106050001D01*
G75*
G02*
X47025001Y-106300000I-249999J0D01*
G01*
G37*
G36*
G01*
X47025001Y-109400000D02*
X45774999Y-109400000D01*
G75*
G02*
X45525000Y-109150001I0J249999D01*
G01*
X45525000Y-108349999D01*
G75*
G02*
X45774999Y-108100000I249999J0D01*
G01*
X47025001Y-108100000D01*
G75*
G02*
X47275000Y-108349999I0J-249999D01*
G01*
X47275000Y-109150001D01*
G75*
G02*
X47025001Y-109400000I-249999J0D01*
G01*
G37*
D17*
X17800000Y-114340000D03*
D16*
X17800000Y-111800000D03*
D19*
X43400000Y-109500000D03*
X42450000Y-109500000D03*
X44350000Y-109500000D03*
X44350000Y-111700000D03*
X43400000Y-111700000D03*
X42450000Y-111700000D03*
D20*
X46633000Y-115240000D03*
X46633000Y-115890000D03*
X46633000Y-116540000D03*
X46633000Y-117190000D03*
X40757000Y-117190000D03*
X40757000Y-116540000D03*
X40757000Y-115890000D03*
X40757000Y-115240000D03*
G36*
G01*
X37700000Y-112750000D02*
X37700000Y-111650000D01*
G75*
G02*
X37950000Y-111400000I250000J0D01*
G01*
X40050000Y-111400000D01*
G75*
G02*
X40300000Y-111650000I0J-250000D01*
G01*
X40300000Y-112750000D01*
G75*
G02*
X40050000Y-113000000I-250000J0D01*
G01*
X37950000Y-113000000D01*
G75*
G02*
X37700000Y-112750000I0J250000D01*
G01*
G37*
G36*
G01*
X34100000Y-112750000D02*
X34100000Y-111650000D01*
G75*
G02*
X34350000Y-111400000I250000J0D01*
G01*
X36450000Y-111400000D01*
G75*
G02*
X36700000Y-111650000I0J-250000D01*
G01*
X36700000Y-112750000D01*
G75*
G02*
X36450000Y-113000000I-250000J0D01*
G01*
X34350000Y-113000000D01*
G75*
G02*
X34100000Y-112750000I0J250000D01*
G01*
G37*
G36*
G01*
X43700000Y-107650002D02*
X43700000Y-106349998D01*
G75*
G02*
X43949998Y-106100000I249998J0D01*
G01*
X44775002Y-106100000D01*
G75*
G02*
X45025000Y-106349998I0J-249998D01*
G01*
X45025000Y-107650002D01*
G75*
G02*
X44775002Y-107900000I-249998J0D01*
G01*
X43949998Y-107900000D01*
G75*
G02*
X43700000Y-107650002I0J249998D01*
G01*
G37*
G36*
G01*
X40575000Y-107650002D02*
X40575000Y-106349998D01*
G75*
G02*
X40824998Y-106100000I249998J0D01*
G01*
X41650002Y-106100000D01*
G75*
G02*
X41900000Y-106349998I0J-249998D01*
G01*
X41900000Y-107650002D01*
G75*
G02*
X41650002Y-107900000I-249998J0D01*
G01*
X40824998Y-107900000D01*
G75*
G02*
X40575000Y-107650002I0J249998D01*
G01*
G37*
D21*
X81400000Y-108800000D03*
D22*
X81400000Y-106260000D03*
X81400000Y-107530000D03*
G36*
G01*
X77825001Y-106100000D02*
X76574999Y-106100000D01*
G75*
G02*
X76325000Y-105850001I0J249999D01*
G01*
X76325000Y-105049999D01*
G75*
G02*
X76574999Y-104800000I249999J0D01*
G01*
X77825001Y-104800000D01*
G75*
G02*
X78075000Y-105049999I0J-249999D01*
G01*
X78075000Y-105850001D01*
G75*
G02*
X77825001Y-106100000I-249999J0D01*
G01*
G37*
G36*
G01*
X77825001Y-109200000D02*
X76574999Y-109200000D01*
G75*
G02*
X76325000Y-108950001I0J249999D01*
G01*
X76325000Y-108149999D01*
G75*
G02*
X76574999Y-107900000I249999J0D01*
G01*
X77825001Y-107900000D01*
G75*
G02*
X78075000Y-108149999I0J-249999D01*
G01*
X78075000Y-108950001D01*
G75*
G02*
X77825001Y-109200000I-249999J0D01*
G01*
G37*
G36*
G01*
X79100000Y-112225001D02*
X79100000Y-110974999D01*
G75*
G02*
X79349999Y-110725000I249999J0D01*
G01*
X80150001Y-110725000D01*
G75*
G02*
X80400000Y-110974999I0J-249999D01*
G01*
X80400000Y-112225001D01*
G75*
G02*
X80150001Y-112475000I-249999J0D01*
G01*
X79349999Y-112475000D01*
G75*
G02*
X79100000Y-112225001I0J249999D01*
G01*
G37*
G36*
G01*
X76000000Y-112225001D02*
X76000000Y-110974999D01*
G75*
G02*
X76249999Y-110725000I249999J0D01*
G01*
X77050001Y-110725000D01*
G75*
G02*
X77300000Y-110974999I0J-249999D01*
G01*
X77300000Y-112225001D01*
G75*
G02*
X77050001Y-112475000I-249999J0D01*
G01*
X76249999Y-112475000D01*
G75*
G02*
X76000000Y-112225001I0J249999D01*
G01*
G37*
G36*
G01*
X53100000Y-107174999D02*
X53100000Y-108425001D01*
G75*
G02*
X52850001Y-108675000I-249999J0D01*
G01*
X52049999Y-108675000D01*
G75*
G02*
X51800000Y-108425001I0J249999D01*
G01*
X51800000Y-107174999D01*
G75*
G02*
X52049999Y-106925000I249999J0D01*
G01*
X52850001Y-106925000D01*
G75*
G02*
X53100000Y-107174999I0J-249999D01*
G01*
G37*
G36*
G01*
X56200000Y-107174999D02*
X56200000Y-108425001D01*
G75*
G02*
X55950001Y-108675000I-249999J0D01*
G01*
X55149999Y-108675000D01*
G75*
G02*
X54900000Y-108425001I0J249999D01*
G01*
X54900000Y-107174999D01*
G75*
G02*
X55149999Y-106925000I249999J0D01*
G01*
X55950001Y-106925000D01*
G75*
G02*
X56200000Y-107174999I0J-249999D01*
G01*
G37*
G36*
G01*
X53100000Y-109974999D02*
X53100000Y-111225001D01*
G75*
G02*
X52850001Y-111475000I-249999J0D01*
G01*
X52049999Y-111475000D01*
G75*
G02*
X51800000Y-111225001I0J249999D01*
G01*
X51800000Y-109974999D01*
G75*
G02*
X52049999Y-109725000I249999J0D01*
G01*
X52850001Y-109725000D01*
G75*
G02*
X53100000Y-109974999I0J-249999D01*
G01*
G37*
G36*
G01*
X56200000Y-109974999D02*
X56200000Y-111225001D01*
G75*
G02*
X55950001Y-111475000I-249999J0D01*
G01*
X55149999Y-111475000D01*
G75*
G02*
X54900000Y-111225001I0J249999D01*
G01*
X54900000Y-109974999D01*
G75*
G02*
X55149999Y-109725000I249999J0D01*
G01*
X55950001Y-109725000D01*
G75*
G02*
X56200000Y-109974999I0J-249999D01*
G01*
G37*
D23*
X31800000Y-101760000D03*
D24*
X31800000Y-117000000D03*
G36*
G01*
X68500000Y-140374999D02*
X68500000Y-141625001D01*
G75*
G02*
X68250001Y-141875000I-249999J0D01*
G01*
X67449999Y-141875000D01*
G75*
G02*
X67200000Y-141625001I0J249999D01*
G01*
X67200000Y-140374999D01*
G75*
G02*
X67449999Y-140125000I249999J0D01*
G01*
X68250001Y-140125000D01*
G75*
G02*
X68500000Y-140374999I0J-249999D01*
G01*
G37*
G36*
G01*
X71600000Y-140374999D02*
X71600000Y-141625001D01*
G75*
G02*
X71350001Y-141875000I-249999J0D01*
G01*
X70549999Y-141875000D01*
G75*
G02*
X70300000Y-141625001I0J249999D01*
G01*
X70300000Y-140374999D01*
G75*
G02*
X70549999Y-140125000I249999J0D01*
G01*
X71350001Y-140125000D01*
G75*
G02*
X71600000Y-140374999I0J-249999D01*
G01*
G37*
G36*
G01*
X74900000Y-125825001D02*
X74900000Y-124574999D01*
G75*
G02*
X75149999Y-124325000I249999J0D01*
G01*
X75950001Y-124325000D01*
G75*
G02*
X76200000Y-124574999I0J-249999D01*
G01*
X76200000Y-125825001D01*
G75*
G02*
X75950001Y-126075000I-249999J0D01*
G01*
X75149999Y-126075000D01*
G75*
G02*
X74900000Y-125825001I0J249999D01*
G01*
G37*
G36*
G01*
X71800000Y-125825001D02*
X71800000Y-124574999D01*
G75*
G02*
X72049999Y-124325000I249999J0D01*
G01*
X72850001Y-124325000D01*
G75*
G02*
X73100000Y-124574999I0J-249999D01*
G01*
X73100000Y-125825001D01*
G75*
G02*
X72850001Y-126075000I-249999J0D01*
G01*
X72049999Y-126075000D01*
G75*
G02*
X71800000Y-125825001I0J249999D01*
G01*
G37*
G36*
G01*
X78100000Y-128625001D02*
X78100000Y-127374999D01*
G75*
G02*
X78349999Y-127125000I249999J0D01*
G01*
X79150001Y-127125000D01*
G75*
G02*
X79400000Y-127374999I0J-249999D01*
G01*
X79400000Y-128625001D01*
G75*
G02*
X79150001Y-128875000I-249999J0D01*
G01*
X78349999Y-128875000D01*
G75*
G02*
X78100000Y-128625001I0J249999D01*
G01*
G37*
G36*
G01*
X75000000Y-128625001D02*
X75000000Y-127374999D01*
G75*
G02*
X75249999Y-127125000I249999J0D01*
G01*
X76050001Y-127125000D01*
G75*
G02*
X76300000Y-127374999I0J-249999D01*
G01*
X76300000Y-128625001D01*
G75*
G02*
X76050001Y-128875000I-249999J0D01*
G01*
X75249999Y-128875000D01*
G75*
G02*
X75000000Y-128625001I0J249999D01*
G01*
G37*
D17*
X17800000Y-103400000D03*
D16*
X17800000Y-100860000D03*
D25*
X38400000Y-102400000D03*
D26*
X41112000Y-100495000D03*
X41112000Y-101765000D03*
X41112000Y-103035000D03*
X41112000Y-104305000D03*
X35688000Y-104305000D03*
X35688000Y-103035000D03*
X35688000Y-101765000D03*
X35688000Y-100495000D03*
D17*
X85600000Y-124160000D03*
X85600000Y-121620000D03*
X85600000Y-119080000D03*
X85600000Y-116540000D03*
D16*
X85600000Y-114000000D03*
D17*
X28600000Y-132160000D03*
X28600000Y-129620000D03*
X28600000Y-127080000D03*
X28600000Y-124540000D03*
D16*
X28600000Y-122000000D03*
D27*
X77080000Y-147400000D03*
D28*
X61840000Y-147400000D03*
D27*
X72000000Y-147400000D03*
X66920000Y-147400000D03*
D17*
X93200000Y-110760000D03*
X93200000Y-108220000D03*
X93200000Y-105680000D03*
X93200000Y-103140000D03*
D16*
X93200000Y-100600000D03*
D29*
X62410000Y-109000000D03*
X61140000Y-109000000D03*
X59870000Y-109000000D03*
D30*
X58600000Y-109000000D03*
D17*
X80180000Y-97600000D03*
X77640000Y-97600000D03*
X75100000Y-97600000D03*
X72560000Y-97600000D03*
X70020000Y-97600000D03*
X67480000Y-97600000D03*
X64940000Y-97600000D03*
D16*
X62400000Y-97600000D03*
G36*
G01*
X67550000Y-112850000D02*
X67550000Y-111600000D01*
G75*
G02*
X67675000Y-111475000I125000J0D01*
G01*
X67925000Y-111475000D01*
G75*
G02*
X68050000Y-111600000I0J-125000D01*
G01*
X68050000Y-112850000D01*
G75*
G02*
X67925000Y-112975000I-125000J0D01*
G01*
X67675000Y-112975000D01*
G75*
G02*
X67550000Y-112850000I0J125000D01*
G01*
G37*
G36*
G01*
X68350000Y-112850000D02*
X68350000Y-111600000D01*
G75*
G02*
X68475000Y-111475000I125000J0D01*
G01*
X68725000Y-111475000D01*
G75*
G02*
X68850000Y-111600000I0J-125000D01*
G01*
X68850000Y-112850000D01*
G75*
G02*
X68725000Y-112975000I-125000J0D01*
G01*
X68475000Y-112975000D01*
G75*
G02*
X68350000Y-112850000I0J125000D01*
G01*
G37*
G36*
G01*
X69150000Y-112850000D02*
X69150000Y-111600000D01*
G75*
G02*
X69275000Y-111475000I125000J0D01*
G01*
X69525000Y-111475000D01*
G75*
G02*
X69650000Y-111600000I0J-125000D01*
G01*
X69650000Y-112850000D01*
G75*
G02*
X69525000Y-112975000I-125000J0D01*
G01*
X69275000Y-112975000D01*
G75*
G02*
X69150000Y-112850000I0J125000D01*
G01*
G37*
G36*
G01*
X69950000Y-112850000D02*
X69950000Y-111600000D01*
G75*
G02*
X70075000Y-111475000I125000J0D01*
G01*
X70325000Y-111475000D01*
G75*
G02*
X70450000Y-111600000I0J-125000D01*
G01*
X70450000Y-112850000D01*
G75*
G02*
X70325000Y-112975000I-125000J0D01*
G01*
X70075000Y-112975000D01*
G75*
G02*
X69950000Y-112850000I0J125000D01*
G01*
G37*
G36*
G01*
X70750000Y-112850000D02*
X70750000Y-111600000D01*
G75*
G02*
X70875000Y-111475000I125000J0D01*
G01*
X71125000Y-111475000D01*
G75*
G02*
X71250000Y-111600000I0J-125000D01*
G01*
X71250000Y-112850000D01*
G75*
G02*
X71125000Y-112975000I-125000J0D01*
G01*
X70875000Y-112975000D01*
G75*
G02*
X70750000Y-112850000I0J125000D01*
G01*
G37*
G36*
G01*
X71550000Y-112850000D02*
X71550000Y-111600000D01*
G75*
G02*
X71675000Y-111475000I125000J0D01*
G01*
X71925000Y-111475000D01*
G75*
G02*
X72050000Y-111600000I0J-125000D01*
G01*
X72050000Y-112850000D01*
G75*
G02*
X71925000Y-112975000I-125000J0D01*
G01*
X71675000Y-112975000D01*
G75*
G02*
X71550000Y-112850000I0J125000D01*
G01*
G37*
G36*
G01*
X72350000Y-112850000D02*
X72350000Y-111600000D01*
G75*
G02*
X72475000Y-111475000I125000J0D01*
G01*
X72725000Y-111475000D01*
G75*
G02*
X72850000Y-111600000I0J-125000D01*
G01*
X72850000Y-112850000D01*
G75*
G02*
X72725000Y-112975000I-125000J0D01*
G01*
X72475000Y-112975000D01*
G75*
G02*
X72350000Y-112850000I0J125000D01*
G01*
G37*
G36*
G01*
X73150000Y-112850000D02*
X73150000Y-111600000D01*
G75*
G02*
X73275000Y-111475000I125000J0D01*
G01*
X73525000Y-111475000D01*
G75*
G02*
X73650000Y-111600000I0J-125000D01*
G01*
X73650000Y-112850000D01*
G75*
G02*
X73525000Y-112975000I-125000J0D01*
G01*
X73275000Y-112975000D01*
G75*
G02*
X73150000Y-112850000I0J125000D01*
G01*
G37*
G36*
G01*
X74025000Y-113725000D02*
X74025000Y-113475000D01*
G75*
G02*
X74150000Y-113350000I125000J0D01*
G01*
X75400000Y-113350000D01*
G75*
G02*
X75525000Y-113475000I0J-125000D01*
G01*
X75525000Y-113725000D01*
G75*
G02*
X75400000Y-113850000I-125000J0D01*
G01*
X74150000Y-113850000D01*
G75*
G02*
X74025000Y-113725000I0J125000D01*
G01*
G37*
G36*
G01*
X74025000Y-114525000D02*
X74025000Y-114275000D01*
G75*
G02*
X74150000Y-114150000I125000J0D01*
G01*
X75400000Y-114150000D01*
G75*
G02*
X75525000Y-114275000I0J-125000D01*
G01*
X75525000Y-114525000D01*
G75*
G02*
X75400000Y-114650000I-125000J0D01*
G01*
X74150000Y-114650000D01*
G75*
G02*
X74025000Y-114525000I0J125000D01*
G01*
G37*
G36*
G01*
X74025000Y-115325000D02*
X74025000Y-115075000D01*
G75*
G02*
X74150000Y-114950000I125000J0D01*
G01*
X75400000Y-114950000D01*
G75*
G02*
X75525000Y-115075000I0J-125000D01*
G01*
X75525000Y-115325000D01*
G75*
G02*
X75400000Y-115450000I-125000J0D01*
G01*
X74150000Y-115450000D01*
G75*
G02*
X74025000Y-115325000I0J125000D01*
G01*
G37*
G36*
G01*
X74025000Y-116125000D02*
X74025000Y-115875000D01*
G75*
G02*
X74150000Y-115750000I125000J0D01*
G01*
X75400000Y-115750000D01*
G75*
G02*
X75525000Y-115875000I0J-125000D01*
G01*
X75525000Y-116125000D01*
G75*
G02*
X75400000Y-116250000I-125000J0D01*
G01*
X74150000Y-116250000D01*
G75*
G02*
X74025000Y-116125000I0J125000D01*
G01*
G37*
G36*
G01*
X74025000Y-116925000D02*
X74025000Y-116675000D01*
G75*
G02*
X74150000Y-116550000I125000J0D01*
G01*
X75400000Y-116550000D01*
G75*
G02*
X75525000Y-116675000I0J-125000D01*
G01*
X75525000Y-116925000D01*
G75*
G02*
X75400000Y-117050000I-125000J0D01*
G01*
X74150000Y-117050000D01*
G75*
G02*
X74025000Y-116925000I0J125000D01*
G01*
G37*
G36*
G01*
X74025000Y-117725000D02*
X74025000Y-117475000D01*
G75*
G02*
X74150000Y-117350000I125000J0D01*
G01*
X75400000Y-117350000D01*
G75*
G02*
X75525000Y-117475000I0J-125000D01*
G01*
X75525000Y-117725000D01*
G75*
G02*
X75400000Y-117850000I-125000J0D01*
G01*
X74150000Y-117850000D01*
G75*
G02*
X74025000Y-117725000I0J125000D01*
G01*
G37*
G36*
G01*
X74025000Y-118525000D02*
X74025000Y-118275000D01*
G75*
G02*
X74150000Y-118150000I125000J0D01*
G01*
X75400000Y-118150000D01*
G75*
G02*
X75525000Y-118275000I0J-125000D01*
G01*
X75525000Y-118525000D01*
G75*
G02*
X75400000Y-118650000I-125000J0D01*
G01*
X74150000Y-118650000D01*
G75*
G02*
X74025000Y-118525000I0J125000D01*
G01*
G37*
G36*
G01*
X74025000Y-119325000D02*
X74025000Y-119075000D01*
G75*
G02*
X74150000Y-118950000I125000J0D01*
G01*
X75400000Y-118950000D01*
G75*
G02*
X75525000Y-119075000I0J-125000D01*
G01*
X75525000Y-119325000D01*
G75*
G02*
X75400000Y-119450000I-125000J0D01*
G01*
X74150000Y-119450000D01*
G75*
G02*
X74025000Y-119325000I0J125000D01*
G01*
G37*
G36*
G01*
X73150000Y-121200000D02*
X73150000Y-119950000D01*
G75*
G02*
X73275000Y-119825000I125000J0D01*
G01*
X73525000Y-119825000D01*
G75*
G02*
X73650000Y-119950000I0J-125000D01*
G01*
X73650000Y-121200000D01*
G75*
G02*
X73525000Y-121325000I-125000J0D01*
G01*
X73275000Y-121325000D01*
G75*
G02*
X73150000Y-121200000I0J125000D01*
G01*
G37*
G36*
G01*
X72350000Y-121200000D02*
X72350000Y-119950000D01*
G75*
G02*
X72475000Y-119825000I125000J0D01*
G01*
X72725000Y-119825000D01*
G75*
G02*
X72850000Y-119950000I0J-125000D01*
G01*
X72850000Y-121200000D01*
G75*
G02*
X72725000Y-121325000I-125000J0D01*
G01*
X72475000Y-121325000D01*
G75*
G02*
X72350000Y-121200000I0J125000D01*
G01*
G37*
G36*
G01*
X71550000Y-121200000D02*
X71550000Y-119950000D01*
G75*
G02*
X71675000Y-119825000I125000J0D01*
G01*
X71925000Y-119825000D01*
G75*
G02*
X72050000Y-119950000I0J-125000D01*
G01*
X72050000Y-121200000D01*
G75*
G02*
X71925000Y-121325000I-125000J0D01*
G01*
X71675000Y-121325000D01*
G75*
G02*
X71550000Y-121200000I0J125000D01*
G01*
G37*
G36*
G01*
X70750000Y-121200000D02*
X70750000Y-119950000D01*
G75*
G02*
X70875000Y-119825000I125000J0D01*
G01*
X71125000Y-119825000D01*
G75*
G02*
X71250000Y-119950000I0J-125000D01*
G01*
X71250000Y-121200000D01*
G75*
G02*
X71125000Y-121325000I-125000J0D01*
G01*
X70875000Y-121325000D01*
G75*
G02*
X70750000Y-121200000I0J125000D01*
G01*
G37*
G36*
G01*
X69950000Y-121200000D02*
X69950000Y-119950000D01*
G75*
G02*
X70075000Y-119825000I125000J0D01*
G01*
X70325000Y-119825000D01*
G75*
G02*
X70450000Y-119950000I0J-125000D01*
G01*
X70450000Y-121200000D01*
G75*
G02*
X70325000Y-121325000I-125000J0D01*
G01*
X70075000Y-121325000D01*
G75*
G02*
X69950000Y-121200000I0J125000D01*
G01*
G37*
G36*
G01*
X69150000Y-121200000D02*
X69150000Y-119950000D01*
G75*
G02*
X69275000Y-119825000I125000J0D01*
G01*
X69525000Y-119825000D01*
G75*
G02*
X69650000Y-119950000I0J-125000D01*
G01*
X69650000Y-121200000D01*
G75*
G02*
X69525000Y-121325000I-125000J0D01*
G01*
X69275000Y-121325000D01*
G75*
G02*
X69150000Y-121200000I0J125000D01*
G01*
G37*
G36*
G01*
X68350000Y-121200000D02*
X68350000Y-119950000D01*
G75*
G02*
X68475000Y-119825000I125000J0D01*
G01*
X68725000Y-119825000D01*
G75*
G02*
X68850000Y-119950000I0J-125000D01*
G01*
X68850000Y-121200000D01*
G75*
G02*
X68725000Y-121325000I-125000J0D01*
G01*
X68475000Y-121325000D01*
G75*
G02*
X68350000Y-121200000I0J125000D01*
G01*
G37*
G36*
G01*
X67550000Y-121200000D02*
X67550000Y-119950000D01*
G75*
G02*
X67675000Y-119825000I125000J0D01*
G01*
X67925000Y-119825000D01*
G75*
G02*
X68050000Y-119950000I0J-125000D01*
G01*
X68050000Y-121200000D01*
G75*
G02*
X67925000Y-121325000I-125000J0D01*
G01*
X67675000Y-121325000D01*
G75*
G02*
X67550000Y-121200000I0J125000D01*
G01*
G37*
G36*
G01*
X65675000Y-119325000D02*
X65675000Y-119075000D01*
G75*
G02*
X65800000Y-118950000I125000J0D01*
G01*
X67050000Y-118950000D01*
G75*
G02*
X67175000Y-119075000I0J-125000D01*
G01*
X67175000Y-119325000D01*
G75*
G02*
X67050000Y-119450000I-125000J0D01*
G01*
X65800000Y-119450000D01*
G75*
G02*
X65675000Y-119325000I0J125000D01*
G01*
G37*
G36*
G01*
X65675000Y-118525000D02*
X65675000Y-118275000D01*
G75*
G02*
X65800000Y-118150000I125000J0D01*
G01*
X67050000Y-118150000D01*
G75*
G02*
X67175000Y-118275000I0J-125000D01*
G01*
X67175000Y-118525000D01*
G75*
G02*
X67050000Y-118650000I-125000J0D01*
G01*
X65800000Y-118650000D01*
G75*
G02*
X65675000Y-118525000I0J125000D01*
G01*
G37*
G36*
G01*
X65675000Y-117725000D02*
X65675000Y-117475000D01*
G75*
G02*
X65800000Y-117350000I125000J0D01*
G01*
X67050000Y-117350000D01*
G75*
G02*
X67175000Y-117475000I0J-125000D01*
G01*
X67175000Y-117725000D01*
G75*
G02*
X67050000Y-117850000I-125000J0D01*
G01*
X65800000Y-117850000D01*
G75*
G02*
X65675000Y-117725000I0J125000D01*
G01*
G37*
G36*
G01*
X65675000Y-116925000D02*
X65675000Y-116675000D01*
G75*
G02*
X65800000Y-116550000I125000J0D01*
G01*
X67050000Y-116550000D01*
G75*
G02*
X67175000Y-116675000I0J-125000D01*
G01*
X67175000Y-116925000D01*
G75*
G02*
X67050000Y-117050000I-125000J0D01*
G01*
X65800000Y-117050000D01*
G75*
G02*
X65675000Y-116925000I0J125000D01*
G01*
G37*
G36*
G01*
X65675000Y-116125000D02*
X65675000Y-115875000D01*
G75*
G02*
X65800000Y-115750000I125000J0D01*
G01*
X67050000Y-115750000D01*
G75*
G02*
X67175000Y-115875000I0J-125000D01*
G01*
X67175000Y-116125000D01*
G75*
G02*
X67050000Y-116250000I-125000J0D01*
G01*
X65800000Y-116250000D01*
G75*
G02*
X65675000Y-116125000I0J125000D01*
G01*
G37*
G36*
G01*
X65675000Y-115325000D02*
X65675000Y-115075000D01*
G75*
G02*
X65800000Y-114950000I125000J0D01*
G01*
X67050000Y-114950000D01*
G75*
G02*
X67175000Y-115075000I0J-125000D01*
G01*
X67175000Y-115325000D01*
G75*
G02*
X67050000Y-115450000I-125000J0D01*
G01*
X65800000Y-115450000D01*
G75*
G02*
X65675000Y-115325000I0J125000D01*
G01*
G37*
G36*
G01*
X65675000Y-114525000D02*
X65675000Y-114275000D01*
G75*
G02*
X65800000Y-114150000I125000J0D01*
G01*
X67050000Y-114150000D01*
G75*
G02*
X67175000Y-114275000I0J-125000D01*
G01*
X67175000Y-114525000D01*
G75*
G02*
X67050000Y-114650000I-125000J0D01*
G01*
X65800000Y-114650000D01*
G75*
G02*
X65675000Y-114525000I0J125000D01*
G01*
G37*
G36*
G01*
X65675000Y-113725000D02*
X65675000Y-113475000D01*
G75*
G02*
X65800000Y-113350000I125000J0D01*
G01*
X67050000Y-113350000D01*
G75*
G02*
X67175000Y-113475000I0J-125000D01*
G01*
X67175000Y-113725000D01*
G75*
G02*
X67050000Y-113850000I-125000J0D01*
G01*
X65800000Y-113850000D01*
G75*
G02*
X65675000Y-113725000I0J125000D01*
G01*
G37*
D31*
X40000000Y-134700000D03*
X40000000Y-132150000D03*
D32*
X40000000Y-129600000D03*
D33*
X73210000Y-136370000D03*
X70670000Y-136370000D03*
X68130000Y-136370000D03*
X65590000Y-136370000D03*
X65590000Y-128430000D03*
X68130000Y-128430000D03*
X70670000Y-128430000D03*
D34*
X73210000Y-128430000D03*
G36*
G01*
X45149998Y-102862500D02*
X46450002Y-102862500D01*
G75*
G02*
X46700000Y-103112498I0J-249998D01*
G01*
X46700000Y-103937502D01*
G75*
G02*
X46450002Y-104187500I-249998J0D01*
G01*
X45149998Y-104187500D01*
G75*
G02*
X44900000Y-103937502I0J249998D01*
G01*
X44900000Y-103112498D01*
G75*
G02*
X45149998Y-102862500I249998J0D01*
G01*
G37*
G36*
G01*
X45149998Y-99737500D02*
X46450002Y-99737500D01*
G75*
G02*
X46700000Y-99987498I0J-249998D01*
G01*
X46700000Y-100812502D01*
G75*
G02*
X46450002Y-101062500I-249998J0D01*
G01*
X45149998Y-101062500D01*
G75*
G02*
X44900000Y-100812502I0J249998D01*
G01*
X44900000Y-99987498D01*
G75*
G02*
X45149998Y-99737500I249998J0D01*
G01*
G37*
G36*
G01*
X46450002Y-128700000D02*
X45149998Y-128700000D01*
G75*
G02*
X44900000Y-128450002I0J249998D01*
G01*
X44900000Y-127624998D01*
G75*
G02*
X45149998Y-127375000I249998J0D01*
G01*
X46450002Y-127375000D01*
G75*
G02*
X46700000Y-127624998I0J-249998D01*
G01*
X46700000Y-128450002D01*
G75*
G02*
X46450002Y-128700000I-249998J0D01*
G01*
G37*
G36*
G01*
X46450002Y-131825000D02*
X45149998Y-131825000D01*
G75*
G02*
X44900000Y-131575002I0J249998D01*
G01*
X44900000Y-130749998D01*
G75*
G02*
X45149998Y-130500000I249998J0D01*
G01*
X46450002Y-130500000D01*
G75*
G02*
X46700000Y-130749998I0J-249998D01*
G01*
X46700000Y-131575002D01*
G75*
G02*
X46450002Y-131825000I-249998J0D01*
G01*
G37*
G36*
G01*
X46450002Y-133900000D02*
X45149998Y-133900000D01*
G75*
G02*
X44900000Y-133650002I0J249998D01*
G01*
X44900000Y-132824998D01*
G75*
G02*
X45149998Y-132575000I249998J0D01*
G01*
X46450002Y-132575000D01*
G75*
G02*
X46700000Y-132824998I0J-249998D01*
G01*
X46700000Y-133650002D01*
G75*
G02*
X46450002Y-133900000I-249998J0D01*
G01*
G37*
G36*
G01*
X46450002Y-137025000D02*
X45149998Y-137025000D01*
G75*
G02*
X44900000Y-136775002I0J249998D01*
G01*
X44900000Y-135949998D01*
G75*
G02*
X45149998Y-135700000I249998J0D01*
G01*
X46450002Y-135700000D01*
G75*
G02*
X46700000Y-135949998I0J-249998D01*
G01*
X46700000Y-136775002D01*
G75*
G02*
X46450002Y-137025000I-249998J0D01*
G01*
G37*
G36*
G01*
X79550000Y-122700000D02*
X78450000Y-122700000D01*
G75*
G02*
X78200000Y-122450000I0J250000D01*
G01*
X78200000Y-120350000D01*
G75*
G02*
X78450000Y-120100000I250000J0D01*
G01*
X79550000Y-120100000D01*
G75*
G02*
X79800000Y-120350000I0J-250000D01*
G01*
X79800000Y-122450000D01*
G75*
G02*
X79550000Y-122700000I-250000J0D01*
G01*
G37*
G36*
G01*
X79550000Y-126300000D02*
X78450000Y-126300000D01*
G75*
G02*
X78200000Y-126050000I0J250000D01*
G01*
X78200000Y-123950000D01*
G75*
G02*
X78450000Y-123700000I250000J0D01*
G01*
X79550000Y-123700000D01*
G75*
G02*
X79800000Y-123950000I0J-250000D01*
G01*
X79800000Y-126050000D01*
G75*
G02*
X79550000Y-126300000I-250000J0D01*
G01*
G37*
G36*
G01*
X54550000Y-93100000D02*
X53450000Y-93100000D01*
G75*
G02*
X53200000Y-92850000I0J250000D01*
G01*
X53200000Y-90350000D01*
G75*
G02*
X53450000Y-90100000I250000J0D01*
G01*
X54550000Y-90100000D01*
G75*
G02*
X54800000Y-90350000I0J-250000D01*
G01*
X54800000Y-92850000D01*
G75*
G02*
X54550000Y-93100000I-250000J0D01*
G01*
G37*
G36*
G01*
X54550000Y-97500000D02*
X53450000Y-97500000D01*
G75*
G02*
X53200000Y-97250000I0J250000D01*
G01*
X53200000Y-94750000D01*
G75*
G02*
X53450000Y-94500000I250000J0D01*
G01*
X54550000Y-94500000D01*
G75*
G02*
X54800000Y-94750000I0J-250000D01*
G01*
X54800000Y-97250000D01*
G75*
G02*
X54550000Y-97500000I-250000J0D01*
G01*
G37*
G36*
G01*
X64300000Y-94050002D02*
X64300000Y-92749998D01*
G75*
G02*
X64549998Y-92500000I249998J0D01*
G01*
X65375002Y-92500000D01*
G75*
G02*
X65625000Y-92749998I0J-249998D01*
G01*
X65625000Y-94050002D01*
G75*
G02*
X65375002Y-94300000I-249998J0D01*
G01*
X64549998Y-94300000D01*
G75*
G02*
X64300000Y-94050002I0J249998D01*
G01*
G37*
G36*
G01*
X61175000Y-94050002D02*
X61175000Y-92749998D01*
G75*
G02*
X61424998Y-92500000I249998J0D01*
G01*
X62250002Y-92500000D01*
G75*
G02*
X62500000Y-92749998I0J-249998D01*
G01*
X62500000Y-94050002D01*
G75*
G02*
X62250002Y-94300000I-249998J0D01*
G01*
X61424998Y-94300000D01*
G75*
G02*
X61175000Y-94050002I0J249998D01*
G01*
G37*
G36*
G01*
X92450002Y-122300000D02*
X91149998Y-122300000D01*
G75*
G02*
X90900000Y-122050002I0J249998D01*
G01*
X90900000Y-121224998D01*
G75*
G02*
X91149998Y-120975000I249998J0D01*
G01*
X92450002Y-120975000D01*
G75*
G02*
X92700000Y-121224998I0J-249998D01*
G01*
X92700000Y-122050002D01*
G75*
G02*
X92450002Y-122300000I-249998J0D01*
G01*
G37*
G36*
G01*
X92450002Y-125425000D02*
X91149998Y-125425000D01*
G75*
G02*
X90900000Y-125175002I0J249998D01*
G01*
X90900000Y-124349998D01*
G75*
G02*
X91149998Y-124100000I249998J0D01*
G01*
X92450002Y-124100000D01*
G75*
G02*
X92700000Y-124349998I0J-249998D01*
G01*
X92700000Y-125175002D01*
G75*
G02*
X92450002Y-125425000I-249998J0D01*
G01*
G37*
G36*
G01*
X58349998Y-139500000D02*
X59650002Y-139500000D01*
G75*
G02*
X59900000Y-139749998I0J-249998D01*
G01*
X59900000Y-140575002D01*
G75*
G02*
X59650002Y-140825000I-249998J0D01*
G01*
X58349998Y-140825000D01*
G75*
G02*
X58100000Y-140575002I0J249998D01*
G01*
X58100000Y-139749998D01*
G75*
G02*
X58349998Y-139500000I249998J0D01*
G01*
G37*
G36*
G01*
X58349998Y-136375000D02*
X59650002Y-136375000D01*
G75*
G02*
X59900000Y-136624998I0J-249998D01*
G01*
X59900000Y-137450002D01*
G75*
G02*
X59650002Y-137700000I-249998J0D01*
G01*
X58349998Y-137700000D01*
G75*
G02*
X58100000Y-137450002I0J249998D01*
G01*
X58100000Y-136624998D01*
G75*
G02*
X58349998Y-136375000I249998J0D01*
G01*
G37*
G36*
G01*
X51900000Y-125750000D02*
X51900000Y-124650000D01*
G75*
G02*
X52150000Y-124400000I250000J0D01*
G01*
X54250000Y-124400000D01*
G75*
G02*
X54500000Y-124650000I0J-250000D01*
G01*
X54500000Y-125750000D01*
G75*
G02*
X54250000Y-126000000I-250000J0D01*
G01*
X52150000Y-126000000D01*
G75*
G02*
X51900000Y-125750000I0J250000D01*
G01*
G37*
G36*
G01*
X48300000Y-125750000D02*
X48300000Y-124650000D01*
G75*
G02*
X48550000Y-124400000I250000J0D01*
G01*
X50650000Y-124400000D01*
G75*
G02*
X50900000Y-124650000I0J-250000D01*
G01*
X50900000Y-125750000D01*
G75*
G02*
X50650000Y-126000000I-250000J0D01*
G01*
X48550000Y-126000000D01*
G75*
G02*
X48300000Y-125750000I0J250000D01*
G01*
G37*
G36*
G01*
X47300000Y-94350000D02*
X47300000Y-93250000D01*
G75*
G02*
X47550000Y-93000000I250000J0D01*
G01*
X50050000Y-93000000D01*
G75*
G02*
X50300000Y-93250000I0J-250000D01*
G01*
X50300000Y-94350000D01*
G75*
G02*
X50050000Y-94600000I-250000J0D01*
G01*
X47550000Y-94600000D01*
G75*
G02*
X47300000Y-94350000I0J250000D01*
G01*
G37*
G36*
G01*
X42900000Y-94350000D02*
X42900000Y-93250000D01*
G75*
G02*
X43150000Y-93000000I250000J0D01*
G01*
X45650000Y-93000000D01*
G75*
G02*
X45900000Y-93250000I0J-250000D01*
G01*
X45900000Y-94350000D01*
G75*
G02*
X45650000Y-94600000I-250000J0D01*
G01*
X43150000Y-94600000D01*
G75*
G02*
X42900000Y-94350000I0J250000D01*
G01*
G37*
G36*
G01*
X85349998Y-108662500D02*
X86650002Y-108662500D01*
G75*
G02*
X86900000Y-108912498I0J-249998D01*
G01*
X86900000Y-109737502D01*
G75*
G02*
X86650002Y-109987500I-249998J0D01*
G01*
X85349998Y-109987500D01*
G75*
G02*
X85100000Y-109737502I0J249998D01*
G01*
X85100000Y-108912498D01*
G75*
G02*
X85349998Y-108662500I249998J0D01*
G01*
G37*
G36*
G01*
X85349998Y-105537500D02*
X86650002Y-105537500D01*
G75*
G02*
X86900000Y-105787498I0J-249998D01*
G01*
X86900000Y-106612502D01*
G75*
G02*
X86650002Y-106862500I-249998J0D01*
G01*
X85349998Y-106862500D01*
G75*
G02*
X85100000Y-106612502I0J249998D01*
G01*
X85100000Y-105787498D01*
G75*
G02*
X85349998Y-105537500I249998J0D01*
G01*
G37*
G36*
G01*
X61149998Y-118300000D02*
X62450002Y-118300000D01*
G75*
G02*
X62700000Y-118549998I0J-249998D01*
G01*
X62700000Y-119375002D01*
G75*
G02*
X62450002Y-119625000I-249998J0D01*
G01*
X61149998Y-119625000D01*
G75*
G02*
X60900000Y-119375002I0J249998D01*
G01*
X60900000Y-118549998D01*
G75*
G02*
X61149998Y-118300000I249998J0D01*
G01*
G37*
G36*
G01*
X61149998Y-115175000D02*
X62450002Y-115175000D01*
G75*
G02*
X62700000Y-115424998I0J-249998D01*
G01*
X62700000Y-116250002D01*
G75*
G02*
X62450002Y-116500000I-249998J0D01*
G01*
X61149998Y-116500000D01*
G75*
G02*
X60900000Y-116250002I0J249998D01*
G01*
X60900000Y-115424998D01*
G75*
G02*
X61149998Y-115175000I249998J0D01*
G01*
G37*
G36*
G01*
X54900000Y-101050002D02*
X54900000Y-99749998D01*
G75*
G02*
X55149998Y-99500000I249998J0D01*
G01*
X55975002Y-99500000D01*
G75*
G02*
X56225000Y-99749998I0J-249998D01*
G01*
X56225000Y-101050002D01*
G75*
G02*
X55975002Y-101300000I-249998J0D01*
G01*
X55149998Y-101300000D01*
G75*
G02*
X54900000Y-101050002I0J249998D01*
G01*
G37*
G36*
G01*
X51775000Y-101050002D02*
X51775000Y-99749998D01*
G75*
G02*
X52024998Y-99500000I249998J0D01*
G01*
X52850002Y-99500000D01*
G75*
G02*
X53100000Y-99749998I0J-249998D01*
G01*
X53100000Y-101050002D01*
G75*
G02*
X52850002Y-101300000I-249998J0D01*
G01*
X52024998Y-101300000D01*
G75*
G02*
X51775000Y-101050002I0J249998D01*
G01*
G37*
G36*
G01*
X68349998Y-91862500D02*
X69650002Y-91862500D01*
G75*
G02*
X69900000Y-92112498I0J-249998D01*
G01*
X69900000Y-92937502D01*
G75*
G02*
X69650002Y-93187500I-249998J0D01*
G01*
X68349998Y-93187500D01*
G75*
G02*
X68100000Y-92937502I0J249998D01*
G01*
X68100000Y-92112498D01*
G75*
G02*
X68349998Y-91862500I249998J0D01*
G01*
G37*
G36*
G01*
X68349998Y-88737500D02*
X69650002Y-88737500D01*
G75*
G02*
X69900000Y-88987498I0J-249998D01*
G01*
X69900000Y-89812502D01*
G75*
G02*
X69650002Y-90062500I-249998J0D01*
G01*
X68349998Y-90062500D01*
G75*
G02*
X68100000Y-89812502I0J249998D01*
G01*
X68100000Y-88987498D01*
G75*
G02*
X68349998Y-88737500I249998J0D01*
G01*
G37*
G36*
G01*
X26200000Y-101500000D02*
X24200000Y-101500000D01*
G75*
G02*
X23950000Y-101250000I0J250000D01*
G01*
X23950000Y-97350000D01*
G75*
G02*
X24200000Y-97100000I250000J0D01*
G01*
X26200000Y-97100000D01*
G75*
G02*
X26450000Y-97350000I0J-250000D01*
G01*
X26450000Y-101250000D01*
G75*
G02*
X26200000Y-101500000I-250000J0D01*
G01*
G37*
G36*
G01*
X26200000Y-108900000D02*
X24200000Y-108900000D01*
G75*
G02*
X23950000Y-108650000I0J250000D01*
G01*
X23950000Y-104750000D01*
G75*
G02*
X24200000Y-104500000I250000J0D01*
G01*
X26200000Y-104500000D01*
G75*
G02*
X26450000Y-104750000I0J-250000D01*
G01*
X26450000Y-108650000D01*
G75*
G02*
X26200000Y-108900000I-250000J0D01*
G01*
G37*
G36*
G01*
X54937500Y-103650002D02*
X54937500Y-102349998D01*
G75*
G02*
X55187498Y-102100000I249998J0D01*
G01*
X56012502Y-102100000D01*
G75*
G02*
X56262500Y-102349998I0J-249998D01*
G01*
X56262500Y-103650002D01*
G75*
G02*
X56012502Y-103900000I-249998J0D01*
G01*
X55187498Y-103900000D01*
G75*
G02*
X54937500Y-103650002I0J249998D01*
G01*
G37*
G36*
G01*
X51812500Y-103650002D02*
X51812500Y-102349998D01*
G75*
G02*
X52062498Y-102100000I249998J0D01*
G01*
X52887502Y-102100000D01*
G75*
G02*
X53137500Y-102349998I0J-249998D01*
G01*
X53137500Y-103650002D01*
G75*
G02*
X52887502Y-103900000I-249998J0D01*
G01*
X52062498Y-103900000D01*
G75*
G02*
X51812500Y-103650002I0J249998D01*
G01*
G37*
M02*
