%TF.GenerationSoftware,KiCad,Pcbnew,(5.1.12)-1*%
%TF.CreationDate,2022-08-06T16:21:54+02:00*%
%TF.ProjectId,PrototypV1_rx,50726f74-6f74-4797-9056-315f72782e6b,rev?*%
%TF.SameCoordinates,Original*%
%TF.FileFunction,Soldermask,Top*%
%TF.FilePolarity,Negative*%
%FSLAX46Y46*%
G04 Gerber Fmt 4.6, Leading zero omitted, Abs format (unit mm)*
G04 Created by KiCad (PCBNEW (5.1.12)-1) date 2022-08-06 16:21:54*
%MOMM*%
%LPD*%
G01*
G04 APERTURE LIST*
%ADD10C,4.000000*%
%ADD11O,4.000000X4.000000*%
%ADD12R,1.700000X1.700000*%
%ADD13O,1.700000X1.700000*%
%ADD14R,1.300000X1.550000*%
%ADD15R,0.650000X1.060000*%
%ADD16R,1.475000X0.450000*%
%ADD17R,1.500000X1.050000*%
%ADD18O,1.500000X1.050000*%
%ADD19O,1.600000X1.600000*%
%ADD20C,1.600000*%
%ADD21R,2.513000X3.402000*%
%ADD22R,1.525000X0.700000*%
%ADD23C,3.000000*%
%ADD24R,3.000000X3.000000*%
%ADD25O,1.000000X1.000000*%
%ADD26R,1.000000X1.000000*%
%ADD27C,1.980000*%
%ADD28R,1.980000X1.980000*%
%ADD29C,1.160000*%
%ADD30R,1.160000X1.160000*%
G04 APERTURE END LIST*
G36*
G01*
X30949998Y-128900000D02*
X32250002Y-128900000D01*
G75*
G02*
X32500000Y-129149998I0J-249998D01*
G01*
X32500000Y-129975002D01*
G75*
G02*
X32250002Y-130225000I-249998J0D01*
G01*
X30949998Y-130225000D01*
G75*
G02*
X30700000Y-129975002I0J249998D01*
G01*
X30700000Y-129149998D01*
G75*
G02*
X30949998Y-128900000I249998J0D01*
G01*
G37*
G36*
G01*
X30949998Y-125775000D02*
X32250002Y-125775000D01*
G75*
G02*
X32500000Y-126024998I0J-249998D01*
G01*
X32500000Y-126850002D01*
G75*
G02*
X32250002Y-127100000I-249998J0D01*
G01*
X30949998Y-127100000D01*
G75*
G02*
X30700000Y-126850002I0J249998D01*
G01*
X30700000Y-126024998D01*
G75*
G02*
X30949998Y-125775000I249998J0D01*
G01*
G37*
G36*
G01*
X22549998Y-127900000D02*
X23850002Y-127900000D01*
G75*
G02*
X24100000Y-128149998I0J-249998D01*
G01*
X24100000Y-128975002D01*
G75*
G02*
X23850002Y-129225000I-249998J0D01*
G01*
X22549998Y-129225000D01*
G75*
G02*
X22300000Y-128975002I0J249998D01*
G01*
X22300000Y-128149998D01*
G75*
G02*
X22549998Y-127900000I249998J0D01*
G01*
G37*
G36*
G01*
X22549998Y-124775000D02*
X23850002Y-124775000D01*
G75*
G02*
X24100000Y-125024998I0J-249998D01*
G01*
X24100000Y-125850002D01*
G75*
G02*
X23850002Y-126100000I-249998J0D01*
G01*
X22549998Y-126100000D01*
G75*
G02*
X22300000Y-125850002I0J249998D01*
G01*
X22300000Y-125024998D01*
G75*
G02*
X22549998Y-124775000I249998J0D01*
G01*
G37*
D10*
X17600000Y-89000000D03*
D11*
X106400000Y-152000000D03*
D12*
X32400000Y-93000000D03*
X85400000Y-89000000D03*
X57200000Y-132800000D03*
D13*
X60800000Y-126940000D03*
D12*
X60800000Y-124400000D03*
D13*
X89400000Y-103260000D03*
D12*
X89400000Y-105800000D03*
D13*
X81540000Y-89000000D03*
D12*
X79000000Y-89000000D03*
D13*
X40000000Y-95540000D03*
D12*
X40000000Y-93000000D03*
X23200000Y-93200000D03*
X26400000Y-114800000D03*
X22000000Y-114800000D03*
X84800000Y-101400000D03*
X19400000Y-135400000D03*
D14*
X89550000Y-97575000D03*
X94050000Y-97575000D03*
X94050000Y-89625000D03*
X89550000Y-89625000D03*
G36*
G01*
X87700000Y-142025001D02*
X87700000Y-140774999D01*
G75*
G02*
X87949999Y-140525000I249999J0D01*
G01*
X88750001Y-140525000D01*
G75*
G02*
X89000000Y-140774999I0J-249999D01*
G01*
X89000000Y-142025001D01*
G75*
G02*
X88750001Y-142275000I-249999J0D01*
G01*
X87949999Y-142275000D01*
G75*
G02*
X87700000Y-142025001I0J249999D01*
G01*
G37*
G36*
G01*
X84600000Y-142025001D02*
X84600000Y-140774999D01*
G75*
G02*
X84849999Y-140525000I249999J0D01*
G01*
X85650001Y-140525000D01*
G75*
G02*
X85900000Y-140774999I0J-249999D01*
G01*
X85900000Y-142025001D01*
G75*
G02*
X85650001Y-142275000I-249999J0D01*
G01*
X84849999Y-142275000D01*
G75*
G02*
X84600000Y-142025001I0J249999D01*
G01*
G37*
G36*
G01*
X87650000Y-139225001D02*
X87650000Y-137974999D01*
G75*
G02*
X87899999Y-137725000I249999J0D01*
G01*
X88700001Y-137725000D01*
G75*
G02*
X88950000Y-137974999I0J-249999D01*
G01*
X88950000Y-139225001D01*
G75*
G02*
X88700001Y-139475000I-249999J0D01*
G01*
X87899999Y-139475000D01*
G75*
G02*
X87650000Y-139225001I0J249999D01*
G01*
G37*
G36*
G01*
X84550000Y-139225001D02*
X84550000Y-137974999D01*
G75*
G02*
X84799999Y-137725000I249999J0D01*
G01*
X85600001Y-137725000D01*
G75*
G02*
X85850000Y-137974999I0J-249999D01*
G01*
X85850000Y-139225001D01*
G75*
G02*
X85600001Y-139475000I-249999J0D01*
G01*
X84799999Y-139475000D01*
G75*
G02*
X84550000Y-139225001I0J249999D01*
G01*
G37*
G36*
G01*
X87700000Y-136425001D02*
X87700000Y-135174999D01*
G75*
G02*
X87949999Y-134925000I249999J0D01*
G01*
X88750001Y-134925000D01*
G75*
G02*
X89000000Y-135174999I0J-249999D01*
G01*
X89000000Y-136425001D01*
G75*
G02*
X88750001Y-136675000I-249999J0D01*
G01*
X87949999Y-136675000D01*
G75*
G02*
X87700000Y-136425001I0J249999D01*
G01*
G37*
G36*
G01*
X84600000Y-136425001D02*
X84600000Y-135174999D01*
G75*
G02*
X84849999Y-134925000I249999J0D01*
G01*
X85650001Y-134925000D01*
G75*
G02*
X85900000Y-135174999I0J-249999D01*
G01*
X85900000Y-136425001D01*
G75*
G02*
X85650001Y-136675000I-249999J0D01*
G01*
X84849999Y-136675000D01*
G75*
G02*
X84600000Y-136425001I0J249999D01*
G01*
G37*
G36*
G01*
X87700000Y-133625001D02*
X87700000Y-132374999D01*
G75*
G02*
X87949999Y-132125000I249999J0D01*
G01*
X88750001Y-132125000D01*
G75*
G02*
X89000000Y-132374999I0J-249999D01*
G01*
X89000000Y-133625001D01*
G75*
G02*
X88750001Y-133875000I-249999J0D01*
G01*
X87949999Y-133875000D01*
G75*
G02*
X87700000Y-133625001I0J249999D01*
G01*
G37*
G36*
G01*
X84600000Y-133625001D02*
X84600000Y-132374999D01*
G75*
G02*
X84849999Y-132125000I249999J0D01*
G01*
X85650001Y-132125000D01*
G75*
G02*
X85900000Y-132374999I0J-249999D01*
G01*
X85900000Y-133625001D01*
G75*
G02*
X85650001Y-133875000I-249999J0D01*
G01*
X84849999Y-133875000D01*
G75*
G02*
X84600000Y-133625001I0J249999D01*
G01*
G37*
G36*
G01*
X84300000Y-92974999D02*
X84300000Y-94225001D01*
G75*
G02*
X84050001Y-94475000I-249999J0D01*
G01*
X83249999Y-94475000D01*
G75*
G02*
X83000000Y-94225001I0J249999D01*
G01*
X83000000Y-92974999D01*
G75*
G02*
X83249999Y-92725000I249999J0D01*
G01*
X84050001Y-92725000D01*
G75*
G02*
X84300000Y-92974999I0J-249999D01*
G01*
G37*
G36*
G01*
X87400000Y-92974999D02*
X87400000Y-94225001D01*
G75*
G02*
X87150001Y-94475000I-249999J0D01*
G01*
X86349999Y-94475000D01*
G75*
G02*
X86100000Y-94225001I0J249999D01*
G01*
X86100000Y-92974999D01*
G75*
G02*
X86349999Y-92725000I249999J0D01*
G01*
X87150001Y-92725000D01*
G75*
G02*
X87400000Y-92974999I0J-249999D01*
G01*
G37*
G36*
G01*
X91225000Y-140775000D02*
X91225000Y-142025000D01*
G75*
G02*
X90975000Y-142275000I-250000J0D01*
G01*
X90050000Y-142275000D01*
G75*
G02*
X89800000Y-142025000I0J250000D01*
G01*
X89800000Y-140775000D01*
G75*
G02*
X90050000Y-140525000I250000J0D01*
G01*
X90975000Y-140525000D01*
G75*
G02*
X91225000Y-140775000I0J-250000D01*
G01*
G37*
G36*
G01*
X94200000Y-140775000D02*
X94200000Y-142025000D01*
G75*
G02*
X93950000Y-142275000I-250000J0D01*
G01*
X93025000Y-142275000D01*
G75*
G02*
X92775000Y-142025000I0J250000D01*
G01*
X92775000Y-140775000D01*
G75*
G02*
X93025000Y-140525000I250000J0D01*
G01*
X93950000Y-140525000D01*
G75*
G02*
X94200000Y-140775000I0J-250000D01*
G01*
G37*
G36*
G01*
X91225000Y-137975000D02*
X91225000Y-139225000D01*
G75*
G02*
X90975000Y-139475000I-250000J0D01*
G01*
X90050000Y-139475000D01*
G75*
G02*
X89800000Y-139225000I0J250000D01*
G01*
X89800000Y-137975000D01*
G75*
G02*
X90050000Y-137725000I250000J0D01*
G01*
X90975000Y-137725000D01*
G75*
G02*
X91225000Y-137975000I0J-250000D01*
G01*
G37*
G36*
G01*
X94200000Y-137975000D02*
X94200000Y-139225000D01*
G75*
G02*
X93950000Y-139475000I-250000J0D01*
G01*
X93025000Y-139475000D01*
G75*
G02*
X92775000Y-139225000I0J250000D01*
G01*
X92775000Y-137975000D01*
G75*
G02*
X93025000Y-137725000I250000J0D01*
G01*
X93950000Y-137725000D01*
G75*
G02*
X94200000Y-137975000I0J-250000D01*
G01*
G37*
G36*
G01*
X91225000Y-135175000D02*
X91225000Y-136425000D01*
G75*
G02*
X90975000Y-136675000I-250000J0D01*
G01*
X90050000Y-136675000D01*
G75*
G02*
X89800000Y-136425000I0J250000D01*
G01*
X89800000Y-135175000D01*
G75*
G02*
X90050000Y-134925000I250000J0D01*
G01*
X90975000Y-134925000D01*
G75*
G02*
X91225000Y-135175000I0J-250000D01*
G01*
G37*
G36*
G01*
X94200000Y-135175000D02*
X94200000Y-136425000D01*
G75*
G02*
X93950000Y-136675000I-250000J0D01*
G01*
X93025000Y-136675000D01*
G75*
G02*
X92775000Y-136425000I0J250000D01*
G01*
X92775000Y-135175000D01*
G75*
G02*
X93025000Y-134925000I250000J0D01*
G01*
X93950000Y-134925000D01*
G75*
G02*
X94200000Y-135175000I0J-250000D01*
G01*
G37*
G36*
G01*
X91225000Y-132375000D02*
X91225000Y-133625000D01*
G75*
G02*
X90975000Y-133875000I-250000J0D01*
G01*
X90050000Y-133875000D01*
G75*
G02*
X89800000Y-133625000I0J250000D01*
G01*
X89800000Y-132375000D01*
G75*
G02*
X90050000Y-132125000I250000J0D01*
G01*
X90975000Y-132125000D01*
G75*
G02*
X91225000Y-132375000I0J-250000D01*
G01*
G37*
G36*
G01*
X94200000Y-132375000D02*
X94200000Y-133625000D01*
G75*
G02*
X93950000Y-133875000I-250000J0D01*
G01*
X93025000Y-133875000D01*
G75*
G02*
X92775000Y-133625000I0J250000D01*
G01*
X92775000Y-132375000D01*
G75*
G02*
X93025000Y-132125000I250000J0D01*
G01*
X93950000Y-132125000D01*
G75*
G02*
X94200000Y-132375000I0J-250000D01*
G01*
G37*
G36*
G01*
X91100000Y-86549998D02*
X91100000Y-87850002D01*
G75*
G02*
X90850002Y-88100000I-249998J0D01*
G01*
X90024998Y-88100000D01*
G75*
G02*
X89775000Y-87850002I0J249998D01*
G01*
X89775000Y-86549998D01*
G75*
G02*
X90024998Y-86300000I249998J0D01*
G01*
X90850002Y-86300000D01*
G75*
G02*
X91100000Y-86549998I0J-249998D01*
G01*
G37*
G36*
G01*
X94225000Y-86549998D02*
X94225000Y-87850002D01*
G75*
G02*
X93975002Y-88100000I-249998J0D01*
G01*
X93149998Y-88100000D01*
G75*
G02*
X92900000Y-87850002I0J249998D01*
G01*
X92900000Y-86549998D01*
G75*
G02*
X93149998Y-86300000I249998J0D01*
G01*
X93975002Y-86300000D01*
G75*
G02*
X94225000Y-86549998I0J-249998D01*
G01*
G37*
G36*
G01*
X57774999Y-118300000D02*
X59025001Y-118300000D01*
G75*
G02*
X59275000Y-118549999I0J-249999D01*
G01*
X59275000Y-119350001D01*
G75*
G02*
X59025001Y-119600000I-249999J0D01*
G01*
X57774999Y-119600000D01*
G75*
G02*
X57525000Y-119350001I0J249999D01*
G01*
X57525000Y-118549999D01*
G75*
G02*
X57774999Y-118300000I249999J0D01*
G01*
G37*
G36*
G01*
X57774999Y-115200000D02*
X59025001Y-115200000D01*
G75*
G02*
X59275000Y-115449999I0J-249999D01*
G01*
X59275000Y-116250001D01*
G75*
G02*
X59025001Y-116500000I-249999J0D01*
G01*
X57774999Y-116500000D01*
G75*
G02*
X57525000Y-116250001I0J249999D01*
G01*
X57525000Y-115449999D01*
G75*
G02*
X57774999Y-115200000I249999J0D01*
G01*
G37*
G36*
G01*
X51174999Y-118300000D02*
X52425001Y-118300000D01*
G75*
G02*
X52675000Y-118549999I0J-249999D01*
G01*
X52675000Y-119350001D01*
G75*
G02*
X52425001Y-119600000I-249999J0D01*
G01*
X51174999Y-119600000D01*
G75*
G02*
X50925000Y-119350001I0J249999D01*
G01*
X50925000Y-118549999D01*
G75*
G02*
X51174999Y-118300000I249999J0D01*
G01*
G37*
G36*
G01*
X51174999Y-115200000D02*
X52425001Y-115200000D01*
G75*
G02*
X52675000Y-115449999I0J-249999D01*
G01*
X52675000Y-116250001D01*
G75*
G02*
X52425001Y-116500000I-249999J0D01*
G01*
X51174999Y-116500000D01*
G75*
G02*
X50925000Y-116250001I0J249999D01*
G01*
X50925000Y-115449999D01*
G75*
G02*
X51174999Y-115200000I249999J0D01*
G01*
G37*
G36*
G01*
X54574999Y-118300000D02*
X55825001Y-118300000D01*
G75*
G02*
X56075000Y-118549999I0J-249999D01*
G01*
X56075000Y-119350001D01*
G75*
G02*
X55825001Y-119600000I-249999J0D01*
G01*
X54574999Y-119600000D01*
G75*
G02*
X54325000Y-119350001I0J249999D01*
G01*
X54325000Y-118549999D01*
G75*
G02*
X54574999Y-118300000I249999J0D01*
G01*
G37*
G36*
G01*
X54574999Y-115200000D02*
X55825001Y-115200000D01*
G75*
G02*
X56075000Y-115449999I0J-249999D01*
G01*
X56075000Y-116250001D01*
G75*
G02*
X55825001Y-116500000I-249999J0D01*
G01*
X54574999Y-116500000D01*
G75*
G02*
X54325000Y-116250001I0J249999D01*
G01*
X54325000Y-115449999D01*
G75*
G02*
X54574999Y-115200000I249999J0D01*
G01*
G37*
G36*
G01*
X59700000Y-111974999D02*
X59700000Y-113225001D01*
G75*
G02*
X59450001Y-113475000I-249999J0D01*
G01*
X58649999Y-113475000D01*
G75*
G02*
X58400000Y-113225001I0J249999D01*
G01*
X58400000Y-111974999D01*
G75*
G02*
X58649999Y-111725000I249999J0D01*
G01*
X59450001Y-111725000D01*
G75*
G02*
X59700000Y-111974999I0J-249999D01*
G01*
G37*
G36*
G01*
X62800000Y-111974999D02*
X62800000Y-113225001D01*
G75*
G02*
X62550001Y-113475000I-249999J0D01*
G01*
X61749999Y-113475000D01*
G75*
G02*
X61500000Y-113225001I0J249999D01*
G01*
X61500000Y-111974999D01*
G75*
G02*
X61749999Y-111725000I249999J0D01*
G01*
X62550001Y-111725000D01*
G75*
G02*
X62800000Y-111974999I0J-249999D01*
G01*
G37*
D13*
X74200000Y-106000000D03*
D12*
X74200000Y-108540000D03*
G36*
G01*
X18850000Y-127700000D02*
X19950000Y-127700000D01*
G75*
G02*
X20200000Y-127950000I0J-250000D01*
G01*
X20200000Y-130050000D01*
G75*
G02*
X19950000Y-130300000I-250000J0D01*
G01*
X18850000Y-130300000D01*
G75*
G02*
X18600000Y-130050000I0J250000D01*
G01*
X18600000Y-127950000D01*
G75*
G02*
X18850000Y-127700000I250000J0D01*
G01*
G37*
G36*
G01*
X18850000Y-124100000D02*
X19950000Y-124100000D01*
G75*
G02*
X20200000Y-124350000I0J-250000D01*
G01*
X20200000Y-126450000D01*
G75*
G02*
X19950000Y-126700000I-250000J0D01*
G01*
X18850000Y-126700000D01*
G75*
G02*
X18600000Y-126450000I0J250000D01*
G01*
X18600000Y-124350000D01*
G75*
G02*
X18850000Y-124100000I250000J0D01*
G01*
G37*
G36*
G01*
X48900000Y-113225001D02*
X48900000Y-111974999D01*
G75*
G02*
X49149999Y-111725000I249999J0D01*
G01*
X49950001Y-111725000D01*
G75*
G02*
X50200000Y-111974999I0J-249999D01*
G01*
X50200000Y-113225001D01*
G75*
G02*
X49950001Y-113475000I-249999J0D01*
G01*
X49149999Y-113475000D01*
G75*
G02*
X48900000Y-113225001I0J249999D01*
G01*
G37*
G36*
G01*
X45800000Y-113225001D02*
X45800000Y-111974999D01*
G75*
G02*
X46049999Y-111725000I249999J0D01*
G01*
X46850001Y-111725000D01*
G75*
G02*
X47100000Y-111974999I0J-249999D01*
G01*
X47100000Y-113225001D01*
G75*
G02*
X46850001Y-113475000I-249999J0D01*
G01*
X46049999Y-113475000D01*
G75*
G02*
X45800000Y-113225001I0J249999D01*
G01*
G37*
G36*
G01*
X47025001Y-106300000D02*
X45774999Y-106300000D01*
G75*
G02*
X45525000Y-106050001I0J249999D01*
G01*
X45525000Y-105249999D01*
G75*
G02*
X45774999Y-105000000I249999J0D01*
G01*
X47025001Y-105000000D01*
G75*
G02*
X47275000Y-105249999I0J-249999D01*
G01*
X47275000Y-106050001D01*
G75*
G02*
X47025001Y-106300000I-249999J0D01*
G01*
G37*
G36*
G01*
X47025001Y-109400000D02*
X45774999Y-109400000D01*
G75*
G02*
X45525000Y-109150001I0J249999D01*
G01*
X45525000Y-108349999D01*
G75*
G02*
X45774999Y-108100000I249999J0D01*
G01*
X47025001Y-108100000D01*
G75*
G02*
X47275000Y-108349999I0J-249999D01*
G01*
X47275000Y-109150001D01*
G75*
G02*
X47025001Y-109400000I-249999J0D01*
G01*
G37*
D13*
X17800000Y-114340000D03*
D12*
X17800000Y-111800000D03*
D15*
X43400000Y-109500000D03*
X42450000Y-109500000D03*
X44350000Y-109500000D03*
X44350000Y-111700000D03*
X43400000Y-111700000D03*
X42450000Y-111700000D03*
D16*
X46633000Y-115240000D03*
X46633000Y-115890000D03*
X46633000Y-116540000D03*
X46633000Y-117190000D03*
X40757000Y-117190000D03*
X40757000Y-116540000D03*
X40757000Y-115890000D03*
X40757000Y-115240000D03*
G36*
G01*
X37700000Y-112750000D02*
X37700000Y-111650000D01*
G75*
G02*
X37950000Y-111400000I250000J0D01*
G01*
X40050000Y-111400000D01*
G75*
G02*
X40300000Y-111650000I0J-250000D01*
G01*
X40300000Y-112750000D01*
G75*
G02*
X40050000Y-113000000I-250000J0D01*
G01*
X37950000Y-113000000D01*
G75*
G02*
X37700000Y-112750000I0J250000D01*
G01*
G37*
G36*
G01*
X34100000Y-112750000D02*
X34100000Y-111650000D01*
G75*
G02*
X34350000Y-111400000I250000J0D01*
G01*
X36450000Y-111400000D01*
G75*
G02*
X36700000Y-111650000I0J-250000D01*
G01*
X36700000Y-112750000D01*
G75*
G02*
X36450000Y-113000000I-250000J0D01*
G01*
X34350000Y-113000000D01*
G75*
G02*
X34100000Y-112750000I0J250000D01*
G01*
G37*
G36*
G01*
X43700000Y-107650002D02*
X43700000Y-106349998D01*
G75*
G02*
X43949998Y-106100000I249998J0D01*
G01*
X44775002Y-106100000D01*
G75*
G02*
X45025000Y-106349998I0J-249998D01*
G01*
X45025000Y-107650002D01*
G75*
G02*
X44775002Y-107900000I-249998J0D01*
G01*
X43949998Y-107900000D01*
G75*
G02*
X43700000Y-107650002I0J249998D01*
G01*
G37*
G36*
G01*
X40575000Y-107650002D02*
X40575000Y-106349998D01*
G75*
G02*
X40824998Y-106100000I249998J0D01*
G01*
X41650002Y-106100000D01*
G75*
G02*
X41900000Y-106349998I0J-249998D01*
G01*
X41900000Y-107650002D01*
G75*
G02*
X41650002Y-107900000I-249998J0D01*
G01*
X40824998Y-107900000D01*
G75*
G02*
X40575000Y-107650002I0J249998D01*
G01*
G37*
D17*
X81400000Y-108800000D03*
D18*
X81400000Y-106260000D03*
X81400000Y-107530000D03*
G36*
G01*
X77825001Y-106100000D02*
X76574999Y-106100000D01*
G75*
G02*
X76325000Y-105850001I0J249999D01*
G01*
X76325000Y-105049999D01*
G75*
G02*
X76574999Y-104800000I249999J0D01*
G01*
X77825001Y-104800000D01*
G75*
G02*
X78075000Y-105049999I0J-249999D01*
G01*
X78075000Y-105850001D01*
G75*
G02*
X77825001Y-106100000I-249999J0D01*
G01*
G37*
G36*
G01*
X77825001Y-109200000D02*
X76574999Y-109200000D01*
G75*
G02*
X76325000Y-108950001I0J249999D01*
G01*
X76325000Y-108149999D01*
G75*
G02*
X76574999Y-107900000I249999J0D01*
G01*
X77825001Y-107900000D01*
G75*
G02*
X78075000Y-108149999I0J-249999D01*
G01*
X78075000Y-108950001D01*
G75*
G02*
X77825001Y-109200000I-249999J0D01*
G01*
G37*
G36*
G01*
X79100000Y-112225001D02*
X79100000Y-110974999D01*
G75*
G02*
X79349999Y-110725000I249999J0D01*
G01*
X80150001Y-110725000D01*
G75*
G02*
X80400000Y-110974999I0J-249999D01*
G01*
X80400000Y-112225001D01*
G75*
G02*
X80150001Y-112475000I-249999J0D01*
G01*
X79349999Y-112475000D01*
G75*
G02*
X79100000Y-112225001I0J249999D01*
G01*
G37*
G36*
G01*
X76000000Y-112225001D02*
X76000000Y-110974999D01*
G75*
G02*
X76249999Y-110725000I249999J0D01*
G01*
X77050001Y-110725000D01*
G75*
G02*
X77300000Y-110974999I0J-249999D01*
G01*
X77300000Y-112225001D01*
G75*
G02*
X77050001Y-112475000I-249999J0D01*
G01*
X76249999Y-112475000D01*
G75*
G02*
X76000000Y-112225001I0J249999D01*
G01*
G37*
G36*
G01*
X53100000Y-107174999D02*
X53100000Y-108425001D01*
G75*
G02*
X52850001Y-108675000I-249999J0D01*
G01*
X52049999Y-108675000D01*
G75*
G02*
X51800000Y-108425001I0J249999D01*
G01*
X51800000Y-107174999D01*
G75*
G02*
X52049999Y-106925000I249999J0D01*
G01*
X52850001Y-106925000D01*
G75*
G02*
X53100000Y-107174999I0J-249999D01*
G01*
G37*
G36*
G01*
X56200000Y-107174999D02*
X56200000Y-108425001D01*
G75*
G02*
X55950001Y-108675000I-249999J0D01*
G01*
X55149999Y-108675000D01*
G75*
G02*
X54900000Y-108425001I0J249999D01*
G01*
X54900000Y-107174999D01*
G75*
G02*
X55149999Y-106925000I249999J0D01*
G01*
X55950001Y-106925000D01*
G75*
G02*
X56200000Y-107174999I0J-249999D01*
G01*
G37*
G36*
G01*
X53100000Y-109974999D02*
X53100000Y-111225001D01*
G75*
G02*
X52850001Y-111475000I-249999J0D01*
G01*
X52049999Y-111475000D01*
G75*
G02*
X51800000Y-111225001I0J249999D01*
G01*
X51800000Y-109974999D01*
G75*
G02*
X52049999Y-109725000I249999J0D01*
G01*
X52850001Y-109725000D01*
G75*
G02*
X53100000Y-109974999I0J-249999D01*
G01*
G37*
G36*
G01*
X56200000Y-109974999D02*
X56200000Y-111225001D01*
G75*
G02*
X55950001Y-111475000I-249999J0D01*
G01*
X55149999Y-111475000D01*
G75*
G02*
X54900000Y-111225001I0J249999D01*
G01*
X54900000Y-109974999D01*
G75*
G02*
X55149999Y-109725000I249999J0D01*
G01*
X55950001Y-109725000D01*
G75*
G02*
X56200000Y-109974999I0J-249999D01*
G01*
G37*
D19*
X31800000Y-101760000D03*
D20*
X31800000Y-117000000D03*
G36*
G01*
X68500000Y-140374999D02*
X68500000Y-141625001D01*
G75*
G02*
X68250001Y-141875000I-249999J0D01*
G01*
X67449999Y-141875000D01*
G75*
G02*
X67200000Y-141625001I0J249999D01*
G01*
X67200000Y-140374999D01*
G75*
G02*
X67449999Y-140125000I249999J0D01*
G01*
X68250001Y-140125000D01*
G75*
G02*
X68500000Y-140374999I0J-249999D01*
G01*
G37*
G36*
G01*
X71600000Y-140374999D02*
X71600000Y-141625001D01*
G75*
G02*
X71350001Y-141875000I-249999J0D01*
G01*
X70549999Y-141875000D01*
G75*
G02*
X70300000Y-141625001I0J249999D01*
G01*
X70300000Y-140374999D01*
G75*
G02*
X70549999Y-140125000I249999J0D01*
G01*
X71350001Y-140125000D01*
G75*
G02*
X71600000Y-140374999I0J-249999D01*
G01*
G37*
G36*
G01*
X74900000Y-125825001D02*
X74900000Y-124574999D01*
G75*
G02*
X75149999Y-124325000I249999J0D01*
G01*
X75950001Y-124325000D01*
G75*
G02*
X76200000Y-124574999I0J-249999D01*
G01*
X76200000Y-125825001D01*
G75*
G02*
X75950001Y-126075000I-249999J0D01*
G01*
X75149999Y-126075000D01*
G75*
G02*
X74900000Y-125825001I0J249999D01*
G01*
G37*
G36*
G01*
X71800000Y-125825001D02*
X71800000Y-124574999D01*
G75*
G02*
X72049999Y-124325000I249999J0D01*
G01*
X72850001Y-124325000D01*
G75*
G02*
X73100000Y-124574999I0J-249999D01*
G01*
X73100000Y-125825001D01*
G75*
G02*
X72850001Y-126075000I-249999J0D01*
G01*
X72049999Y-126075000D01*
G75*
G02*
X71800000Y-125825001I0J249999D01*
G01*
G37*
G36*
G01*
X78100000Y-128625001D02*
X78100000Y-127374999D01*
G75*
G02*
X78349999Y-127125000I249999J0D01*
G01*
X79150001Y-127125000D01*
G75*
G02*
X79400000Y-127374999I0J-249999D01*
G01*
X79400000Y-128625001D01*
G75*
G02*
X79150001Y-128875000I-249999J0D01*
G01*
X78349999Y-128875000D01*
G75*
G02*
X78100000Y-128625001I0J249999D01*
G01*
G37*
G36*
G01*
X75000000Y-128625001D02*
X75000000Y-127374999D01*
G75*
G02*
X75249999Y-127125000I249999J0D01*
G01*
X76050001Y-127125000D01*
G75*
G02*
X76300000Y-127374999I0J-249999D01*
G01*
X76300000Y-128625001D01*
G75*
G02*
X76050001Y-128875000I-249999J0D01*
G01*
X75249999Y-128875000D01*
G75*
G02*
X75000000Y-128625001I0J249999D01*
G01*
G37*
D13*
X17800000Y-103400000D03*
D12*
X17800000Y-100860000D03*
D21*
X38400000Y-102400000D03*
D22*
X41112000Y-100495000D03*
X41112000Y-101765000D03*
X41112000Y-103035000D03*
X41112000Y-104305000D03*
X35688000Y-104305000D03*
X35688000Y-103035000D03*
X35688000Y-101765000D03*
X35688000Y-100495000D03*
D13*
X85600000Y-124160000D03*
X85600000Y-121620000D03*
X85600000Y-119080000D03*
X85600000Y-116540000D03*
D12*
X85600000Y-114000000D03*
D13*
X28600000Y-132160000D03*
X28600000Y-129620000D03*
X28600000Y-127080000D03*
X28600000Y-124540000D03*
D12*
X28600000Y-122000000D03*
D23*
X77080000Y-147400000D03*
D24*
X61840000Y-147400000D03*
D23*
X72000000Y-147400000D03*
X66920000Y-147400000D03*
D13*
X93200000Y-110760000D03*
X93200000Y-108220000D03*
X93200000Y-105680000D03*
X93200000Y-103140000D03*
D12*
X93200000Y-100600000D03*
D25*
X62410000Y-109000000D03*
X61140000Y-109000000D03*
X59870000Y-109000000D03*
D26*
X58600000Y-109000000D03*
D13*
X80180000Y-97600000D03*
X77640000Y-97600000D03*
X75100000Y-97600000D03*
X72560000Y-97600000D03*
X70020000Y-97600000D03*
X67480000Y-97600000D03*
X64940000Y-97600000D03*
D12*
X62400000Y-97600000D03*
G36*
G01*
X67550000Y-112850000D02*
X67550000Y-111600000D01*
G75*
G02*
X67675000Y-111475000I125000J0D01*
G01*
X67925000Y-111475000D01*
G75*
G02*
X68050000Y-111600000I0J-125000D01*
G01*
X68050000Y-112850000D01*
G75*
G02*
X67925000Y-112975000I-125000J0D01*
G01*
X67675000Y-112975000D01*
G75*
G02*
X67550000Y-112850000I0J125000D01*
G01*
G37*
G36*
G01*
X68350000Y-112850000D02*
X68350000Y-111600000D01*
G75*
G02*
X68475000Y-111475000I125000J0D01*
G01*
X68725000Y-111475000D01*
G75*
G02*
X68850000Y-111600000I0J-125000D01*
G01*
X68850000Y-112850000D01*
G75*
G02*
X68725000Y-112975000I-125000J0D01*
G01*
X68475000Y-112975000D01*
G75*
G02*
X68350000Y-112850000I0J125000D01*
G01*
G37*
G36*
G01*
X69150000Y-112850000D02*
X69150000Y-111600000D01*
G75*
G02*
X69275000Y-111475000I125000J0D01*
G01*
X69525000Y-111475000D01*
G75*
G02*
X69650000Y-111600000I0J-125000D01*
G01*
X69650000Y-112850000D01*
G75*
G02*
X69525000Y-112975000I-125000J0D01*
G01*
X69275000Y-112975000D01*
G75*
G02*
X69150000Y-112850000I0J125000D01*
G01*
G37*
G36*
G01*
X69950000Y-112850000D02*
X69950000Y-111600000D01*
G75*
G02*
X70075000Y-111475000I125000J0D01*
G01*
X70325000Y-111475000D01*
G75*
G02*
X70450000Y-111600000I0J-125000D01*
G01*
X70450000Y-112850000D01*
G75*
G02*
X70325000Y-112975000I-125000J0D01*
G01*
X70075000Y-112975000D01*
G75*
G02*
X69950000Y-112850000I0J125000D01*
G01*
G37*
G36*
G01*
X70750000Y-112850000D02*
X70750000Y-111600000D01*
G75*
G02*
X70875000Y-111475000I125000J0D01*
G01*
X71125000Y-111475000D01*
G75*
G02*
X71250000Y-111600000I0J-125000D01*
G01*
X71250000Y-112850000D01*
G75*
G02*
X71125000Y-112975000I-125000J0D01*
G01*
X70875000Y-112975000D01*
G75*
G02*
X70750000Y-112850000I0J125000D01*
G01*
G37*
G36*
G01*
X71550000Y-112850000D02*
X71550000Y-111600000D01*
G75*
G02*
X71675000Y-111475000I125000J0D01*
G01*
X71925000Y-111475000D01*
G75*
G02*
X72050000Y-111600000I0J-125000D01*
G01*
X72050000Y-112850000D01*
G75*
G02*
X71925000Y-112975000I-125000J0D01*
G01*
X71675000Y-112975000D01*
G75*
G02*
X71550000Y-112850000I0J125000D01*
G01*
G37*
G36*
G01*
X72350000Y-112850000D02*
X72350000Y-111600000D01*
G75*
G02*
X72475000Y-111475000I125000J0D01*
G01*
X72725000Y-111475000D01*
G75*
G02*
X72850000Y-111600000I0J-125000D01*
G01*
X72850000Y-112850000D01*
G75*
G02*
X72725000Y-112975000I-125000J0D01*
G01*
X72475000Y-112975000D01*
G75*
G02*
X72350000Y-112850000I0J125000D01*
G01*
G37*
G36*
G01*
X73150000Y-112850000D02*
X73150000Y-111600000D01*
G75*
G02*
X73275000Y-111475000I125000J0D01*
G01*
X73525000Y-111475000D01*
G75*
G02*
X73650000Y-111600000I0J-125000D01*
G01*
X73650000Y-112850000D01*
G75*
G02*
X73525000Y-112975000I-125000J0D01*
G01*
X73275000Y-112975000D01*
G75*
G02*
X73150000Y-112850000I0J125000D01*
G01*
G37*
G36*
G01*
X74025000Y-113725000D02*
X74025000Y-113475000D01*
G75*
G02*
X74150000Y-113350000I125000J0D01*
G01*
X75400000Y-113350000D01*
G75*
G02*
X75525000Y-113475000I0J-125000D01*
G01*
X75525000Y-113725000D01*
G75*
G02*
X75400000Y-113850000I-125000J0D01*
G01*
X74150000Y-113850000D01*
G75*
G02*
X74025000Y-113725000I0J125000D01*
G01*
G37*
G36*
G01*
X74025000Y-114525000D02*
X74025000Y-114275000D01*
G75*
G02*
X74150000Y-114150000I125000J0D01*
G01*
X75400000Y-114150000D01*
G75*
G02*
X75525000Y-114275000I0J-125000D01*
G01*
X75525000Y-114525000D01*
G75*
G02*
X75400000Y-114650000I-125000J0D01*
G01*
X74150000Y-114650000D01*
G75*
G02*
X74025000Y-114525000I0J125000D01*
G01*
G37*
G36*
G01*
X74025000Y-115325000D02*
X74025000Y-115075000D01*
G75*
G02*
X74150000Y-114950000I125000J0D01*
G01*
X75400000Y-114950000D01*
G75*
G02*
X75525000Y-115075000I0J-125000D01*
G01*
X75525000Y-115325000D01*
G75*
G02*
X75400000Y-115450000I-125000J0D01*
G01*
X74150000Y-115450000D01*
G75*
G02*
X74025000Y-115325000I0J125000D01*
G01*
G37*
G36*
G01*
X74025000Y-116125000D02*
X74025000Y-115875000D01*
G75*
G02*
X74150000Y-115750000I125000J0D01*
G01*
X75400000Y-115750000D01*
G75*
G02*
X75525000Y-115875000I0J-125000D01*
G01*
X75525000Y-116125000D01*
G75*
G02*
X75400000Y-116250000I-125000J0D01*
G01*
X74150000Y-116250000D01*
G75*
G02*
X74025000Y-116125000I0J125000D01*
G01*
G37*
G36*
G01*
X74025000Y-116925000D02*
X74025000Y-116675000D01*
G75*
G02*
X74150000Y-116550000I125000J0D01*
G01*
X75400000Y-116550000D01*
G75*
G02*
X75525000Y-116675000I0J-125000D01*
G01*
X75525000Y-116925000D01*
G75*
G02*
X75400000Y-117050000I-125000J0D01*
G01*
X74150000Y-117050000D01*
G75*
G02*
X74025000Y-116925000I0J125000D01*
G01*
G37*
G36*
G01*
X74025000Y-117725000D02*
X74025000Y-117475000D01*
G75*
G02*
X74150000Y-117350000I125000J0D01*
G01*
X75400000Y-117350000D01*
G75*
G02*
X75525000Y-117475000I0J-125000D01*
G01*
X75525000Y-117725000D01*
G75*
G02*
X75400000Y-117850000I-125000J0D01*
G01*
X74150000Y-117850000D01*
G75*
G02*
X74025000Y-117725000I0J125000D01*
G01*
G37*
G36*
G01*
X74025000Y-118525000D02*
X74025000Y-118275000D01*
G75*
G02*
X74150000Y-118150000I125000J0D01*
G01*
X75400000Y-118150000D01*
G75*
G02*
X75525000Y-118275000I0J-125000D01*
G01*
X75525000Y-118525000D01*
G75*
G02*
X75400000Y-118650000I-125000J0D01*
G01*
X74150000Y-118650000D01*
G75*
G02*
X74025000Y-118525000I0J125000D01*
G01*
G37*
G36*
G01*
X74025000Y-119325000D02*
X74025000Y-119075000D01*
G75*
G02*
X74150000Y-118950000I125000J0D01*
G01*
X75400000Y-118950000D01*
G75*
G02*
X75525000Y-119075000I0J-125000D01*
G01*
X75525000Y-119325000D01*
G75*
G02*
X75400000Y-119450000I-125000J0D01*
G01*
X74150000Y-119450000D01*
G75*
G02*
X74025000Y-119325000I0J125000D01*
G01*
G37*
G36*
G01*
X73150000Y-121200000D02*
X73150000Y-119950000D01*
G75*
G02*
X73275000Y-119825000I125000J0D01*
G01*
X73525000Y-119825000D01*
G75*
G02*
X73650000Y-119950000I0J-125000D01*
G01*
X73650000Y-121200000D01*
G75*
G02*
X73525000Y-121325000I-125000J0D01*
G01*
X73275000Y-121325000D01*
G75*
G02*
X73150000Y-121200000I0J125000D01*
G01*
G37*
G36*
G01*
X72350000Y-121200000D02*
X72350000Y-119950000D01*
G75*
G02*
X72475000Y-119825000I125000J0D01*
G01*
X72725000Y-119825000D01*
G75*
G02*
X72850000Y-119950000I0J-125000D01*
G01*
X72850000Y-121200000D01*
G75*
G02*
X72725000Y-121325000I-125000J0D01*
G01*
X72475000Y-121325000D01*
G75*
G02*
X72350000Y-121200000I0J125000D01*
G01*
G37*
G36*
G01*
X71550000Y-121200000D02*
X71550000Y-119950000D01*
G75*
G02*
X71675000Y-119825000I125000J0D01*
G01*
X71925000Y-119825000D01*
G75*
G02*
X72050000Y-119950000I0J-125000D01*
G01*
X72050000Y-121200000D01*
G75*
G02*
X71925000Y-121325000I-125000J0D01*
G01*
X71675000Y-121325000D01*
G75*
G02*
X71550000Y-121200000I0J125000D01*
G01*
G37*
G36*
G01*
X70750000Y-121200000D02*
X70750000Y-119950000D01*
G75*
G02*
X70875000Y-119825000I125000J0D01*
G01*
X71125000Y-119825000D01*
G75*
G02*
X71250000Y-119950000I0J-125000D01*
G01*
X71250000Y-121200000D01*
G75*
G02*
X71125000Y-121325000I-125000J0D01*
G01*
X70875000Y-121325000D01*
G75*
G02*
X70750000Y-121200000I0J125000D01*
G01*
G37*
G36*
G01*
X69950000Y-121200000D02*
X69950000Y-119950000D01*
G75*
G02*
X70075000Y-119825000I125000J0D01*
G01*
X70325000Y-119825000D01*
G75*
G02*
X70450000Y-119950000I0J-125000D01*
G01*
X70450000Y-121200000D01*
G75*
G02*
X70325000Y-121325000I-125000J0D01*
G01*
X70075000Y-121325000D01*
G75*
G02*
X69950000Y-121200000I0J125000D01*
G01*
G37*
G36*
G01*
X69150000Y-121200000D02*
X69150000Y-119950000D01*
G75*
G02*
X69275000Y-119825000I125000J0D01*
G01*
X69525000Y-119825000D01*
G75*
G02*
X69650000Y-119950000I0J-125000D01*
G01*
X69650000Y-121200000D01*
G75*
G02*
X69525000Y-121325000I-125000J0D01*
G01*
X69275000Y-121325000D01*
G75*
G02*
X69150000Y-121200000I0J125000D01*
G01*
G37*
G36*
G01*
X68350000Y-121200000D02*
X68350000Y-119950000D01*
G75*
G02*
X68475000Y-119825000I125000J0D01*
G01*
X68725000Y-119825000D01*
G75*
G02*
X68850000Y-119950000I0J-125000D01*
G01*
X68850000Y-121200000D01*
G75*
G02*
X68725000Y-121325000I-125000J0D01*
G01*
X68475000Y-121325000D01*
G75*
G02*
X68350000Y-121200000I0J125000D01*
G01*
G37*
G36*
G01*
X67550000Y-121200000D02*
X67550000Y-119950000D01*
G75*
G02*
X67675000Y-119825000I125000J0D01*
G01*
X67925000Y-119825000D01*
G75*
G02*
X68050000Y-119950000I0J-125000D01*
G01*
X68050000Y-121200000D01*
G75*
G02*
X67925000Y-121325000I-125000J0D01*
G01*
X67675000Y-121325000D01*
G75*
G02*
X67550000Y-121200000I0J125000D01*
G01*
G37*
G36*
G01*
X65675000Y-119325000D02*
X65675000Y-119075000D01*
G75*
G02*
X65800000Y-118950000I125000J0D01*
G01*
X67050000Y-118950000D01*
G75*
G02*
X67175000Y-119075000I0J-125000D01*
G01*
X67175000Y-119325000D01*
G75*
G02*
X67050000Y-119450000I-125000J0D01*
G01*
X65800000Y-119450000D01*
G75*
G02*
X65675000Y-119325000I0J125000D01*
G01*
G37*
G36*
G01*
X65675000Y-118525000D02*
X65675000Y-118275000D01*
G75*
G02*
X65800000Y-118150000I125000J0D01*
G01*
X67050000Y-118150000D01*
G75*
G02*
X67175000Y-118275000I0J-125000D01*
G01*
X67175000Y-118525000D01*
G75*
G02*
X67050000Y-118650000I-125000J0D01*
G01*
X65800000Y-118650000D01*
G75*
G02*
X65675000Y-118525000I0J125000D01*
G01*
G37*
G36*
G01*
X65675000Y-117725000D02*
X65675000Y-117475000D01*
G75*
G02*
X65800000Y-117350000I125000J0D01*
G01*
X67050000Y-117350000D01*
G75*
G02*
X67175000Y-117475000I0J-125000D01*
G01*
X67175000Y-117725000D01*
G75*
G02*
X67050000Y-117850000I-125000J0D01*
G01*
X65800000Y-117850000D01*
G75*
G02*
X65675000Y-117725000I0J125000D01*
G01*
G37*
G36*
G01*
X65675000Y-116925000D02*
X65675000Y-116675000D01*
G75*
G02*
X65800000Y-116550000I125000J0D01*
G01*
X67050000Y-116550000D01*
G75*
G02*
X67175000Y-116675000I0J-125000D01*
G01*
X67175000Y-116925000D01*
G75*
G02*
X67050000Y-117050000I-125000J0D01*
G01*
X65800000Y-117050000D01*
G75*
G02*
X65675000Y-116925000I0J125000D01*
G01*
G37*
G36*
G01*
X65675000Y-116125000D02*
X65675000Y-115875000D01*
G75*
G02*
X65800000Y-115750000I125000J0D01*
G01*
X67050000Y-115750000D01*
G75*
G02*
X67175000Y-115875000I0J-125000D01*
G01*
X67175000Y-116125000D01*
G75*
G02*
X67050000Y-116250000I-125000J0D01*
G01*
X65800000Y-116250000D01*
G75*
G02*
X65675000Y-116125000I0J125000D01*
G01*
G37*
G36*
G01*
X65675000Y-115325000D02*
X65675000Y-115075000D01*
G75*
G02*
X65800000Y-114950000I125000J0D01*
G01*
X67050000Y-114950000D01*
G75*
G02*
X67175000Y-115075000I0J-125000D01*
G01*
X67175000Y-115325000D01*
G75*
G02*
X67050000Y-115450000I-125000J0D01*
G01*
X65800000Y-115450000D01*
G75*
G02*
X65675000Y-115325000I0J125000D01*
G01*
G37*
G36*
G01*
X65675000Y-114525000D02*
X65675000Y-114275000D01*
G75*
G02*
X65800000Y-114150000I125000J0D01*
G01*
X67050000Y-114150000D01*
G75*
G02*
X67175000Y-114275000I0J-125000D01*
G01*
X67175000Y-114525000D01*
G75*
G02*
X67050000Y-114650000I-125000J0D01*
G01*
X65800000Y-114650000D01*
G75*
G02*
X65675000Y-114525000I0J125000D01*
G01*
G37*
G36*
G01*
X65675000Y-113725000D02*
X65675000Y-113475000D01*
G75*
G02*
X65800000Y-113350000I125000J0D01*
G01*
X67050000Y-113350000D01*
G75*
G02*
X67175000Y-113475000I0J-125000D01*
G01*
X67175000Y-113725000D01*
G75*
G02*
X67050000Y-113850000I-125000J0D01*
G01*
X65800000Y-113850000D01*
G75*
G02*
X65675000Y-113725000I0J125000D01*
G01*
G37*
D27*
X40000000Y-134700000D03*
X40000000Y-132150000D03*
D28*
X40000000Y-129600000D03*
D29*
X73210000Y-136370000D03*
X70670000Y-136370000D03*
X68130000Y-136370000D03*
X65590000Y-136370000D03*
X65590000Y-128430000D03*
X68130000Y-128430000D03*
X70670000Y-128430000D03*
D30*
X73210000Y-128430000D03*
G36*
G01*
X45149998Y-102862500D02*
X46450002Y-102862500D01*
G75*
G02*
X46700000Y-103112498I0J-249998D01*
G01*
X46700000Y-103937502D01*
G75*
G02*
X46450002Y-104187500I-249998J0D01*
G01*
X45149998Y-104187500D01*
G75*
G02*
X44900000Y-103937502I0J249998D01*
G01*
X44900000Y-103112498D01*
G75*
G02*
X45149998Y-102862500I249998J0D01*
G01*
G37*
G36*
G01*
X45149998Y-99737500D02*
X46450002Y-99737500D01*
G75*
G02*
X46700000Y-99987498I0J-249998D01*
G01*
X46700000Y-100812502D01*
G75*
G02*
X46450002Y-101062500I-249998J0D01*
G01*
X45149998Y-101062500D01*
G75*
G02*
X44900000Y-100812502I0J249998D01*
G01*
X44900000Y-99987498D01*
G75*
G02*
X45149998Y-99737500I249998J0D01*
G01*
G37*
G36*
G01*
X46450002Y-128700000D02*
X45149998Y-128700000D01*
G75*
G02*
X44900000Y-128450002I0J249998D01*
G01*
X44900000Y-127624998D01*
G75*
G02*
X45149998Y-127375000I249998J0D01*
G01*
X46450002Y-127375000D01*
G75*
G02*
X46700000Y-127624998I0J-249998D01*
G01*
X46700000Y-128450002D01*
G75*
G02*
X46450002Y-128700000I-249998J0D01*
G01*
G37*
G36*
G01*
X46450002Y-131825000D02*
X45149998Y-131825000D01*
G75*
G02*
X44900000Y-131575002I0J249998D01*
G01*
X44900000Y-130749998D01*
G75*
G02*
X45149998Y-130500000I249998J0D01*
G01*
X46450002Y-130500000D01*
G75*
G02*
X46700000Y-130749998I0J-249998D01*
G01*
X46700000Y-131575002D01*
G75*
G02*
X46450002Y-131825000I-249998J0D01*
G01*
G37*
G36*
G01*
X46450002Y-133900000D02*
X45149998Y-133900000D01*
G75*
G02*
X44900000Y-133650002I0J249998D01*
G01*
X44900000Y-132824998D01*
G75*
G02*
X45149998Y-132575000I249998J0D01*
G01*
X46450002Y-132575000D01*
G75*
G02*
X46700000Y-132824998I0J-249998D01*
G01*
X46700000Y-133650002D01*
G75*
G02*
X46450002Y-133900000I-249998J0D01*
G01*
G37*
G36*
G01*
X46450002Y-137025000D02*
X45149998Y-137025000D01*
G75*
G02*
X44900000Y-136775002I0J249998D01*
G01*
X44900000Y-135949998D01*
G75*
G02*
X45149998Y-135700000I249998J0D01*
G01*
X46450002Y-135700000D01*
G75*
G02*
X46700000Y-135949998I0J-249998D01*
G01*
X46700000Y-136775002D01*
G75*
G02*
X46450002Y-137025000I-249998J0D01*
G01*
G37*
G36*
G01*
X79550000Y-122700000D02*
X78450000Y-122700000D01*
G75*
G02*
X78200000Y-122450000I0J250000D01*
G01*
X78200000Y-120350000D01*
G75*
G02*
X78450000Y-120100000I250000J0D01*
G01*
X79550000Y-120100000D01*
G75*
G02*
X79800000Y-120350000I0J-250000D01*
G01*
X79800000Y-122450000D01*
G75*
G02*
X79550000Y-122700000I-250000J0D01*
G01*
G37*
G36*
G01*
X79550000Y-126300000D02*
X78450000Y-126300000D01*
G75*
G02*
X78200000Y-126050000I0J250000D01*
G01*
X78200000Y-123950000D01*
G75*
G02*
X78450000Y-123700000I250000J0D01*
G01*
X79550000Y-123700000D01*
G75*
G02*
X79800000Y-123950000I0J-250000D01*
G01*
X79800000Y-126050000D01*
G75*
G02*
X79550000Y-126300000I-250000J0D01*
G01*
G37*
G36*
G01*
X54550000Y-93100000D02*
X53450000Y-93100000D01*
G75*
G02*
X53200000Y-92850000I0J250000D01*
G01*
X53200000Y-90350000D01*
G75*
G02*
X53450000Y-90100000I250000J0D01*
G01*
X54550000Y-90100000D01*
G75*
G02*
X54800000Y-90350000I0J-250000D01*
G01*
X54800000Y-92850000D01*
G75*
G02*
X54550000Y-93100000I-250000J0D01*
G01*
G37*
G36*
G01*
X54550000Y-97500000D02*
X53450000Y-97500000D01*
G75*
G02*
X53200000Y-97250000I0J250000D01*
G01*
X53200000Y-94750000D01*
G75*
G02*
X53450000Y-94500000I250000J0D01*
G01*
X54550000Y-94500000D01*
G75*
G02*
X54800000Y-94750000I0J-250000D01*
G01*
X54800000Y-97250000D01*
G75*
G02*
X54550000Y-97500000I-250000J0D01*
G01*
G37*
G36*
G01*
X64300000Y-94050002D02*
X64300000Y-92749998D01*
G75*
G02*
X64549998Y-92500000I249998J0D01*
G01*
X65375002Y-92500000D01*
G75*
G02*
X65625000Y-92749998I0J-249998D01*
G01*
X65625000Y-94050002D01*
G75*
G02*
X65375002Y-94300000I-249998J0D01*
G01*
X64549998Y-94300000D01*
G75*
G02*
X64300000Y-94050002I0J249998D01*
G01*
G37*
G36*
G01*
X61175000Y-94050002D02*
X61175000Y-92749998D01*
G75*
G02*
X61424998Y-92500000I249998J0D01*
G01*
X62250002Y-92500000D01*
G75*
G02*
X62500000Y-92749998I0J-249998D01*
G01*
X62500000Y-94050002D01*
G75*
G02*
X62250002Y-94300000I-249998J0D01*
G01*
X61424998Y-94300000D01*
G75*
G02*
X61175000Y-94050002I0J249998D01*
G01*
G37*
G36*
G01*
X92450002Y-122300000D02*
X91149998Y-122300000D01*
G75*
G02*
X90900000Y-122050002I0J249998D01*
G01*
X90900000Y-121224998D01*
G75*
G02*
X91149998Y-120975000I249998J0D01*
G01*
X92450002Y-120975000D01*
G75*
G02*
X92700000Y-121224998I0J-249998D01*
G01*
X92700000Y-122050002D01*
G75*
G02*
X92450002Y-122300000I-249998J0D01*
G01*
G37*
G36*
G01*
X92450002Y-125425000D02*
X91149998Y-125425000D01*
G75*
G02*
X90900000Y-125175002I0J249998D01*
G01*
X90900000Y-124349998D01*
G75*
G02*
X91149998Y-124100000I249998J0D01*
G01*
X92450002Y-124100000D01*
G75*
G02*
X92700000Y-124349998I0J-249998D01*
G01*
X92700000Y-125175002D01*
G75*
G02*
X92450002Y-125425000I-249998J0D01*
G01*
G37*
G36*
G01*
X58349998Y-139500000D02*
X59650002Y-139500000D01*
G75*
G02*
X59900000Y-139749998I0J-249998D01*
G01*
X59900000Y-140575002D01*
G75*
G02*
X59650002Y-140825000I-249998J0D01*
G01*
X58349998Y-140825000D01*
G75*
G02*
X58100000Y-140575002I0J249998D01*
G01*
X58100000Y-139749998D01*
G75*
G02*
X58349998Y-139500000I249998J0D01*
G01*
G37*
G36*
G01*
X58349998Y-136375000D02*
X59650002Y-136375000D01*
G75*
G02*
X59900000Y-136624998I0J-249998D01*
G01*
X59900000Y-137450002D01*
G75*
G02*
X59650002Y-137700000I-249998J0D01*
G01*
X58349998Y-137700000D01*
G75*
G02*
X58100000Y-137450002I0J249998D01*
G01*
X58100000Y-136624998D01*
G75*
G02*
X58349998Y-136375000I249998J0D01*
G01*
G37*
G36*
G01*
X51900000Y-125750000D02*
X51900000Y-124650000D01*
G75*
G02*
X52150000Y-124400000I250000J0D01*
G01*
X54250000Y-124400000D01*
G75*
G02*
X54500000Y-124650000I0J-250000D01*
G01*
X54500000Y-125750000D01*
G75*
G02*
X54250000Y-126000000I-250000J0D01*
G01*
X52150000Y-126000000D01*
G75*
G02*
X51900000Y-125750000I0J250000D01*
G01*
G37*
G36*
G01*
X48300000Y-125750000D02*
X48300000Y-124650000D01*
G75*
G02*
X48550000Y-124400000I250000J0D01*
G01*
X50650000Y-124400000D01*
G75*
G02*
X50900000Y-124650000I0J-250000D01*
G01*
X50900000Y-125750000D01*
G75*
G02*
X50650000Y-126000000I-250000J0D01*
G01*
X48550000Y-126000000D01*
G75*
G02*
X48300000Y-125750000I0J250000D01*
G01*
G37*
G36*
G01*
X47300000Y-94350000D02*
X47300000Y-93250000D01*
G75*
G02*
X47550000Y-93000000I250000J0D01*
G01*
X50050000Y-93000000D01*
G75*
G02*
X50300000Y-93250000I0J-250000D01*
G01*
X50300000Y-94350000D01*
G75*
G02*
X50050000Y-94600000I-250000J0D01*
G01*
X47550000Y-94600000D01*
G75*
G02*
X47300000Y-94350000I0J250000D01*
G01*
G37*
G36*
G01*
X42900000Y-94350000D02*
X42900000Y-93250000D01*
G75*
G02*
X43150000Y-93000000I250000J0D01*
G01*
X45650000Y-93000000D01*
G75*
G02*
X45900000Y-93250000I0J-250000D01*
G01*
X45900000Y-94350000D01*
G75*
G02*
X45650000Y-94600000I-250000J0D01*
G01*
X43150000Y-94600000D01*
G75*
G02*
X42900000Y-94350000I0J250000D01*
G01*
G37*
G36*
G01*
X85349998Y-108662500D02*
X86650002Y-108662500D01*
G75*
G02*
X86900000Y-108912498I0J-249998D01*
G01*
X86900000Y-109737502D01*
G75*
G02*
X86650002Y-109987500I-249998J0D01*
G01*
X85349998Y-109987500D01*
G75*
G02*
X85100000Y-109737502I0J249998D01*
G01*
X85100000Y-108912498D01*
G75*
G02*
X85349998Y-108662500I249998J0D01*
G01*
G37*
G36*
G01*
X85349998Y-105537500D02*
X86650002Y-105537500D01*
G75*
G02*
X86900000Y-105787498I0J-249998D01*
G01*
X86900000Y-106612502D01*
G75*
G02*
X86650002Y-106862500I-249998J0D01*
G01*
X85349998Y-106862500D01*
G75*
G02*
X85100000Y-106612502I0J249998D01*
G01*
X85100000Y-105787498D01*
G75*
G02*
X85349998Y-105537500I249998J0D01*
G01*
G37*
G36*
G01*
X61149998Y-118300000D02*
X62450002Y-118300000D01*
G75*
G02*
X62700000Y-118549998I0J-249998D01*
G01*
X62700000Y-119375002D01*
G75*
G02*
X62450002Y-119625000I-249998J0D01*
G01*
X61149998Y-119625000D01*
G75*
G02*
X60900000Y-119375002I0J249998D01*
G01*
X60900000Y-118549998D01*
G75*
G02*
X61149998Y-118300000I249998J0D01*
G01*
G37*
G36*
G01*
X61149998Y-115175000D02*
X62450002Y-115175000D01*
G75*
G02*
X62700000Y-115424998I0J-249998D01*
G01*
X62700000Y-116250002D01*
G75*
G02*
X62450002Y-116500000I-249998J0D01*
G01*
X61149998Y-116500000D01*
G75*
G02*
X60900000Y-116250002I0J249998D01*
G01*
X60900000Y-115424998D01*
G75*
G02*
X61149998Y-115175000I249998J0D01*
G01*
G37*
G36*
G01*
X54900000Y-101050002D02*
X54900000Y-99749998D01*
G75*
G02*
X55149998Y-99500000I249998J0D01*
G01*
X55975002Y-99500000D01*
G75*
G02*
X56225000Y-99749998I0J-249998D01*
G01*
X56225000Y-101050002D01*
G75*
G02*
X55975002Y-101300000I-249998J0D01*
G01*
X55149998Y-101300000D01*
G75*
G02*
X54900000Y-101050002I0J249998D01*
G01*
G37*
G36*
G01*
X51775000Y-101050002D02*
X51775000Y-99749998D01*
G75*
G02*
X52024998Y-99500000I249998J0D01*
G01*
X52850002Y-99500000D01*
G75*
G02*
X53100000Y-99749998I0J-249998D01*
G01*
X53100000Y-101050002D01*
G75*
G02*
X52850002Y-101300000I-249998J0D01*
G01*
X52024998Y-101300000D01*
G75*
G02*
X51775000Y-101050002I0J249998D01*
G01*
G37*
G36*
G01*
X68349998Y-91862500D02*
X69650002Y-91862500D01*
G75*
G02*
X69900000Y-92112498I0J-249998D01*
G01*
X69900000Y-92937502D01*
G75*
G02*
X69650002Y-93187500I-249998J0D01*
G01*
X68349998Y-93187500D01*
G75*
G02*
X68100000Y-92937502I0J249998D01*
G01*
X68100000Y-92112498D01*
G75*
G02*
X68349998Y-91862500I249998J0D01*
G01*
G37*
G36*
G01*
X68349998Y-88737500D02*
X69650002Y-88737500D01*
G75*
G02*
X69900000Y-88987498I0J-249998D01*
G01*
X69900000Y-89812502D01*
G75*
G02*
X69650002Y-90062500I-249998J0D01*
G01*
X68349998Y-90062500D01*
G75*
G02*
X68100000Y-89812502I0J249998D01*
G01*
X68100000Y-88987498D01*
G75*
G02*
X68349998Y-88737500I249998J0D01*
G01*
G37*
G36*
G01*
X26200000Y-101500000D02*
X24200000Y-101500000D01*
G75*
G02*
X23950000Y-101250000I0J250000D01*
G01*
X23950000Y-97350000D01*
G75*
G02*
X24200000Y-97100000I250000J0D01*
G01*
X26200000Y-97100000D01*
G75*
G02*
X26450000Y-97350000I0J-250000D01*
G01*
X26450000Y-101250000D01*
G75*
G02*
X26200000Y-101500000I-250000J0D01*
G01*
G37*
G36*
G01*
X26200000Y-108900000D02*
X24200000Y-108900000D01*
G75*
G02*
X23950000Y-108650000I0J250000D01*
G01*
X23950000Y-104750000D01*
G75*
G02*
X24200000Y-104500000I250000J0D01*
G01*
X26200000Y-104500000D01*
G75*
G02*
X26450000Y-104750000I0J-250000D01*
G01*
X26450000Y-108650000D01*
G75*
G02*
X26200000Y-108900000I-250000J0D01*
G01*
G37*
G36*
G01*
X54937500Y-103650002D02*
X54937500Y-102349998D01*
G75*
G02*
X55187498Y-102100000I249998J0D01*
G01*
X56012502Y-102100000D01*
G75*
G02*
X56262500Y-102349998I0J-249998D01*
G01*
X56262500Y-103650002D01*
G75*
G02*
X56012502Y-103900000I-249998J0D01*
G01*
X55187498Y-103900000D01*
G75*
G02*
X54937500Y-103650002I0J249998D01*
G01*
G37*
G36*
G01*
X51812500Y-103650002D02*
X51812500Y-102349998D01*
G75*
G02*
X52062498Y-102100000I249998J0D01*
G01*
X52887502Y-102100000D01*
G75*
G02*
X53137500Y-102349998I0J-249998D01*
G01*
X53137500Y-103650002D01*
G75*
G02*
X52887502Y-103900000I-249998J0D01*
G01*
X52062498Y-103900000D01*
G75*
G02*
X51812500Y-103650002I0J249998D01*
G01*
G37*
M02*
