%TF.GenerationSoftware,KiCad,Pcbnew,(5.1.12)-1*%
%TF.CreationDate,2022-08-06T16:21:54+02:00*%
%TF.ProjectId,PrototypV1_rx,50726f74-6f74-4797-9056-315f72782e6b,rev?*%
%TF.SameCoordinates,Original*%
%TF.FileFunction,Copper,L2,Bot*%
%TF.FilePolarity,Positive*%
%FSLAX46Y46*%
G04 Gerber Fmt 4.6, Leading zero omitted, Abs format (unit mm)*
G04 Created by KiCad (PCBNEW (5.1.12)-1) date 2022-08-06 16:21:54*
%MOMM*%
%LPD*%
G01*
G04 APERTURE LIST*
%TA.AperFunction,ComponentPad*%
%ADD10C,4.000000*%
%TD*%
%TA.AperFunction,ComponentPad*%
%ADD11O,4.000000X4.000000*%
%TD*%
%TA.AperFunction,ComponentPad*%
%ADD12R,1.700000X1.700000*%
%TD*%
%TA.AperFunction,ComponentPad*%
%ADD13O,1.700000X1.700000*%
%TD*%
%TA.AperFunction,ComponentPad*%
%ADD14R,1.500000X1.050000*%
%TD*%
%TA.AperFunction,ComponentPad*%
%ADD15O,1.500000X1.050000*%
%TD*%
%TA.AperFunction,ComponentPad*%
%ADD16O,1.600000X1.600000*%
%TD*%
%TA.AperFunction,ComponentPad*%
%ADD17C,1.600000*%
%TD*%
%TA.AperFunction,ComponentPad*%
%ADD18C,3.000000*%
%TD*%
%TA.AperFunction,ComponentPad*%
%ADD19R,3.000000X3.000000*%
%TD*%
%TA.AperFunction,ComponentPad*%
%ADD20O,1.000000X1.000000*%
%TD*%
%TA.AperFunction,ComponentPad*%
%ADD21R,1.000000X1.000000*%
%TD*%
%TA.AperFunction,ComponentPad*%
%ADD22C,1.980000*%
%TD*%
%TA.AperFunction,ComponentPad*%
%ADD23R,1.980000X1.980000*%
%TD*%
%TA.AperFunction,ComponentPad*%
%ADD24C,1.160000*%
%TD*%
%TA.AperFunction,ComponentPad*%
%ADD25R,1.160000X1.160000*%
%TD*%
%TA.AperFunction,ViaPad*%
%ADD26C,0.800000*%
%TD*%
%TA.AperFunction,Conductor*%
%ADD27C,1.000000*%
%TD*%
%TA.AperFunction,Conductor*%
%ADD28C,0.250000*%
%TD*%
%TA.AperFunction,Conductor*%
%ADD29C,0.200000*%
%TD*%
G04 APERTURE END LIST*
D10*
X17600000Y-89000000D03*
D11*
X106400000Y-152000000D03*
D12*
X32400000Y-93000000D03*
X85400000Y-89000000D03*
X57200000Y-132800000D03*
D13*
X60800000Y-126940000D03*
D12*
X60800000Y-124400000D03*
D13*
X89400000Y-103260000D03*
D12*
X89400000Y-105800000D03*
D13*
X81540000Y-89000000D03*
D12*
X79000000Y-89000000D03*
D13*
X40000000Y-95540000D03*
D12*
X40000000Y-93000000D03*
X23200000Y-93200000D03*
X26400000Y-114800000D03*
X22000000Y-114800000D03*
X84800000Y-101400000D03*
X19400000Y-135400000D03*
D13*
X74200000Y-106000000D03*
D12*
X74200000Y-108540000D03*
D13*
X17800000Y-114340000D03*
D12*
X17800000Y-111800000D03*
D14*
X81400000Y-108800000D03*
D15*
X81400000Y-106260000D03*
X81400000Y-107530000D03*
D16*
X31800000Y-101760000D03*
D17*
X31800000Y-117000000D03*
D13*
X17800000Y-103400000D03*
D12*
X17800000Y-100860000D03*
D13*
X85600000Y-124160000D03*
X85600000Y-121620000D03*
X85600000Y-119080000D03*
X85600000Y-116540000D03*
D12*
X85600000Y-114000000D03*
D13*
X28600000Y-132160000D03*
X28600000Y-129620000D03*
X28600000Y-127080000D03*
X28600000Y-124540000D03*
D12*
X28600000Y-122000000D03*
D18*
X77080000Y-147400000D03*
D19*
X61840000Y-147400000D03*
D18*
X72000000Y-147400000D03*
X66920000Y-147400000D03*
D13*
X93200000Y-110760000D03*
X93200000Y-108220000D03*
X93200000Y-105680000D03*
X93200000Y-103140000D03*
D12*
X93200000Y-100600000D03*
D20*
X62410000Y-109000000D03*
X61140000Y-109000000D03*
X59870000Y-109000000D03*
D21*
X58600000Y-109000000D03*
D13*
X80180000Y-97600000D03*
X77640000Y-97600000D03*
X75100000Y-97600000D03*
X72560000Y-97600000D03*
X70020000Y-97600000D03*
X67480000Y-97600000D03*
X64940000Y-97600000D03*
D12*
X62400000Y-97600000D03*
D22*
X40000000Y-134700000D03*
X40000000Y-132150000D03*
D23*
X40000000Y-129600000D03*
D24*
X73210000Y-136370000D03*
X70670000Y-136370000D03*
X68130000Y-136370000D03*
X65590000Y-136370000D03*
X65590000Y-128430000D03*
X68130000Y-128430000D03*
X70670000Y-128430000D03*
D25*
X73210000Y-128430000D03*
D26*
X39200000Y-103000000D03*
X39200000Y-101800000D03*
X43800000Y-103600000D03*
X37700000Y-101700000D03*
X37765000Y-103035000D03*
X48600000Y-107600000D03*
X48600000Y-108600000D03*
X48600000Y-109600000D03*
X48600000Y-110600000D03*
X48600000Y-106600000D03*
X48600000Y-105600000D03*
X47762500Y-133237500D03*
X55400000Y-125200000D03*
X61800000Y-117600000D03*
X87825000Y-89625000D03*
X96000000Y-142000000D03*
X96000000Y-139000000D03*
X96000000Y-136000000D03*
X96000000Y-133000000D03*
X49600000Y-104400000D03*
X49800000Y-109600000D03*
X49800000Y-108200000D03*
X49800000Y-106600000D03*
X48600000Y-115200000D03*
X75800000Y-130400000D03*
X48600000Y-117200000D03*
X44800000Y-113200000D03*
X42000000Y-113400000D03*
X38600000Y-117200000D03*
X68200000Y-126200000D03*
X69400000Y-123000000D03*
X53600000Y-119200000D03*
X51200000Y-114400000D03*
X52200000Y-121000000D03*
X50000000Y-114400000D03*
X81000000Y-114000000D03*
X64400000Y-113600000D03*
X67800000Y-117600000D03*
X93144999Y-120255001D03*
X96344999Y-120255001D03*
X70000000Y-123800000D03*
X83600000Y-141400000D03*
X70800000Y-124800000D03*
X83600000Y-138600000D03*
X71000000Y-123200000D03*
X83600000Y-135800000D03*
X74000000Y-125200000D03*
X83600000Y-133000000D03*
D27*
X40720002Y-127080000D02*
X28600000Y-127080000D01*
X44040002Y-130400000D02*
X40720002Y-127080000D01*
X75800000Y-130400000D02*
X44040002Y-130400000D01*
X62400000Y-100960000D02*
X62400000Y-97600000D01*
X85600000Y-124160000D02*
X62400000Y-100960000D01*
D28*
X48600000Y-117000000D02*
X48600000Y-117200000D01*
X44800000Y-113200000D02*
X48600000Y-117000000D01*
X38600000Y-116800000D02*
X38600000Y-117200000D01*
X42000000Y-113400000D02*
X38600000Y-116800000D01*
X62290000Y-128430000D02*
X65590000Y-128430000D01*
X60800000Y-126940000D02*
X62290000Y-128430000D01*
X68200000Y-124200000D02*
X69400000Y-123000000D01*
X68200000Y-126200000D02*
X68200000Y-124200000D01*
X72241434Y-127461434D02*
X73210000Y-128430000D01*
X63861434Y-127461434D02*
X72241434Y-127461434D01*
X60800000Y-124400000D02*
X63861434Y-127461434D01*
X79000000Y-93700000D02*
X75100000Y-97600000D01*
X79000000Y-89000000D02*
X79000000Y-93700000D01*
X51200000Y-116800000D02*
X53600000Y-119200000D01*
X51200000Y-114400000D02*
X51200000Y-116800000D01*
X50000000Y-118800000D02*
X52200000Y-121000000D01*
X50000000Y-114400000D02*
X50000000Y-118800000D01*
X40000000Y-95540000D02*
X48313590Y-95540000D01*
X59870000Y-107096410D02*
X59870000Y-109000000D01*
X48313590Y-95540000D02*
X59870000Y-107096410D01*
X46410000Y-93000000D02*
X62410000Y-109000000D01*
X40000000Y-93000000D02*
X46410000Y-93000000D01*
X82400000Y-107530000D02*
X83000000Y-108130000D01*
X83000000Y-112000000D02*
X81000000Y-114000000D01*
X83000000Y-108130000D02*
X83000000Y-112000000D01*
X84800000Y-105130000D02*
X84800000Y-101400000D01*
X82400000Y-107530000D02*
X84800000Y-105130000D01*
X81400000Y-107530000D02*
X82400000Y-107530000D01*
X88224999Y-104435001D02*
X89400000Y-103260000D01*
X88224999Y-113915001D02*
X88224999Y-104435001D01*
X85600000Y-116540000D02*
X88224999Y-113915001D01*
X89400000Y-114479002D02*
X89400000Y-105800000D01*
X85600000Y-118279002D02*
X89400000Y-114479002D01*
X85600000Y-119080000D02*
X85600000Y-118279002D01*
X64400000Y-113600000D02*
X56000000Y-122000000D01*
X56000000Y-122000000D02*
X44400000Y-122000000D01*
X44400000Y-122000000D02*
X28600000Y-122000000D01*
X44600000Y-122000000D02*
X44400000Y-122000000D01*
X93200000Y-118299002D02*
X93200000Y-110760000D01*
X86164001Y-125335001D02*
X93200000Y-118299002D01*
X75535001Y-125335001D02*
X86164001Y-125335001D01*
X67800000Y-117600000D02*
X75535001Y-125335001D01*
X93144999Y-120255001D02*
X96344999Y-120255001D01*
X96344999Y-120255001D02*
X96344999Y-120255001D01*
X82149990Y-139949990D02*
X83600000Y-141400000D01*
X82149990Y-135259220D02*
X82149990Y-139949990D01*
X73902195Y-127011425D02*
X82149990Y-135259220D01*
X71938423Y-127011425D02*
X73902195Y-127011425D01*
X70000000Y-125073002D02*
X71938423Y-127011425D01*
X70000000Y-123800000D02*
X70000000Y-125073002D01*
X82600000Y-137600000D02*
X83600000Y-138600000D01*
X82600000Y-135072820D02*
X82600000Y-137600000D01*
X74088595Y-126561415D02*
X82600000Y-135072820D01*
X72561415Y-126561415D02*
X74088595Y-126561415D01*
X70800000Y-124800000D02*
X72561415Y-126561415D01*
X73234315Y-126000000D02*
X74163590Y-126000000D01*
X71000000Y-123765685D02*
X73234315Y-126000000D01*
X71000000Y-123200000D02*
X71000000Y-123765685D01*
X83600000Y-135436410D02*
X83600000Y-135800000D01*
X74163590Y-126000000D02*
X83600000Y-135436410D01*
X81800000Y-133000000D02*
X83600000Y-133000000D01*
X74000000Y-125200000D02*
X81800000Y-133000000D01*
X81540000Y-96240000D02*
X80180000Y-97600000D01*
X81540000Y-89000000D02*
X81540000Y-96240000D01*
D29*
X110675001Y-155675000D02*
X13325000Y-155675000D01*
X13325000Y-147222716D01*
X65120000Y-147222716D01*
X65120000Y-147577284D01*
X65189173Y-147925041D01*
X65324861Y-148252620D01*
X65521849Y-148547433D01*
X65772567Y-148798151D01*
X66067380Y-148995139D01*
X66394959Y-149130827D01*
X66742716Y-149200000D01*
X67097284Y-149200000D01*
X67445041Y-149130827D01*
X67772620Y-148995139D01*
X68067433Y-148798151D01*
X68318151Y-148547433D01*
X68515139Y-148252620D01*
X68650827Y-147925041D01*
X68720000Y-147577284D01*
X68720000Y-147222716D01*
X70200000Y-147222716D01*
X70200000Y-147577284D01*
X70269173Y-147925041D01*
X70404861Y-148252620D01*
X70601849Y-148547433D01*
X70852567Y-148798151D01*
X71147380Y-148995139D01*
X71474959Y-149130827D01*
X71822716Y-149200000D01*
X72177284Y-149200000D01*
X72525041Y-149130827D01*
X72852620Y-148995139D01*
X73147433Y-148798151D01*
X73398151Y-148547433D01*
X73595139Y-148252620D01*
X73730827Y-147925041D01*
X73800000Y-147577284D01*
X73800000Y-147222716D01*
X75280000Y-147222716D01*
X75280000Y-147577284D01*
X75349173Y-147925041D01*
X75484861Y-148252620D01*
X75681849Y-148547433D01*
X75932567Y-148798151D01*
X76227380Y-148995139D01*
X76554959Y-149130827D01*
X76902716Y-149200000D01*
X77257284Y-149200000D01*
X77605041Y-149130827D01*
X77932620Y-148995139D01*
X78227433Y-148798151D01*
X78478151Y-148547433D01*
X78675139Y-148252620D01*
X78810827Y-147925041D01*
X78880000Y-147577284D01*
X78880000Y-147222716D01*
X78810827Y-146874959D01*
X78675139Y-146547380D01*
X78478151Y-146252567D01*
X78227433Y-146001849D01*
X77932620Y-145804861D01*
X77605041Y-145669173D01*
X77257284Y-145600000D01*
X76902716Y-145600000D01*
X76554959Y-145669173D01*
X76227380Y-145804861D01*
X75932567Y-146001849D01*
X75681849Y-146252567D01*
X75484861Y-146547380D01*
X75349173Y-146874959D01*
X75280000Y-147222716D01*
X73800000Y-147222716D01*
X73730827Y-146874959D01*
X73595139Y-146547380D01*
X73398151Y-146252567D01*
X73147433Y-146001849D01*
X72852620Y-145804861D01*
X72525041Y-145669173D01*
X72177284Y-145600000D01*
X71822716Y-145600000D01*
X71474959Y-145669173D01*
X71147380Y-145804861D01*
X70852567Y-146001849D01*
X70601849Y-146252567D01*
X70404861Y-146547380D01*
X70269173Y-146874959D01*
X70200000Y-147222716D01*
X68720000Y-147222716D01*
X68650827Y-146874959D01*
X68515139Y-146547380D01*
X68318151Y-146252567D01*
X68067433Y-146001849D01*
X67772620Y-145804861D01*
X67445041Y-145669173D01*
X67097284Y-145600000D01*
X66742716Y-145600000D01*
X66394959Y-145669173D01*
X66067380Y-145804861D01*
X65772567Y-146001849D01*
X65521849Y-146252567D01*
X65324861Y-146547380D01*
X65189173Y-146874959D01*
X65120000Y-147222716D01*
X13325000Y-147222716D01*
X13325000Y-136283328D01*
X67250000Y-136283328D01*
X67250000Y-136456672D01*
X67283818Y-136626687D01*
X67350154Y-136786836D01*
X67446459Y-136930967D01*
X67569033Y-137053541D01*
X67713164Y-137149846D01*
X67873313Y-137216182D01*
X68043328Y-137250000D01*
X68216672Y-137250000D01*
X68386687Y-137216182D01*
X68546836Y-137149846D01*
X68690967Y-137053541D01*
X68813541Y-136930967D01*
X68909846Y-136786836D01*
X68976182Y-136626687D01*
X69010000Y-136456672D01*
X69010000Y-136283328D01*
X69790000Y-136283328D01*
X69790000Y-136456672D01*
X69823818Y-136626687D01*
X69890154Y-136786836D01*
X69986459Y-136930967D01*
X70109033Y-137053541D01*
X70253164Y-137149846D01*
X70413313Y-137216182D01*
X70583328Y-137250000D01*
X70756672Y-137250000D01*
X70926687Y-137216182D01*
X71086836Y-137149846D01*
X71230967Y-137053541D01*
X71353541Y-136930967D01*
X71449846Y-136786836D01*
X71516182Y-136626687D01*
X71550000Y-136456672D01*
X71550000Y-136283328D01*
X72330000Y-136283328D01*
X72330000Y-136456672D01*
X72363818Y-136626687D01*
X72430154Y-136786836D01*
X72526459Y-136930967D01*
X72649033Y-137053541D01*
X72793164Y-137149846D01*
X72953313Y-137216182D01*
X73123328Y-137250000D01*
X73296672Y-137250000D01*
X73466687Y-137216182D01*
X73626836Y-137149846D01*
X73770967Y-137053541D01*
X73893541Y-136930967D01*
X73989846Y-136786836D01*
X74056182Y-136626687D01*
X74090000Y-136456672D01*
X74090000Y-136283328D01*
X74056182Y-136113313D01*
X73989846Y-135953164D01*
X73893541Y-135809033D01*
X73770967Y-135686459D01*
X73626836Y-135590154D01*
X73466687Y-135523818D01*
X73296672Y-135490000D01*
X73123328Y-135490000D01*
X72953313Y-135523818D01*
X72793164Y-135590154D01*
X72649033Y-135686459D01*
X72526459Y-135809033D01*
X72430154Y-135953164D01*
X72363818Y-136113313D01*
X72330000Y-136283328D01*
X71550000Y-136283328D01*
X71516182Y-136113313D01*
X71449846Y-135953164D01*
X71353541Y-135809033D01*
X71230967Y-135686459D01*
X71086836Y-135590154D01*
X70926687Y-135523818D01*
X70756672Y-135490000D01*
X70583328Y-135490000D01*
X70413313Y-135523818D01*
X70253164Y-135590154D01*
X70109033Y-135686459D01*
X69986459Y-135809033D01*
X69890154Y-135953164D01*
X69823818Y-136113313D01*
X69790000Y-136283328D01*
X69010000Y-136283328D01*
X68976182Y-136113313D01*
X68909846Y-135953164D01*
X68813541Y-135809033D01*
X68690967Y-135686459D01*
X68546836Y-135590154D01*
X68386687Y-135523818D01*
X68216672Y-135490000D01*
X68043328Y-135490000D01*
X67873313Y-135523818D01*
X67713164Y-135590154D01*
X67569033Y-135686459D01*
X67446459Y-135809033D01*
X67350154Y-135953164D01*
X67283818Y-136113313D01*
X67250000Y-136283328D01*
X13325000Y-136283328D01*
X13325000Y-132046735D01*
X27450000Y-132046735D01*
X27450000Y-132273265D01*
X27494194Y-132495443D01*
X27580884Y-132704729D01*
X27706737Y-132893082D01*
X27866918Y-133053263D01*
X28055271Y-133179116D01*
X28264557Y-133265806D01*
X28486735Y-133310000D01*
X28713265Y-133310000D01*
X28935443Y-133265806D01*
X29144729Y-133179116D01*
X29333082Y-133053263D01*
X29493263Y-132893082D01*
X29619116Y-132704729D01*
X29705806Y-132495443D01*
X29750000Y-132273265D01*
X29750000Y-132046735D01*
X29745269Y-132022946D01*
X38710000Y-132022946D01*
X38710000Y-132277054D01*
X38759574Y-132526279D01*
X38856817Y-132761044D01*
X38997991Y-132972327D01*
X39177673Y-133152009D01*
X39388956Y-133293183D01*
X39623721Y-133390426D01*
X39797536Y-133425000D01*
X39623721Y-133459574D01*
X39388956Y-133556817D01*
X39177673Y-133697991D01*
X38997991Y-133877673D01*
X38856817Y-134088956D01*
X38759574Y-134323721D01*
X38710000Y-134572946D01*
X38710000Y-134827054D01*
X38759574Y-135076279D01*
X38856817Y-135311044D01*
X38997991Y-135522327D01*
X39177673Y-135702009D01*
X39388956Y-135843183D01*
X39623721Y-135940426D01*
X39872946Y-135990000D01*
X40127054Y-135990000D01*
X40376279Y-135940426D01*
X40611044Y-135843183D01*
X40822327Y-135702009D01*
X41002009Y-135522327D01*
X41143183Y-135311044D01*
X41240426Y-135076279D01*
X41290000Y-134827054D01*
X41290000Y-134572946D01*
X41240426Y-134323721D01*
X41143183Y-134088956D01*
X41002009Y-133877673D01*
X40822327Y-133697991D01*
X40611044Y-133556817D01*
X40376279Y-133459574D01*
X40202464Y-133425000D01*
X40376279Y-133390426D01*
X40611044Y-133293183D01*
X40822327Y-133152009D01*
X41002009Y-132972327D01*
X41143183Y-132761044D01*
X41240426Y-132526279D01*
X41290000Y-132277054D01*
X41290000Y-132022946D01*
X41240426Y-131773721D01*
X41143183Y-131538956D01*
X41002009Y-131327673D01*
X40822327Y-131147991D01*
X40611044Y-131006817D01*
X40376279Y-130909574D01*
X40127054Y-130860000D01*
X39872946Y-130860000D01*
X39623721Y-130909574D01*
X39388956Y-131006817D01*
X39177673Y-131147991D01*
X38997991Y-131327673D01*
X38856817Y-131538956D01*
X38759574Y-131773721D01*
X38710000Y-132022946D01*
X29745269Y-132022946D01*
X29705806Y-131824557D01*
X29619116Y-131615271D01*
X29493263Y-131426918D01*
X29333082Y-131266737D01*
X29144729Y-131140884D01*
X28935443Y-131054194D01*
X28713265Y-131010000D01*
X28486735Y-131010000D01*
X28264557Y-131054194D01*
X28055271Y-131140884D01*
X27866918Y-131266737D01*
X27706737Y-131426918D01*
X27580884Y-131615271D01*
X27494194Y-131824557D01*
X27450000Y-132046735D01*
X13325000Y-132046735D01*
X13325000Y-126966735D01*
X27450000Y-126966735D01*
X27450000Y-127193265D01*
X27494194Y-127415443D01*
X27580884Y-127624729D01*
X27706737Y-127813082D01*
X27866918Y-127973263D01*
X28055271Y-128099116D01*
X28264557Y-128185806D01*
X28486735Y-128230000D01*
X28713265Y-128230000D01*
X28935443Y-128185806D01*
X29144729Y-128099116D01*
X29333082Y-127973263D01*
X29426345Y-127880000D01*
X40388632Y-127880000D01*
X43446533Y-130937902D01*
X43471580Y-130968422D01*
X43502100Y-130993469D01*
X43593395Y-131068393D01*
X43729016Y-131140884D01*
X43732374Y-131142679D01*
X43883175Y-131188424D01*
X44000709Y-131200000D01*
X44000710Y-131200000D01*
X44040001Y-131203870D01*
X44079292Y-131200000D01*
X75839293Y-131200000D01*
X75956827Y-131188424D01*
X76107628Y-131142679D01*
X76246606Y-131068393D01*
X76368422Y-130968422D01*
X76468393Y-130846606D01*
X76542679Y-130707628D01*
X76588424Y-130556827D01*
X76603870Y-130400000D01*
X76594490Y-130304760D01*
X81724990Y-135435260D01*
X81724991Y-139929113D01*
X81722935Y-139949990D01*
X81731140Y-140033304D01*
X81755443Y-140113417D01*
X81794907Y-140187250D01*
X81848017Y-140251964D01*
X81864229Y-140265269D01*
X82904980Y-141306021D01*
X82900000Y-141331056D01*
X82900000Y-141468944D01*
X82926901Y-141604182D01*
X82979668Y-141731574D01*
X83056274Y-141846224D01*
X83153776Y-141943726D01*
X83268426Y-142020332D01*
X83395818Y-142073099D01*
X83531056Y-142100000D01*
X83668944Y-142100000D01*
X83804182Y-142073099D01*
X83931574Y-142020332D01*
X84046224Y-141943726D01*
X84143726Y-141846224D01*
X84220332Y-141731574D01*
X84273099Y-141604182D01*
X84300000Y-141468944D01*
X84300000Y-141331056D01*
X84273099Y-141195818D01*
X84220332Y-141068426D01*
X84143726Y-140953776D01*
X84046224Y-140856274D01*
X83931574Y-140779668D01*
X83804182Y-140726901D01*
X83668944Y-140700000D01*
X83531056Y-140700000D01*
X83506021Y-140704980D01*
X82574990Y-139773950D01*
X82574990Y-138176030D01*
X82904980Y-138506020D01*
X82900000Y-138531056D01*
X82900000Y-138668944D01*
X82926901Y-138804182D01*
X82979668Y-138931574D01*
X83056274Y-139046224D01*
X83153776Y-139143726D01*
X83268426Y-139220332D01*
X83395818Y-139273099D01*
X83531056Y-139300000D01*
X83668944Y-139300000D01*
X83804182Y-139273099D01*
X83931574Y-139220332D01*
X84046224Y-139143726D01*
X84143726Y-139046224D01*
X84220332Y-138931574D01*
X84273099Y-138804182D01*
X84300000Y-138668944D01*
X84300000Y-138531056D01*
X84273099Y-138395818D01*
X84220332Y-138268426D01*
X84143726Y-138153776D01*
X84046224Y-138056274D01*
X83931574Y-137979668D01*
X83804182Y-137926901D01*
X83668944Y-137900000D01*
X83531056Y-137900000D01*
X83506020Y-137904980D01*
X83025000Y-137423960D01*
X83025000Y-136199419D01*
X83056274Y-136246224D01*
X83153776Y-136343726D01*
X83268426Y-136420332D01*
X83395818Y-136473099D01*
X83531056Y-136500000D01*
X83668944Y-136500000D01*
X83804182Y-136473099D01*
X83931574Y-136420332D01*
X84046224Y-136343726D01*
X84143726Y-136246224D01*
X84220332Y-136131574D01*
X84273099Y-136004182D01*
X84300000Y-135868944D01*
X84300000Y-135731056D01*
X84273099Y-135595818D01*
X84220332Y-135468426D01*
X84143726Y-135353776D01*
X84046224Y-135256274D01*
X83948227Y-135190795D01*
X83921530Y-135158265D01*
X83915280Y-135150649D01*
X83915279Y-135150648D01*
X83901974Y-135134436D01*
X83885763Y-135121132D01*
X82189631Y-133425000D01*
X83042093Y-133425000D01*
X83056274Y-133446224D01*
X83153776Y-133543726D01*
X83268426Y-133620332D01*
X83395818Y-133673099D01*
X83531056Y-133700000D01*
X83668944Y-133700000D01*
X83804182Y-133673099D01*
X83931574Y-133620332D01*
X84046224Y-133543726D01*
X84143726Y-133446224D01*
X84220332Y-133331574D01*
X84273099Y-133204182D01*
X84300000Y-133068944D01*
X84300000Y-132931056D01*
X84273099Y-132795818D01*
X84220332Y-132668426D01*
X84143726Y-132553776D01*
X84046224Y-132456274D01*
X83931574Y-132379668D01*
X83804182Y-132326901D01*
X83668944Y-132300000D01*
X83531056Y-132300000D01*
X83395818Y-132326901D01*
X83268426Y-132379668D01*
X83153776Y-132456274D01*
X83056274Y-132553776D01*
X83042093Y-132575000D01*
X81976041Y-132575000D01*
X74695020Y-125293980D01*
X74700000Y-125268944D01*
X74700000Y-125131056D01*
X74692547Y-125093588D01*
X75219722Y-125620763D01*
X75233027Y-125636975D01*
X75249239Y-125650280D01*
X75249240Y-125650281D01*
X75273951Y-125670561D01*
X75297741Y-125690085D01*
X75371574Y-125729549D01*
X75427384Y-125746479D01*
X75451686Y-125753851D01*
X75460099Y-125754680D01*
X75514127Y-125760001D01*
X75514133Y-125760001D01*
X75535000Y-125762056D01*
X75555867Y-125760001D01*
X86143134Y-125760001D01*
X86164001Y-125762056D01*
X86184868Y-125760001D01*
X86184875Y-125760001D01*
X86247315Y-125753851D01*
X86327428Y-125729549D01*
X86401261Y-125690085D01*
X86465975Y-125636975D01*
X86479285Y-125620757D01*
X91913985Y-120186057D01*
X92444999Y-120186057D01*
X92444999Y-120323945D01*
X92471900Y-120459183D01*
X92524667Y-120586575D01*
X92601273Y-120701225D01*
X92698775Y-120798727D01*
X92813425Y-120875333D01*
X92940817Y-120928100D01*
X93076055Y-120955001D01*
X93213943Y-120955001D01*
X93349181Y-120928100D01*
X93476573Y-120875333D01*
X93591223Y-120798727D01*
X93688725Y-120701225D01*
X93702906Y-120680001D01*
X95787092Y-120680001D01*
X95801273Y-120701225D01*
X95898775Y-120798727D01*
X96013425Y-120875333D01*
X96140817Y-120928100D01*
X96276055Y-120955001D01*
X96413943Y-120955001D01*
X96549181Y-120928100D01*
X96676573Y-120875333D01*
X96791223Y-120798727D01*
X96888725Y-120701225D01*
X96965331Y-120586575D01*
X97018098Y-120459183D01*
X97044999Y-120323945D01*
X97044999Y-120186057D01*
X97018098Y-120050819D01*
X96965331Y-119923427D01*
X96888725Y-119808777D01*
X96791223Y-119711275D01*
X96676573Y-119634669D01*
X96549181Y-119581902D01*
X96413943Y-119555001D01*
X96276055Y-119555001D01*
X96140817Y-119581902D01*
X96013425Y-119634669D01*
X95898775Y-119711275D01*
X95801273Y-119808777D01*
X95787092Y-119830001D01*
X93702906Y-119830001D01*
X93688725Y-119808777D01*
X93591223Y-119711275D01*
X93476573Y-119634669D01*
X93349181Y-119581902D01*
X93213943Y-119555001D01*
X93076055Y-119555001D01*
X92940817Y-119581902D01*
X92813425Y-119634669D01*
X92698775Y-119711275D01*
X92601273Y-119808777D01*
X92524667Y-119923427D01*
X92471900Y-120050819D01*
X92444999Y-120186057D01*
X91913985Y-120186057D01*
X93485763Y-118614280D01*
X93501974Y-118600976D01*
X93555084Y-118536262D01*
X93594548Y-118462429D01*
X93618850Y-118382316D01*
X93625000Y-118319876D01*
X93625000Y-118319870D01*
X93627055Y-118299003D01*
X93625000Y-118278136D01*
X93625000Y-111828710D01*
X93744729Y-111779116D01*
X93933082Y-111653263D01*
X94093263Y-111493082D01*
X94219116Y-111304729D01*
X94305806Y-111095443D01*
X94350000Y-110873265D01*
X94350000Y-110646735D01*
X94305806Y-110424557D01*
X94219116Y-110215271D01*
X94093263Y-110026918D01*
X93933082Y-109866737D01*
X93744729Y-109740884D01*
X93535443Y-109654194D01*
X93313265Y-109610000D01*
X93086735Y-109610000D01*
X92864557Y-109654194D01*
X92655271Y-109740884D01*
X92466918Y-109866737D01*
X92306737Y-110026918D01*
X92180884Y-110215271D01*
X92094194Y-110424557D01*
X92050000Y-110646735D01*
X92050000Y-110873265D01*
X92094194Y-111095443D01*
X92180884Y-111304729D01*
X92306737Y-111493082D01*
X92466918Y-111653263D01*
X92655271Y-111779116D01*
X92775001Y-111828710D01*
X92775000Y-118122961D01*
X86750000Y-124147962D01*
X86750000Y-124046735D01*
X86705806Y-123824557D01*
X86619116Y-123615271D01*
X86493263Y-123426918D01*
X86333082Y-123266737D01*
X86144729Y-123140884D01*
X85935443Y-123054194D01*
X85713265Y-123010000D01*
X85581371Y-123010000D01*
X76502427Y-113931056D01*
X80300000Y-113931056D01*
X80300000Y-114068944D01*
X80326901Y-114204182D01*
X80379668Y-114331574D01*
X80456274Y-114446224D01*
X80553776Y-114543726D01*
X80668426Y-114620332D01*
X80795818Y-114673099D01*
X80931056Y-114700000D01*
X81068944Y-114700000D01*
X81204182Y-114673099D01*
X81331574Y-114620332D01*
X81446224Y-114543726D01*
X81543726Y-114446224D01*
X81620332Y-114331574D01*
X81673099Y-114204182D01*
X81700000Y-114068944D01*
X81700000Y-113931056D01*
X81695020Y-113906020D01*
X82451040Y-113150000D01*
X84448549Y-113150000D01*
X84448549Y-114850000D01*
X84454341Y-114908810D01*
X84471496Y-114965360D01*
X84499353Y-115017477D01*
X84536842Y-115063158D01*
X84582523Y-115100647D01*
X84634640Y-115128504D01*
X84691190Y-115145659D01*
X84750000Y-115151451D01*
X86387509Y-115151451D01*
X86055172Y-115483788D01*
X85935443Y-115434194D01*
X85713265Y-115390000D01*
X85486735Y-115390000D01*
X85264557Y-115434194D01*
X85055271Y-115520884D01*
X84866918Y-115646737D01*
X84706737Y-115806918D01*
X84580884Y-115995271D01*
X84494194Y-116204557D01*
X84450000Y-116426735D01*
X84450000Y-116653265D01*
X84494194Y-116875443D01*
X84580884Y-117084729D01*
X84706737Y-117273082D01*
X84866918Y-117433263D01*
X85055271Y-117559116D01*
X85264557Y-117645806D01*
X85486735Y-117690000D01*
X85587962Y-117690000D01*
X85314239Y-117963723D01*
X85313292Y-117964500D01*
X85264557Y-117974194D01*
X85055271Y-118060884D01*
X84866918Y-118186737D01*
X84706737Y-118346918D01*
X84580884Y-118535271D01*
X84494194Y-118744557D01*
X84450000Y-118966735D01*
X84450000Y-119193265D01*
X84494194Y-119415443D01*
X84580884Y-119624729D01*
X84706737Y-119813082D01*
X84866918Y-119973263D01*
X85055271Y-120099116D01*
X85264557Y-120185806D01*
X85486735Y-120230000D01*
X85713265Y-120230000D01*
X85935443Y-120185806D01*
X86144729Y-120099116D01*
X86333082Y-119973263D01*
X86493263Y-119813082D01*
X86619116Y-119624729D01*
X86705806Y-119415443D01*
X86750000Y-119193265D01*
X86750000Y-118966735D01*
X86705806Y-118744557D01*
X86619116Y-118535271D01*
X86493263Y-118346918D01*
X86333082Y-118186737D01*
X86309237Y-118170805D01*
X89685758Y-114794284D01*
X89701974Y-114780976D01*
X89755084Y-114716262D01*
X89794548Y-114642429D01*
X89818850Y-114562316D01*
X89825000Y-114499876D01*
X89825000Y-114499875D01*
X89827056Y-114479002D01*
X89825000Y-114458128D01*
X89825000Y-108106735D01*
X92050000Y-108106735D01*
X92050000Y-108333265D01*
X92094194Y-108555443D01*
X92180884Y-108764729D01*
X92306737Y-108953082D01*
X92466918Y-109113263D01*
X92655271Y-109239116D01*
X92864557Y-109325806D01*
X93086735Y-109370000D01*
X93313265Y-109370000D01*
X93535443Y-109325806D01*
X93744729Y-109239116D01*
X93933082Y-109113263D01*
X94093263Y-108953082D01*
X94219116Y-108764729D01*
X94305806Y-108555443D01*
X94350000Y-108333265D01*
X94350000Y-108106735D01*
X94305806Y-107884557D01*
X94219116Y-107675271D01*
X94093263Y-107486918D01*
X93933082Y-107326737D01*
X93744729Y-107200884D01*
X93535443Y-107114194D01*
X93313265Y-107070000D01*
X93086735Y-107070000D01*
X92864557Y-107114194D01*
X92655271Y-107200884D01*
X92466918Y-107326737D01*
X92306737Y-107486918D01*
X92180884Y-107675271D01*
X92094194Y-107884557D01*
X92050000Y-108106735D01*
X89825000Y-108106735D01*
X89825000Y-106951451D01*
X90250000Y-106951451D01*
X90308810Y-106945659D01*
X90365360Y-106928504D01*
X90417477Y-106900647D01*
X90463158Y-106863158D01*
X90500647Y-106817477D01*
X90528504Y-106765360D01*
X90545659Y-106708810D01*
X90551451Y-106650000D01*
X90551451Y-105566735D01*
X92050000Y-105566735D01*
X92050000Y-105793265D01*
X92094194Y-106015443D01*
X92180884Y-106224729D01*
X92306737Y-106413082D01*
X92466918Y-106573263D01*
X92655271Y-106699116D01*
X92864557Y-106785806D01*
X93086735Y-106830000D01*
X93313265Y-106830000D01*
X93535443Y-106785806D01*
X93744729Y-106699116D01*
X93933082Y-106573263D01*
X94093263Y-106413082D01*
X94219116Y-106224729D01*
X94305806Y-106015443D01*
X94350000Y-105793265D01*
X94350000Y-105566735D01*
X94305806Y-105344557D01*
X94219116Y-105135271D01*
X94093263Y-104946918D01*
X93933082Y-104786737D01*
X93744729Y-104660884D01*
X93535443Y-104574194D01*
X93313265Y-104530000D01*
X93086735Y-104530000D01*
X92864557Y-104574194D01*
X92655271Y-104660884D01*
X92466918Y-104786737D01*
X92306737Y-104946918D01*
X92180884Y-105135271D01*
X92094194Y-105344557D01*
X92050000Y-105566735D01*
X90551451Y-105566735D01*
X90551451Y-104950000D01*
X90545659Y-104891190D01*
X90528504Y-104834640D01*
X90500647Y-104782523D01*
X90463158Y-104736842D01*
X90417477Y-104699353D01*
X90365360Y-104671496D01*
X90308810Y-104654341D01*
X90250000Y-104648549D01*
X88649999Y-104648549D01*
X88649999Y-104611041D01*
X88944828Y-104316212D01*
X89064557Y-104365806D01*
X89286735Y-104410000D01*
X89513265Y-104410000D01*
X89735443Y-104365806D01*
X89944729Y-104279116D01*
X90133082Y-104153263D01*
X90293263Y-103993082D01*
X90419116Y-103804729D01*
X90505806Y-103595443D01*
X90550000Y-103373265D01*
X90550000Y-103146735D01*
X90526131Y-103026735D01*
X92050000Y-103026735D01*
X92050000Y-103253265D01*
X92094194Y-103475443D01*
X92180884Y-103684729D01*
X92306737Y-103873082D01*
X92466918Y-104033263D01*
X92655271Y-104159116D01*
X92864557Y-104245806D01*
X93086735Y-104290000D01*
X93313265Y-104290000D01*
X93535443Y-104245806D01*
X93744729Y-104159116D01*
X93933082Y-104033263D01*
X94093263Y-103873082D01*
X94219116Y-103684729D01*
X94305806Y-103475443D01*
X94350000Y-103253265D01*
X94350000Y-103026735D01*
X94305806Y-102804557D01*
X94219116Y-102595271D01*
X94093263Y-102406918D01*
X93933082Y-102246737D01*
X93744729Y-102120884D01*
X93535443Y-102034194D01*
X93313265Y-101990000D01*
X93086735Y-101990000D01*
X92864557Y-102034194D01*
X92655271Y-102120884D01*
X92466918Y-102246737D01*
X92306737Y-102406918D01*
X92180884Y-102595271D01*
X92094194Y-102804557D01*
X92050000Y-103026735D01*
X90526131Y-103026735D01*
X90505806Y-102924557D01*
X90419116Y-102715271D01*
X90293263Y-102526918D01*
X90133082Y-102366737D01*
X89944729Y-102240884D01*
X89735443Y-102154194D01*
X89513265Y-102110000D01*
X89286735Y-102110000D01*
X89064557Y-102154194D01*
X88855271Y-102240884D01*
X88666918Y-102366737D01*
X88506737Y-102526918D01*
X88380884Y-102715271D01*
X88294194Y-102924557D01*
X88250000Y-103146735D01*
X88250000Y-103373265D01*
X88294194Y-103595443D01*
X88343788Y-103715172D01*
X87939238Y-104119722D01*
X87923026Y-104133027D01*
X87909721Y-104149239D01*
X87909719Y-104149241D01*
X87901615Y-104159116D01*
X87869916Y-104197741D01*
X87844225Y-104245806D01*
X87830452Y-104271574D01*
X87806149Y-104351687D01*
X87797944Y-104435001D01*
X87800000Y-104455878D01*
X87799999Y-113738960D01*
X86751451Y-114787508D01*
X86751451Y-113150000D01*
X86745659Y-113091190D01*
X86728504Y-113034640D01*
X86700647Y-112982523D01*
X86663158Y-112936842D01*
X86617477Y-112899353D01*
X86565360Y-112871496D01*
X86508810Y-112854341D01*
X86450000Y-112848549D01*
X84750000Y-112848549D01*
X84691190Y-112854341D01*
X84634640Y-112871496D01*
X84582523Y-112899353D01*
X84536842Y-112936842D01*
X84499353Y-112982523D01*
X84471496Y-113034640D01*
X84454341Y-113091190D01*
X84448549Y-113150000D01*
X82451040Y-113150000D01*
X83285762Y-112315279D01*
X83301974Y-112301974D01*
X83355084Y-112237260D01*
X83394548Y-112163427D01*
X83418850Y-112083314D01*
X83425000Y-112020874D01*
X83425000Y-112020868D01*
X83427055Y-112000001D01*
X83425000Y-111979134D01*
X83425000Y-108150866D01*
X83427055Y-108129999D01*
X83425000Y-108109132D01*
X83425000Y-108109126D01*
X83418850Y-108046686D01*
X83394548Y-107966573D01*
X83355084Y-107892740D01*
X83301974Y-107828026D01*
X83285763Y-107814722D01*
X83001040Y-107530000D01*
X85085758Y-105445282D01*
X85101974Y-105431974D01*
X85155084Y-105367260D01*
X85194548Y-105293427D01*
X85218850Y-105213314D01*
X85225000Y-105150874D01*
X85225000Y-105150873D01*
X85227056Y-105130000D01*
X85225000Y-105109126D01*
X85225000Y-102551451D01*
X85650000Y-102551451D01*
X85708810Y-102545659D01*
X85765360Y-102528504D01*
X85817477Y-102500647D01*
X85863158Y-102463158D01*
X85900647Y-102417477D01*
X85928504Y-102365360D01*
X85945659Y-102308810D01*
X85951451Y-102250000D01*
X85951451Y-100550000D01*
X85945659Y-100491190D01*
X85928504Y-100434640D01*
X85900647Y-100382523D01*
X85863158Y-100336842D01*
X85817477Y-100299353D01*
X85765360Y-100271496D01*
X85708810Y-100254341D01*
X85650000Y-100248549D01*
X83950000Y-100248549D01*
X83891190Y-100254341D01*
X83834640Y-100271496D01*
X83782523Y-100299353D01*
X83736842Y-100336842D01*
X83699353Y-100382523D01*
X83671496Y-100434640D01*
X83654341Y-100491190D01*
X83648549Y-100550000D01*
X83648549Y-102250000D01*
X83654341Y-102308810D01*
X83671496Y-102365360D01*
X83699353Y-102417477D01*
X83736842Y-102463158D01*
X83782523Y-102500647D01*
X83834640Y-102528504D01*
X83891190Y-102545659D01*
X83950000Y-102551451D01*
X84375001Y-102551451D01*
X84375000Y-104953960D01*
X82289599Y-107039361D01*
X82211185Y-106943815D01*
X82151704Y-106895000D01*
X82211185Y-106846185D01*
X82314281Y-106720563D01*
X82390888Y-106577241D01*
X82438062Y-106421728D01*
X82453991Y-106260000D01*
X82438062Y-106098272D01*
X82390888Y-105942759D01*
X82314281Y-105799437D01*
X82211185Y-105673815D01*
X82085563Y-105570719D01*
X81942241Y-105494112D01*
X81786728Y-105446938D01*
X81665521Y-105435000D01*
X81134479Y-105435000D01*
X81013272Y-105446938D01*
X80857759Y-105494112D01*
X80714437Y-105570719D01*
X80588815Y-105673815D01*
X80485719Y-105799437D01*
X80409112Y-105942759D01*
X80361938Y-106098272D01*
X80346009Y-106260000D01*
X80361938Y-106421728D01*
X80409112Y-106577241D01*
X80485719Y-106720563D01*
X80588815Y-106846185D01*
X80648296Y-106895000D01*
X80588815Y-106943815D01*
X80485719Y-107069437D01*
X80409112Y-107212759D01*
X80361938Y-107368272D01*
X80346009Y-107530000D01*
X80361938Y-107691728D01*
X80409112Y-107847241D01*
X80485719Y-107990563D01*
X80588815Y-108116185D01*
X80714437Y-108219281D01*
X80857759Y-108295888D01*
X81013272Y-108343062D01*
X81134479Y-108355000D01*
X81665521Y-108355000D01*
X81786728Y-108343062D01*
X81942241Y-108295888D01*
X82085563Y-108219281D01*
X82211185Y-108116185D01*
X82289598Y-108020639D01*
X82575000Y-108306041D01*
X82575001Y-111823958D01*
X81093980Y-113304980D01*
X81068944Y-113300000D01*
X80931056Y-113300000D01*
X80795818Y-113326901D01*
X80668426Y-113379668D01*
X80553776Y-113456274D01*
X80456274Y-113553776D01*
X80379668Y-113668426D01*
X80326901Y-113795818D01*
X80300000Y-113931056D01*
X76502427Y-113931056D01*
X70261371Y-107690000D01*
X73048549Y-107690000D01*
X73048549Y-109390000D01*
X73054341Y-109448810D01*
X73071496Y-109505360D01*
X73099353Y-109557477D01*
X73136842Y-109603158D01*
X73182523Y-109640647D01*
X73234640Y-109668504D01*
X73291190Y-109685659D01*
X73350000Y-109691451D01*
X75050000Y-109691451D01*
X75108810Y-109685659D01*
X75165360Y-109668504D01*
X75217477Y-109640647D01*
X75263158Y-109603158D01*
X75300647Y-109557477D01*
X75328504Y-109505360D01*
X75345659Y-109448810D01*
X75351451Y-109390000D01*
X75351451Y-107690000D01*
X75345659Y-107631190D01*
X75328504Y-107574640D01*
X75300647Y-107522523D01*
X75263158Y-107476842D01*
X75217477Y-107439353D01*
X75165360Y-107411496D01*
X75108810Y-107394341D01*
X75050000Y-107388549D01*
X73350000Y-107388549D01*
X73291190Y-107394341D01*
X73234640Y-107411496D01*
X73182523Y-107439353D01*
X73136842Y-107476842D01*
X73099353Y-107522523D01*
X73071496Y-107574640D01*
X73054341Y-107631190D01*
X73048549Y-107690000D01*
X70261371Y-107690000D01*
X68458106Y-105886735D01*
X73050000Y-105886735D01*
X73050000Y-106113265D01*
X73094194Y-106335443D01*
X73180884Y-106544729D01*
X73306737Y-106733082D01*
X73466918Y-106893263D01*
X73655271Y-107019116D01*
X73864557Y-107105806D01*
X74086735Y-107150000D01*
X74313265Y-107150000D01*
X74535443Y-107105806D01*
X74744729Y-107019116D01*
X74933082Y-106893263D01*
X75093263Y-106733082D01*
X75219116Y-106544729D01*
X75305806Y-106335443D01*
X75350000Y-106113265D01*
X75350000Y-105886735D01*
X75305806Y-105664557D01*
X75219116Y-105455271D01*
X75093263Y-105266918D01*
X74933082Y-105106737D01*
X74744729Y-104980884D01*
X74535443Y-104894194D01*
X74313265Y-104850000D01*
X74086735Y-104850000D01*
X73864557Y-104894194D01*
X73655271Y-104980884D01*
X73466918Y-105106737D01*
X73306737Y-105266918D01*
X73180884Y-105455271D01*
X73094194Y-105664557D01*
X73050000Y-105886735D01*
X68458106Y-105886735D01*
X63200000Y-100628630D01*
X63200000Y-98751451D01*
X63250000Y-98751451D01*
X63308810Y-98745659D01*
X63365360Y-98728504D01*
X63417477Y-98700647D01*
X63463158Y-98663158D01*
X63500647Y-98617477D01*
X63528504Y-98565360D01*
X63545659Y-98508810D01*
X63551451Y-98450000D01*
X63551451Y-97486735D01*
X66330000Y-97486735D01*
X66330000Y-97713265D01*
X66374194Y-97935443D01*
X66460884Y-98144729D01*
X66586737Y-98333082D01*
X66746918Y-98493263D01*
X66935271Y-98619116D01*
X67144557Y-98705806D01*
X67366735Y-98750000D01*
X67593265Y-98750000D01*
X67815443Y-98705806D01*
X68024729Y-98619116D01*
X68213082Y-98493263D01*
X68373263Y-98333082D01*
X68499116Y-98144729D01*
X68585806Y-97935443D01*
X68630000Y-97713265D01*
X68630000Y-97486735D01*
X71410000Y-97486735D01*
X71410000Y-97713265D01*
X71454194Y-97935443D01*
X71540884Y-98144729D01*
X71666737Y-98333082D01*
X71826918Y-98493263D01*
X72015271Y-98619116D01*
X72224557Y-98705806D01*
X72446735Y-98750000D01*
X72673265Y-98750000D01*
X72895443Y-98705806D01*
X73104729Y-98619116D01*
X73293082Y-98493263D01*
X73453263Y-98333082D01*
X73579116Y-98144729D01*
X73665806Y-97935443D01*
X73710000Y-97713265D01*
X73710000Y-97486735D01*
X73950000Y-97486735D01*
X73950000Y-97713265D01*
X73994194Y-97935443D01*
X74080884Y-98144729D01*
X74206737Y-98333082D01*
X74366918Y-98493263D01*
X74555271Y-98619116D01*
X74764557Y-98705806D01*
X74986735Y-98750000D01*
X75213265Y-98750000D01*
X75435443Y-98705806D01*
X75644729Y-98619116D01*
X75833082Y-98493263D01*
X75993263Y-98333082D01*
X76119116Y-98144729D01*
X76205806Y-97935443D01*
X76250000Y-97713265D01*
X76250000Y-97486735D01*
X79030000Y-97486735D01*
X79030000Y-97713265D01*
X79074194Y-97935443D01*
X79160884Y-98144729D01*
X79286737Y-98333082D01*
X79446918Y-98493263D01*
X79635271Y-98619116D01*
X79844557Y-98705806D01*
X80066735Y-98750000D01*
X80293265Y-98750000D01*
X80515443Y-98705806D01*
X80724729Y-98619116D01*
X80913082Y-98493263D01*
X81073263Y-98333082D01*
X81199116Y-98144729D01*
X81285806Y-97935443D01*
X81330000Y-97713265D01*
X81330000Y-97486735D01*
X81285806Y-97264557D01*
X81236212Y-97144828D01*
X81825762Y-96555279D01*
X81841974Y-96541974D01*
X81895084Y-96477260D01*
X81934548Y-96403427D01*
X81958850Y-96323314D01*
X81965000Y-96260874D01*
X81965000Y-96260868D01*
X81967055Y-96240001D01*
X81965000Y-96219134D01*
X81965000Y-90068710D01*
X82084729Y-90019116D01*
X82273082Y-89893263D01*
X82433263Y-89733082D01*
X82559116Y-89544729D01*
X82645806Y-89335443D01*
X82690000Y-89113265D01*
X82690000Y-88886735D01*
X82645806Y-88664557D01*
X82559116Y-88455271D01*
X82433263Y-88266918D01*
X82273082Y-88106737D01*
X82084729Y-87980884D01*
X81875443Y-87894194D01*
X81653265Y-87850000D01*
X81426735Y-87850000D01*
X81204557Y-87894194D01*
X80995271Y-87980884D01*
X80806918Y-88106737D01*
X80646737Y-88266918D01*
X80520884Y-88455271D01*
X80434194Y-88664557D01*
X80390000Y-88886735D01*
X80390000Y-89113265D01*
X80434194Y-89335443D01*
X80520884Y-89544729D01*
X80646737Y-89733082D01*
X80806918Y-89893263D01*
X80995271Y-90019116D01*
X81115000Y-90068710D01*
X81115001Y-96063958D01*
X80635172Y-96543788D01*
X80515443Y-96494194D01*
X80293265Y-96450000D01*
X80066735Y-96450000D01*
X79844557Y-96494194D01*
X79635271Y-96580884D01*
X79446918Y-96706737D01*
X79286737Y-96866918D01*
X79160884Y-97055271D01*
X79074194Y-97264557D01*
X79030000Y-97486735D01*
X76250000Y-97486735D01*
X76205806Y-97264557D01*
X76156212Y-97144828D01*
X79285762Y-94015279D01*
X79301974Y-94001974D01*
X79355084Y-93937260D01*
X79394548Y-93863427D01*
X79418850Y-93783314D01*
X79425000Y-93720874D01*
X79425000Y-93720867D01*
X79427055Y-93700000D01*
X79425000Y-93679133D01*
X79425000Y-90151451D01*
X79850000Y-90151451D01*
X79908810Y-90145659D01*
X79965360Y-90128504D01*
X80017477Y-90100647D01*
X80063158Y-90063158D01*
X80100647Y-90017477D01*
X80128504Y-89965360D01*
X80145659Y-89908810D01*
X80151451Y-89850000D01*
X80151451Y-88150000D01*
X80145659Y-88091190D01*
X80128504Y-88034640D01*
X80100647Y-87982523D01*
X80063158Y-87936842D01*
X80017477Y-87899353D01*
X79965360Y-87871496D01*
X79908810Y-87854341D01*
X79850000Y-87848549D01*
X78150000Y-87848549D01*
X78091190Y-87854341D01*
X78034640Y-87871496D01*
X77982523Y-87899353D01*
X77936842Y-87936842D01*
X77899353Y-87982523D01*
X77871496Y-88034640D01*
X77854341Y-88091190D01*
X77848549Y-88150000D01*
X77848549Y-89850000D01*
X77854341Y-89908810D01*
X77871496Y-89965360D01*
X77899353Y-90017477D01*
X77936842Y-90063158D01*
X77982523Y-90100647D01*
X78034640Y-90128504D01*
X78091190Y-90145659D01*
X78150000Y-90151451D01*
X78575000Y-90151451D01*
X78575001Y-93523958D01*
X75555172Y-96543788D01*
X75435443Y-96494194D01*
X75213265Y-96450000D01*
X74986735Y-96450000D01*
X74764557Y-96494194D01*
X74555271Y-96580884D01*
X74366918Y-96706737D01*
X74206737Y-96866918D01*
X74080884Y-97055271D01*
X73994194Y-97264557D01*
X73950000Y-97486735D01*
X73710000Y-97486735D01*
X73665806Y-97264557D01*
X73579116Y-97055271D01*
X73453263Y-96866918D01*
X73293082Y-96706737D01*
X73104729Y-96580884D01*
X72895443Y-96494194D01*
X72673265Y-96450000D01*
X72446735Y-96450000D01*
X72224557Y-96494194D01*
X72015271Y-96580884D01*
X71826918Y-96706737D01*
X71666737Y-96866918D01*
X71540884Y-97055271D01*
X71454194Y-97264557D01*
X71410000Y-97486735D01*
X68630000Y-97486735D01*
X68585806Y-97264557D01*
X68499116Y-97055271D01*
X68373263Y-96866918D01*
X68213082Y-96706737D01*
X68024729Y-96580884D01*
X67815443Y-96494194D01*
X67593265Y-96450000D01*
X67366735Y-96450000D01*
X67144557Y-96494194D01*
X66935271Y-96580884D01*
X66746918Y-96706737D01*
X66586737Y-96866918D01*
X66460884Y-97055271D01*
X66374194Y-97264557D01*
X66330000Y-97486735D01*
X63551451Y-97486735D01*
X63551451Y-96750000D01*
X63545659Y-96691190D01*
X63528504Y-96634640D01*
X63500647Y-96582523D01*
X63463158Y-96536842D01*
X63417477Y-96499353D01*
X63365360Y-96471496D01*
X63308810Y-96454341D01*
X63250000Y-96448549D01*
X61550000Y-96448549D01*
X61491190Y-96454341D01*
X61434640Y-96471496D01*
X61382523Y-96499353D01*
X61336842Y-96536842D01*
X61299353Y-96582523D01*
X61271496Y-96634640D01*
X61254341Y-96691190D01*
X61248549Y-96750000D01*
X61248549Y-98450000D01*
X61254341Y-98508810D01*
X61271496Y-98565360D01*
X61299353Y-98617477D01*
X61336842Y-98663158D01*
X61382523Y-98700647D01*
X61434640Y-98728504D01*
X61491190Y-98745659D01*
X61550000Y-98751451D01*
X61600001Y-98751451D01*
X61600000Y-100920709D01*
X61596130Y-100960000D01*
X61600000Y-100999291D01*
X61600000Y-100999292D01*
X61611576Y-101116826D01*
X61657321Y-101267627D01*
X61731607Y-101406606D01*
X61758309Y-101439142D01*
X61831578Y-101528422D01*
X61862103Y-101553473D01*
X84450000Y-124141371D01*
X84450000Y-124273265D01*
X84494194Y-124495443D01*
X84580884Y-124704729D01*
X84706737Y-124893082D01*
X84723656Y-124910001D01*
X75711042Y-124910001D01*
X68495020Y-117693980D01*
X68500000Y-117668944D01*
X68500000Y-117531056D01*
X68473099Y-117395818D01*
X68420332Y-117268426D01*
X68343726Y-117153776D01*
X68246224Y-117056274D01*
X68131574Y-116979668D01*
X68004182Y-116926901D01*
X67868944Y-116900000D01*
X67731056Y-116900000D01*
X67595818Y-116926901D01*
X67468426Y-116979668D01*
X67353776Y-117056274D01*
X67256274Y-117153776D01*
X67179668Y-117268426D01*
X67126901Y-117395818D01*
X67100000Y-117531056D01*
X67100000Y-117668944D01*
X67126901Y-117804182D01*
X67179668Y-117931574D01*
X67256274Y-118046224D01*
X67353776Y-118143726D01*
X67468426Y-118220332D01*
X67595818Y-118273099D01*
X67731056Y-118300000D01*
X67868944Y-118300000D01*
X67893980Y-118295020D01*
X74106412Y-124507453D01*
X74068944Y-124500000D01*
X73931056Y-124500000D01*
X73795818Y-124526901D01*
X73668426Y-124579668D01*
X73553776Y-124656274D01*
X73456274Y-124753776D01*
X73379668Y-124868426D01*
X73326901Y-124995818D01*
X73300000Y-125131056D01*
X73300000Y-125268944D01*
X73326901Y-125404182D01*
X73379668Y-125531574D01*
X73405319Y-125569964D01*
X71512653Y-123677298D01*
X71543726Y-123646224D01*
X71620332Y-123531574D01*
X71673099Y-123404182D01*
X71700000Y-123268944D01*
X71700000Y-123131056D01*
X71673099Y-122995818D01*
X71620332Y-122868426D01*
X71543726Y-122753776D01*
X71446224Y-122656274D01*
X71331574Y-122579668D01*
X71204182Y-122526901D01*
X71068944Y-122500000D01*
X70931056Y-122500000D01*
X70795818Y-122526901D01*
X70668426Y-122579668D01*
X70553776Y-122656274D01*
X70456274Y-122753776D01*
X70379668Y-122868426D01*
X70326901Y-122995818D01*
X70300000Y-123131056D01*
X70300000Y-123166590D01*
X70204182Y-123126901D01*
X70092876Y-123104760D01*
X70100000Y-123068944D01*
X70100000Y-122931056D01*
X70073099Y-122795818D01*
X70020332Y-122668426D01*
X69943726Y-122553776D01*
X69846224Y-122456274D01*
X69731574Y-122379668D01*
X69604182Y-122326901D01*
X69468944Y-122300000D01*
X69331056Y-122300000D01*
X69195818Y-122326901D01*
X69068426Y-122379668D01*
X68953776Y-122456274D01*
X68856274Y-122553776D01*
X68779668Y-122668426D01*
X68726901Y-122795818D01*
X68700000Y-122931056D01*
X68700000Y-123068944D01*
X68704980Y-123093979D01*
X67914239Y-123884721D01*
X67898027Y-123898026D01*
X67844917Y-123962740D01*
X67822766Y-124004182D01*
X67805453Y-124036573D01*
X67781150Y-124116686D01*
X67772945Y-124200000D01*
X67775001Y-124220877D01*
X67775000Y-125642093D01*
X67753776Y-125656274D01*
X67656274Y-125753776D01*
X67579668Y-125868426D01*
X67526901Y-125995818D01*
X67500000Y-126131056D01*
X67500000Y-126268944D01*
X67526901Y-126404182D01*
X67579668Y-126531574D01*
X67656274Y-126646224D01*
X67753776Y-126743726D01*
X67868426Y-126820332D01*
X67995818Y-126873099D01*
X68131056Y-126900000D01*
X68268944Y-126900000D01*
X68404182Y-126873099D01*
X68531574Y-126820332D01*
X68646224Y-126743726D01*
X68743726Y-126646224D01*
X68820332Y-126531574D01*
X68873099Y-126404182D01*
X68900000Y-126268944D01*
X68900000Y-126131056D01*
X68873099Y-125995818D01*
X68820332Y-125868426D01*
X68743726Y-125753776D01*
X68646224Y-125656274D01*
X68625000Y-125642093D01*
X68625000Y-124376040D01*
X69306021Y-123695020D01*
X69307124Y-123695240D01*
X69300000Y-123731056D01*
X69300000Y-123868944D01*
X69326901Y-124004182D01*
X69379668Y-124131574D01*
X69456274Y-124246224D01*
X69553776Y-124343726D01*
X69575000Y-124357908D01*
X69575001Y-125052126D01*
X69572945Y-125073002D01*
X69581150Y-125156316D01*
X69585779Y-125171574D01*
X69605453Y-125236429D01*
X69644917Y-125310262D01*
X69698027Y-125374976D01*
X69714239Y-125388281D01*
X71362391Y-127036434D01*
X64037475Y-127036434D01*
X61951451Y-124950411D01*
X61951451Y-123550000D01*
X61945659Y-123491190D01*
X61928504Y-123434640D01*
X61900647Y-123382523D01*
X61863158Y-123336842D01*
X61817477Y-123299353D01*
X61765360Y-123271496D01*
X61708810Y-123254341D01*
X61650000Y-123248549D01*
X59950000Y-123248549D01*
X59891190Y-123254341D01*
X59834640Y-123271496D01*
X59782523Y-123299353D01*
X59736842Y-123336842D01*
X59699353Y-123382523D01*
X59671496Y-123434640D01*
X59654341Y-123491190D01*
X59648549Y-123550000D01*
X59648549Y-125250000D01*
X59654341Y-125308810D01*
X59671496Y-125365360D01*
X59699353Y-125417477D01*
X59736842Y-125463158D01*
X59782523Y-125500647D01*
X59834640Y-125528504D01*
X59891190Y-125545659D01*
X59950000Y-125551451D01*
X61350411Y-125551451D01*
X63546153Y-127747194D01*
X63559460Y-127763408D01*
X63624174Y-127816518D01*
X63698007Y-127855982D01*
X63753817Y-127872912D01*
X63778119Y-127880284D01*
X63786532Y-127881113D01*
X63840560Y-127886434D01*
X63840566Y-127886434D01*
X63861433Y-127888489D01*
X63882300Y-127886434D01*
X64894832Y-127886434D01*
X64815609Y-128005000D01*
X62466041Y-128005000D01*
X61856212Y-127395172D01*
X61905806Y-127275443D01*
X61950000Y-127053265D01*
X61950000Y-126826735D01*
X61905806Y-126604557D01*
X61819116Y-126395271D01*
X61693263Y-126206918D01*
X61533082Y-126046737D01*
X61344729Y-125920884D01*
X61135443Y-125834194D01*
X60913265Y-125790000D01*
X60686735Y-125790000D01*
X60464557Y-125834194D01*
X60255271Y-125920884D01*
X60066918Y-126046737D01*
X59906737Y-126206918D01*
X59780884Y-126395271D01*
X59694194Y-126604557D01*
X59650000Y-126826735D01*
X59650000Y-127053265D01*
X59694194Y-127275443D01*
X59780884Y-127484729D01*
X59906737Y-127673082D01*
X60066918Y-127833263D01*
X60255271Y-127959116D01*
X60464557Y-128045806D01*
X60686735Y-128090000D01*
X60913265Y-128090000D01*
X61135443Y-128045806D01*
X61255172Y-127996212D01*
X61974721Y-128715762D01*
X61988026Y-128731974D01*
X62052740Y-128785084D01*
X62126573Y-128824548D01*
X62182383Y-128841478D01*
X62206685Y-128848850D01*
X62215098Y-128849679D01*
X62269126Y-128855000D01*
X62269132Y-128855000D01*
X62289999Y-128857055D01*
X62310866Y-128855000D01*
X64815609Y-128855000D01*
X64906459Y-128990967D01*
X65029033Y-129113541D01*
X65173164Y-129209846D01*
X65333313Y-129276182D01*
X65503328Y-129310000D01*
X65676672Y-129310000D01*
X65846687Y-129276182D01*
X66006836Y-129209846D01*
X66150967Y-129113541D01*
X66273541Y-128990967D01*
X66369846Y-128846836D01*
X66436182Y-128686687D01*
X66470000Y-128516672D01*
X66470000Y-128343328D01*
X66436182Y-128173313D01*
X66369846Y-128013164D01*
X66285168Y-127886434D01*
X67434832Y-127886434D01*
X67350154Y-128013164D01*
X67283818Y-128173313D01*
X67250000Y-128343328D01*
X67250000Y-128516672D01*
X67283818Y-128686687D01*
X67350154Y-128846836D01*
X67446459Y-128990967D01*
X67569033Y-129113541D01*
X67713164Y-129209846D01*
X67873313Y-129276182D01*
X68043328Y-129310000D01*
X68216672Y-129310000D01*
X68386687Y-129276182D01*
X68546836Y-129209846D01*
X68690967Y-129113541D01*
X68813541Y-128990967D01*
X68909846Y-128846836D01*
X68976182Y-128686687D01*
X69010000Y-128516672D01*
X69010000Y-128343328D01*
X68976182Y-128173313D01*
X68909846Y-128013164D01*
X68825168Y-127886434D01*
X69974832Y-127886434D01*
X69890154Y-128013164D01*
X69823818Y-128173313D01*
X69790000Y-128343328D01*
X69790000Y-128516672D01*
X69823818Y-128686687D01*
X69890154Y-128846836D01*
X69986459Y-128990967D01*
X70109033Y-129113541D01*
X70253164Y-129209846D01*
X70413313Y-129276182D01*
X70583328Y-129310000D01*
X70756672Y-129310000D01*
X70926687Y-129276182D01*
X71086836Y-129209846D01*
X71230967Y-129113541D01*
X71353541Y-128990967D01*
X71449846Y-128846836D01*
X71516182Y-128686687D01*
X71550000Y-128516672D01*
X71550000Y-128343328D01*
X71516182Y-128173313D01*
X71449846Y-128013164D01*
X71365168Y-127886434D01*
X72065394Y-127886434D01*
X72328549Y-128149589D01*
X72328549Y-129010000D01*
X72334341Y-129068810D01*
X72351496Y-129125360D01*
X72379353Y-129177477D01*
X72416842Y-129223158D01*
X72462523Y-129260647D01*
X72514640Y-129288504D01*
X72571190Y-129305659D01*
X72630000Y-129311451D01*
X73790000Y-129311451D01*
X73848810Y-129305659D01*
X73905360Y-129288504D01*
X73957477Y-129260647D01*
X74003158Y-129223158D01*
X74040647Y-129177477D01*
X74068504Y-129125360D01*
X74085659Y-129068810D01*
X74091451Y-129010000D01*
X74091451Y-127850000D01*
X74086177Y-127796447D01*
X75895240Y-129605510D01*
X75839293Y-129600000D01*
X44371373Y-129600000D01*
X41313475Y-126542103D01*
X41288424Y-126511578D01*
X41166608Y-126411607D01*
X41027630Y-126337321D01*
X40876829Y-126291576D01*
X40759295Y-126280000D01*
X40759293Y-126280000D01*
X40720002Y-126276130D01*
X40680711Y-126280000D01*
X29426345Y-126280000D01*
X29333082Y-126186737D01*
X29144729Y-126060884D01*
X28935443Y-125974194D01*
X28713265Y-125930000D01*
X28486735Y-125930000D01*
X28264557Y-125974194D01*
X28055271Y-126060884D01*
X27866918Y-126186737D01*
X27706737Y-126346918D01*
X27580884Y-126535271D01*
X27494194Y-126744557D01*
X27450000Y-126966735D01*
X13325000Y-126966735D01*
X13325000Y-124426735D01*
X27450000Y-124426735D01*
X27450000Y-124653265D01*
X27494194Y-124875443D01*
X27580884Y-125084729D01*
X27706737Y-125273082D01*
X27866918Y-125433263D01*
X28055271Y-125559116D01*
X28264557Y-125645806D01*
X28486735Y-125690000D01*
X28713265Y-125690000D01*
X28935443Y-125645806D01*
X29144729Y-125559116D01*
X29333082Y-125433263D01*
X29493263Y-125273082D01*
X29619116Y-125084729D01*
X29705806Y-124875443D01*
X29750000Y-124653265D01*
X29750000Y-124426735D01*
X29705806Y-124204557D01*
X29619116Y-123995271D01*
X29493263Y-123806918D01*
X29333082Y-123646737D01*
X29144729Y-123520884D01*
X28935443Y-123434194D01*
X28713265Y-123390000D01*
X28486735Y-123390000D01*
X28264557Y-123434194D01*
X28055271Y-123520884D01*
X27866918Y-123646737D01*
X27706737Y-123806918D01*
X27580884Y-123995271D01*
X27494194Y-124204557D01*
X27450000Y-124426735D01*
X13325000Y-124426735D01*
X13325000Y-121150000D01*
X27448549Y-121150000D01*
X27448549Y-122850000D01*
X27454341Y-122908810D01*
X27471496Y-122965360D01*
X27499353Y-123017477D01*
X27536842Y-123063158D01*
X27582523Y-123100647D01*
X27634640Y-123128504D01*
X27691190Y-123145659D01*
X27750000Y-123151451D01*
X29450000Y-123151451D01*
X29508810Y-123145659D01*
X29565360Y-123128504D01*
X29617477Y-123100647D01*
X29663158Y-123063158D01*
X29700647Y-123017477D01*
X29728504Y-122965360D01*
X29745659Y-122908810D01*
X29751451Y-122850000D01*
X29751451Y-122425000D01*
X55979133Y-122425000D01*
X56000000Y-122427055D01*
X56020867Y-122425000D01*
X56020874Y-122425000D01*
X56083314Y-122418850D01*
X56163427Y-122394548D01*
X56237260Y-122355084D01*
X56301974Y-122301974D01*
X56315284Y-122285756D01*
X64306021Y-114295020D01*
X64331056Y-114300000D01*
X64468944Y-114300000D01*
X64604182Y-114273099D01*
X64731574Y-114220332D01*
X64846224Y-114143726D01*
X64943726Y-114046224D01*
X65020332Y-113931574D01*
X65073099Y-113804182D01*
X65100000Y-113668944D01*
X65100000Y-113531056D01*
X65073099Y-113395818D01*
X65020332Y-113268426D01*
X64943726Y-113153776D01*
X64846224Y-113056274D01*
X64731574Y-112979668D01*
X64604182Y-112926901D01*
X64468944Y-112900000D01*
X64331056Y-112900000D01*
X64195818Y-112926901D01*
X64068426Y-112979668D01*
X63953776Y-113056274D01*
X63856274Y-113153776D01*
X63779668Y-113268426D01*
X63726901Y-113395818D01*
X63700000Y-113531056D01*
X63700000Y-113668944D01*
X63704980Y-113693979D01*
X55823960Y-121575000D01*
X52599419Y-121575000D01*
X52646224Y-121543726D01*
X52743726Y-121446224D01*
X52820332Y-121331574D01*
X52873099Y-121204182D01*
X52900000Y-121068944D01*
X52900000Y-120931056D01*
X52873099Y-120795818D01*
X52820332Y-120668426D01*
X52743726Y-120553776D01*
X52646224Y-120456274D01*
X52531574Y-120379668D01*
X52404182Y-120326901D01*
X52268944Y-120300000D01*
X52131056Y-120300000D01*
X52106021Y-120304980D01*
X50425000Y-118623960D01*
X50425000Y-114957907D01*
X50446224Y-114943726D01*
X50543726Y-114846224D01*
X50600000Y-114762003D01*
X50656274Y-114846224D01*
X50753776Y-114943726D01*
X50775000Y-114957907D01*
X50775001Y-116779123D01*
X50772945Y-116800000D01*
X50781150Y-116883314D01*
X50794373Y-116926901D01*
X50805453Y-116963427D01*
X50844917Y-117037260D01*
X50898027Y-117101974D01*
X50914239Y-117115279D01*
X52904980Y-119106020D01*
X52900000Y-119131056D01*
X52900000Y-119268944D01*
X52926901Y-119404182D01*
X52979668Y-119531574D01*
X53056274Y-119646224D01*
X53153776Y-119743726D01*
X53268426Y-119820332D01*
X53395818Y-119873099D01*
X53531056Y-119900000D01*
X53668944Y-119900000D01*
X53804182Y-119873099D01*
X53931574Y-119820332D01*
X54046224Y-119743726D01*
X54143726Y-119646224D01*
X54220332Y-119531574D01*
X54273099Y-119404182D01*
X54300000Y-119268944D01*
X54300000Y-119131056D01*
X54273099Y-118995818D01*
X54220332Y-118868426D01*
X54143726Y-118753776D01*
X54046224Y-118656274D01*
X53931574Y-118579668D01*
X53804182Y-118526901D01*
X53668944Y-118500000D01*
X53531056Y-118500000D01*
X53506020Y-118504980D01*
X51625000Y-116623960D01*
X51625000Y-114957907D01*
X51646224Y-114943726D01*
X51743726Y-114846224D01*
X51820332Y-114731574D01*
X51873099Y-114604182D01*
X51900000Y-114468944D01*
X51900000Y-114331056D01*
X51873099Y-114195818D01*
X51820332Y-114068426D01*
X51743726Y-113953776D01*
X51646224Y-113856274D01*
X51531574Y-113779668D01*
X51404182Y-113726901D01*
X51268944Y-113700000D01*
X51131056Y-113700000D01*
X50995818Y-113726901D01*
X50868426Y-113779668D01*
X50753776Y-113856274D01*
X50656274Y-113953776D01*
X50600000Y-114037997D01*
X50543726Y-113953776D01*
X50446224Y-113856274D01*
X50331574Y-113779668D01*
X50204182Y-113726901D01*
X50068944Y-113700000D01*
X49931056Y-113700000D01*
X49795818Y-113726901D01*
X49668426Y-113779668D01*
X49553776Y-113856274D01*
X49456274Y-113953776D01*
X49379668Y-114068426D01*
X49326901Y-114195818D01*
X49300000Y-114331056D01*
X49300000Y-114468944D01*
X49326901Y-114604182D01*
X49379668Y-114731574D01*
X49456274Y-114846224D01*
X49553776Y-114943726D01*
X49575000Y-114957907D01*
X49575001Y-118779123D01*
X49572945Y-118800000D01*
X49581150Y-118883314D01*
X49590532Y-118914240D01*
X49605453Y-118963427D01*
X49644917Y-119037260D01*
X49698027Y-119101974D01*
X49714239Y-119115279D01*
X51504980Y-120906021D01*
X51500000Y-120931056D01*
X51500000Y-121068944D01*
X51526901Y-121204182D01*
X51579668Y-121331574D01*
X51656274Y-121446224D01*
X51753776Y-121543726D01*
X51800581Y-121575000D01*
X29751451Y-121575000D01*
X29751451Y-121150000D01*
X29745659Y-121091190D01*
X29728504Y-121034640D01*
X29700647Y-120982523D01*
X29663158Y-120936842D01*
X29617477Y-120899353D01*
X29565360Y-120871496D01*
X29508810Y-120854341D01*
X29450000Y-120848549D01*
X27750000Y-120848549D01*
X27691190Y-120854341D01*
X27634640Y-120871496D01*
X27582523Y-120899353D01*
X27536842Y-120936842D01*
X27499353Y-120982523D01*
X27471496Y-121034640D01*
X27454341Y-121091190D01*
X27448549Y-121150000D01*
X13325000Y-121150000D01*
X13325000Y-117131056D01*
X37900000Y-117131056D01*
X37900000Y-117268944D01*
X37926901Y-117404182D01*
X37979668Y-117531574D01*
X38056274Y-117646224D01*
X38153776Y-117743726D01*
X38268426Y-117820332D01*
X38395818Y-117873099D01*
X38531056Y-117900000D01*
X38668944Y-117900000D01*
X38804182Y-117873099D01*
X38931574Y-117820332D01*
X39046224Y-117743726D01*
X39143726Y-117646224D01*
X39220332Y-117531574D01*
X39273099Y-117404182D01*
X39300000Y-117268944D01*
X39300000Y-117131056D01*
X39273099Y-116995818D01*
X39220332Y-116868426D01*
X39185197Y-116815843D01*
X41906021Y-114095020D01*
X41931056Y-114100000D01*
X42068944Y-114100000D01*
X42204182Y-114073099D01*
X42331574Y-114020332D01*
X42446224Y-113943726D01*
X42543726Y-113846224D01*
X42620332Y-113731574D01*
X42673099Y-113604182D01*
X42700000Y-113468944D01*
X42700000Y-113331056D01*
X42673099Y-113195818D01*
X42646274Y-113131056D01*
X44100000Y-113131056D01*
X44100000Y-113268944D01*
X44126901Y-113404182D01*
X44179668Y-113531574D01*
X44256274Y-113646224D01*
X44353776Y-113743726D01*
X44468426Y-113820332D01*
X44595818Y-113873099D01*
X44731056Y-113900000D01*
X44868944Y-113900000D01*
X44893980Y-113895020D01*
X47946782Y-116947822D01*
X47926901Y-116995818D01*
X47900000Y-117131056D01*
X47900000Y-117268944D01*
X47926901Y-117404182D01*
X47979668Y-117531574D01*
X48056274Y-117646224D01*
X48153776Y-117743726D01*
X48268426Y-117820332D01*
X48395818Y-117873099D01*
X48531056Y-117900000D01*
X48668944Y-117900000D01*
X48804182Y-117873099D01*
X48931574Y-117820332D01*
X49046224Y-117743726D01*
X49143726Y-117646224D01*
X49220332Y-117531574D01*
X49273099Y-117404182D01*
X49300000Y-117268944D01*
X49300000Y-117131056D01*
X49273099Y-116995818D01*
X49220332Y-116868426D01*
X49143726Y-116753776D01*
X49046224Y-116656274D01*
X48931574Y-116579668D01*
X48804182Y-116526901D01*
X48709010Y-116507970D01*
X45495020Y-113293980D01*
X45500000Y-113268944D01*
X45500000Y-113131056D01*
X45473099Y-112995818D01*
X45420332Y-112868426D01*
X45343726Y-112753776D01*
X45246224Y-112656274D01*
X45131574Y-112579668D01*
X45004182Y-112526901D01*
X44868944Y-112500000D01*
X44731056Y-112500000D01*
X44595818Y-112526901D01*
X44468426Y-112579668D01*
X44353776Y-112656274D01*
X44256274Y-112753776D01*
X44179668Y-112868426D01*
X44126901Y-112995818D01*
X44100000Y-113131056D01*
X42646274Y-113131056D01*
X42620332Y-113068426D01*
X42543726Y-112953776D01*
X42446224Y-112856274D01*
X42331574Y-112779668D01*
X42204182Y-112726901D01*
X42068944Y-112700000D01*
X41931056Y-112700000D01*
X41795818Y-112726901D01*
X41668426Y-112779668D01*
X41553776Y-112856274D01*
X41456274Y-112953776D01*
X41379668Y-113068426D01*
X41326901Y-113195818D01*
X41300000Y-113331056D01*
X41300000Y-113468944D01*
X41304980Y-113493979D01*
X38314243Y-116484717D01*
X38298026Y-116498026D01*
X38244916Y-116562741D01*
X38217781Y-116613508D01*
X38153776Y-116656274D01*
X38056274Y-116753776D01*
X37979668Y-116868426D01*
X37926901Y-116995818D01*
X37900000Y-117131056D01*
X13325000Y-117131056D01*
X13325000Y-114226735D01*
X16650000Y-114226735D01*
X16650000Y-114453265D01*
X16694194Y-114675443D01*
X16780884Y-114884729D01*
X16906737Y-115073082D01*
X17066918Y-115233263D01*
X17255271Y-115359116D01*
X17464557Y-115445806D01*
X17686735Y-115490000D01*
X17913265Y-115490000D01*
X18135443Y-115445806D01*
X18344729Y-115359116D01*
X18533082Y-115233263D01*
X18693263Y-115073082D01*
X18819116Y-114884729D01*
X18905806Y-114675443D01*
X18950000Y-114453265D01*
X18950000Y-114226735D01*
X18905806Y-114004557D01*
X18883208Y-113950000D01*
X20848549Y-113950000D01*
X20848549Y-115650000D01*
X20854341Y-115708810D01*
X20871496Y-115765360D01*
X20899353Y-115817477D01*
X20936842Y-115863158D01*
X20982523Y-115900647D01*
X21034640Y-115928504D01*
X21091190Y-115945659D01*
X21150000Y-115951451D01*
X22850000Y-115951451D01*
X22908810Y-115945659D01*
X22965360Y-115928504D01*
X23017477Y-115900647D01*
X23063158Y-115863158D01*
X23100647Y-115817477D01*
X23128504Y-115765360D01*
X23145659Y-115708810D01*
X23151451Y-115650000D01*
X23151451Y-113950000D01*
X25248549Y-113950000D01*
X25248549Y-115650000D01*
X25254341Y-115708810D01*
X25271496Y-115765360D01*
X25299353Y-115817477D01*
X25336842Y-115863158D01*
X25382523Y-115900647D01*
X25434640Y-115928504D01*
X25491190Y-115945659D01*
X25550000Y-115951451D01*
X27250000Y-115951451D01*
X27308810Y-115945659D01*
X27365360Y-115928504D01*
X27417477Y-115900647D01*
X27463158Y-115863158D01*
X27500647Y-115817477D01*
X27528504Y-115765360D01*
X27545659Y-115708810D01*
X27551451Y-115650000D01*
X27551451Y-113950000D01*
X27545659Y-113891190D01*
X27528504Y-113834640D01*
X27500647Y-113782523D01*
X27463158Y-113736842D01*
X27417477Y-113699353D01*
X27365360Y-113671496D01*
X27308810Y-113654341D01*
X27250000Y-113648549D01*
X25550000Y-113648549D01*
X25491190Y-113654341D01*
X25434640Y-113671496D01*
X25382523Y-113699353D01*
X25336842Y-113736842D01*
X25299353Y-113782523D01*
X25271496Y-113834640D01*
X25254341Y-113891190D01*
X25248549Y-113950000D01*
X23151451Y-113950000D01*
X23145659Y-113891190D01*
X23128504Y-113834640D01*
X23100647Y-113782523D01*
X23063158Y-113736842D01*
X23017477Y-113699353D01*
X22965360Y-113671496D01*
X22908810Y-113654341D01*
X22850000Y-113648549D01*
X21150000Y-113648549D01*
X21091190Y-113654341D01*
X21034640Y-113671496D01*
X20982523Y-113699353D01*
X20936842Y-113736842D01*
X20899353Y-113782523D01*
X20871496Y-113834640D01*
X20854341Y-113891190D01*
X20848549Y-113950000D01*
X18883208Y-113950000D01*
X18819116Y-113795271D01*
X18693263Y-113606918D01*
X18533082Y-113446737D01*
X18344729Y-113320884D01*
X18135443Y-113234194D01*
X17913265Y-113190000D01*
X17686735Y-113190000D01*
X17464557Y-113234194D01*
X17255271Y-113320884D01*
X17066918Y-113446737D01*
X16906737Y-113606918D01*
X16780884Y-113795271D01*
X16694194Y-114004557D01*
X16650000Y-114226735D01*
X13325000Y-114226735D01*
X13325000Y-110950000D01*
X16648549Y-110950000D01*
X16648549Y-112650000D01*
X16654341Y-112708810D01*
X16671496Y-112765360D01*
X16699353Y-112817477D01*
X16736842Y-112863158D01*
X16782523Y-112900647D01*
X16834640Y-112928504D01*
X16891190Y-112945659D01*
X16950000Y-112951451D01*
X18650000Y-112951451D01*
X18708810Y-112945659D01*
X18765360Y-112928504D01*
X18817477Y-112900647D01*
X18863158Y-112863158D01*
X18900647Y-112817477D01*
X18928504Y-112765360D01*
X18945659Y-112708810D01*
X18951451Y-112650000D01*
X18951451Y-110950000D01*
X18945659Y-110891190D01*
X18928504Y-110834640D01*
X18900647Y-110782523D01*
X18863158Y-110736842D01*
X18817477Y-110699353D01*
X18765360Y-110671496D01*
X18708810Y-110654341D01*
X18650000Y-110648549D01*
X16950000Y-110648549D01*
X16891190Y-110654341D01*
X16834640Y-110671496D01*
X16782523Y-110699353D01*
X16736842Y-110736842D01*
X16699353Y-110782523D01*
X16671496Y-110834640D01*
X16654341Y-110891190D01*
X16648549Y-110950000D01*
X13325000Y-110950000D01*
X13325000Y-103286735D01*
X16650000Y-103286735D01*
X16650000Y-103513265D01*
X16694194Y-103735443D01*
X16780884Y-103944729D01*
X16906737Y-104133082D01*
X17066918Y-104293263D01*
X17255271Y-104419116D01*
X17464557Y-104505806D01*
X17686735Y-104550000D01*
X17913265Y-104550000D01*
X18135443Y-104505806D01*
X18344729Y-104419116D01*
X18533082Y-104293263D01*
X18693263Y-104133082D01*
X18819116Y-103944729D01*
X18905806Y-103735443D01*
X18950000Y-103513265D01*
X18950000Y-103286735D01*
X18905806Y-103064557D01*
X18819116Y-102855271D01*
X18693263Y-102666918D01*
X18533082Y-102506737D01*
X18344729Y-102380884D01*
X18135443Y-102294194D01*
X17913265Y-102250000D01*
X17686735Y-102250000D01*
X17464557Y-102294194D01*
X17255271Y-102380884D01*
X17066918Y-102506737D01*
X16906737Y-102666918D01*
X16780884Y-102855271D01*
X16694194Y-103064557D01*
X16650000Y-103286735D01*
X13325000Y-103286735D01*
X13325000Y-101651659D01*
X30700000Y-101651659D01*
X30700000Y-101868341D01*
X30742273Y-102080858D01*
X30825193Y-102281045D01*
X30945575Y-102461209D01*
X31098791Y-102614425D01*
X31278955Y-102734807D01*
X31479142Y-102817727D01*
X31691659Y-102860000D01*
X31908341Y-102860000D01*
X32120858Y-102817727D01*
X32321045Y-102734807D01*
X32501209Y-102614425D01*
X32654425Y-102461209D01*
X32774807Y-102281045D01*
X32857727Y-102080858D01*
X32900000Y-101868341D01*
X32900000Y-101651659D01*
X32857727Y-101439142D01*
X32774807Y-101238955D01*
X32654425Y-101058791D01*
X32501209Y-100905575D01*
X32321045Y-100785193D01*
X32120858Y-100702273D01*
X31908341Y-100660000D01*
X31691659Y-100660000D01*
X31479142Y-100702273D01*
X31278955Y-100785193D01*
X31098791Y-100905575D01*
X30945575Y-101058791D01*
X30825193Y-101238955D01*
X30742273Y-101439142D01*
X30700000Y-101651659D01*
X13325000Y-101651659D01*
X13325000Y-92350000D01*
X22048549Y-92350000D01*
X22048549Y-94050000D01*
X22054341Y-94108810D01*
X22071496Y-94165360D01*
X22099353Y-94217477D01*
X22136842Y-94263158D01*
X22182523Y-94300647D01*
X22234640Y-94328504D01*
X22291190Y-94345659D01*
X22350000Y-94351451D01*
X24050000Y-94351451D01*
X24108810Y-94345659D01*
X24165360Y-94328504D01*
X24217477Y-94300647D01*
X24263158Y-94263158D01*
X24300647Y-94217477D01*
X24328504Y-94165360D01*
X24345659Y-94108810D01*
X24351451Y-94050000D01*
X24351451Y-92350000D01*
X24345659Y-92291190D01*
X24328504Y-92234640D01*
X24300647Y-92182523D01*
X24273957Y-92150000D01*
X38848549Y-92150000D01*
X38848549Y-93850000D01*
X38854341Y-93908810D01*
X38871496Y-93965360D01*
X38899353Y-94017477D01*
X38936842Y-94063158D01*
X38982523Y-94100647D01*
X39034640Y-94128504D01*
X39091190Y-94145659D01*
X39150000Y-94151451D01*
X40850000Y-94151451D01*
X40908810Y-94145659D01*
X40965360Y-94128504D01*
X41017477Y-94100647D01*
X41063158Y-94063158D01*
X41100647Y-94017477D01*
X41128504Y-93965360D01*
X41145659Y-93908810D01*
X41151451Y-93850000D01*
X41151451Y-93425000D01*
X46233960Y-93425000D01*
X47923960Y-95115000D01*
X41068710Y-95115000D01*
X41019116Y-94995271D01*
X40893263Y-94806918D01*
X40733082Y-94646737D01*
X40544729Y-94520884D01*
X40335443Y-94434194D01*
X40113265Y-94390000D01*
X39886735Y-94390000D01*
X39664557Y-94434194D01*
X39455271Y-94520884D01*
X39266918Y-94646737D01*
X39106737Y-94806918D01*
X38980884Y-94995271D01*
X38894194Y-95204557D01*
X38850000Y-95426735D01*
X38850000Y-95653265D01*
X38894194Y-95875443D01*
X38980884Y-96084729D01*
X39106737Y-96273082D01*
X39266918Y-96433263D01*
X39455271Y-96559116D01*
X39664557Y-96645806D01*
X39886735Y-96690000D01*
X40113265Y-96690000D01*
X40335443Y-96645806D01*
X40544729Y-96559116D01*
X40733082Y-96433263D01*
X40893263Y-96273082D01*
X41019116Y-96084729D01*
X41068710Y-95965000D01*
X48137550Y-95965000D01*
X59445000Y-107272451D01*
X59445001Y-108321824D01*
X59371263Y-108371093D01*
X59350647Y-108332523D01*
X59313158Y-108286842D01*
X59267477Y-108249353D01*
X59215360Y-108221496D01*
X59158810Y-108204341D01*
X59100000Y-108198549D01*
X58100000Y-108198549D01*
X58041190Y-108204341D01*
X57984640Y-108221496D01*
X57932523Y-108249353D01*
X57886842Y-108286842D01*
X57849353Y-108332523D01*
X57821496Y-108384640D01*
X57804341Y-108441190D01*
X57798549Y-108500000D01*
X57798549Y-109500000D01*
X57804341Y-109558810D01*
X57821496Y-109615360D01*
X57849353Y-109667477D01*
X57886842Y-109713158D01*
X57932523Y-109750647D01*
X57984640Y-109778504D01*
X58041190Y-109795659D01*
X58100000Y-109801451D01*
X59100000Y-109801451D01*
X59158810Y-109795659D01*
X59215360Y-109778504D01*
X59267477Y-109750647D01*
X59313158Y-109713158D01*
X59350647Y-109667477D01*
X59371263Y-109628907D01*
X59491058Y-109708951D01*
X59636649Y-109769257D01*
X59791207Y-109800000D01*
X59948793Y-109800000D01*
X60103351Y-109769257D01*
X60248942Y-109708951D01*
X60379970Y-109621401D01*
X60491401Y-109509970D01*
X60578951Y-109378942D01*
X60639257Y-109233351D01*
X60670000Y-109078793D01*
X60670000Y-108921207D01*
X60639257Y-108766649D01*
X60578951Y-108621058D01*
X60491401Y-108490030D01*
X60379970Y-108378599D01*
X60295000Y-108321824D01*
X60295000Y-107486041D01*
X61629937Y-108820978D01*
X61610000Y-108921207D01*
X61610000Y-109078793D01*
X61640743Y-109233351D01*
X61701049Y-109378942D01*
X61788599Y-109509970D01*
X61900030Y-109621401D01*
X62031058Y-109708951D01*
X62176649Y-109769257D01*
X62331207Y-109800000D01*
X62488793Y-109800000D01*
X62643351Y-109769257D01*
X62788942Y-109708951D01*
X62919970Y-109621401D01*
X63031401Y-109509970D01*
X63118951Y-109378942D01*
X63179257Y-109233351D01*
X63210000Y-109078793D01*
X63210000Y-108921207D01*
X63179257Y-108766649D01*
X63118951Y-108621058D01*
X63031401Y-108490030D01*
X62919970Y-108378599D01*
X62788942Y-108291049D01*
X62643351Y-108230743D01*
X62488793Y-108200000D01*
X62331207Y-108200000D01*
X62230978Y-108219937D01*
X46725284Y-92714244D01*
X46711974Y-92698026D01*
X46647260Y-92644916D01*
X46573427Y-92605452D01*
X46493314Y-92581150D01*
X46430874Y-92575000D01*
X46430867Y-92575000D01*
X46410000Y-92572945D01*
X46389133Y-92575000D01*
X41151451Y-92575000D01*
X41151451Y-92150000D01*
X41145659Y-92091190D01*
X41128504Y-92034640D01*
X41100647Y-91982523D01*
X41063158Y-91936842D01*
X41017477Y-91899353D01*
X40965360Y-91871496D01*
X40908810Y-91854341D01*
X40850000Y-91848549D01*
X39150000Y-91848549D01*
X39091190Y-91854341D01*
X39034640Y-91871496D01*
X38982523Y-91899353D01*
X38936842Y-91936842D01*
X38899353Y-91982523D01*
X38871496Y-92034640D01*
X38854341Y-92091190D01*
X38848549Y-92150000D01*
X24273957Y-92150000D01*
X24263158Y-92136842D01*
X24217477Y-92099353D01*
X24165360Y-92071496D01*
X24108810Y-92054341D01*
X24050000Y-92048549D01*
X22350000Y-92048549D01*
X22291190Y-92054341D01*
X22234640Y-92071496D01*
X22182523Y-92099353D01*
X22136842Y-92136842D01*
X22099353Y-92182523D01*
X22071496Y-92234640D01*
X22054341Y-92291190D01*
X22048549Y-92350000D01*
X13325000Y-92350000D01*
X13325000Y-85325000D01*
X110675000Y-85325000D01*
X110675001Y-155675000D01*
%TA.AperFunction,Conductor*%
G36*
X110675001Y-155675000D02*
G01*
X13325000Y-155675000D01*
X13325000Y-147222716D01*
X65120000Y-147222716D01*
X65120000Y-147577284D01*
X65189173Y-147925041D01*
X65324861Y-148252620D01*
X65521849Y-148547433D01*
X65772567Y-148798151D01*
X66067380Y-148995139D01*
X66394959Y-149130827D01*
X66742716Y-149200000D01*
X67097284Y-149200000D01*
X67445041Y-149130827D01*
X67772620Y-148995139D01*
X68067433Y-148798151D01*
X68318151Y-148547433D01*
X68515139Y-148252620D01*
X68650827Y-147925041D01*
X68720000Y-147577284D01*
X68720000Y-147222716D01*
X70200000Y-147222716D01*
X70200000Y-147577284D01*
X70269173Y-147925041D01*
X70404861Y-148252620D01*
X70601849Y-148547433D01*
X70852567Y-148798151D01*
X71147380Y-148995139D01*
X71474959Y-149130827D01*
X71822716Y-149200000D01*
X72177284Y-149200000D01*
X72525041Y-149130827D01*
X72852620Y-148995139D01*
X73147433Y-148798151D01*
X73398151Y-148547433D01*
X73595139Y-148252620D01*
X73730827Y-147925041D01*
X73800000Y-147577284D01*
X73800000Y-147222716D01*
X75280000Y-147222716D01*
X75280000Y-147577284D01*
X75349173Y-147925041D01*
X75484861Y-148252620D01*
X75681849Y-148547433D01*
X75932567Y-148798151D01*
X76227380Y-148995139D01*
X76554959Y-149130827D01*
X76902716Y-149200000D01*
X77257284Y-149200000D01*
X77605041Y-149130827D01*
X77932620Y-148995139D01*
X78227433Y-148798151D01*
X78478151Y-148547433D01*
X78675139Y-148252620D01*
X78810827Y-147925041D01*
X78880000Y-147577284D01*
X78880000Y-147222716D01*
X78810827Y-146874959D01*
X78675139Y-146547380D01*
X78478151Y-146252567D01*
X78227433Y-146001849D01*
X77932620Y-145804861D01*
X77605041Y-145669173D01*
X77257284Y-145600000D01*
X76902716Y-145600000D01*
X76554959Y-145669173D01*
X76227380Y-145804861D01*
X75932567Y-146001849D01*
X75681849Y-146252567D01*
X75484861Y-146547380D01*
X75349173Y-146874959D01*
X75280000Y-147222716D01*
X73800000Y-147222716D01*
X73730827Y-146874959D01*
X73595139Y-146547380D01*
X73398151Y-146252567D01*
X73147433Y-146001849D01*
X72852620Y-145804861D01*
X72525041Y-145669173D01*
X72177284Y-145600000D01*
X71822716Y-145600000D01*
X71474959Y-145669173D01*
X71147380Y-145804861D01*
X70852567Y-146001849D01*
X70601849Y-146252567D01*
X70404861Y-146547380D01*
X70269173Y-146874959D01*
X70200000Y-147222716D01*
X68720000Y-147222716D01*
X68650827Y-146874959D01*
X68515139Y-146547380D01*
X68318151Y-146252567D01*
X68067433Y-146001849D01*
X67772620Y-145804861D01*
X67445041Y-145669173D01*
X67097284Y-145600000D01*
X66742716Y-145600000D01*
X66394959Y-145669173D01*
X66067380Y-145804861D01*
X65772567Y-146001849D01*
X65521849Y-146252567D01*
X65324861Y-146547380D01*
X65189173Y-146874959D01*
X65120000Y-147222716D01*
X13325000Y-147222716D01*
X13325000Y-136283328D01*
X67250000Y-136283328D01*
X67250000Y-136456672D01*
X67283818Y-136626687D01*
X67350154Y-136786836D01*
X67446459Y-136930967D01*
X67569033Y-137053541D01*
X67713164Y-137149846D01*
X67873313Y-137216182D01*
X68043328Y-137250000D01*
X68216672Y-137250000D01*
X68386687Y-137216182D01*
X68546836Y-137149846D01*
X68690967Y-137053541D01*
X68813541Y-136930967D01*
X68909846Y-136786836D01*
X68976182Y-136626687D01*
X69010000Y-136456672D01*
X69010000Y-136283328D01*
X69790000Y-136283328D01*
X69790000Y-136456672D01*
X69823818Y-136626687D01*
X69890154Y-136786836D01*
X69986459Y-136930967D01*
X70109033Y-137053541D01*
X70253164Y-137149846D01*
X70413313Y-137216182D01*
X70583328Y-137250000D01*
X70756672Y-137250000D01*
X70926687Y-137216182D01*
X71086836Y-137149846D01*
X71230967Y-137053541D01*
X71353541Y-136930967D01*
X71449846Y-136786836D01*
X71516182Y-136626687D01*
X71550000Y-136456672D01*
X71550000Y-136283328D01*
X72330000Y-136283328D01*
X72330000Y-136456672D01*
X72363818Y-136626687D01*
X72430154Y-136786836D01*
X72526459Y-136930967D01*
X72649033Y-137053541D01*
X72793164Y-137149846D01*
X72953313Y-137216182D01*
X73123328Y-137250000D01*
X73296672Y-137250000D01*
X73466687Y-137216182D01*
X73626836Y-137149846D01*
X73770967Y-137053541D01*
X73893541Y-136930967D01*
X73989846Y-136786836D01*
X74056182Y-136626687D01*
X74090000Y-136456672D01*
X74090000Y-136283328D01*
X74056182Y-136113313D01*
X73989846Y-135953164D01*
X73893541Y-135809033D01*
X73770967Y-135686459D01*
X73626836Y-135590154D01*
X73466687Y-135523818D01*
X73296672Y-135490000D01*
X73123328Y-135490000D01*
X72953313Y-135523818D01*
X72793164Y-135590154D01*
X72649033Y-135686459D01*
X72526459Y-135809033D01*
X72430154Y-135953164D01*
X72363818Y-136113313D01*
X72330000Y-136283328D01*
X71550000Y-136283328D01*
X71516182Y-136113313D01*
X71449846Y-135953164D01*
X71353541Y-135809033D01*
X71230967Y-135686459D01*
X71086836Y-135590154D01*
X70926687Y-135523818D01*
X70756672Y-135490000D01*
X70583328Y-135490000D01*
X70413313Y-135523818D01*
X70253164Y-135590154D01*
X70109033Y-135686459D01*
X69986459Y-135809033D01*
X69890154Y-135953164D01*
X69823818Y-136113313D01*
X69790000Y-136283328D01*
X69010000Y-136283328D01*
X68976182Y-136113313D01*
X68909846Y-135953164D01*
X68813541Y-135809033D01*
X68690967Y-135686459D01*
X68546836Y-135590154D01*
X68386687Y-135523818D01*
X68216672Y-135490000D01*
X68043328Y-135490000D01*
X67873313Y-135523818D01*
X67713164Y-135590154D01*
X67569033Y-135686459D01*
X67446459Y-135809033D01*
X67350154Y-135953164D01*
X67283818Y-136113313D01*
X67250000Y-136283328D01*
X13325000Y-136283328D01*
X13325000Y-132046735D01*
X27450000Y-132046735D01*
X27450000Y-132273265D01*
X27494194Y-132495443D01*
X27580884Y-132704729D01*
X27706737Y-132893082D01*
X27866918Y-133053263D01*
X28055271Y-133179116D01*
X28264557Y-133265806D01*
X28486735Y-133310000D01*
X28713265Y-133310000D01*
X28935443Y-133265806D01*
X29144729Y-133179116D01*
X29333082Y-133053263D01*
X29493263Y-132893082D01*
X29619116Y-132704729D01*
X29705806Y-132495443D01*
X29750000Y-132273265D01*
X29750000Y-132046735D01*
X29745269Y-132022946D01*
X38710000Y-132022946D01*
X38710000Y-132277054D01*
X38759574Y-132526279D01*
X38856817Y-132761044D01*
X38997991Y-132972327D01*
X39177673Y-133152009D01*
X39388956Y-133293183D01*
X39623721Y-133390426D01*
X39797536Y-133425000D01*
X39623721Y-133459574D01*
X39388956Y-133556817D01*
X39177673Y-133697991D01*
X38997991Y-133877673D01*
X38856817Y-134088956D01*
X38759574Y-134323721D01*
X38710000Y-134572946D01*
X38710000Y-134827054D01*
X38759574Y-135076279D01*
X38856817Y-135311044D01*
X38997991Y-135522327D01*
X39177673Y-135702009D01*
X39388956Y-135843183D01*
X39623721Y-135940426D01*
X39872946Y-135990000D01*
X40127054Y-135990000D01*
X40376279Y-135940426D01*
X40611044Y-135843183D01*
X40822327Y-135702009D01*
X41002009Y-135522327D01*
X41143183Y-135311044D01*
X41240426Y-135076279D01*
X41290000Y-134827054D01*
X41290000Y-134572946D01*
X41240426Y-134323721D01*
X41143183Y-134088956D01*
X41002009Y-133877673D01*
X40822327Y-133697991D01*
X40611044Y-133556817D01*
X40376279Y-133459574D01*
X40202464Y-133425000D01*
X40376279Y-133390426D01*
X40611044Y-133293183D01*
X40822327Y-133152009D01*
X41002009Y-132972327D01*
X41143183Y-132761044D01*
X41240426Y-132526279D01*
X41290000Y-132277054D01*
X41290000Y-132022946D01*
X41240426Y-131773721D01*
X41143183Y-131538956D01*
X41002009Y-131327673D01*
X40822327Y-131147991D01*
X40611044Y-131006817D01*
X40376279Y-130909574D01*
X40127054Y-130860000D01*
X39872946Y-130860000D01*
X39623721Y-130909574D01*
X39388956Y-131006817D01*
X39177673Y-131147991D01*
X38997991Y-131327673D01*
X38856817Y-131538956D01*
X38759574Y-131773721D01*
X38710000Y-132022946D01*
X29745269Y-132022946D01*
X29705806Y-131824557D01*
X29619116Y-131615271D01*
X29493263Y-131426918D01*
X29333082Y-131266737D01*
X29144729Y-131140884D01*
X28935443Y-131054194D01*
X28713265Y-131010000D01*
X28486735Y-131010000D01*
X28264557Y-131054194D01*
X28055271Y-131140884D01*
X27866918Y-131266737D01*
X27706737Y-131426918D01*
X27580884Y-131615271D01*
X27494194Y-131824557D01*
X27450000Y-132046735D01*
X13325000Y-132046735D01*
X13325000Y-126966735D01*
X27450000Y-126966735D01*
X27450000Y-127193265D01*
X27494194Y-127415443D01*
X27580884Y-127624729D01*
X27706737Y-127813082D01*
X27866918Y-127973263D01*
X28055271Y-128099116D01*
X28264557Y-128185806D01*
X28486735Y-128230000D01*
X28713265Y-128230000D01*
X28935443Y-128185806D01*
X29144729Y-128099116D01*
X29333082Y-127973263D01*
X29426345Y-127880000D01*
X40388632Y-127880000D01*
X43446533Y-130937902D01*
X43471580Y-130968422D01*
X43502100Y-130993469D01*
X43593395Y-131068393D01*
X43729016Y-131140884D01*
X43732374Y-131142679D01*
X43883175Y-131188424D01*
X44000709Y-131200000D01*
X44000710Y-131200000D01*
X44040001Y-131203870D01*
X44079292Y-131200000D01*
X75839293Y-131200000D01*
X75956827Y-131188424D01*
X76107628Y-131142679D01*
X76246606Y-131068393D01*
X76368422Y-130968422D01*
X76468393Y-130846606D01*
X76542679Y-130707628D01*
X76588424Y-130556827D01*
X76603870Y-130400000D01*
X76594490Y-130304760D01*
X81724990Y-135435260D01*
X81724991Y-139929113D01*
X81722935Y-139949990D01*
X81731140Y-140033304D01*
X81755443Y-140113417D01*
X81794907Y-140187250D01*
X81848017Y-140251964D01*
X81864229Y-140265269D01*
X82904980Y-141306021D01*
X82900000Y-141331056D01*
X82900000Y-141468944D01*
X82926901Y-141604182D01*
X82979668Y-141731574D01*
X83056274Y-141846224D01*
X83153776Y-141943726D01*
X83268426Y-142020332D01*
X83395818Y-142073099D01*
X83531056Y-142100000D01*
X83668944Y-142100000D01*
X83804182Y-142073099D01*
X83931574Y-142020332D01*
X84046224Y-141943726D01*
X84143726Y-141846224D01*
X84220332Y-141731574D01*
X84273099Y-141604182D01*
X84300000Y-141468944D01*
X84300000Y-141331056D01*
X84273099Y-141195818D01*
X84220332Y-141068426D01*
X84143726Y-140953776D01*
X84046224Y-140856274D01*
X83931574Y-140779668D01*
X83804182Y-140726901D01*
X83668944Y-140700000D01*
X83531056Y-140700000D01*
X83506021Y-140704980D01*
X82574990Y-139773950D01*
X82574990Y-138176030D01*
X82904980Y-138506020D01*
X82900000Y-138531056D01*
X82900000Y-138668944D01*
X82926901Y-138804182D01*
X82979668Y-138931574D01*
X83056274Y-139046224D01*
X83153776Y-139143726D01*
X83268426Y-139220332D01*
X83395818Y-139273099D01*
X83531056Y-139300000D01*
X83668944Y-139300000D01*
X83804182Y-139273099D01*
X83931574Y-139220332D01*
X84046224Y-139143726D01*
X84143726Y-139046224D01*
X84220332Y-138931574D01*
X84273099Y-138804182D01*
X84300000Y-138668944D01*
X84300000Y-138531056D01*
X84273099Y-138395818D01*
X84220332Y-138268426D01*
X84143726Y-138153776D01*
X84046224Y-138056274D01*
X83931574Y-137979668D01*
X83804182Y-137926901D01*
X83668944Y-137900000D01*
X83531056Y-137900000D01*
X83506020Y-137904980D01*
X83025000Y-137423960D01*
X83025000Y-136199419D01*
X83056274Y-136246224D01*
X83153776Y-136343726D01*
X83268426Y-136420332D01*
X83395818Y-136473099D01*
X83531056Y-136500000D01*
X83668944Y-136500000D01*
X83804182Y-136473099D01*
X83931574Y-136420332D01*
X84046224Y-136343726D01*
X84143726Y-136246224D01*
X84220332Y-136131574D01*
X84273099Y-136004182D01*
X84300000Y-135868944D01*
X84300000Y-135731056D01*
X84273099Y-135595818D01*
X84220332Y-135468426D01*
X84143726Y-135353776D01*
X84046224Y-135256274D01*
X83948227Y-135190795D01*
X83921530Y-135158265D01*
X83915280Y-135150649D01*
X83915279Y-135150648D01*
X83901974Y-135134436D01*
X83885763Y-135121132D01*
X82189631Y-133425000D01*
X83042093Y-133425000D01*
X83056274Y-133446224D01*
X83153776Y-133543726D01*
X83268426Y-133620332D01*
X83395818Y-133673099D01*
X83531056Y-133700000D01*
X83668944Y-133700000D01*
X83804182Y-133673099D01*
X83931574Y-133620332D01*
X84046224Y-133543726D01*
X84143726Y-133446224D01*
X84220332Y-133331574D01*
X84273099Y-133204182D01*
X84300000Y-133068944D01*
X84300000Y-132931056D01*
X84273099Y-132795818D01*
X84220332Y-132668426D01*
X84143726Y-132553776D01*
X84046224Y-132456274D01*
X83931574Y-132379668D01*
X83804182Y-132326901D01*
X83668944Y-132300000D01*
X83531056Y-132300000D01*
X83395818Y-132326901D01*
X83268426Y-132379668D01*
X83153776Y-132456274D01*
X83056274Y-132553776D01*
X83042093Y-132575000D01*
X81976041Y-132575000D01*
X74695020Y-125293980D01*
X74700000Y-125268944D01*
X74700000Y-125131056D01*
X74692547Y-125093588D01*
X75219722Y-125620763D01*
X75233027Y-125636975D01*
X75249239Y-125650280D01*
X75249240Y-125650281D01*
X75273951Y-125670561D01*
X75297741Y-125690085D01*
X75371574Y-125729549D01*
X75427384Y-125746479D01*
X75451686Y-125753851D01*
X75460099Y-125754680D01*
X75514127Y-125760001D01*
X75514133Y-125760001D01*
X75535000Y-125762056D01*
X75555867Y-125760001D01*
X86143134Y-125760001D01*
X86164001Y-125762056D01*
X86184868Y-125760001D01*
X86184875Y-125760001D01*
X86247315Y-125753851D01*
X86327428Y-125729549D01*
X86401261Y-125690085D01*
X86465975Y-125636975D01*
X86479285Y-125620757D01*
X91913985Y-120186057D01*
X92444999Y-120186057D01*
X92444999Y-120323945D01*
X92471900Y-120459183D01*
X92524667Y-120586575D01*
X92601273Y-120701225D01*
X92698775Y-120798727D01*
X92813425Y-120875333D01*
X92940817Y-120928100D01*
X93076055Y-120955001D01*
X93213943Y-120955001D01*
X93349181Y-120928100D01*
X93476573Y-120875333D01*
X93591223Y-120798727D01*
X93688725Y-120701225D01*
X93702906Y-120680001D01*
X95787092Y-120680001D01*
X95801273Y-120701225D01*
X95898775Y-120798727D01*
X96013425Y-120875333D01*
X96140817Y-120928100D01*
X96276055Y-120955001D01*
X96413943Y-120955001D01*
X96549181Y-120928100D01*
X96676573Y-120875333D01*
X96791223Y-120798727D01*
X96888725Y-120701225D01*
X96965331Y-120586575D01*
X97018098Y-120459183D01*
X97044999Y-120323945D01*
X97044999Y-120186057D01*
X97018098Y-120050819D01*
X96965331Y-119923427D01*
X96888725Y-119808777D01*
X96791223Y-119711275D01*
X96676573Y-119634669D01*
X96549181Y-119581902D01*
X96413943Y-119555001D01*
X96276055Y-119555001D01*
X96140817Y-119581902D01*
X96013425Y-119634669D01*
X95898775Y-119711275D01*
X95801273Y-119808777D01*
X95787092Y-119830001D01*
X93702906Y-119830001D01*
X93688725Y-119808777D01*
X93591223Y-119711275D01*
X93476573Y-119634669D01*
X93349181Y-119581902D01*
X93213943Y-119555001D01*
X93076055Y-119555001D01*
X92940817Y-119581902D01*
X92813425Y-119634669D01*
X92698775Y-119711275D01*
X92601273Y-119808777D01*
X92524667Y-119923427D01*
X92471900Y-120050819D01*
X92444999Y-120186057D01*
X91913985Y-120186057D01*
X93485763Y-118614280D01*
X93501974Y-118600976D01*
X93555084Y-118536262D01*
X93594548Y-118462429D01*
X93618850Y-118382316D01*
X93625000Y-118319876D01*
X93625000Y-118319870D01*
X93627055Y-118299003D01*
X93625000Y-118278136D01*
X93625000Y-111828710D01*
X93744729Y-111779116D01*
X93933082Y-111653263D01*
X94093263Y-111493082D01*
X94219116Y-111304729D01*
X94305806Y-111095443D01*
X94350000Y-110873265D01*
X94350000Y-110646735D01*
X94305806Y-110424557D01*
X94219116Y-110215271D01*
X94093263Y-110026918D01*
X93933082Y-109866737D01*
X93744729Y-109740884D01*
X93535443Y-109654194D01*
X93313265Y-109610000D01*
X93086735Y-109610000D01*
X92864557Y-109654194D01*
X92655271Y-109740884D01*
X92466918Y-109866737D01*
X92306737Y-110026918D01*
X92180884Y-110215271D01*
X92094194Y-110424557D01*
X92050000Y-110646735D01*
X92050000Y-110873265D01*
X92094194Y-111095443D01*
X92180884Y-111304729D01*
X92306737Y-111493082D01*
X92466918Y-111653263D01*
X92655271Y-111779116D01*
X92775001Y-111828710D01*
X92775000Y-118122961D01*
X86750000Y-124147962D01*
X86750000Y-124046735D01*
X86705806Y-123824557D01*
X86619116Y-123615271D01*
X86493263Y-123426918D01*
X86333082Y-123266737D01*
X86144729Y-123140884D01*
X85935443Y-123054194D01*
X85713265Y-123010000D01*
X85581371Y-123010000D01*
X76502427Y-113931056D01*
X80300000Y-113931056D01*
X80300000Y-114068944D01*
X80326901Y-114204182D01*
X80379668Y-114331574D01*
X80456274Y-114446224D01*
X80553776Y-114543726D01*
X80668426Y-114620332D01*
X80795818Y-114673099D01*
X80931056Y-114700000D01*
X81068944Y-114700000D01*
X81204182Y-114673099D01*
X81331574Y-114620332D01*
X81446224Y-114543726D01*
X81543726Y-114446224D01*
X81620332Y-114331574D01*
X81673099Y-114204182D01*
X81700000Y-114068944D01*
X81700000Y-113931056D01*
X81695020Y-113906020D01*
X82451040Y-113150000D01*
X84448549Y-113150000D01*
X84448549Y-114850000D01*
X84454341Y-114908810D01*
X84471496Y-114965360D01*
X84499353Y-115017477D01*
X84536842Y-115063158D01*
X84582523Y-115100647D01*
X84634640Y-115128504D01*
X84691190Y-115145659D01*
X84750000Y-115151451D01*
X86387509Y-115151451D01*
X86055172Y-115483788D01*
X85935443Y-115434194D01*
X85713265Y-115390000D01*
X85486735Y-115390000D01*
X85264557Y-115434194D01*
X85055271Y-115520884D01*
X84866918Y-115646737D01*
X84706737Y-115806918D01*
X84580884Y-115995271D01*
X84494194Y-116204557D01*
X84450000Y-116426735D01*
X84450000Y-116653265D01*
X84494194Y-116875443D01*
X84580884Y-117084729D01*
X84706737Y-117273082D01*
X84866918Y-117433263D01*
X85055271Y-117559116D01*
X85264557Y-117645806D01*
X85486735Y-117690000D01*
X85587962Y-117690000D01*
X85314239Y-117963723D01*
X85313292Y-117964500D01*
X85264557Y-117974194D01*
X85055271Y-118060884D01*
X84866918Y-118186737D01*
X84706737Y-118346918D01*
X84580884Y-118535271D01*
X84494194Y-118744557D01*
X84450000Y-118966735D01*
X84450000Y-119193265D01*
X84494194Y-119415443D01*
X84580884Y-119624729D01*
X84706737Y-119813082D01*
X84866918Y-119973263D01*
X85055271Y-120099116D01*
X85264557Y-120185806D01*
X85486735Y-120230000D01*
X85713265Y-120230000D01*
X85935443Y-120185806D01*
X86144729Y-120099116D01*
X86333082Y-119973263D01*
X86493263Y-119813082D01*
X86619116Y-119624729D01*
X86705806Y-119415443D01*
X86750000Y-119193265D01*
X86750000Y-118966735D01*
X86705806Y-118744557D01*
X86619116Y-118535271D01*
X86493263Y-118346918D01*
X86333082Y-118186737D01*
X86309237Y-118170805D01*
X89685758Y-114794284D01*
X89701974Y-114780976D01*
X89755084Y-114716262D01*
X89794548Y-114642429D01*
X89818850Y-114562316D01*
X89825000Y-114499876D01*
X89825000Y-114499875D01*
X89827056Y-114479002D01*
X89825000Y-114458128D01*
X89825000Y-108106735D01*
X92050000Y-108106735D01*
X92050000Y-108333265D01*
X92094194Y-108555443D01*
X92180884Y-108764729D01*
X92306737Y-108953082D01*
X92466918Y-109113263D01*
X92655271Y-109239116D01*
X92864557Y-109325806D01*
X93086735Y-109370000D01*
X93313265Y-109370000D01*
X93535443Y-109325806D01*
X93744729Y-109239116D01*
X93933082Y-109113263D01*
X94093263Y-108953082D01*
X94219116Y-108764729D01*
X94305806Y-108555443D01*
X94350000Y-108333265D01*
X94350000Y-108106735D01*
X94305806Y-107884557D01*
X94219116Y-107675271D01*
X94093263Y-107486918D01*
X93933082Y-107326737D01*
X93744729Y-107200884D01*
X93535443Y-107114194D01*
X93313265Y-107070000D01*
X93086735Y-107070000D01*
X92864557Y-107114194D01*
X92655271Y-107200884D01*
X92466918Y-107326737D01*
X92306737Y-107486918D01*
X92180884Y-107675271D01*
X92094194Y-107884557D01*
X92050000Y-108106735D01*
X89825000Y-108106735D01*
X89825000Y-106951451D01*
X90250000Y-106951451D01*
X90308810Y-106945659D01*
X90365360Y-106928504D01*
X90417477Y-106900647D01*
X90463158Y-106863158D01*
X90500647Y-106817477D01*
X90528504Y-106765360D01*
X90545659Y-106708810D01*
X90551451Y-106650000D01*
X90551451Y-105566735D01*
X92050000Y-105566735D01*
X92050000Y-105793265D01*
X92094194Y-106015443D01*
X92180884Y-106224729D01*
X92306737Y-106413082D01*
X92466918Y-106573263D01*
X92655271Y-106699116D01*
X92864557Y-106785806D01*
X93086735Y-106830000D01*
X93313265Y-106830000D01*
X93535443Y-106785806D01*
X93744729Y-106699116D01*
X93933082Y-106573263D01*
X94093263Y-106413082D01*
X94219116Y-106224729D01*
X94305806Y-106015443D01*
X94350000Y-105793265D01*
X94350000Y-105566735D01*
X94305806Y-105344557D01*
X94219116Y-105135271D01*
X94093263Y-104946918D01*
X93933082Y-104786737D01*
X93744729Y-104660884D01*
X93535443Y-104574194D01*
X93313265Y-104530000D01*
X93086735Y-104530000D01*
X92864557Y-104574194D01*
X92655271Y-104660884D01*
X92466918Y-104786737D01*
X92306737Y-104946918D01*
X92180884Y-105135271D01*
X92094194Y-105344557D01*
X92050000Y-105566735D01*
X90551451Y-105566735D01*
X90551451Y-104950000D01*
X90545659Y-104891190D01*
X90528504Y-104834640D01*
X90500647Y-104782523D01*
X90463158Y-104736842D01*
X90417477Y-104699353D01*
X90365360Y-104671496D01*
X90308810Y-104654341D01*
X90250000Y-104648549D01*
X88649999Y-104648549D01*
X88649999Y-104611041D01*
X88944828Y-104316212D01*
X89064557Y-104365806D01*
X89286735Y-104410000D01*
X89513265Y-104410000D01*
X89735443Y-104365806D01*
X89944729Y-104279116D01*
X90133082Y-104153263D01*
X90293263Y-103993082D01*
X90419116Y-103804729D01*
X90505806Y-103595443D01*
X90550000Y-103373265D01*
X90550000Y-103146735D01*
X90526131Y-103026735D01*
X92050000Y-103026735D01*
X92050000Y-103253265D01*
X92094194Y-103475443D01*
X92180884Y-103684729D01*
X92306737Y-103873082D01*
X92466918Y-104033263D01*
X92655271Y-104159116D01*
X92864557Y-104245806D01*
X93086735Y-104290000D01*
X93313265Y-104290000D01*
X93535443Y-104245806D01*
X93744729Y-104159116D01*
X93933082Y-104033263D01*
X94093263Y-103873082D01*
X94219116Y-103684729D01*
X94305806Y-103475443D01*
X94350000Y-103253265D01*
X94350000Y-103026735D01*
X94305806Y-102804557D01*
X94219116Y-102595271D01*
X94093263Y-102406918D01*
X93933082Y-102246737D01*
X93744729Y-102120884D01*
X93535443Y-102034194D01*
X93313265Y-101990000D01*
X93086735Y-101990000D01*
X92864557Y-102034194D01*
X92655271Y-102120884D01*
X92466918Y-102246737D01*
X92306737Y-102406918D01*
X92180884Y-102595271D01*
X92094194Y-102804557D01*
X92050000Y-103026735D01*
X90526131Y-103026735D01*
X90505806Y-102924557D01*
X90419116Y-102715271D01*
X90293263Y-102526918D01*
X90133082Y-102366737D01*
X89944729Y-102240884D01*
X89735443Y-102154194D01*
X89513265Y-102110000D01*
X89286735Y-102110000D01*
X89064557Y-102154194D01*
X88855271Y-102240884D01*
X88666918Y-102366737D01*
X88506737Y-102526918D01*
X88380884Y-102715271D01*
X88294194Y-102924557D01*
X88250000Y-103146735D01*
X88250000Y-103373265D01*
X88294194Y-103595443D01*
X88343788Y-103715172D01*
X87939238Y-104119722D01*
X87923026Y-104133027D01*
X87909721Y-104149239D01*
X87909719Y-104149241D01*
X87901615Y-104159116D01*
X87869916Y-104197741D01*
X87844225Y-104245806D01*
X87830452Y-104271574D01*
X87806149Y-104351687D01*
X87797944Y-104435001D01*
X87800000Y-104455878D01*
X87799999Y-113738960D01*
X86751451Y-114787508D01*
X86751451Y-113150000D01*
X86745659Y-113091190D01*
X86728504Y-113034640D01*
X86700647Y-112982523D01*
X86663158Y-112936842D01*
X86617477Y-112899353D01*
X86565360Y-112871496D01*
X86508810Y-112854341D01*
X86450000Y-112848549D01*
X84750000Y-112848549D01*
X84691190Y-112854341D01*
X84634640Y-112871496D01*
X84582523Y-112899353D01*
X84536842Y-112936842D01*
X84499353Y-112982523D01*
X84471496Y-113034640D01*
X84454341Y-113091190D01*
X84448549Y-113150000D01*
X82451040Y-113150000D01*
X83285762Y-112315279D01*
X83301974Y-112301974D01*
X83355084Y-112237260D01*
X83394548Y-112163427D01*
X83418850Y-112083314D01*
X83425000Y-112020874D01*
X83425000Y-112020868D01*
X83427055Y-112000001D01*
X83425000Y-111979134D01*
X83425000Y-108150866D01*
X83427055Y-108129999D01*
X83425000Y-108109132D01*
X83425000Y-108109126D01*
X83418850Y-108046686D01*
X83394548Y-107966573D01*
X83355084Y-107892740D01*
X83301974Y-107828026D01*
X83285763Y-107814722D01*
X83001040Y-107530000D01*
X85085758Y-105445282D01*
X85101974Y-105431974D01*
X85155084Y-105367260D01*
X85194548Y-105293427D01*
X85218850Y-105213314D01*
X85225000Y-105150874D01*
X85225000Y-105150873D01*
X85227056Y-105130000D01*
X85225000Y-105109126D01*
X85225000Y-102551451D01*
X85650000Y-102551451D01*
X85708810Y-102545659D01*
X85765360Y-102528504D01*
X85817477Y-102500647D01*
X85863158Y-102463158D01*
X85900647Y-102417477D01*
X85928504Y-102365360D01*
X85945659Y-102308810D01*
X85951451Y-102250000D01*
X85951451Y-100550000D01*
X85945659Y-100491190D01*
X85928504Y-100434640D01*
X85900647Y-100382523D01*
X85863158Y-100336842D01*
X85817477Y-100299353D01*
X85765360Y-100271496D01*
X85708810Y-100254341D01*
X85650000Y-100248549D01*
X83950000Y-100248549D01*
X83891190Y-100254341D01*
X83834640Y-100271496D01*
X83782523Y-100299353D01*
X83736842Y-100336842D01*
X83699353Y-100382523D01*
X83671496Y-100434640D01*
X83654341Y-100491190D01*
X83648549Y-100550000D01*
X83648549Y-102250000D01*
X83654341Y-102308810D01*
X83671496Y-102365360D01*
X83699353Y-102417477D01*
X83736842Y-102463158D01*
X83782523Y-102500647D01*
X83834640Y-102528504D01*
X83891190Y-102545659D01*
X83950000Y-102551451D01*
X84375001Y-102551451D01*
X84375000Y-104953960D01*
X82289599Y-107039361D01*
X82211185Y-106943815D01*
X82151704Y-106895000D01*
X82211185Y-106846185D01*
X82314281Y-106720563D01*
X82390888Y-106577241D01*
X82438062Y-106421728D01*
X82453991Y-106260000D01*
X82438062Y-106098272D01*
X82390888Y-105942759D01*
X82314281Y-105799437D01*
X82211185Y-105673815D01*
X82085563Y-105570719D01*
X81942241Y-105494112D01*
X81786728Y-105446938D01*
X81665521Y-105435000D01*
X81134479Y-105435000D01*
X81013272Y-105446938D01*
X80857759Y-105494112D01*
X80714437Y-105570719D01*
X80588815Y-105673815D01*
X80485719Y-105799437D01*
X80409112Y-105942759D01*
X80361938Y-106098272D01*
X80346009Y-106260000D01*
X80361938Y-106421728D01*
X80409112Y-106577241D01*
X80485719Y-106720563D01*
X80588815Y-106846185D01*
X80648296Y-106895000D01*
X80588815Y-106943815D01*
X80485719Y-107069437D01*
X80409112Y-107212759D01*
X80361938Y-107368272D01*
X80346009Y-107530000D01*
X80361938Y-107691728D01*
X80409112Y-107847241D01*
X80485719Y-107990563D01*
X80588815Y-108116185D01*
X80714437Y-108219281D01*
X80857759Y-108295888D01*
X81013272Y-108343062D01*
X81134479Y-108355000D01*
X81665521Y-108355000D01*
X81786728Y-108343062D01*
X81942241Y-108295888D01*
X82085563Y-108219281D01*
X82211185Y-108116185D01*
X82289598Y-108020639D01*
X82575000Y-108306041D01*
X82575001Y-111823958D01*
X81093980Y-113304980D01*
X81068944Y-113300000D01*
X80931056Y-113300000D01*
X80795818Y-113326901D01*
X80668426Y-113379668D01*
X80553776Y-113456274D01*
X80456274Y-113553776D01*
X80379668Y-113668426D01*
X80326901Y-113795818D01*
X80300000Y-113931056D01*
X76502427Y-113931056D01*
X70261371Y-107690000D01*
X73048549Y-107690000D01*
X73048549Y-109390000D01*
X73054341Y-109448810D01*
X73071496Y-109505360D01*
X73099353Y-109557477D01*
X73136842Y-109603158D01*
X73182523Y-109640647D01*
X73234640Y-109668504D01*
X73291190Y-109685659D01*
X73350000Y-109691451D01*
X75050000Y-109691451D01*
X75108810Y-109685659D01*
X75165360Y-109668504D01*
X75217477Y-109640647D01*
X75263158Y-109603158D01*
X75300647Y-109557477D01*
X75328504Y-109505360D01*
X75345659Y-109448810D01*
X75351451Y-109390000D01*
X75351451Y-107690000D01*
X75345659Y-107631190D01*
X75328504Y-107574640D01*
X75300647Y-107522523D01*
X75263158Y-107476842D01*
X75217477Y-107439353D01*
X75165360Y-107411496D01*
X75108810Y-107394341D01*
X75050000Y-107388549D01*
X73350000Y-107388549D01*
X73291190Y-107394341D01*
X73234640Y-107411496D01*
X73182523Y-107439353D01*
X73136842Y-107476842D01*
X73099353Y-107522523D01*
X73071496Y-107574640D01*
X73054341Y-107631190D01*
X73048549Y-107690000D01*
X70261371Y-107690000D01*
X68458106Y-105886735D01*
X73050000Y-105886735D01*
X73050000Y-106113265D01*
X73094194Y-106335443D01*
X73180884Y-106544729D01*
X73306737Y-106733082D01*
X73466918Y-106893263D01*
X73655271Y-107019116D01*
X73864557Y-107105806D01*
X74086735Y-107150000D01*
X74313265Y-107150000D01*
X74535443Y-107105806D01*
X74744729Y-107019116D01*
X74933082Y-106893263D01*
X75093263Y-106733082D01*
X75219116Y-106544729D01*
X75305806Y-106335443D01*
X75350000Y-106113265D01*
X75350000Y-105886735D01*
X75305806Y-105664557D01*
X75219116Y-105455271D01*
X75093263Y-105266918D01*
X74933082Y-105106737D01*
X74744729Y-104980884D01*
X74535443Y-104894194D01*
X74313265Y-104850000D01*
X74086735Y-104850000D01*
X73864557Y-104894194D01*
X73655271Y-104980884D01*
X73466918Y-105106737D01*
X73306737Y-105266918D01*
X73180884Y-105455271D01*
X73094194Y-105664557D01*
X73050000Y-105886735D01*
X68458106Y-105886735D01*
X63200000Y-100628630D01*
X63200000Y-98751451D01*
X63250000Y-98751451D01*
X63308810Y-98745659D01*
X63365360Y-98728504D01*
X63417477Y-98700647D01*
X63463158Y-98663158D01*
X63500647Y-98617477D01*
X63528504Y-98565360D01*
X63545659Y-98508810D01*
X63551451Y-98450000D01*
X63551451Y-97486735D01*
X66330000Y-97486735D01*
X66330000Y-97713265D01*
X66374194Y-97935443D01*
X66460884Y-98144729D01*
X66586737Y-98333082D01*
X66746918Y-98493263D01*
X66935271Y-98619116D01*
X67144557Y-98705806D01*
X67366735Y-98750000D01*
X67593265Y-98750000D01*
X67815443Y-98705806D01*
X68024729Y-98619116D01*
X68213082Y-98493263D01*
X68373263Y-98333082D01*
X68499116Y-98144729D01*
X68585806Y-97935443D01*
X68630000Y-97713265D01*
X68630000Y-97486735D01*
X71410000Y-97486735D01*
X71410000Y-97713265D01*
X71454194Y-97935443D01*
X71540884Y-98144729D01*
X71666737Y-98333082D01*
X71826918Y-98493263D01*
X72015271Y-98619116D01*
X72224557Y-98705806D01*
X72446735Y-98750000D01*
X72673265Y-98750000D01*
X72895443Y-98705806D01*
X73104729Y-98619116D01*
X73293082Y-98493263D01*
X73453263Y-98333082D01*
X73579116Y-98144729D01*
X73665806Y-97935443D01*
X73710000Y-97713265D01*
X73710000Y-97486735D01*
X73950000Y-97486735D01*
X73950000Y-97713265D01*
X73994194Y-97935443D01*
X74080884Y-98144729D01*
X74206737Y-98333082D01*
X74366918Y-98493263D01*
X74555271Y-98619116D01*
X74764557Y-98705806D01*
X74986735Y-98750000D01*
X75213265Y-98750000D01*
X75435443Y-98705806D01*
X75644729Y-98619116D01*
X75833082Y-98493263D01*
X75993263Y-98333082D01*
X76119116Y-98144729D01*
X76205806Y-97935443D01*
X76250000Y-97713265D01*
X76250000Y-97486735D01*
X79030000Y-97486735D01*
X79030000Y-97713265D01*
X79074194Y-97935443D01*
X79160884Y-98144729D01*
X79286737Y-98333082D01*
X79446918Y-98493263D01*
X79635271Y-98619116D01*
X79844557Y-98705806D01*
X80066735Y-98750000D01*
X80293265Y-98750000D01*
X80515443Y-98705806D01*
X80724729Y-98619116D01*
X80913082Y-98493263D01*
X81073263Y-98333082D01*
X81199116Y-98144729D01*
X81285806Y-97935443D01*
X81330000Y-97713265D01*
X81330000Y-97486735D01*
X81285806Y-97264557D01*
X81236212Y-97144828D01*
X81825762Y-96555279D01*
X81841974Y-96541974D01*
X81895084Y-96477260D01*
X81934548Y-96403427D01*
X81958850Y-96323314D01*
X81965000Y-96260874D01*
X81965000Y-96260868D01*
X81967055Y-96240001D01*
X81965000Y-96219134D01*
X81965000Y-90068710D01*
X82084729Y-90019116D01*
X82273082Y-89893263D01*
X82433263Y-89733082D01*
X82559116Y-89544729D01*
X82645806Y-89335443D01*
X82690000Y-89113265D01*
X82690000Y-88886735D01*
X82645806Y-88664557D01*
X82559116Y-88455271D01*
X82433263Y-88266918D01*
X82273082Y-88106737D01*
X82084729Y-87980884D01*
X81875443Y-87894194D01*
X81653265Y-87850000D01*
X81426735Y-87850000D01*
X81204557Y-87894194D01*
X80995271Y-87980884D01*
X80806918Y-88106737D01*
X80646737Y-88266918D01*
X80520884Y-88455271D01*
X80434194Y-88664557D01*
X80390000Y-88886735D01*
X80390000Y-89113265D01*
X80434194Y-89335443D01*
X80520884Y-89544729D01*
X80646737Y-89733082D01*
X80806918Y-89893263D01*
X80995271Y-90019116D01*
X81115000Y-90068710D01*
X81115001Y-96063958D01*
X80635172Y-96543788D01*
X80515443Y-96494194D01*
X80293265Y-96450000D01*
X80066735Y-96450000D01*
X79844557Y-96494194D01*
X79635271Y-96580884D01*
X79446918Y-96706737D01*
X79286737Y-96866918D01*
X79160884Y-97055271D01*
X79074194Y-97264557D01*
X79030000Y-97486735D01*
X76250000Y-97486735D01*
X76205806Y-97264557D01*
X76156212Y-97144828D01*
X79285762Y-94015279D01*
X79301974Y-94001974D01*
X79355084Y-93937260D01*
X79394548Y-93863427D01*
X79418850Y-93783314D01*
X79425000Y-93720874D01*
X79425000Y-93720867D01*
X79427055Y-93700000D01*
X79425000Y-93679133D01*
X79425000Y-90151451D01*
X79850000Y-90151451D01*
X79908810Y-90145659D01*
X79965360Y-90128504D01*
X80017477Y-90100647D01*
X80063158Y-90063158D01*
X80100647Y-90017477D01*
X80128504Y-89965360D01*
X80145659Y-89908810D01*
X80151451Y-89850000D01*
X80151451Y-88150000D01*
X80145659Y-88091190D01*
X80128504Y-88034640D01*
X80100647Y-87982523D01*
X80063158Y-87936842D01*
X80017477Y-87899353D01*
X79965360Y-87871496D01*
X79908810Y-87854341D01*
X79850000Y-87848549D01*
X78150000Y-87848549D01*
X78091190Y-87854341D01*
X78034640Y-87871496D01*
X77982523Y-87899353D01*
X77936842Y-87936842D01*
X77899353Y-87982523D01*
X77871496Y-88034640D01*
X77854341Y-88091190D01*
X77848549Y-88150000D01*
X77848549Y-89850000D01*
X77854341Y-89908810D01*
X77871496Y-89965360D01*
X77899353Y-90017477D01*
X77936842Y-90063158D01*
X77982523Y-90100647D01*
X78034640Y-90128504D01*
X78091190Y-90145659D01*
X78150000Y-90151451D01*
X78575000Y-90151451D01*
X78575001Y-93523958D01*
X75555172Y-96543788D01*
X75435443Y-96494194D01*
X75213265Y-96450000D01*
X74986735Y-96450000D01*
X74764557Y-96494194D01*
X74555271Y-96580884D01*
X74366918Y-96706737D01*
X74206737Y-96866918D01*
X74080884Y-97055271D01*
X73994194Y-97264557D01*
X73950000Y-97486735D01*
X73710000Y-97486735D01*
X73665806Y-97264557D01*
X73579116Y-97055271D01*
X73453263Y-96866918D01*
X73293082Y-96706737D01*
X73104729Y-96580884D01*
X72895443Y-96494194D01*
X72673265Y-96450000D01*
X72446735Y-96450000D01*
X72224557Y-96494194D01*
X72015271Y-96580884D01*
X71826918Y-96706737D01*
X71666737Y-96866918D01*
X71540884Y-97055271D01*
X71454194Y-97264557D01*
X71410000Y-97486735D01*
X68630000Y-97486735D01*
X68585806Y-97264557D01*
X68499116Y-97055271D01*
X68373263Y-96866918D01*
X68213082Y-96706737D01*
X68024729Y-96580884D01*
X67815443Y-96494194D01*
X67593265Y-96450000D01*
X67366735Y-96450000D01*
X67144557Y-96494194D01*
X66935271Y-96580884D01*
X66746918Y-96706737D01*
X66586737Y-96866918D01*
X66460884Y-97055271D01*
X66374194Y-97264557D01*
X66330000Y-97486735D01*
X63551451Y-97486735D01*
X63551451Y-96750000D01*
X63545659Y-96691190D01*
X63528504Y-96634640D01*
X63500647Y-96582523D01*
X63463158Y-96536842D01*
X63417477Y-96499353D01*
X63365360Y-96471496D01*
X63308810Y-96454341D01*
X63250000Y-96448549D01*
X61550000Y-96448549D01*
X61491190Y-96454341D01*
X61434640Y-96471496D01*
X61382523Y-96499353D01*
X61336842Y-96536842D01*
X61299353Y-96582523D01*
X61271496Y-96634640D01*
X61254341Y-96691190D01*
X61248549Y-96750000D01*
X61248549Y-98450000D01*
X61254341Y-98508810D01*
X61271496Y-98565360D01*
X61299353Y-98617477D01*
X61336842Y-98663158D01*
X61382523Y-98700647D01*
X61434640Y-98728504D01*
X61491190Y-98745659D01*
X61550000Y-98751451D01*
X61600001Y-98751451D01*
X61600000Y-100920709D01*
X61596130Y-100960000D01*
X61600000Y-100999291D01*
X61600000Y-100999292D01*
X61611576Y-101116826D01*
X61657321Y-101267627D01*
X61731607Y-101406606D01*
X61758309Y-101439142D01*
X61831578Y-101528422D01*
X61862103Y-101553473D01*
X84450000Y-124141371D01*
X84450000Y-124273265D01*
X84494194Y-124495443D01*
X84580884Y-124704729D01*
X84706737Y-124893082D01*
X84723656Y-124910001D01*
X75711042Y-124910001D01*
X68495020Y-117693980D01*
X68500000Y-117668944D01*
X68500000Y-117531056D01*
X68473099Y-117395818D01*
X68420332Y-117268426D01*
X68343726Y-117153776D01*
X68246224Y-117056274D01*
X68131574Y-116979668D01*
X68004182Y-116926901D01*
X67868944Y-116900000D01*
X67731056Y-116900000D01*
X67595818Y-116926901D01*
X67468426Y-116979668D01*
X67353776Y-117056274D01*
X67256274Y-117153776D01*
X67179668Y-117268426D01*
X67126901Y-117395818D01*
X67100000Y-117531056D01*
X67100000Y-117668944D01*
X67126901Y-117804182D01*
X67179668Y-117931574D01*
X67256274Y-118046224D01*
X67353776Y-118143726D01*
X67468426Y-118220332D01*
X67595818Y-118273099D01*
X67731056Y-118300000D01*
X67868944Y-118300000D01*
X67893980Y-118295020D01*
X74106412Y-124507453D01*
X74068944Y-124500000D01*
X73931056Y-124500000D01*
X73795818Y-124526901D01*
X73668426Y-124579668D01*
X73553776Y-124656274D01*
X73456274Y-124753776D01*
X73379668Y-124868426D01*
X73326901Y-124995818D01*
X73300000Y-125131056D01*
X73300000Y-125268944D01*
X73326901Y-125404182D01*
X73379668Y-125531574D01*
X73405319Y-125569964D01*
X71512653Y-123677298D01*
X71543726Y-123646224D01*
X71620332Y-123531574D01*
X71673099Y-123404182D01*
X71700000Y-123268944D01*
X71700000Y-123131056D01*
X71673099Y-122995818D01*
X71620332Y-122868426D01*
X71543726Y-122753776D01*
X71446224Y-122656274D01*
X71331574Y-122579668D01*
X71204182Y-122526901D01*
X71068944Y-122500000D01*
X70931056Y-122500000D01*
X70795818Y-122526901D01*
X70668426Y-122579668D01*
X70553776Y-122656274D01*
X70456274Y-122753776D01*
X70379668Y-122868426D01*
X70326901Y-122995818D01*
X70300000Y-123131056D01*
X70300000Y-123166590D01*
X70204182Y-123126901D01*
X70092876Y-123104760D01*
X70100000Y-123068944D01*
X70100000Y-122931056D01*
X70073099Y-122795818D01*
X70020332Y-122668426D01*
X69943726Y-122553776D01*
X69846224Y-122456274D01*
X69731574Y-122379668D01*
X69604182Y-122326901D01*
X69468944Y-122300000D01*
X69331056Y-122300000D01*
X69195818Y-122326901D01*
X69068426Y-122379668D01*
X68953776Y-122456274D01*
X68856274Y-122553776D01*
X68779668Y-122668426D01*
X68726901Y-122795818D01*
X68700000Y-122931056D01*
X68700000Y-123068944D01*
X68704980Y-123093979D01*
X67914239Y-123884721D01*
X67898027Y-123898026D01*
X67844917Y-123962740D01*
X67822766Y-124004182D01*
X67805453Y-124036573D01*
X67781150Y-124116686D01*
X67772945Y-124200000D01*
X67775001Y-124220877D01*
X67775000Y-125642093D01*
X67753776Y-125656274D01*
X67656274Y-125753776D01*
X67579668Y-125868426D01*
X67526901Y-125995818D01*
X67500000Y-126131056D01*
X67500000Y-126268944D01*
X67526901Y-126404182D01*
X67579668Y-126531574D01*
X67656274Y-126646224D01*
X67753776Y-126743726D01*
X67868426Y-126820332D01*
X67995818Y-126873099D01*
X68131056Y-126900000D01*
X68268944Y-126900000D01*
X68404182Y-126873099D01*
X68531574Y-126820332D01*
X68646224Y-126743726D01*
X68743726Y-126646224D01*
X68820332Y-126531574D01*
X68873099Y-126404182D01*
X68900000Y-126268944D01*
X68900000Y-126131056D01*
X68873099Y-125995818D01*
X68820332Y-125868426D01*
X68743726Y-125753776D01*
X68646224Y-125656274D01*
X68625000Y-125642093D01*
X68625000Y-124376040D01*
X69306021Y-123695020D01*
X69307124Y-123695240D01*
X69300000Y-123731056D01*
X69300000Y-123868944D01*
X69326901Y-124004182D01*
X69379668Y-124131574D01*
X69456274Y-124246224D01*
X69553776Y-124343726D01*
X69575000Y-124357908D01*
X69575001Y-125052126D01*
X69572945Y-125073002D01*
X69581150Y-125156316D01*
X69585779Y-125171574D01*
X69605453Y-125236429D01*
X69644917Y-125310262D01*
X69698027Y-125374976D01*
X69714239Y-125388281D01*
X71362391Y-127036434D01*
X64037475Y-127036434D01*
X61951451Y-124950411D01*
X61951451Y-123550000D01*
X61945659Y-123491190D01*
X61928504Y-123434640D01*
X61900647Y-123382523D01*
X61863158Y-123336842D01*
X61817477Y-123299353D01*
X61765360Y-123271496D01*
X61708810Y-123254341D01*
X61650000Y-123248549D01*
X59950000Y-123248549D01*
X59891190Y-123254341D01*
X59834640Y-123271496D01*
X59782523Y-123299353D01*
X59736842Y-123336842D01*
X59699353Y-123382523D01*
X59671496Y-123434640D01*
X59654341Y-123491190D01*
X59648549Y-123550000D01*
X59648549Y-125250000D01*
X59654341Y-125308810D01*
X59671496Y-125365360D01*
X59699353Y-125417477D01*
X59736842Y-125463158D01*
X59782523Y-125500647D01*
X59834640Y-125528504D01*
X59891190Y-125545659D01*
X59950000Y-125551451D01*
X61350411Y-125551451D01*
X63546153Y-127747194D01*
X63559460Y-127763408D01*
X63624174Y-127816518D01*
X63698007Y-127855982D01*
X63753817Y-127872912D01*
X63778119Y-127880284D01*
X63786532Y-127881113D01*
X63840560Y-127886434D01*
X63840566Y-127886434D01*
X63861433Y-127888489D01*
X63882300Y-127886434D01*
X64894832Y-127886434D01*
X64815609Y-128005000D01*
X62466041Y-128005000D01*
X61856212Y-127395172D01*
X61905806Y-127275443D01*
X61950000Y-127053265D01*
X61950000Y-126826735D01*
X61905806Y-126604557D01*
X61819116Y-126395271D01*
X61693263Y-126206918D01*
X61533082Y-126046737D01*
X61344729Y-125920884D01*
X61135443Y-125834194D01*
X60913265Y-125790000D01*
X60686735Y-125790000D01*
X60464557Y-125834194D01*
X60255271Y-125920884D01*
X60066918Y-126046737D01*
X59906737Y-126206918D01*
X59780884Y-126395271D01*
X59694194Y-126604557D01*
X59650000Y-126826735D01*
X59650000Y-127053265D01*
X59694194Y-127275443D01*
X59780884Y-127484729D01*
X59906737Y-127673082D01*
X60066918Y-127833263D01*
X60255271Y-127959116D01*
X60464557Y-128045806D01*
X60686735Y-128090000D01*
X60913265Y-128090000D01*
X61135443Y-128045806D01*
X61255172Y-127996212D01*
X61974721Y-128715762D01*
X61988026Y-128731974D01*
X62052740Y-128785084D01*
X62126573Y-128824548D01*
X62182383Y-128841478D01*
X62206685Y-128848850D01*
X62215098Y-128849679D01*
X62269126Y-128855000D01*
X62269132Y-128855000D01*
X62289999Y-128857055D01*
X62310866Y-128855000D01*
X64815609Y-128855000D01*
X64906459Y-128990967D01*
X65029033Y-129113541D01*
X65173164Y-129209846D01*
X65333313Y-129276182D01*
X65503328Y-129310000D01*
X65676672Y-129310000D01*
X65846687Y-129276182D01*
X66006836Y-129209846D01*
X66150967Y-129113541D01*
X66273541Y-128990967D01*
X66369846Y-128846836D01*
X66436182Y-128686687D01*
X66470000Y-128516672D01*
X66470000Y-128343328D01*
X66436182Y-128173313D01*
X66369846Y-128013164D01*
X66285168Y-127886434D01*
X67434832Y-127886434D01*
X67350154Y-128013164D01*
X67283818Y-128173313D01*
X67250000Y-128343328D01*
X67250000Y-128516672D01*
X67283818Y-128686687D01*
X67350154Y-128846836D01*
X67446459Y-128990967D01*
X67569033Y-129113541D01*
X67713164Y-129209846D01*
X67873313Y-129276182D01*
X68043328Y-129310000D01*
X68216672Y-129310000D01*
X68386687Y-129276182D01*
X68546836Y-129209846D01*
X68690967Y-129113541D01*
X68813541Y-128990967D01*
X68909846Y-128846836D01*
X68976182Y-128686687D01*
X69010000Y-128516672D01*
X69010000Y-128343328D01*
X68976182Y-128173313D01*
X68909846Y-128013164D01*
X68825168Y-127886434D01*
X69974832Y-127886434D01*
X69890154Y-128013164D01*
X69823818Y-128173313D01*
X69790000Y-128343328D01*
X69790000Y-128516672D01*
X69823818Y-128686687D01*
X69890154Y-128846836D01*
X69986459Y-128990967D01*
X70109033Y-129113541D01*
X70253164Y-129209846D01*
X70413313Y-129276182D01*
X70583328Y-129310000D01*
X70756672Y-129310000D01*
X70926687Y-129276182D01*
X71086836Y-129209846D01*
X71230967Y-129113541D01*
X71353541Y-128990967D01*
X71449846Y-128846836D01*
X71516182Y-128686687D01*
X71550000Y-128516672D01*
X71550000Y-128343328D01*
X71516182Y-128173313D01*
X71449846Y-128013164D01*
X71365168Y-127886434D01*
X72065394Y-127886434D01*
X72328549Y-128149589D01*
X72328549Y-129010000D01*
X72334341Y-129068810D01*
X72351496Y-129125360D01*
X72379353Y-129177477D01*
X72416842Y-129223158D01*
X72462523Y-129260647D01*
X72514640Y-129288504D01*
X72571190Y-129305659D01*
X72630000Y-129311451D01*
X73790000Y-129311451D01*
X73848810Y-129305659D01*
X73905360Y-129288504D01*
X73957477Y-129260647D01*
X74003158Y-129223158D01*
X74040647Y-129177477D01*
X74068504Y-129125360D01*
X74085659Y-129068810D01*
X74091451Y-129010000D01*
X74091451Y-127850000D01*
X74086177Y-127796447D01*
X75895240Y-129605510D01*
X75839293Y-129600000D01*
X44371373Y-129600000D01*
X41313475Y-126542103D01*
X41288424Y-126511578D01*
X41166608Y-126411607D01*
X41027630Y-126337321D01*
X40876829Y-126291576D01*
X40759295Y-126280000D01*
X40759293Y-126280000D01*
X40720002Y-126276130D01*
X40680711Y-126280000D01*
X29426345Y-126280000D01*
X29333082Y-126186737D01*
X29144729Y-126060884D01*
X28935443Y-125974194D01*
X28713265Y-125930000D01*
X28486735Y-125930000D01*
X28264557Y-125974194D01*
X28055271Y-126060884D01*
X27866918Y-126186737D01*
X27706737Y-126346918D01*
X27580884Y-126535271D01*
X27494194Y-126744557D01*
X27450000Y-126966735D01*
X13325000Y-126966735D01*
X13325000Y-124426735D01*
X27450000Y-124426735D01*
X27450000Y-124653265D01*
X27494194Y-124875443D01*
X27580884Y-125084729D01*
X27706737Y-125273082D01*
X27866918Y-125433263D01*
X28055271Y-125559116D01*
X28264557Y-125645806D01*
X28486735Y-125690000D01*
X28713265Y-125690000D01*
X28935443Y-125645806D01*
X29144729Y-125559116D01*
X29333082Y-125433263D01*
X29493263Y-125273082D01*
X29619116Y-125084729D01*
X29705806Y-124875443D01*
X29750000Y-124653265D01*
X29750000Y-124426735D01*
X29705806Y-124204557D01*
X29619116Y-123995271D01*
X29493263Y-123806918D01*
X29333082Y-123646737D01*
X29144729Y-123520884D01*
X28935443Y-123434194D01*
X28713265Y-123390000D01*
X28486735Y-123390000D01*
X28264557Y-123434194D01*
X28055271Y-123520884D01*
X27866918Y-123646737D01*
X27706737Y-123806918D01*
X27580884Y-123995271D01*
X27494194Y-124204557D01*
X27450000Y-124426735D01*
X13325000Y-124426735D01*
X13325000Y-121150000D01*
X27448549Y-121150000D01*
X27448549Y-122850000D01*
X27454341Y-122908810D01*
X27471496Y-122965360D01*
X27499353Y-123017477D01*
X27536842Y-123063158D01*
X27582523Y-123100647D01*
X27634640Y-123128504D01*
X27691190Y-123145659D01*
X27750000Y-123151451D01*
X29450000Y-123151451D01*
X29508810Y-123145659D01*
X29565360Y-123128504D01*
X29617477Y-123100647D01*
X29663158Y-123063158D01*
X29700647Y-123017477D01*
X29728504Y-122965360D01*
X29745659Y-122908810D01*
X29751451Y-122850000D01*
X29751451Y-122425000D01*
X55979133Y-122425000D01*
X56000000Y-122427055D01*
X56020867Y-122425000D01*
X56020874Y-122425000D01*
X56083314Y-122418850D01*
X56163427Y-122394548D01*
X56237260Y-122355084D01*
X56301974Y-122301974D01*
X56315284Y-122285756D01*
X64306021Y-114295020D01*
X64331056Y-114300000D01*
X64468944Y-114300000D01*
X64604182Y-114273099D01*
X64731574Y-114220332D01*
X64846224Y-114143726D01*
X64943726Y-114046224D01*
X65020332Y-113931574D01*
X65073099Y-113804182D01*
X65100000Y-113668944D01*
X65100000Y-113531056D01*
X65073099Y-113395818D01*
X65020332Y-113268426D01*
X64943726Y-113153776D01*
X64846224Y-113056274D01*
X64731574Y-112979668D01*
X64604182Y-112926901D01*
X64468944Y-112900000D01*
X64331056Y-112900000D01*
X64195818Y-112926901D01*
X64068426Y-112979668D01*
X63953776Y-113056274D01*
X63856274Y-113153776D01*
X63779668Y-113268426D01*
X63726901Y-113395818D01*
X63700000Y-113531056D01*
X63700000Y-113668944D01*
X63704980Y-113693979D01*
X55823960Y-121575000D01*
X52599419Y-121575000D01*
X52646224Y-121543726D01*
X52743726Y-121446224D01*
X52820332Y-121331574D01*
X52873099Y-121204182D01*
X52900000Y-121068944D01*
X52900000Y-120931056D01*
X52873099Y-120795818D01*
X52820332Y-120668426D01*
X52743726Y-120553776D01*
X52646224Y-120456274D01*
X52531574Y-120379668D01*
X52404182Y-120326901D01*
X52268944Y-120300000D01*
X52131056Y-120300000D01*
X52106021Y-120304980D01*
X50425000Y-118623960D01*
X50425000Y-114957907D01*
X50446224Y-114943726D01*
X50543726Y-114846224D01*
X50600000Y-114762003D01*
X50656274Y-114846224D01*
X50753776Y-114943726D01*
X50775000Y-114957907D01*
X50775001Y-116779123D01*
X50772945Y-116800000D01*
X50781150Y-116883314D01*
X50794373Y-116926901D01*
X50805453Y-116963427D01*
X50844917Y-117037260D01*
X50898027Y-117101974D01*
X50914239Y-117115279D01*
X52904980Y-119106020D01*
X52900000Y-119131056D01*
X52900000Y-119268944D01*
X52926901Y-119404182D01*
X52979668Y-119531574D01*
X53056274Y-119646224D01*
X53153776Y-119743726D01*
X53268426Y-119820332D01*
X53395818Y-119873099D01*
X53531056Y-119900000D01*
X53668944Y-119900000D01*
X53804182Y-119873099D01*
X53931574Y-119820332D01*
X54046224Y-119743726D01*
X54143726Y-119646224D01*
X54220332Y-119531574D01*
X54273099Y-119404182D01*
X54300000Y-119268944D01*
X54300000Y-119131056D01*
X54273099Y-118995818D01*
X54220332Y-118868426D01*
X54143726Y-118753776D01*
X54046224Y-118656274D01*
X53931574Y-118579668D01*
X53804182Y-118526901D01*
X53668944Y-118500000D01*
X53531056Y-118500000D01*
X53506020Y-118504980D01*
X51625000Y-116623960D01*
X51625000Y-114957907D01*
X51646224Y-114943726D01*
X51743726Y-114846224D01*
X51820332Y-114731574D01*
X51873099Y-114604182D01*
X51900000Y-114468944D01*
X51900000Y-114331056D01*
X51873099Y-114195818D01*
X51820332Y-114068426D01*
X51743726Y-113953776D01*
X51646224Y-113856274D01*
X51531574Y-113779668D01*
X51404182Y-113726901D01*
X51268944Y-113700000D01*
X51131056Y-113700000D01*
X50995818Y-113726901D01*
X50868426Y-113779668D01*
X50753776Y-113856274D01*
X50656274Y-113953776D01*
X50600000Y-114037997D01*
X50543726Y-113953776D01*
X50446224Y-113856274D01*
X50331574Y-113779668D01*
X50204182Y-113726901D01*
X50068944Y-113700000D01*
X49931056Y-113700000D01*
X49795818Y-113726901D01*
X49668426Y-113779668D01*
X49553776Y-113856274D01*
X49456274Y-113953776D01*
X49379668Y-114068426D01*
X49326901Y-114195818D01*
X49300000Y-114331056D01*
X49300000Y-114468944D01*
X49326901Y-114604182D01*
X49379668Y-114731574D01*
X49456274Y-114846224D01*
X49553776Y-114943726D01*
X49575000Y-114957907D01*
X49575001Y-118779123D01*
X49572945Y-118800000D01*
X49581150Y-118883314D01*
X49590532Y-118914240D01*
X49605453Y-118963427D01*
X49644917Y-119037260D01*
X49698027Y-119101974D01*
X49714239Y-119115279D01*
X51504980Y-120906021D01*
X51500000Y-120931056D01*
X51500000Y-121068944D01*
X51526901Y-121204182D01*
X51579668Y-121331574D01*
X51656274Y-121446224D01*
X51753776Y-121543726D01*
X51800581Y-121575000D01*
X29751451Y-121575000D01*
X29751451Y-121150000D01*
X29745659Y-121091190D01*
X29728504Y-121034640D01*
X29700647Y-120982523D01*
X29663158Y-120936842D01*
X29617477Y-120899353D01*
X29565360Y-120871496D01*
X29508810Y-120854341D01*
X29450000Y-120848549D01*
X27750000Y-120848549D01*
X27691190Y-120854341D01*
X27634640Y-120871496D01*
X27582523Y-120899353D01*
X27536842Y-120936842D01*
X27499353Y-120982523D01*
X27471496Y-121034640D01*
X27454341Y-121091190D01*
X27448549Y-121150000D01*
X13325000Y-121150000D01*
X13325000Y-117131056D01*
X37900000Y-117131056D01*
X37900000Y-117268944D01*
X37926901Y-117404182D01*
X37979668Y-117531574D01*
X38056274Y-117646224D01*
X38153776Y-117743726D01*
X38268426Y-117820332D01*
X38395818Y-117873099D01*
X38531056Y-117900000D01*
X38668944Y-117900000D01*
X38804182Y-117873099D01*
X38931574Y-117820332D01*
X39046224Y-117743726D01*
X39143726Y-117646224D01*
X39220332Y-117531574D01*
X39273099Y-117404182D01*
X39300000Y-117268944D01*
X39300000Y-117131056D01*
X39273099Y-116995818D01*
X39220332Y-116868426D01*
X39185197Y-116815843D01*
X41906021Y-114095020D01*
X41931056Y-114100000D01*
X42068944Y-114100000D01*
X42204182Y-114073099D01*
X42331574Y-114020332D01*
X42446224Y-113943726D01*
X42543726Y-113846224D01*
X42620332Y-113731574D01*
X42673099Y-113604182D01*
X42700000Y-113468944D01*
X42700000Y-113331056D01*
X42673099Y-113195818D01*
X42646274Y-113131056D01*
X44100000Y-113131056D01*
X44100000Y-113268944D01*
X44126901Y-113404182D01*
X44179668Y-113531574D01*
X44256274Y-113646224D01*
X44353776Y-113743726D01*
X44468426Y-113820332D01*
X44595818Y-113873099D01*
X44731056Y-113900000D01*
X44868944Y-113900000D01*
X44893980Y-113895020D01*
X47946782Y-116947822D01*
X47926901Y-116995818D01*
X47900000Y-117131056D01*
X47900000Y-117268944D01*
X47926901Y-117404182D01*
X47979668Y-117531574D01*
X48056274Y-117646224D01*
X48153776Y-117743726D01*
X48268426Y-117820332D01*
X48395818Y-117873099D01*
X48531056Y-117900000D01*
X48668944Y-117900000D01*
X48804182Y-117873099D01*
X48931574Y-117820332D01*
X49046224Y-117743726D01*
X49143726Y-117646224D01*
X49220332Y-117531574D01*
X49273099Y-117404182D01*
X49300000Y-117268944D01*
X49300000Y-117131056D01*
X49273099Y-116995818D01*
X49220332Y-116868426D01*
X49143726Y-116753776D01*
X49046224Y-116656274D01*
X48931574Y-116579668D01*
X48804182Y-116526901D01*
X48709010Y-116507970D01*
X45495020Y-113293980D01*
X45500000Y-113268944D01*
X45500000Y-113131056D01*
X45473099Y-112995818D01*
X45420332Y-112868426D01*
X45343726Y-112753776D01*
X45246224Y-112656274D01*
X45131574Y-112579668D01*
X45004182Y-112526901D01*
X44868944Y-112500000D01*
X44731056Y-112500000D01*
X44595818Y-112526901D01*
X44468426Y-112579668D01*
X44353776Y-112656274D01*
X44256274Y-112753776D01*
X44179668Y-112868426D01*
X44126901Y-112995818D01*
X44100000Y-113131056D01*
X42646274Y-113131056D01*
X42620332Y-113068426D01*
X42543726Y-112953776D01*
X42446224Y-112856274D01*
X42331574Y-112779668D01*
X42204182Y-112726901D01*
X42068944Y-112700000D01*
X41931056Y-112700000D01*
X41795818Y-112726901D01*
X41668426Y-112779668D01*
X41553776Y-112856274D01*
X41456274Y-112953776D01*
X41379668Y-113068426D01*
X41326901Y-113195818D01*
X41300000Y-113331056D01*
X41300000Y-113468944D01*
X41304980Y-113493979D01*
X38314243Y-116484717D01*
X38298026Y-116498026D01*
X38244916Y-116562741D01*
X38217781Y-116613508D01*
X38153776Y-116656274D01*
X38056274Y-116753776D01*
X37979668Y-116868426D01*
X37926901Y-116995818D01*
X37900000Y-117131056D01*
X13325000Y-117131056D01*
X13325000Y-114226735D01*
X16650000Y-114226735D01*
X16650000Y-114453265D01*
X16694194Y-114675443D01*
X16780884Y-114884729D01*
X16906737Y-115073082D01*
X17066918Y-115233263D01*
X17255271Y-115359116D01*
X17464557Y-115445806D01*
X17686735Y-115490000D01*
X17913265Y-115490000D01*
X18135443Y-115445806D01*
X18344729Y-115359116D01*
X18533082Y-115233263D01*
X18693263Y-115073082D01*
X18819116Y-114884729D01*
X18905806Y-114675443D01*
X18950000Y-114453265D01*
X18950000Y-114226735D01*
X18905806Y-114004557D01*
X18883208Y-113950000D01*
X20848549Y-113950000D01*
X20848549Y-115650000D01*
X20854341Y-115708810D01*
X20871496Y-115765360D01*
X20899353Y-115817477D01*
X20936842Y-115863158D01*
X20982523Y-115900647D01*
X21034640Y-115928504D01*
X21091190Y-115945659D01*
X21150000Y-115951451D01*
X22850000Y-115951451D01*
X22908810Y-115945659D01*
X22965360Y-115928504D01*
X23017477Y-115900647D01*
X23063158Y-115863158D01*
X23100647Y-115817477D01*
X23128504Y-115765360D01*
X23145659Y-115708810D01*
X23151451Y-115650000D01*
X23151451Y-113950000D01*
X25248549Y-113950000D01*
X25248549Y-115650000D01*
X25254341Y-115708810D01*
X25271496Y-115765360D01*
X25299353Y-115817477D01*
X25336842Y-115863158D01*
X25382523Y-115900647D01*
X25434640Y-115928504D01*
X25491190Y-115945659D01*
X25550000Y-115951451D01*
X27250000Y-115951451D01*
X27308810Y-115945659D01*
X27365360Y-115928504D01*
X27417477Y-115900647D01*
X27463158Y-115863158D01*
X27500647Y-115817477D01*
X27528504Y-115765360D01*
X27545659Y-115708810D01*
X27551451Y-115650000D01*
X27551451Y-113950000D01*
X27545659Y-113891190D01*
X27528504Y-113834640D01*
X27500647Y-113782523D01*
X27463158Y-113736842D01*
X27417477Y-113699353D01*
X27365360Y-113671496D01*
X27308810Y-113654341D01*
X27250000Y-113648549D01*
X25550000Y-113648549D01*
X25491190Y-113654341D01*
X25434640Y-113671496D01*
X25382523Y-113699353D01*
X25336842Y-113736842D01*
X25299353Y-113782523D01*
X25271496Y-113834640D01*
X25254341Y-113891190D01*
X25248549Y-113950000D01*
X23151451Y-113950000D01*
X23145659Y-113891190D01*
X23128504Y-113834640D01*
X23100647Y-113782523D01*
X23063158Y-113736842D01*
X23017477Y-113699353D01*
X22965360Y-113671496D01*
X22908810Y-113654341D01*
X22850000Y-113648549D01*
X21150000Y-113648549D01*
X21091190Y-113654341D01*
X21034640Y-113671496D01*
X20982523Y-113699353D01*
X20936842Y-113736842D01*
X20899353Y-113782523D01*
X20871496Y-113834640D01*
X20854341Y-113891190D01*
X20848549Y-113950000D01*
X18883208Y-113950000D01*
X18819116Y-113795271D01*
X18693263Y-113606918D01*
X18533082Y-113446737D01*
X18344729Y-113320884D01*
X18135443Y-113234194D01*
X17913265Y-113190000D01*
X17686735Y-113190000D01*
X17464557Y-113234194D01*
X17255271Y-113320884D01*
X17066918Y-113446737D01*
X16906737Y-113606918D01*
X16780884Y-113795271D01*
X16694194Y-114004557D01*
X16650000Y-114226735D01*
X13325000Y-114226735D01*
X13325000Y-110950000D01*
X16648549Y-110950000D01*
X16648549Y-112650000D01*
X16654341Y-112708810D01*
X16671496Y-112765360D01*
X16699353Y-112817477D01*
X16736842Y-112863158D01*
X16782523Y-112900647D01*
X16834640Y-112928504D01*
X16891190Y-112945659D01*
X16950000Y-112951451D01*
X18650000Y-112951451D01*
X18708810Y-112945659D01*
X18765360Y-112928504D01*
X18817477Y-112900647D01*
X18863158Y-112863158D01*
X18900647Y-112817477D01*
X18928504Y-112765360D01*
X18945659Y-112708810D01*
X18951451Y-112650000D01*
X18951451Y-110950000D01*
X18945659Y-110891190D01*
X18928504Y-110834640D01*
X18900647Y-110782523D01*
X18863158Y-110736842D01*
X18817477Y-110699353D01*
X18765360Y-110671496D01*
X18708810Y-110654341D01*
X18650000Y-110648549D01*
X16950000Y-110648549D01*
X16891190Y-110654341D01*
X16834640Y-110671496D01*
X16782523Y-110699353D01*
X16736842Y-110736842D01*
X16699353Y-110782523D01*
X16671496Y-110834640D01*
X16654341Y-110891190D01*
X16648549Y-110950000D01*
X13325000Y-110950000D01*
X13325000Y-103286735D01*
X16650000Y-103286735D01*
X16650000Y-103513265D01*
X16694194Y-103735443D01*
X16780884Y-103944729D01*
X16906737Y-104133082D01*
X17066918Y-104293263D01*
X17255271Y-104419116D01*
X17464557Y-104505806D01*
X17686735Y-104550000D01*
X17913265Y-104550000D01*
X18135443Y-104505806D01*
X18344729Y-104419116D01*
X18533082Y-104293263D01*
X18693263Y-104133082D01*
X18819116Y-103944729D01*
X18905806Y-103735443D01*
X18950000Y-103513265D01*
X18950000Y-103286735D01*
X18905806Y-103064557D01*
X18819116Y-102855271D01*
X18693263Y-102666918D01*
X18533082Y-102506737D01*
X18344729Y-102380884D01*
X18135443Y-102294194D01*
X17913265Y-102250000D01*
X17686735Y-102250000D01*
X17464557Y-102294194D01*
X17255271Y-102380884D01*
X17066918Y-102506737D01*
X16906737Y-102666918D01*
X16780884Y-102855271D01*
X16694194Y-103064557D01*
X16650000Y-103286735D01*
X13325000Y-103286735D01*
X13325000Y-101651659D01*
X30700000Y-101651659D01*
X30700000Y-101868341D01*
X30742273Y-102080858D01*
X30825193Y-102281045D01*
X30945575Y-102461209D01*
X31098791Y-102614425D01*
X31278955Y-102734807D01*
X31479142Y-102817727D01*
X31691659Y-102860000D01*
X31908341Y-102860000D01*
X32120858Y-102817727D01*
X32321045Y-102734807D01*
X32501209Y-102614425D01*
X32654425Y-102461209D01*
X32774807Y-102281045D01*
X32857727Y-102080858D01*
X32900000Y-101868341D01*
X32900000Y-101651659D01*
X32857727Y-101439142D01*
X32774807Y-101238955D01*
X32654425Y-101058791D01*
X32501209Y-100905575D01*
X32321045Y-100785193D01*
X32120858Y-100702273D01*
X31908341Y-100660000D01*
X31691659Y-100660000D01*
X31479142Y-100702273D01*
X31278955Y-100785193D01*
X31098791Y-100905575D01*
X30945575Y-101058791D01*
X30825193Y-101238955D01*
X30742273Y-101439142D01*
X30700000Y-101651659D01*
X13325000Y-101651659D01*
X13325000Y-92350000D01*
X22048549Y-92350000D01*
X22048549Y-94050000D01*
X22054341Y-94108810D01*
X22071496Y-94165360D01*
X22099353Y-94217477D01*
X22136842Y-94263158D01*
X22182523Y-94300647D01*
X22234640Y-94328504D01*
X22291190Y-94345659D01*
X22350000Y-94351451D01*
X24050000Y-94351451D01*
X24108810Y-94345659D01*
X24165360Y-94328504D01*
X24217477Y-94300647D01*
X24263158Y-94263158D01*
X24300647Y-94217477D01*
X24328504Y-94165360D01*
X24345659Y-94108810D01*
X24351451Y-94050000D01*
X24351451Y-92350000D01*
X24345659Y-92291190D01*
X24328504Y-92234640D01*
X24300647Y-92182523D01*
X24273957Y-92150000D01*
X38848549Y-92150000D01*
X38848549Y-93850000D01*
X38854341Y-93908810D01*
X38871496Y-93965360D01*
X38899353Y-94017477D01*
X38936842Y-94063158D01*
X38982523Y-94100647D01*
X39034640Y-94128504D01*
X39091190Y-94145659D01*
X39150000Y-94151451D01*
X40850000Y-94151451D01*
X40908810Y-94145659D01*
X40965360Y-94128504D01*
X41017477Y-94100647D01*
X41063158Y-94063158D01*
X41100647Y-94017477D01*
X41128504Y-93965360D01*
X41145659Y-93908810D01*
X41151451Y-93850000D01*
X41151451Y-93425000D01*
X46233960Y-93425000D01*
X47923960Y-95115000D01*
X41068710Y-95115000D01*
X41019116Y-94995271D01*
X40893263Y-94806918D01*
X40733082Y-94646737D01*
X40544729Y-94520884D01*
X40335443Y-94434194D01*
X40113265Y-94390000D01*
X39886735Y-94390000D01*
X39664557Y-94434194D01*
X39455271Y-94520884D01*
X39266918Y-94646737D01*
X39106737Y-94806918D01*
X38980884Y-94995271D01*
X38894194Y-95204557D01*
X38850000Y-95426735D01*
X38850000Y-95653265D01*
X38894194Y-95875443D01*
X38980884Y-96084729D01*
X39106737Y-96273082D01*
X39266918Y-96433263D01*
X39455271Y-96559116D01*
X39664557Y-96645806D01*
X39886735Y-96690000D01*
X40113265Y-96690000D01*
X40335443Y-96645806D01*
X40544729Y-96559116D01*
X40733082Y-96433263D01*
X40893263Y-96273082D01*
X41019116Y-96084729D01*
X41068710Y-95965000D01*
X48137550Y-95965000D01*
X59445000Y-107272451D01*
X59445001Y-108321824D01*
X59371263Y-108371093D01*
X59350647Y-108332523D01*
X59313158Y-108286842D01*
X59267477Y-108249353D01*
X59215360Y-108221496D01*
X59158810Y-108204341D01*
X59100000Y-108198549D01*
X58100000Y-108198549D01*
X58041190Y-108204341D01*
X57984640Y-108221496D01*
X57932523Y-108249353D01*
X57886842Y-108286842D01*
X57849353Y-108332523D01*
X57821496Y-108384640D01*
X57804341Y-108441190D01*
X57798549Y-108500000D01*
X57798549Y-109500000D01*
X57804341Y-109558810D01*
X57821496Y-109615360D01*
X57849353Y-109667477D01*
X57886842Y-109713158D01*
X57932523Y-109750647D01*
X57984640Y-109778504D01*
X58041190Y-109795659D01*
X58100000Y-109801451D01*
X59100000Y-109801451D01*
X59158810Y-109795659D01*
X59215360Y-109778504D01*
X59267477Y-109750647D01*
X59313158Y-109713158D01*
X59350647Y-109667477D01*
X59371263Y-109628907D01*
X59491058Y-109708951D01*
X59636649Y-109769257D01*
X59791207Y-109800000D01*
X59948793Y-109800000D01*
X60103351Y-109769257D01*
X60248942Y-109708951D01*
X60379970Y-109621401D01*
X60491401Y-109509970D01*
X60578951Y-109378942D01*
X60639257Y-109233351D01*
X60670000Y-109078793D01*
X60670000Y-108921207D01*
X60639257Y-108766649D01*
X60578951Y-108621058D01*
X60491401Y-108490030D01*
X60379970Y-108378599D01*
X60295000Y-108321824D01*
X60295000Y-107486041D01*
X61629937Y-108820978D01*
X61610000Y-108921207D01*
X61610000Y-109078793D01*
X61640743Y-109233351D01*
X61701049Y-109378942D01*
X61788599Y-109509970D01*
X61900030Y-109621401D01*
X62031058Y-109708951D01*
X62176649Y-109769257D01*
X62331207Y-109800000D01*
X62488793Y-109800000D01*
X62643351Y-109769257D01*
X62788942Y-109708951D01*
X62919970Y-109621401D01*
X63031401Y-109509970D01*
X63118951Y-109378942D01*
X63179257Y-109233351D01*
X63210000Y-109078793D01*
X63210000Y-108921207D01*
X63179257Y-108766649D01*
X63118951Y-108621058D01*
X63031401Y-108490030D01*
X62919970Y-108378599D01*
X62788942Y-108291049D01*
X62643351Y-108230743D01*
X62488793Y-108200000D01*
X62331207Y-108200000D01*
X62230978Y-108219937D01*
X46725284Y-92714244D01*
X46711974Y-92698026D01*
X46647260Y-92644916D01*
X46573427Y-92605452D01*
X46493314Y-92581150D01*
X46430874Y-92575000D01*
X46430867Y-92575000D01*
X46410000Y-92572945D01*
X46389133Y-92575000D01*
X41151451Y-92575000D01*
X41151451Y-92150000D01*
X41145659Y-92091190D01*
X41128504Y-92034640D01*
X41100647Y-91982523D01*
X41063158Y-91936842D01*
X41017477Y-91899353D01*
X40965360Y-91871496D01*
X40908810Y-91854341D01*
X40850000Y-91848549D01*
X39150000Y-91848549D01*
X39091190Y-91854341D01*
X39034640Y-91871496D01*
X38982523Y-91899353D01*
X38936842Y-91936842D01*
X38899353Y-91982523D01*
X38871496Y-92034640D01*
X38854341Y-92091190D01*
X38848549Y-92150000D01*
X24273957Y-92150000D01*
X24263158Y-92136842D01*
X24217477Y-92099353D01*
X24165360Y-92071496D01*
X24108810Y-92054341D01*
X24050000Y-92048549D01*
X22350000Y-92048549D01*
X22291190Y-92054341D01*
X22234640Y-92071496D01*
X22182523Y-92099353D01*
X22136842Y-92136842D01*
X22099353Y-92182523D01*
X22071496Y-92234640D01*
X22054341Y-92291190D01*
X22048549Y-92350000D01*
X13325000Y-92350000D01*
X13325000Y-85325000D01*
X110675000Y-85325000D01*
X110675001Y-155675000D01*
G37*
%TD.AperFunction*%
M02*
