%FSLAX45Y45*%
G04 Gerber Fmt 4.5, Leading zero omitted, Abs format (unit mm)*
G04 Created by KiCad (PCBNEW (5.1.12)-1) date 2022-08-06 16:22:04*
%MOMM*%
%LPD*%
G01*
G04 APERTURE LIST*
%TA.AperFunction,Profile*%
%ADD10C,0.050000*%
%TD*%
%ADD11C,0.200000*%
%ADD12C,0.300000*%
G04 APERTURE END LIST*
D10*
X1300000Y-15600000D02*
X11100000Y-15600000D01*
X1300000Y-8500000D02*
X1300000Y-15600000D01*
X11100000Y-8500000D02*
X11100000Y-15600000D01*
X1300000Y-8500000D02*
X11100000Y-8500000D01*
D11*
X3750000Y-10150000D02*
X3790000Y-10190000D01*
X3790000Y-10150000D02*
X3750000Y-10190000D01*
X3756500Y-10283500D02*
X3796500Y-10323500D01*
X3796500Y-10283500D02*
X3756500Y-10323500D01*
X3840000Y-11700000D02*
X3880000Y-11740000D01*
X3880000Y-11700000D02*
X3840000Y-11740000D01*
X3900000Y-10160000D02*
X3940000Y-10200000D01*
X3940000Y-10160000D02*
X3900000Y-10200000D01*
X3900000Y-10280000D02*
X3940000Y-10320000D01*
X3940000Y-10280000D02*
X3900000Y-10320000D01*
X4180000Y-11320000D02*
X4220000Y-11360000D01*
X4220000Y-11320000D02*
X4180000Y-11360000D01*
X4360000Y-10340000D02*
X4400000Y-10380000D01*
X4400000Y-10340000D02*
X4360000Y-10380000D01*
X4460000Y-11300000D02*
X4500000Y-11340000D01*
X4500000Y-11300000D02*
X4460000Y-11340000D01*
X4756250Y-13303750D02*
X4796250Y-13343750D01*
X4796250Y-13303750D02*
X4756250Y-13343750D01*
X4840000Y-10540000D02*
X4880000Y-10580000D01*
X4880000Y-10540000D02*
X4840000Y-10580000D01*
X4840000Y-10640000D02*
X4880000Y-10680000D01*
X4880000Y-10640000D02*
X4840000Y-10680000D01*
X4840000Y-10740000D02*
X4880000Y-10780000D01*
X4880000Y-10740000D02*
X4840000Y-10780000D01*
X4840000Y-10840000D02*
X4880000Y-10880000D01*
X4880000Y-10840000D02*
X4840000Y-10880000D01*
X4840000Y-10940000D02*
X4880000Y-10980000D01*
X4880000Y-10940000D02*
X4840000Y-10980000D01*
X4840000Y-11040000D02*
X4880000Y-11080000D01*
X4880000Y-11040000D02*
X4840000Y-11080000D01*
X4840000Y-11500000D02*
X4880000Y-11540000D01*
X4880000Y-11500000D02*
X4840000Y-11540000D01*
X4840000Y-11700000D02*
X4880000Y-11740000D01*
X4880000Y-11700000D02*
X4840000Y-11740000D01*
X4940000Y-10420000D02*
X4980000Y-10460000D01*
X4980000Y-10420000D02*
X4940000Y-10460000D01*
X4960000Y-10640000D02*
X5000000Y-10680000D01*
X5000000Y-10640000D02*
X4960000Y-10680000D01*
X4960000Y-10800000D02*
X5000000Y-10840000D01*
X5000000Y-10800000D02*
X4960000Y-10840000D01*
X4960000Y-10940000D02*
X5000000Y-10980000D01*
X5000000Y-10940000D02*
X4960000Y-10980000D01*
X4980000Y-11420000D02*
X5020000Y-11460000D01*
X5020000Y-11420000D02*
X4980000Y-11460000D01*
X5100000Y-11420000D02*
X5140000Y-11460000D01*
X5140000Y-11420000D02*
X5100000Y-11460000D01*
X5200000Y-12080000D02*
X5240000Y-12120000D01*
X5240000Y-12080000D02*
X5200000Y-12120000D01*
X5340000Y-11900000D02*
X5380000Y-11940000D01*
X5380000Y-11900000D02*
X5340000Y-11940000D01*
X5520000Y-12500000D02*
X5560000Y-12540000D01*
X5560000Y-12500000D02*
X5520000Y-12540000D01*
X6160000Y-11740000D02*
X6200000Y-11780000D01*
X6200000Y-11740000D02*
X6160000Y-11780000D01*
X6420000Y-11340000D02*
X6460000Y-11380000D01*
X6460000Y-11340000D02*
X6420000Y-11380000D01*
X6760000Y-11740000D02*
X6800000Y-11780000D01*
X6800000Y-11740000D02*
X6760000Y-11780000D01*
X6800000Y-12600000D02*
X6840000Y-12640000D01*
X6840000Y-12600000D02*
X6800000Y-12640000D01*
X6920000Y-12280000D02*
X6960000Y-12320000D01*
X6960000Y-12280000D02*
X6920000Y-12320000D01*
X6980000Y-12360000D02*
X7020000Y-12400000D01*
X7020000Y-12360000D02*
X6980000Y-12400000D01*
X7060000Y-12460000D02*
X7100000Y-12500000D01*
X7100000Y-12460000D02*
X7060000Y-12500000D01*
X7080000Y-12300000D02*
X7120000Y-12340000D01*
X7120000Y-12300000D02*
X7080000Y-12340000D01*
X7380000Y-12500000D02*
X7420000Y-12540000D01*
X7420000Y-12500000D02*
X7380000Y-12540000D01*
X7560000Y-13020000D02*
X7600000Y-13060000D01*
X7600000Y-13020000D02*
X7560000Y-13060000D01*
X8080000Y-11380000D02*
X8120000Y-11420000D01*
X8120000Y-11380000D02*
X8080000Y-11420000D01*
X8340000Y-13280000D02*
X8380000Y-13320000D01*
X8380000Y-13280000D02*
X8340000Y-13320000D01*
X8340000Y-13560000D02*
X8380000Y-13600000D01*
X8380000Y-13560000D02*
X8340000Y-13600000D01*
X8340000Y-13840000D02*
X8380000Y-13880000D01*
X8380000Y-13840000D02*
X8340000Y-13880000D01*
X8340000Y-14120000D02*
X8380000Y-14160000D01*
X8380000Y-14120000D02*
X8340000Y-14160000D01*
X8762500Y-8942500D02*
X8802500Y-8982500D01*
X8802500Y-8942500D02*
X8762500Y-8982500D01*
X9294500Y-12005500D02*
X9334500Y-12045500D01*
X9334500Y-12005500D02*
X9294500Y-12045500D01*
X9580000Y-13280000D02*
X9620000Y-13320000D01*
X9620000Y-13280000D02*
X9580000Y-13320000D01*
X9580000Y-13580000D02*
X9620000Y-13620000D01*
X9620000Y-13580000D02*
X9580000Y-13620000D01*
X9580000Y-13880000D02*
X9620000Y-13920000D01*
X9620000Y-13880000D02*
X9580000Y-13920000D01*
X9580000Y-14180000D02*
X9620000Y-14220000D01*
X9620000Y-14180000D02*
X9580000Y-14220000D01*
X9614500Y-12005500D02*
X9654500Y-12045500D01*
X9654500Y-12005500D02*
X9614500Y-12045500D01*
X5892500Y-10900000D02*
G75*
G03*
X5892500Y-10900000I-32500J0D01*
G01*
X6019500Y-10900000D02*
G75*
G03*
X6019500Y-10900000I-32500J0D01*
G01*
X6146500Y-10900000D02*
G75*
G03*
X6146500Y-10900000I-32500J0D01*
G01*
X6273500Y-10900000D02*
G75*
G03*
X6273500Y-10900000I-32500J0D01*
G01*
X8140000Y-10588500D02*
X8140000Y-10663500D01*
X8102500Y-10626000D02*
X8177500Y-10626000D01*
X8140000Y-10715500D02*
X8140000Y-10790500D01*
X8102500Y-10753000D02*
X8177500Y-10753000D01*
X8140000Y-10842500D02*
X8140000Y-10917500D01*
X8102500Y-10880000D02*
X8177500Y-10880000D01*
X6585870Y-12869870D02*
X6585870Y-12816130D01*
X6532130Y-12816130D01*
X6532130Y-12869870D01*
X6585870Y-12869870D01*
X6585870Y-13663870D02*
X6585870Y-13610130D01*
X6532130Y-13610130D01*
X6532130Y-13663870D01*
X6585870Y-13663870D01*
X6839870Y-12869870D02*
X6839870Y-12816130D01*
X6786130Y-12816130D01*
X6786130Y-12869870D01*
X6839870Y-12869870D01*
X6839870Y-13663870D02*
X6839870Y-13610130D01*
X6786130Y-13610130D01*
X6786130Y-13663870D01*
X6839870Y-13663870D01*
X7093870Y-12869870D02*
X7093870Y-12816130D01*
X7040130Y-12816130D01*
X7040130Y-12869870D01*
X7093870Y-12869870D01*
X7093870Y-13663870D02*
X7093870Y-13610130D01*
X7040130Y-13610130D01*
X7040130Y-13663870D01*
X7093870Y-13663870D01*
X7347870Y-12869870D02*
X7347870Y-12816130D01*
X7294130Y-12816130D01*
X7294130Y-12869870D01*
X7347870Y-12869870D01*
X7347870Y-13663870D02*
X7347870Y-13610130D01*
X7294130Y-13610130D01*
X7294130Y-13663870D01*
X7347870Y-13663870D01*
X3180000Y-10216000D02*
X3220000Y-10176000D01*
X3180000Y-10136000D01*
X3140000Y-10176000D01*
X3180000Y-10216000D01*
X3180000Y-11740000D02*
X3220000Y-11700000D01*
X3180000Y-11660000D01*
X3140000Y-11700000D01*
X3180000Y-11740000D01*
X1730000Y-10036000D02*
X1830000Y-10136000D01*
X1830000Y-10036000D02*
X1730000Y-10136000D01*
X1830000Y-10086000D02*
G75*
G03*
X1830000Y-10086000I-50000J0D01*
G01*
X1730000Y-10290000D02*
X1830000Y-10390000D01*
X1830000Y-10290000D02*
X1730000Y-10390000D01*
X1830000Y-10340000D02*
G75*
G03*
X1830000Y-10340000I-50000J0D01*
G01*
X1730000Y-11130000D02*
X1830000Y-11230000D01*
X1830000Y-11130000D02*
X1730000Y-11230000D01*
X1830000Y-11180000D02*
G75*
G03*
X1830000Y-11180000I-50000J0D01*
G01*
X1730000Y-11384000D02*
X1830000Y-11484000D01*
X1830000Y-11384000D02*
X1730000Y-11484000D01*
X1830000Y-11434000D02*
G75*
G03*
X1830000Y-11434000I-50000J0D01*
G01*
X1890000Y-13490000D02*
X1990000Y-13590000D01*
X1990000Y-13490000D02*
X1890000Y-13590000D01*
X1990000Y-13540000D02*
G75*
G03*
X1990000Y-13540000I-50000J0D01*
G01*
X2150000Y-11430000D02*
X2250000Y-11530000D01*
X2250000Y-11430000D02*
X2150000Y-11530000D01*
X2250000Y-11480000D02*
G75*
G03*
X2250000Y-11480000I-50000J0D01*
G01*
X2270000Y-9270000D02*
X2370000Y-9370000D01*
X2370000Y-9270000D02*
X2270000Y-9370000D01*
X2370000Y-9320000D02*
G75*
G03*
X2370000Y-9320000I-50000J0D01*
G01*
X2590000Y-11430000D02*
X2690000Y-11530000D01*
X2690000Y-11430000D02*
X2590000Y-11530000D01*
X2690000Y-11480000D02*
G75*
G03*
X2690000Y-11480000I-50000J0D01*
G01*
X2810000Y-12150000D02*
X2910000Y-12250000D01*
X2910000Y-12150000D02*
X2810000Y-12250000D01*
X2910000Y-12200000D02*
G75*
G03*
X2910000Y-12200000I-50000J0D01*
G01*
X2810000Y-12404000D02*
X2910000Y-12504000D01*
X2910000Y-12404000D02*
X2810000Y-12504000D01*
X2910000Y-12454000D02*
G75*
G03*
X2910000Y-12454000I-50000J0D01*
G01*
X2810000Y-12658000D02*
X2910000Y-12758000D01*
X2910000Y-12658000D02*
X2810000Y-12758000D01*
X2910000Y-12708000D02*
G75*
G03*
X2910000Y-12708000I-50000J0D01*
G01*
X2810000Y-12912000D02*
X2910000Y-13012000D01*
X2910000Y-12912000D02*
X2810000Y-13012000D01*
X2910000Y-12962000D02*
G75*
G03*
X2910000Y-12962000I-50000J0D01*
G01*
X2810000Y-13166000D02*
X2910000Y-13266000D01*
X2910000Y-13166000D02*
X2810000Y-13266000D01*
X2910000Y-13216000D02*
G75*
G03*
X2910000Y-13216000I-50000J0D01*
G01*
X3190000Y-9250000D02*
X3290000Y-9350000D01*
X3290000Y-9250000D02*
X3190000Y-9350000D01*
X3290000Y-9300000D02*
G75*
G03*
X3290000Y-9300000I-50000J0D01*
G01*
X3950000Y-9250000D02*
X4050000Y-9350000D01*
X4050000Y-9250000D02*
X3950000Y-9350000D01*
X4050000Y-9300000D02*
G75*
G03*
X4050000Y-9300000I-50000J0D01*
G01*
X3950000Y-9504000D02*
X4050000Y-9604000D01*
X4050000Y-9504000D02*
X3950000Y-9604000D01*
X4050000Y-9554000D02*
G75*
G03*
X4050000Y-9554000I-50000J0D01*
G01*
X5670000Y-13230000D02*
X5770000Y-13330000D01*
X5770000Y-13230000D02*
X5670000Y-13330000D01*
X5770000Y-13280000D02*
G75*
G03*
X5770000Y-13280000I-50000J0D01*
G01*
X6030000Y-12390000D02*
X6130000Y-12490000D01*
X6130000Y-12390000D02*
X6030000Y-12490000D01*
X6130000Y-12440000D02*
G75*
G03*
X6130000Y-12440000I-50000J0D01*
G01*
X6030000Y-12644000D02*
X6130000Y-12744000D01*
X6130000Y-12644000D02*
X6030000Y-12744000D01*
X6130000Y-12694000D02*
G75*
G03*
X6130000Y-12694000I-50000J0D01*
G01*
X6190000Y-9710000D02*
X6290000Y-9810000D01*
X6290000Y-9710000D02*
X6190000Y-9810000D01*
X6290000Y-9760000D02*
G75*
G03*
X6290000Y-9760000I-50000J0D01*
G01*
X6444000Y-9710000D02*
X6544000Y-9810000D01*
X6544000Y-9710000D02*
X6444000Y-9810000D01*
X6544000Y-9760000D02*
G75*
G03*
X6544000Y-9760000I-50000J0D01*
G01*
X6698000Y-9710000D02*
X6798000Y-9810000D01*
X6798000Y-9710000D02*
X6698000Y-9810000D01*
X6798000Y-9760000D02*
G75*
G03*
X6798000Y-9760000I-50000J0D01*
G01*
X6952000Y-9710000D02*
X7052000Y-9810000D01*
X7052000Y-9710000D02*
X6952000Y-9810000D01*
X7052000Y-9760000D02*
G75*
G03*
X7052000Y-9760000I-50000J0D01*
G01*
X7206000Y-9710000D02*
X7306000Y-9810000D01*
X7306000Y-9710000D02*
X7206000Y-9810000D01*
X7306000Y-9760000D02*
G75*
G03*
X7306000Y-9760000I-50000J0D01*
G01*
X7370000Y-10550000D02*
X7470000Y-10650000D01*
X7470000Y-10550000D02*
X7370000Y-10650000D01*
X7470000Y-10600000D02*
G75*
G03*
X7470000Y-10600000I-50000J0D01*
G01*
X7370000Y-10804000D02*
X7470000Y-10904000D01*
X7470000Y-10804000D02*
X7370000Y-10904000D01*
X7470000Y-10854000D02*
G75*
G03*
X7470000Y-10854000I-50000J0D01*
G01*
X7460000Y-9710000D02*
X7560000Y-9810000D01*
X7560000Y-9710000D02*
X7460000Y-9810000D01*
X7560000Y-9760000D02*
G75*
G03*
X7560000Y-9760000I-50000J0D01*
G01*
X7714000Y-9710000D02*
X7814000Y-9810000D01*
X7814000Y-9710000D02*
X7714000Y-9810000D01*
X7814000Y-9760000D02*
G75*
G03*
X7814000Y-9760000I-50000J0D01*
G01*
X7850000Y-8850000D02*
X7950000Y-8950000D01*
X7950000Y-8850000D02*
X7850000Y-8950000D01*
X7950000Y-8900000D02*
G75*
G03*
X7950000Y-8900000I-50000J0D01*
G01*
X7968000Y-9710000D02*
X8068000Y-9810000D01*
X8068000Y-9710000D02*
X7968000Y-9810000D01*
X8068000Y-9760000D02*
G75*
G03*
X8068000Y-9760000I-50000J0D01*
G01*
X8104000Y-8850000D02*
X8204000Y-8950000D01*
X8204000Y-8850000D02*
X8104000Y-8950000D01*
X8204000Y-8900000D02*
G75*
G03*
X8204000Y-8900000I-50000J0D01*
G01*
X8430000Y-10090000D02*
X8530000Y-10190000D01*
X8530000Y-10090000D02*
X8430000Y-10190000D01*
X8530000Y-10140000D02*
G75*
G03*
X8530000Y-10140000I-50000J0D01*
G01*
X8490000Y-8850000D02*
X8590000Y-8950000D01*
X8590000Y-8850000D02*
X8490000Y-8950000D01*
X8590000Y-8900000D02*
G75*
G03*
X8590000Y-8900000I-50000J0D01*
G01*
X8510000Y-11350000D02*
X8610000Y-11450000D01*
X8610000Y-11350000D02*
X8510000Y-11450000D01*
X8610000Y-11400000D02*
G75*
G03*
X8610000Y-11400000I-50000J0D01*
G01*
X8510000Y-11604000D02*
X8610000Y-11704000D01*
X8610000Y-11604000D02*
X8510000Y-11704000D01*
X8610000Y-11654000D02*
G75*
G03*
X8610000Y-11654000I-50000J0D01*
G01*
X8510000Y-11858000D02*
X8610000Y-11958000D01*
X8610000Y-11858000D02*
X8510000Y-11958000D01*
X8610000Y-11908000D02*
G75*
G03*
X8610000Y-11908000I-50000J0D01*
G01*
X8510000Y-12112000D02*
X8610000Y-12212000D01*
X8610000Y-12112000D02*
X8510000Y-12212000D01*
X8610000Y-12162000D02*
G75*
G03*
X8610000Y-12162000I-50000J0D01*
G01*
X8510000Y-12366000D02*
X8610000Y-12466000D01*
X8610000Y-12366000D02*
X8510000Y-12466000D01*
X8610000Y-12416000D02*
G75*
G03*
X8610000Y-12416000I-50000J0D01*
G01*
X8890000Y-10276000D02*
X8990000Y-10376000D01*
X8990000Y-10276000D02*
X8890000Y-10376000D01*
X8990000Y-10326000D02*
G75*
G03*
X8990000Y-10326000I-50000J0D01*
G01*
X8890000Y-10530000D02*
X8990000Y-10630000D01*
X8990000Y-10530000D02*
X8890000Y-10630000D01*
X8990000Y-10580000D02*
G75*
G03*
X8990000Y-10580000I-50000J0D01*
G01*
X9270000Y-10010000D02*
X9370000Y-10110000D01*
X9370000Y-10010000D02*
X9270000Y-10110000D01*
X9370000Y-10060000D02*
G75*
G03*
X9370000Y-10060000I-50000J0D01*
G01*
X9270000Y-10264000D02*
X9370000Y-10364000D01*
X9370000Y-10264000D02*
X9270000Y-10364000D01*
X9370000Y-10314000D02*
G75*
G03*
X9370000Y-10314000I-50000J0D01*
G01*
X9270000Y-10518000D02*
X9370000Y-10618000D01*
X9370000Y-10518000D02*
X9270000Y-10618000D01*
X9370000Y-10568000D02*
G75*
G03*
X9370000Y-10568000I-50000J0D01*
G01*
X9270000Y-10772000D02*
X9370000Y-10872000D01*
X9370000Y-10772000D02*
X9270000Y-10872000D01*
X9370000Y-10822000D02*
G75*
G03*
X9370000Y-10822000I-50000J0D01*
G01*
X9270000Y-11026000D02*
X9370000Y-11126000D01*
X9370000Y-11026000D02*
X9270000Y-11126000D01*
X9370000Y-11076000D02*
G75*
G03*
X9370000Y-11076000I-50000J0D01*
G01*
X3934000Y-12894000D02*
X4066000Y-13026000D01*
X4066000Y-12894000D02*
X3934000Y-13026000D01*
X4000000Y-12894000D02*
X4000000Y-13026000D01*
X3934000Y-12960000D02*
X4066000Y-12960000D01*
X3934000Y-13149000D02*
X4066000Y-13281000D01*
X4066000Y-13149000D02*
X3934000Y-13281000D01*
X4000000Y-13149000D02*
X4000000Y-13281000D01*
X3934000Y-13215000D02*
X4066000Y-13215000D01*
X3934000Y-13404000D02*
X4066000Y-13536000D01*
X4066000Y-13404000D02*
X3934000Y-13536000D01*
X4000000Y-13404000D02*
X4000000Y-13536000D01*
X3934000Y-13470000D02*
X4066000Y-13470000D01*
X6108000Y-14664000D02*
X6260000Y-14816000D01*
X6260000Y-14664000D02*
X6108000Y-14816000D01*
X6237741Y-14793741D02*
X6237741Y-14686259D01*
X6130259Y-14686259D01*
X6130259Y-14793741D01*
X6237741Y-14793741D01*
X6616000Y-14664000D02*
X6768000Y-14816000D01*
X6768000Y-14664000D02*
X6616000Y-14816000D01*
X6745741Y-14793741D02*
X6745741Y-14686259D01*
X6638259Y-14686259D01*
X6638259Y-14793741D01*
X6745741Y-14793741D01*
X7124000Y-14664000D02*
X7276000Y-14816000D01*
X7276000Y-14664000D02*
X7124000Y-14816000D01*
X7253741Y-14793741D02*
X7253741Y-14686259D01*
X7146259Y-14686259D01*
X7146259Y-14793741D01*
X7253741Y-14793741D01*
X7632000Y-14664000D02*
X7784000Y-14816000D01*
X7784000Y-14664000D02*
X7632000Y-14816000D01*
X7761741Y-14793741D02*
X7761741Y-14686259D01*
X7654259Y-14686259D01*
X7654259Y-14793741D01*
X7761741Y-14793741D01*
X1560000Y-8700000D02*
X1960000Y-9100000D01*
X1960000Y-8700000D02*
X1560000Y-9100000D01*
X1760000Y-9100000D02*
X1960000Y-8900000D01*
X1760000Y-8700000D01*
X1560000Y-8900000D01*
X1760000Y-9100000D01*
X10440000Y-15000000D02*
X10840000Y-15400000D01*
X10840000Y-15000000D02*
X10440000Y-15400000D01*
X10640000Y-15400000D02*
X10840000Y-15200000D01*
X10640000Y-15000000D01*
X10440000Y-15200000D01*
X10640000Y-15400000D01*
X10450000Y-15200000D02*
X10450000Y-15200000D01*
X10830000Y-15200000D02*
X10830000Y-15200000D01*
X10450000Y-15200000D02*
G75*
G03*
X10830000Y-15200000I190000J0D01*
G01*
X10830000Y-15200000D02*
G75*
G03*
X10450000Y-15200000I-190000J0D01*
G01*
D12*
X1583928Y-16068214D02*
X1583928Y-15768214D01*
X1655357Y-15768214D01*
X1698214Y-15782500D01*
X1726786Y-15811071D01*
X1741071Y-15839643D01*
X1755357Y-15896786D01*
X1755357Y-15939643D01*
X1741071Y-15996786D01*
X1726786Y-16025357D01*
X1698214Y-16053929D01*
X1655357Y-16068214D01*
X1583928Y-16068214D01*
X1883928Y-16068214D02*
X1883928Y-15868214D01*
X1883928Y-15925357D02*
X1898214Y-15896786D01*
X1912500Y-15882500D01*
X1941071Y-15868214D01*
X1969643Y-15868214D01*
X2069643Y-16068214D02*
X2069643Y-15868214D01*
X2069643Y-15768214D02*
X2055357Y-15782500D01*
X2069643Y-15796786D01*
X2083928Y-15782500D01*
X2069643Y-15768214D01*
X2069643Y-15796786D01*
X2255357Y-16068214D02*
X2226786Y-16053929D01*
X2212500Y-16025357D01*
X2212500Y-15768214D01*
X2412500Y-16068214D02*
X2383928Y-16053929D01*
X2369643Y-16025357D01*
X2369643Y-15768214D01*
X2755357Y-16068214D02*
X2755357Y-15768214D01*
X2855357Y-15982500D01*
X2955357Y-15768214D01*
X2955357Y-16068214D01*
X3226786Y-16068214D02*
X3226786Y-15911071D01*
X3212500Y-15882500D01*
X3183928Y-15868214D01*
X3126786Y-15868214D01*
X3098214Y-15882500D01*
X3226786Y-16053929D02*
X3198214Y-16068214D01*
X3126786Y-16068214D01*
X3098214Y-16053929D01*
X3083928Y-16025357D01*
X3083928Y-15996786D01*
X3098214Y-15968214D01*
X3126786Y-15953929D01*
X3198214Y-15953929D01*
X3226786Y-15939643D01*
X3369643Y-15868214D02*
X3369643Y-16168214D01*
X3369643Y-15882500D02*
X3398214Y-15868214D01*
X3455357Y-15868214D01*
X3483928Y-15882500D01*
X3498214Y-15896786D01*
X3512500Y-15925357D01*
X3512500Y-16011071D01*
X3498214Y-16039643D01*
X3483928Y-16053929D01*
X3455357Y-16068214D01*
X3398214Y-16068214D01*
X3369643Y-16053929D01*
X3641071Y-16039643D02*
X3655357Y-16053929D01*
X3641071Y-16068214D01*
X3626786Y-16053929D01*
X3641071Y-16039643D01*
X3641071Y-16068214D01*
X3641071Y-15882500D02*
X3655357Y-15896786D01*
X3641071Y-15911071D01*
X3626786Y-15896786D01*
X3641071Y-15882500D01*
X3641071Y-15911071D01*
X1257500Y-16542500D02*
X1297500Y-16582500D01*
X1297500Y-16542500D02*
X1257500Y-16582500D01*
X1641071Y-16398214D02*
X1669643Y-16398214D01*
X1698214Y-16412500D01*
X1712500Y-16426786D01*
X1726786Y-16455357D01*
X1741071Y-16512500D01*
X1741071Y-16583929D01*
X1726786Y-16641071D01*
X1712500Y-16669643D01*
X1698214Y-16683929D01*
X1669643Y-16698214D01*
X1641071Y-16698214D01*
X1612500Y-16683929D01*
X1598214Y-16669643D01*
X1583928Y-16641071D01*
X1569643Y-16583929D01*
X1569643Y-16512500D01*
X1583928Y-16455357D01*
X1598214Y-16426786D01*
X1612500Y-16412500D01*
X1641071Y-16398214D01*
X1869643Y-16669643D02*
X1883928Y-16683929D01*
X1869643Y-16698214D01*
X1855357Y-16683929D01*
X1869643Y-16669643D01*
X1869643Y-16698214D01*
X2141071Y-16498214D02*
X2141071Y-16698214D01*
X2069643Y-16383929D02*
X1998214Y-16598214D01*
X2183928Y-16598214D01*
X2355357Y-16398214D02*
X2383928Y-16398214D01*
X2412500Y-16412500D01*
X2426786Y-16426786D01*
X2441071Y-16455357D01*
X2455357Y-16512500D01*
X2455357Y-16583929D01*
X2441071Y-16641071D01*
X2426786Y-16669643D01*
X2412500Y-16683929D01*
X2383928Y-16698214D01*
X2355357Y-16698214D01*
X2326786Y-16683929D01*
X2312500Y-16669643D01*
X2298214Y-16641071D01*
X2283928Y-16583929D01*
X2283928Y-16512500D01*
X2298214Y-16455357D01*
X2312500Y-16426786D01*
X2326786Y-16412500D01*
X2355357Y-16398214D01*
X2641071Y-16398214D02*
X2669643Y-16398214D01*
X2698214Y-16412500D01*
X2712500Y-16426786D01*
X2726786Y-16455357D01*
X2741071Y-16512500D01*
X2741071Y-16583929D01*
X2726786Y-16641071D01*
X2712500Y-16669643D01*
X2698214Y-16683929D01*
X2669643Y-16698214D01*
X2641071Y-16698214D01*
X2612500Y-16683929D01*
X2598214Y-16669643D01*
X2583928Y-16641071D01*
X2569643Y-16583929D01*
X2569643Y-16512500D01*
X2583928Y-16455357D01*
X2598214Y-16426786D01*
X2612500Y-16412500D01*
X2641071Y-16398214D01*
X2869643Y-16698214D02*
X2869643Y-16498214D01*
X2869643Y-16526786D02*
X2883928Y-16512500D01*
X2912500Y-16498214D01*
X2955357Y-16498214D01*
X2983928Y-16512500D01*
X2998214Y-16541071D01*
X2998214Y-16698214D01*
X2998214Y-16541071D02*
X3012500Y-16512500D01*
X3041071Y-16498214D01*
X3083928Y-16498214D01*
X3112500Y-16512500D01*
X3126786Y-16541071D01*
X3126786Y-16698214D01*
X3269643Y-16698214D02*
X3269643Y-16498214D01*
X3269643Y-16526786D02*
X3283928Y-16512500D01*
X3312500Y-16498214D01*
X3355357Y-16498214D01*
X3383928Y-16512500D01*
X3398214Y-16541071D01*
X3398214Y-16698214D01*
X3398214Y-16541071D02*
X3412500Y-16512500D01*
X3441071Y-16498214D01*
X3483928Y-16498214D01*
X3512500Y-16512500D01*
X3526786Y-16541071D01*
X3526786Y-16698214D01*
X4112500Y-16383929D02*
X3855357Y-16769643D01*
X4498214Y-16398214D02*
X4526786Y-16398214D01*
X4555357Y-16412500D01*
X4569643Y-16426786D01*
X4583928Y-16455357D01*
X4598214Y-16512500D01*
X4598214Y-16583929D01*
X4583928Y-16641071D01*
X4569643Y-16669643D01*
X4555357Y-16683929D01*
X4526786Y-16698214D01*
X4498214Y-16698214D01*
X4469643Y-16683929D01*
X4455357Y-16669643D01*
X4441071Y-16641071D01*
X4426786Y-16583929D01*
X4426786Y-16512500D01*
X4441071Y-16455357D01*
X4455357Y-16426786D01*
X4469643Y-16412500D01*
X4498214Y-16398214D01*
X4726786Y-16669643D02*
X4741071Y-16683929D01*
X4726786Y-16698214D01*
X4712500Y-16683929D01*
X4726786Y-16669643D01*
X4726786Y-16698214D01*
X4926786Y-16398214D02*
X4955357Y-16398214D01*
X4983928Y-16412500D01*
X4998214Y-16426786D01*
X5012500Y-16455357D01*
X5026786Y-16512500D01*
X5026786Y-16583929D01*
X5012500Y-16641071D01*
X4998214Y-16669643D01*
X4983928Y-16683929D01*
X4955357Y-16698214D01*
X4926786Y-16698214D01*
X4898214Y-16683929D01*
X4883928Y-16669643D01*
X4869643Y-16641071D01*
X4855357Y-16583929D01*
X4855357Y-16512500D01*
X4869643Y-16455357D01*
X4883928Y-16426786D01*
X4898214Y-16412500D01*
X4926786Y-16398214D01*
X5312500Y-16698214D02*
X5141071Y-16698214D01*
X5226786Y-16698214D02*
X5226786Y-16398214D01*
X5198214Y-16441071D01*
X5169643Y-16469643D01*
X5141071Y-16483929D01*
X5583928Y-16398214D02*
X5441071Y-16398214D01*
X5426786Y-16541071D01*
X5441071Y-16526786D01*
X5469643Y-16512500D01*
X5541071Y-16512500D01*
X5569643Y-16526786D01*
X5583928Y-16541071D01*
X5598214Y-16569643D01*
X5598214Y-16641071D01*
X5583928Y-16669643D01*
X5569643Y-16683929D01*
X5541071Y-16698214D01*
X5469643Y-16698214D01*
X5441071Y-16683929D01*
X5426786Y-16669643D01*
X5698214Y-16398214D02*
X5898214Y-16398214D01*
X5769643Y-16698214D01*
X5998214Y-16398214D02*
X5998214Y-16455357D01*
X6112500Y-16398214D02*
X6112500Y-16455357D01*
X6555357Y-16812500D02*
X6541071Y-16798214D01*
X6512500Y-16755357D01*
X6498214Y-16726786D01*
X6483928Y-16683929D01*
X6469643Y-16612500D01*
X6469643Y-16555357D01*
X6483928Y-16483929D01*
X6498214Y-16441071D01*
X6512500Y-16412500D01*
X6541071Y-16369643D01*
X6555357Y-16355357D01*
X6798214Y-16498214D02*
X6798214Y-16698214D01*
X6726786Y-16383929D02*
X6655357Y-16598214D01*
X6841071Y-16598214D01*
X6998214Y-16526786D02*
X6969643Y-16512500D01*
X6955357Y-16498214D01*
X6941071Y-16469643D01*
X6941071Y-16455357D01*
X6955357Y-16426786D01*
X6969643Y-16412500D01*
X6998214Y-16398214D01*
X7055357Y-16398214D01*
X7083928Y-16412500D01*
X7098214Y-16426786D01*
X7112500Y-16455357D01*
X7112500Y-16469643D01*
X7098214Y-16498214D01*
X7083928Y-16512500D01*
X7055357Y-16526786D01*
X6998214Y-16526786D01*
X6969643Y-16541071D01*
X6955357Y-16555357D01*
X6941071Y-16583929D01*
X6941071Y-16641071D01*
X6955357Y-16669643D01*
X6969643Y-16683929D01*
X6998214Y-16698214D01*
X7055357Y-16698214D01*
X7083928Y-16683929D01*
X7098214Y-16669643D01*
X7112500Y-16641071D01*
X7112500Y-16583929D01*
X7098214Y-16555357D01*
X7083928Y-16541071D01*
X7055357Y-16526786D01*
X7469643Y-16698214D02*
X7469643Y-16398214D01*
X7598214Y-16698214D02*
X7598214Y-16541071D01*
X7583928Y-16512500D01*
X7555357Y-16498214D01*
X7512500Y-16498214D01*
X7483928Y-16512500D01*
X7469643Y-16526786D01*
X7783928Y-16698214D02*
X7755357Y-16683929D01*
X7741071Y-16669643D01*
X7726786Y-16641071D01*
X7726786Y-16555357D01*
X7741071Y-16526786D01*
X7755357Y-16512500D01*
X7783928Y-16498214D01*
X7826786Y-16498214D01*
X7855357Y-16512500D01*
X7869643Y-16526786D01*
X7883928Y-16555357D01*
X7883928Y-16641071D01*
X7869643Y-16669643D01*
X7855357Y-16683929D01*
X7826786Y-16698214D01*
X7783928Y-16698214D01*
X8055357Y-16698214D02*
X8026786Y-16683929D01*
X8012500Y-16655357D01*
X8012500Y-16398214D01*
X8283928Y-16683929D02*
X8255357Y-16698214D01*
X8198214Y-16698214D01*
X8169643Y-16683929D01*
X8155357Y-16655357D01*
X8155357Y-16541071D01*
X8169643Y-16512500D01*
X8198214Y-16498214D01*
X8255357Y-16498214D01*
X8283928Y-16512500D01*
X8298214Y-16541071D01*
X8298214Y-16569643D01*
X8155357Y-16598214D01*
X8412500Y-16683929D02*
X8441071Y-16698214D01*
X8498214Y-16698214D01*
X8526786Y-16683929D01*
X8541071Y-16655357D01*
X8541071Y-16641071D01*
X8526786Y-16612500D01*
X8498214Y-16598214D01*
X8455357Y-16598214D01*
X8426786Y-16583929D01*
X8412500Y-16555357D01*
X8412500Y-16541071D01*
X8426786Y-16512500D01*
X8455357Y-16498214D01*
X8498214Y-16498214D01*
X8526786Y-16512500D01*
X8641071Y-16812500D02*
X8655357Y-16798214D01*
X8683928Y-16755357D01*
X8698214Y-16726786D01*
X8712500Y-16683929D01*
X8726786Y-16612500D01*
X8726786Y-16555357D01*
X8712500Y-16483929D01*
X8698214Y-16441071D01*
X8683928Y-16412500D01*
X8655357Y-16369643D01*
X8641071Y-16355357D01*
X1297500Y-16958500D02*
G75*
G03*
X1297500Y-16958500I-32500J0D01*
G01*
X1641071Y-16794214D02*
X1669643Y-16794214D01*
X1698214Y-16808500D01*
X1712500Y-16822786D01*
X1726786Y-16851357D01*
X1741071Y-16908500D01*
X1741071Y-16979929D01*
X1726786Y-17037072D01*
X1712500Y-17065643D01*
X1698214Y-17079929D01*
X1669643Y-17094214D01*
X1641071Y-17094214D01*
X1612500Y-17079929D01*
X1598214Y-17065643D01*
X1583928Y-17037072D01*
X1569643Y-16979929D01*
X1569643Y-16908500D01*
X1583928Y-16851357D01*
X1598214Y-16822786D01*
X1612500Y-16808500D01*
X1641071Y-16794214D01*
X1869643Y-17065643D02*
X1883928Y-17079929D01*
X1869643Y-17094214D01*
X1855357Y-17079929D01*
X1869643Y-17065643D01*
X1869643Y-17094214D01*
X2141071Y-16794214D02*
X2083928Y-16794214D01*
X2055357Y-16808500D01*
X2041071Y-16822786D01*
X2012500Y-16865643D01*
X1998214Y-16922786D01*
X1998214Y-17037072D01*
X2012500Y-17065643D01*
X2026786Y-17079929D01*
X2055357Y-17094214D01*
X2112500Y-17094214D01*
X2141071Y-17079929D01*
X2155357Y-17065643D01*
X2169643Y-17037072D01*
X2169643Y-16965643D01*
X2155357Y-16937072D01*
X2141071Y-16922786D01*
X2112500Y-16908500D01*
X2055357Y-16908500D01*
X2026786Y-16922786D01*
X2012500Y-16937072D01*
X1998214Y-16965643D01*
X2441071Y-16794214D02*
X2298214Y-16794214D01*
X2283928Y-16937072D01*
X2298214Y-16922786D01*
X2326786Y-16908500D01*
X2398214Y-16908500D01*
X2426786Y-16922786D01*
X2441071Y-16937072D01*
X2455357Y-16965643D01*
X2455357Y-17037072D01*
X2441071Y-17065643D01*
X2426786Y-17079929D01*
X2398214Y-17094214D01*
X2326786Y-17094214D01*
X2298214Y-17079929D01*
X2283928Y-17065643D01*
X2641071Y-16794214D02*
X2669643Y-16794214D01*
X2698214Y-16808500D01*
X2712500Y-16822786D01*
X2726786Y-16851357D01*
X2741071Y-16908500D01*
X2741071Y-16979929D01*
X2726786Y-17037072D01*
X2712500Y-17065643D01*
X2698214Y-17079929D01*
X2669643Y-17094214D01*
X2641071Y-17094214D01*
X2612500Y-17079929D01*
X2598214Y-17065643D01*
X2583928Y-17037072D01*
X2569643Y-16979929D01*
X2569643Y-16908500D01*
X2583928Y-16851357D01*
X2598214Y-16822786D01*
X2612500Y-16808500D01*
X2641071Y-16794214D01*
X2869643Y-17094214D02*
X2869643Y-16894214D01*
X2869643Y-16922786D02*
X2883928Y-16908500D01*
X2912500Y-16894214D01*
X2955357Y-16894214D01*
X2983928Y-16908500D01*
X2998214Y-16937072D01*
X2998214Y-17094214D01*
X2998214Y-16937072D02*
X3012500Y-16908500D01*
X3041071Y-16894214D01*
X3083928Y-16894214D01*
X3112500Y-16908500D01*
X3126786Y-16937072D01*
X3126786Y-17094214D01*
X3269643Y-17094214D02*
X3269643Y-16894214D01*
X3269643Y-16922786D02*
X3283928Y-16908500D01*
X3312500Y-16894214D01*
X3355357Y-16894214D01*
X3383928Y-16908500D01*
X3398214Y-16937072D01*
X3398214Y-17094214D01*
X3398214Y-16937072D02*
X3412500Y-16908500D01*
X3441071Y-16894214D01*
X3483928Y-16894214D01*
X3512500Y-16908500D01*
X3526786Y-16937072D01*
X3526786Y-17094214D01*
X4112500Y-16779929D02*
X3855357Y-17165643D01*
X4498214Y-16794214D02*
X4526786Y-16794214D01*
X4555357Y-16808500D01*
X4569643Y-16822786D01*
X4583928Y-16851357D01*
X4598214Y-16908500D01*
X4598214Y-16979929D01*
X4583928Y-17037072D01*
X4569643Y-17065643D01*
X4555357Y-17079929D01*
X4526786Y-17094214D01*
X4498214Y-17094214D01*
X4469643Y-17079929D01*
X4455357Y-17065643D01*
X4441071Y-17037072D01*
X4426786Y-16979929D01*
X4426786Y-16908500D01*
X4441071Y-16851357D01*
X4455357Y-16822786D01*
X4469643Y-16808500D01*
X4498214Y-16794214D01*
X4726786Y-17065643D02*
X4741071Y-17079929D01*
X4726786Y-17094214D01*
X4712500Y-17079929D01*
X4726786Y-17065643D01*
X4726786Y-17094214D01*
X4926786Y-16794214D02*
X4955357Y-16794214D01*
X4983928Y-16808500D01*
X4998214Y-16822786D01*
X5012500Y-16851357D01*
X5026786Y-16908500D01*
X5026786Y-16979929D01*
X5012500Y-17037072D01*
X4998214Y-17065643D01*
X4983928Y-17079929D01*
X4955357Y-17094214D01*
X4926786Y-17094214D01*
X4898214Y-17079929D01*
X4883928Y-17065643D01*
X4869643Y-17037072D01*
X4855357Y-16979929D01*
X4855357Y-16908500D01*
X4869643Y-16851357D01*
X4883928Y-16822786D01*
X4898214Y-16808500D01*
X4926786Y-16794214D01*
X5141071Y-16822786D02*
X5155357Y-16808500D01*
X5183928Y-16794214D01*
X5255357Y-16794214D01*
X5283928Y-16808500D01*
X5298214Y-16822786D01*
X5312500Y-16851357D01*
X5312500Y-16879929D01*
X5298214Y-16922786D01*
X5126786Y-17094214D01*
X5312500Y-17094214D01*
X5583928Y-16794214D02*
X5441071Y-16794214D01*
X5426786Y-16937072D01*
X5441071Y-16922786D01*
X5469643Y-16908500D01*
X5541071Y-16908500D01*
X5569643Y-16922786D01*
X5583928Y-16937072D01*
X5598214Y-16965643D01*
X5598214Y-17037072D01*
X5583928Y-17065643D01*
X5569643Y-17079929D01*
X5541071Y-17094214D01*
X5469643Y-17094214D01*
X5441071Y-17079929D01*
X5426786Y-17065643D01*
X5855357Y-16794214D02*
X5798214Y-16794214D01*
X5769643Y-16808500D01*
X5755357Y-16822786D01*
X5726786Y-16865643D01*
X5712500Y-16922786D01*
X5712500Y-17037072D01*
X5726786Y-17065643D01*
X5741071Y-17079929D01*
X5769643Y-17094214D01*
X5826786Y-17094214D01*
X5855357Y-17079929D01*
X5869643Y-17065643D01*
X5883928Y-17037072D01*
X5883928Y-16965643D01*
X5869643Y-16937072D01*
X5855357Y-16922786D01*
X5826786Y-16908500D01*
X5769643Y-16908500D01*
X5741071Y-16922786D01*
X5726786Y-16937072D01*
X5712500Y-16965643D01*
X5998214Y-16794214D02*
X5998214Y-16851357D01*
X6112500Y-16794214D02*
X6112500Y-16851357D01*
X6555357Y-17208500D02*
X6541071Y-17194214D01*
X6512500Y-17151357D01*
X6498214Y-17122786D01*
X6483928Y-17079929D01*
X6469643Y-17008500D01*
X6469643Y-16951357D01*
X6483928Y-16879929D01*
X6498214Y-16837072D01*
X6512500Y-16808500D01*
X6541071Y-16765643D01*
X6555357Y-16751357D01*
X6798214Y-16894214D02*
X6798214Y-17094214D01*
X6726786Y-16779929D02*
X6655357Y-16994214D01*
X6841071Y-16994214D01*
X7183928Y-17094214D02*
X7183928Y-16794214D01*
X7312500Y-17094214D02*
X7312500Y-16937072D01*
X7298214Y-16908500D01*
X7269643Y-16894214D01*
X7226786Y-16894214D01*
X7198214Y-16908500D01*
X7183928Y-16922786D01*
X7498214Y-17094214D02*
X7469643Y-17079929D01*
X7455357Y-17065643D01*
X7441071Y-17037072D01*
X7441071Y-16951357D01*
X7455357Y-16922786D01*
X7469643Y-16908500D01*
X7498214Y-16894214D01*
X7541071Y-16894214D01*
X7569643Y-16908500D01*
X7583928Y-16922786D01*
X7598214Y-16951357D01*
X7598214Y-17037072D01*
X7583928Y-17065643D01*
X7569643Y-17079929D01*
X7541071Y-17094214D01*
X7498214Y-17094214D01*
X7769643Y-17094214D02*
X7741071Y-17079929D01*
X7726786Y-17051357D01*
X7726786Y-16794214D01*
X7998214Y-17079929D02*
X7969643Y-17094214D01*
X7912500Y-17094214D01*
X7883928Y-17079929D01*
X7869643Y-17051357D01*
X7869643Y-16937072D01*
X7883928Y-16908500D01*
X7912500Y-16894214D01*
X7969643Y-16894214D01*
X7998214Y-16908500D01*
X8012500Y-16937072D01*
X8012500Y-16965643D01*
X7869643Y-16994214D01*
X8126786Y-17079929D02*
X8155357Y-17094214D01*
X8212500Y-17094214D01*
X8241071Y-17079929D01*
X8255357Y-17051357D01*
X8255357Y-17037072D01*
X8241071Y-17008500D01*
X8212500Y-16994214D01*
X8169643Y-16994214D01*
X8141071Y-16979929D01*
X8126786Y-16951357D01*
X8126786Y-16937072D01*
X8141071Y-16908500D01*
X8169643Y-16894214D01*
X8212500Y-16894214D01*
X8241071Y-16908500D01*
X8355357Y-17208500D02*
X8369643Y-17194214D01*
X8398214Y-17151357D01*
X8412500Y-17122786D01*
X8426786Y-17079929D01*
X8441071Y-17008500D01*
X8441071Y-16951357D01*
X8426786Y-16879929D01*
X8412500Y-16837072D01*
X8398214Y-16808500D01*
X8369643Y-16765643D01*
X8355357Y-16751357D01*
X1260000Y-17317000D02*
X1260000Y-17392000D01*
X1222500Y-17354500D02*
X1297500Y-17354500D01*
X1641071Y-17190214D02*
X1669643Y-17190214D01*
X1698214Y-17204500D01*
X1712500Y-17218786D01*
X1726786Y-17247357D01*
X1741071Y-17304500D01*
X1741071Y-17375929D01*
X1726786Y-17433072D01*
X1712500Y-17461643D01*
X1698214Y-17475929D01*
X1669643Y-17490214D01*
X1641071Y-17490214D01*
X1612500Y-17475929D01*
X1598214Y-17461643D01*
X1583928Y-17433072D01*
X1569643Y-17375929D01*
X1569643Y-17304500D01*
X1583928Y-17247357D01*
X1598214Y-17218786D01*
X1612500Y-17204500D01*
X1641071Y-17190214D01*
X1869643Y-17461643D02*
X1883928Y-17475929D01*
X1869643Y-17490214D01*
X1855357Y-17475929D01*
X1869643Y-17461643D01*
X1869643Y-17490214D01*
X1983928Y-17190214D02*
X2183928Y-17190214D01*
X2055357Y-17490214D01*
X2441071Y-17190214D02*
X2298214Y-17190214D01*
X2283928Y-17333072D01*
X2298214Y-17318786D01*
X2326786Y-17304500D01*
X2398214Y-17304500D01*
X2426786Y-17318786D01*
X2441071Y-17333072D01*
X2455357Y-17361643D01*
X2455357Y-17433072D01*
X2441071Y-17461643D01*
X2426786Y-17475929D01*
X2398214Y-17490214D01*
X2326786Y-17490214D01*
X2298214Y-17475929D01*
X2283928Y-17461643D01*
X2641071Y-17190214D02*
X2669643Y-17190214D01*
X2698214Y-17204500D01*
X2712500Y-17218786D01*
X2726786Y-17247357D01*
X2741071Y-17304500D01*
X2741071Y-17375929D01*
X2726786Y-17433072D01*
X2712500Y-17461643D01*
X2698214Y-17475929D01*
X2669643Y-17490214D01*
X2641071Y-17490214D01*
X2612500Y-17475929D01*
X2598214Y-17461643D01*
X2583928Y-17433072D01*
X2569643Y-17375929D01*
X2569643Y-17304500D01*
X2583928Y-17247357D01*
X2598214Y-17218786D01*
X2612500Y-17204500D01*
X2641071Y-17190214D01*
X2869643Y-17490214D02*
X2869643Y-17290214D01*
X2869643Y-17318786D02*
X2883928Y-17304500D01*
X2912500Y-17290214D01*
X2955357Y-17290214D01*
X2983928Y-17304500D01*
X2998214Y-17333072D01*
X2998214Y-17490214D01*
X2998214Y-17333072D02*
X3012500Y-17304500D01*
X3041071Y-17290214D01*
X3083928Y-17290214D01*
X3112500Y-17304500D01*
X3126786Y-17333072D01*
X3126786Y-17490214D01*
X3269643Y-17490214D02*
X3269643Y-17290214D01*
X3269643Y-17318786D02*
X3283928Y-17304500D01*
X3312500Y-17290214D01*
X3355357Y-17290214D01*
X3383928Y-17304500D01*
X3398214Y-17333072D01*
X3398214Y-17490214D01*
X3398214Y-17333072D02*
X3412500Y-17304500D01*
X3441071Y-17290214D01*
X3483928Y-17290214D01*
X3512500Y-17304500D01*
X3526786Y-17333072D01*
X3526786Y-17490214D01*
X4112500Y-17175929D02*
X3855357Y-17561643D01*
X4498214Y-17190214D02*
X4526786Y-17190214D01*
X4555357Y-17204500D01*
X4569643Y-17218786D01*
X4583928Y-17247357D01*
X4598214Y-17304500D01*
X4598214Y-17375929D01*
X4583928Y-17433072D01*
X4569643Y-17461643D01*
X4555357Y-17475929D01*
X4526786Y-17490214D01*
X4498214Y-17490214D01*
X4469643Y-17475929D01*
X4455357Y-17461643D01*
X4441071Y-17433072D01*
X4426786Y-17375929D01*
X4426786Y-17304500D01*
X4441071Y-17247357D01*
X4455357Y-17218786D01*
X4469643Y-17204500D01*
X4498214Y-17190214D01*
X4726786Y-17461643D02*
X4741071Y-17475929D01*
X4726786Y-17490214D01*
X4712500Y-17475929D01*
X4726786Y-17461643D01*
X4726786Y-17490214D01*
X4926786Y-17190214D02*
X4955357Y-17190214D01*
X4983928Y-17204500D01*
X4998214Y-17218786D01*
X5012500Y-17247357D01*
X5026786Y-17304500D01*
X5026786Y-17375929D01*
X5012500Y-17433072D01*
X4998214Y-17461643D01*
X4983928Y-17475929D01*
X4955357Y-17490214D01*
X4926786Y-17490214D01*
X4898214Y-17475929D01*
X4883928Y-17461643D01*
X4869643Y-17433072D01*
X4855357Y-17375929D01*
X4855357Y-17304500D01*
X4869643Y-17247357D01*
X4883928Y-17218786D01*
X4898214Y-17204500D01*
X4926786Y-17190214D01*
X5141071Y-17218786D02*
X5155357Y-17204500D01*
X5183928Y-17190214D01*
X5255357Y-17190214D01*
X5283928Y-17204500D01*
X5298214Y-17218786D01*
X5312500Y-17247357D01*
X5312500Y-17275929D01*
X5298214Y-17318786D01*
X5126786Y-17490214D01*
X5312500Y-17490214D01*
X5455357Y-17490214D02*
X5512500Y-17490214D01*
X5541071Y-17475929D01*
X5555357Y-17461643D01*
X5583928Y-17418786D01*
X5598214Y-17361643D01*
X5598214Y-17247357D01*
X5583928Y-17218786D01*
X5569643Y-17204500D01*
X5541071Y-17190214D01*
X5483928Y-17190214D01*
X5455357Y-17204500D01*
X5441071Y-17218786D01*
X5426786Y-17247357D01*
X5426786Y-17318786D01*
X5441071Y-17347357D01*
X5455357Y-17361643D01*
X5483928Y-17375929D01*
X5541071Y-17375929D01*
X5569643Y-17361643D01*
X5583928Y-17347357D01*
X5598214Y-17318786D01*
X5869643Y-17190214D02*
X5726786Y-17190214D01*
X5712500Y-17333072D01*
X5726786Y-17318786D01*
X5755357Y-17304500D01*
X5826786Y-17304500D01*
X5855357Y-17318786D01*
X5869643Y-17333072D01*
X5883928Y-17361643D01*
X5883928Y-17433072D01*
X5869643Y-17461643D01*
X5855357Y-17475929D01*
X5826786Y-17490214D01*
X5755357Y-17490214D01*
X5726786Y-17475929D01*
X5712500Y-17461643D01*
X5998214Y-17190214D02*
X5998214Y-17247357D01*
X6112500Y-17190214D02*
X6112500Y-17247357D01*
X6555357Y-17604500D02*
X6541071Y-17590214D01*
X6512500Y-17547357D01*
X6498214Y-17518786D01*
X6483928Y-17475929D01*
X6469643Y-17404500D01*
X6469643Y-17347357D01*
X6483928Y-17275929D01*
X6498214Y-17233072D01*
X6512500Y-17204500D01*
X6541071Y-17161643D01*
X6555357Y-17147357D01*
X6641071Y-17190214D02*
X6826786Y-17190214D01*
X6726786Y-17304500D01*
X6769643Y-17304500D01*
X6798214Y-17318786D01*
X6812500Y-17333072D01*
X6826786Y-17361643D01*
X6826786Y-17433072D01*
X6812500Y-17461643D01*
X6798214Y-17475929D01*
X6769643Y-17490214D01*
X6683928Y-17490214D01*
X6655357Y-17475929D01*
X6641071Y-17461643D01*
X7183928Y-17490214D02*
X7183928Y-17190214D01*
X7312500Y-17490214D02*
X7312500Y-17333072D01*
X7298214Y-17304500D01*
X7269643Y-17290214D01*
X7226786Y-17290214D01*
X7198214Y-17304500D01*
X7183928Y-17318786D01*
X7498214Y-17490214D02*
X7469643Y-17475929D01*
X7455357Y-17461643D01*
X7441071Y-17433072D01*
X7441071Y-17347357D01*
X7455357Y-17318786D01*
X7469643Y-17304500D01*
X7498214Y-17290214D01*
X7541071Y-17290214D01*
X7569643Y-17304500D01*
X7583928Y-17318786D01*
X7598214Y-17347357D01*
X7598214Y-17433072D01*
X7583928Y-17461643D01*
X7569643Y-17475929D01*
X7541071Y-17490214D01*
X7498214Y-17490214D01*
X7769643Y-17490214D02*
X7741071Y-17475929D01*
X7726786Y-17447357D01*
X7726786Y-17190214D01*
X7998214Y-17475929D02*
X7969643Y-17490214D01*
X7912500Y-17490214D01*
X7883928Y-17475929D01*
X7869643Y-17447357D01*
X7869643Y-17333072D01*
X7883928Y-17304500D01*
X7912500Y-17290214D01*
X7969643Y-17290214D01*
X7998214Y-17304500D01*
X8012500Y-17333072D01*
X8012500Y-17361643D01*
X7869643Y-17390214D01*
X8126786Y-17475929D02*
X8155357Y-17490214D01*
X8212500Y-17490214D01*
X8241071Y-17475929D01*
X8255357Y-17447357D01*
X8255357Y-17433072D01*
X8241071Y-17404500D01*
X8212500Y-17390214D01*
X8169643Y-17390214D01*
X8141071Y-17375929D01*
X8126786Y-17347357D01*
X8126786Y-17333072D01*
X8141071Y-17304500D01*
X8169643Y-17290214D01*
X8212500Y-17290214D01*
X8241071Y-17304500D01*
X8355357Y-17604500D02*
X8369643Y-17590214D01*
X8398214Y-17547357D01*
X8412500Y-17518786D01*
X8426786Y-17475929D01*
X8441071Y-17404500D01*
X8441071Y-17347357D01*
X8426786Y-17275929D01*
X8412500Y-17233072D01*
X8398214Y-17204500D01*
X8369643Y-17161643D01*
X8355357Y-17147357D01*
X1286370Y-17777370D02*
X1286370Y-17723630D01*
X1232630Y-17723630D01*
X1232630Y-17777370D01*
X1286370Y-17777370D01*
X1641071Y-17586214D02*
X1669643Y-17586214D01*
X1698214Y-17600500D01*
X1712500Y-17614786D01*
X1726786Y-17643357D01*
X1741071Y-17700500D01*
X1741071Y-17771929D01*
X1726786Y-17829072D01*
X1712500Y-17857643D01*
X1698214Y-17871929D01*
X1669643Y-17886214D01*
X1641071Y-17886214D01*
X1612500Y-17871929D01*
X1598214Y-17857643D01*
X1583928Y-17829072D01*
X1569643Y-17771929D01*
X1569643Y-17700500D01*
X1583928Y-17643357D01*
X1598214Y-17614786D01*
X1612500Y-17600500D01*
X1641071Y-17586214D01*
X1869643Y-17857643D02*
X1883928Y-17871929D01*
X1869643Y-17886214D01*
X1855357Y-17871929D01*
X1869643Y-17857643D01*
X1869643Y-17886214D01*
X1983928Y-17586214D02*
X2183928Y-17586214D01*
X2055357Y-17886214D01*
X2426786Y-17586214D02*
X2369643Y-17586214D01*
X2341071Y-17600500D01*
X2326786Y-17614786D01*
X2298214Y-17657643D01*
X2283928Y-17714786D01*
X2283928Y-17829072D01*
X2298214Y-17857643D01*
X2312500Y-17871929D01*
X2341071Y-17886214D01*
X2398214Y-17886214D01*
X2426786Y-17871929D01*
X2441071Y-17857643D01*
X2455357Y-17829072D01*
X2455357Y-17757643D01*
X2441071Y-17729072D01*
X2426786Y-17714786D01*
X2398214Y-17700500D01*
X2341071Y-17700500D01*
X2312500Y-17714786D01*
X2298214Y-17729072D01*
X2283928Y-17757643D01*
X2641071Y-17586214D02*
X2669643Y-17586214D01*
X2698214Y-17600500D01*
X2712500Y-17614786D01*
X2726786Y-17643357D01*
X2741071Y-17700500D01*
X2741071Y-17771929D01*
X2726786Y-17829072D01*
X2712500Y-17857643D01*
X2698214Y-17871929D01*
X2669643Y-17886214D01*
X2641071Y-17886214D01*
X2612500Y-17871929D01*
X2598214Y-17857643D01*
X2583928Y-17829072D01*
X2569643Y-17771929D01*
X2569643Y-17700500D01*
X2583928Y-17643357D01*
X2598214Y-17614786D01*
X2612500Y-17600500D01*
X2641071Y-17586214D01*
X2869643Y-17886214D02*
X2869643Y-17686214D01*
X2869643Y-17714786D02*
X2883928Y-17700500D01*
X2912500Y-17686214D01*
X2955357Y-17686214D01*
X2983928Y-17700500D01*
X2998214Y-17729072D01*
X2998214Y-17886214D01*
X2998214Y-17729072D02*
X3012500Y-17700500D01*
X3041071Y-17686214D01*
X3083928Y-17686214D01*
X3112500Y-17700500D01*
X3126786Y-17729072D01*
X3126786Y-17886214D01*
X3269643Y-17886214D02*
X3269643Y-17686214D01*
X3269643Y-17714786D02*
X3283928Y-17700500D01*
X3312500Y-17686214D01*
X3355357Y-17686214D01*
X3383928Y-17700500D01*
X3398214Y-17729072D01*
X3398214Y-17886214D01*
X3398214Y-17729072D02*
X3412500Y-17700500D01*
X3441071Y-17686214D01*
X3483928Y-17686214D01*
X3512500Y-17700500D01*
X3526786Y-17729072D01*
X3526786Y-17886214D01*
X4112500Y-17571929D02*
X3855357Y-17957643D01*
X4498214Y-17586214D02*
X4526786Y-17586214D01*
X4555357Y-17600500D01*
X4569643Y-17614786D01*
X4583928Y-17643357D01*
X4598214Y-17700500D01*
X4598214Y-17771929D01*
X4583928Y-17829072D01*
X4569643Y-17857643D01*
X4555357Y-17871929D01*
X4526786Y-17886214D01*
X4498214Y-17886214D01*
X4469643Y-17871929D01*
X4455357Y-17857643D01*
X4441071Y-17829072D01*
X4426786Y-17771929D01*
X4426786Y-17700500D01*
X4441071Y-17643357D01*
X4455357Y-17614786D01*
X4469643Y-17600500D01*
X4498214Y-17586214D01*
X4726786Y-17857643D02*
X4741071Y-17871929D01*
X4726786Y-17886214D01*
X4712500Y-17871929D01*
X4726786Y-17857643D01*
X4726786Y-17886214D01*
X4926786Y-17586214D02*
X4955357Y-17586214D01*
X4983928Y-17600500D01*
X4998214Y-17614786D01*
X5012500Y-17643357D01*
X5026786Y-17700500D01*
X5026786Y-17771929D01*
X5012500Y-17829072D01*
X4998214Y-17857643D01*
X4983928Y-17871929D01*
X4955357Y-17886214D01*
X4926786Y-17886214D01*
X4898214Y-17871929D01*
X4883928Y-17857643D01*
X4869643Y-17829072D01*
X4855357Y-17771929D01*
X4855357Y-17700500D01*
X4869643Y-17643357D01*
X4883928Y-17614786D01*
X4898214Y-17600500D01*
X4926786Y-17586214D01*
X5141071Y-17614786D02*
X5155357Y-17600500D01*
X5183928Y-17586214D01*
X5255357Y-17586214D01*
X5283928Y-17600500D01*
X5298214Y-17614786D01*
X5312500Y-17643357D01*
X5312500Y-17671929D01*
X5298214Y-17714786D01*
X5126786Y-17886214D01*
X5312500Y-17886214D01*
X5455357Y-17886214D02*
X5512500Y-17886214D01*
X5541071Y-17871929D01*
X5555357Y-17857643D01*
X5583928Y-17814786D01*
X5598214Y-17757643D01*
X5598214Y-17643357D01*
X5583928Y-17614786D01*
X5569643Y-17600500D01*
X5541071Y-17586214D01*
X5483928Y-17586214D01*
X5455357Y-17600500D01*
X5441071Y-17614786D01*
X5426786Y-17643357D01*
X5426786Y-17714786D01*
X5441071Y-17743357D01*
X5455357Y-17757643D01*
X5483928Y-17771929D01*
X5541071Y-17771929D01*
X5569643Y-17757643D01*
X5583928Y-17743357D01*
X5598214Y-17714786D01*
X5741071Y-17886214D02*
X5798214Y-17886214D01*
X5826786Y-17871929D01*
X5841071Y-17857643D01*
X5869643Y-17814786D01*
X5883928Y-17757643D01*
X5883928Y-17643357D01*
X5869643Y-17614786D01*
X5855357Y-17600500D01*
X5826786Y-17586214D01*
X5769643Y-17586214D01*
X5741071Y-17600500D01*
X5726786Y-17614786D01*
X5712500Y-17643357D01*
X5712500Y-17714786D01*
X5726786Y-17743357D01*
X5741071Y-17757643D01*
X5769643Y-17771929D01*
X5826786Y-17771929D01*
X5855357Y-17757643D01*
X5869643Y-17743357D01*
X5883928Y-17714786D01*
X5998214Y-17586214D02*
X5998214Y-17643357D01*
X6112500Y-17586214D02*
X6112500Y-17643357D01*
X6555357Y-18000500D02*
X6541071Y-17986214D01*
X6512500Y-17943357D01*
X6498214Y-17914786D01*
X6483928Y-17871929D01*
X6469643Y-17800500D01*
X6469643Y-17743357D01*
X6483928Y-17671929D01*
X6498214Y-17629072D01*
X6512500Y-17600500D01*
X6541071Y-17557643D01*
X6555357Y-17543357D01*
X6712500Y-17714786D02*
X6683928Y-17700500D01*
X6669643Y-17686214D01*
X6655357Y-17657643D01*
X6655357Y-17643357D01*
X6669643Y-17614786D01*
X6683928Y-17600500D01*
X6712500Y-17586214D01*
X6769643Y-17586214D01*
X6798214Y-17600500D01*
X6812500Y-17614786D01*
X6826786Y-17643357D01*
X6826786Y-17657643D01*
X6812500Y-17686214D01*
X6798214Y-17700500D01*
X6769643Y-17714786D01*
X6712500Y-17714786D01*
X6683928Y-17729072D01*
X6669643Y-17743357D01*
X6655357Y-17771929D01*
X6655357Y-17829072D01*
X6669643Y-17857643D01*
X6683928Y-17871929D01*
X6712500Y-17886214D01*
X6769643Y-17886214D01*
X6798214Y-17871929D01*
X6812500Y-17857643D01*
X6826786Y-17829072D01*
X6826786Y-17771929D01*
X6812500Y-17743357D01*
X6798214Y-17729072D01*
X6769643Y-17714786D01*
X7183928Y-17886214D02*
X7183928Y-17586214D01*
X7312500Y-17886214D02*
X7312500Y-17729072D01*
X7298214Y-17700500D01*
X7269643Y-17686214D01*
X7226786Y-17686214D01*
X7198214Y-17700500D01*
X7183928Y-17714786D01*
X7498214Y-17886214D02*
X7469643Y-17871929D01*
X7455357Y-17857643D01*
X7441071Y-17829072D01*
X7441071Y-17743357D01*
X7455357Y-17714786D01*
X7469643Y-17700500D01*
X7498214Y-17686214D01*
X7541071Y-17686214D01*
X7569643Y-17700500D01*
X7583928Y-17714786D01*
X7598214Y-17743357D01*
X7598214Y-17829072D01*
X7583928Y-17857643D01*
X7569643Y-17871929D01*
X7541071Y-17886214D01*
X7498214Y-17886214D01*
X7769643Y-17886214D02*
X7741071Y-17871929D01*
X7726786Y-17843357D01*
X7726786Y-17586214D01*
X7998214Y-17871929D02*
X7969643Y-17886214D01*
X7912500Y-17886214D01*
X7883928Y-17871929D01*
X7869643Y-17843357D01*
X7869643Y-17729072D01*
X7883928Y-17700500D01*
X7912500Y-17686214D01*
X7969643Y-17686214D01*
X7998214Y-17700500D01*
X8012500Y-17729072D01*
X8012500Y-17757643D01*
X7869643Y-17786214D01*
X8126786Y-17871929D02*
X8155357Y-17886214D01*
X8212500Y-17886214D01*
X8241071Y-17871929D01*
X8255357Y-17843357D01*
X8255357Y-17829072D01*
X8241071Y-17800500D01*
X8212500Y-17786214D01*
X8169643Y-17786214D01*
X8141071Y-17771929D01*
X8126786Y-17743357D01*
X8126786Y-17729072D01*
X8141071Y-17700500D01*
X8169643Y-17686214D01*
X8212500Y-17686214D01*
X8241071Y-17700500D01*
X8355357Y-18000500D02*
X8369643Y-17986214D01*
X8398214Y-17943357D01*
X8412500Y-17914786D01*
X8426786Y-17871929D01*
X8441071Y-17800500D01*
X8441071Y-17743357D01*
X8426786Y-17671929D01*
X8412500Y-17629072D01*
X8398214Y-17600500D01*
X8369643Y-17557643D01*
X8355357Y-17543357D01*
X1257500Y-18186500D02*
X1297500Y-18146500D01*
X1257500Y-18106500D01*
X1217500Y-18146500D01*
X1257500Y-18186500D01*
X1641071Y-17982214D02*
X1669643Y-17982214D01*
X1698214Y-17996500D01*
X1712500Y-18010786D01*
X1726786Y-18039357D01*
X1741071Y-18096500D01*
X1741071Y-18167929D01*
X1726786Y-18225072D01*
X1712500Y-18253643D01*
X1698214Y-18267929D01*
X1669643Y-18282214D01*
X1641071Y-18282214D01*
X1612500Y-18267929D01*
X1598214Y-18253643D01*
X1583928Y-18225072D01*
X1569643Y-18167929D01*
X1569643Y-18096500D01*
X1583928Y-18039357D01*
X1598214Y-18010786D01*
X1612500Y-17996500D01*
X1641071Y-17982214D01*
X1869643Y-18253643D02*
X1883928Y-18267929D01*
X1869643Y-18282214D01*
X1855357Y-18267929D01*
X1869643Y-18253643D01*
X1869643Y-18282214D01*
X2055357Y-18110786D02*
X2026786Y-18096500D01*
X2012500Y-18082214D01*
X1998214Y-18053643D01*
X1998214Y-18039357D01*
X2012500Y-18010786D01*
X2026786Y-17996500D01*
X2055357Y-17982214D01*
X2112500Y-17982214D01*
X2141071Y-17996500D01*
X2155357Y-18010786D01*
X2169643Y-18039357D01*
X2169643Y-18053643D01*
X2155357Y-18082214D01*
X2141071Y-18096500D01*
X2112500Y-18110786D01*
X2055357Y-18110786D01*
X2026786Y-18125072D01*
X2012500Y-18139357D01*
X1998214Y-18167929D01*
X1998214Y-18225072D01*
X2012500Y-18253643D01*
X2026786Y-18267929D01*
X2055357Y-18282214D01*
X2112500Y-18282214D01*
X2141071Y-18267929D01*
X2155357Y-18253643D01*
X2169643Y-18225072D01*
X2169643Y-18167929D01*
X2155357Y-18139357D01*
X2141071Y-18125072D01*
X2112500Y-18110786D01*
X2355357Y-17982214D02*
X2383928Y-17982214D01*
X2412500Y-17996500D01*
X2426786Y-18010786D01*
X2441071Y-18039357D01*
X2455357Y-18096500D01*
X2455357Y-18167929D01*
X2441071Y-18225072D01*
X2426786Y-18253643D01*
X2412500Y-18267929D01*
X2383928Y-18282214D01*
X2355357Y-18282214D01*
X2326786Y-18267929D01*
X2312500Y-18253643D01*
X2298214Y-18225072D01*
X2283928Y-18167929D01*
X2283928Y-18096500D01*
X2298214Y-18039357D01*
X2312500Y-18010786D01*
X2326786Y-17996500D01*
X2355357Y-17982214D01*
X2641071Y-17982214D02*
X2669643Y-17982214D01*
X2698214Y-17996500D01*
X2712500Y-18010786D01*
X2726786Y-18039357D01*
X2741071Y-18096500D01*
X2741071Y-18167929D01*
X2726786Y-18225072D01*
X2712500Y-18253643D01*
X2698214Y-18267929D01*
X2669643Y-18282214D01*
X2641071Y-18282214D01*
X2612500Y-18267929D01*
X2598214Y-18253643D01*
X2583928Y-18225072D01*
X2569643Y-18167929D01*
X2569643Y-18096500D01*
X2583928Y-18039357D01*
X2598214Y-18010786D01*
X2612500Y-17996500D01*
X2641071Y-17982214D01*
X2869643Y-18282214D02*
X2869643Y-18082214D01*
X2869643Y-18110786D02*
X2883928Y-18096500D01*
X2912500Y-18082214D01*
X2955357Y-18082214D01*
X2983928Y-18096500D01*
X2998214Y-18125072D01*
X2998214Y-18282214D01*
X2998214Y-18125072D02*
X3012500Y-18096500D01*
X3041071Y-18082214D01*
X3083928Y-18082214D01*
X3112500Y-18096500D01*
X3126786Y-18125072D01*
X3126786Y-18282214D01*
X3269643Y-18282214D02*
X3269643Y-18082214D01*
X3269643Y-18110786D02*
X3283928Y-18096500D01*
X3312500Y-18082214D01*
X3355357Y-18082214D01*
X3383928Y-18096500D01*
X3398214Y-18125072D01*
X3398214Y-18282214D01*
X3398214Y-18125072D02*
X3412500Y-18096500D01*
X3441071Y-18082214D01*
X3483928Y-18082214D01*
X3512500Y-18096500D01*
X3526786Y-18125072D01*
X3526786Y-18282214D01*
X4112500Y-17967929D02*
X3855357Y-18353643D01*
X4498214Y-17982214D02*
X4526786Y-17982214D01*
X4555357Y-17996500D01*
X4569643Y-18010786D01*
X4583928Y-18039357D01*
X4598214Y-18096500D01*
X4598214Y-18167929D01*
X4583928Y-18225072D01*
X4569643Y-18253643D01*
X4555357Y-18267929D01*
X4526786Y-18282214D01*
X4498214Y-18282214D01*
X4469643Y-18267929D01*
X4455357Y-18253643D01*
X4441071Y-18225072D01*
X4426786Y-18167929D01*
X4426786Y-18096500D01*
X4441071Y-18039357D01*
X4455357Y-18010786D01*
X4469643Y-17996500D01*
X4498214Y-17982214D01*
X4726786Y-18253643D02*
X4741071Y-18267929D01*
X4726786Y-18282214D01*
X4712500Y-18267929D01*
X4726786Y-18253643D01*
X4726786Y-18282214D01*
X4926786Y-17982214D02*
X4955357Y-17982214D01*
X4983928Y-17996500D01*
X4998214Y-18010786D01*
X5012500Y-18039357D01*
X5026786Y-18096500D01*
X5026786Y-18167929D01*
X5012500Y-18225072D01*
X4998214Y-18253643D01*
X4983928Y-18267929D01*
X4955357Y-18282214D01*
X4926786Y-18282214D01*
X4898214Y-18267929D01*
X4883928Y-18253643D01*
X4869643Y-18225072D01*
X4855357Y-18167929D01*
X4855357Y-18096500D01*
X4869643Y-18039357D01*
X4883928Y-18010786D01*
X4898214Y-17996500D01*
X4926786Y-17982214D01*
X5126786Y-17982214D02*
X5312500Y-17982214D01*
X5212500Y-18096500D01*
X5255357Y-18096500D01*
X5283928Y-18110786D01*
X5298214Y-18125072D01*
X5312500Y-18153643D01*
X5312500Y-18225072D01*
X5298214Y-18253643D01*
X5283928Y-18267929D01*
X5255357Y-18282214D01*
X5169643Y-18282214D01*
X5141071Y-18267929D01*
X5126786Y-18253643D01*
X5598214Y-18282214D02*
X5426786Y-18282214D01*
X5512500Y-18282214D02*
X5512500Y-17982214D01*
X5483928Y-18025072D01*
X5455357Y-18053643D01*
X5426786Y-18067929D01*
X5869643Y-17982214D02*
X5726786Y-17982214D01*
X5712500Y-18125072D01*
X5726786Y-18110786D01*
X5755357Y-18096500D01*
X5826786Y-18096500D01*
X5855357Y-18110786D01*
X5869643Y-18125072D01*
X5883928Y-18153643D01*
X5883928Y-18225072D01*
X5869643Y-18253643D01*
X5855357Y-18267929D01*
X5826786Y-18282214D01*
X5755357Y-18282214D01*
X5726786Y-18267929D01*
X5712500Y-18253643D01*
X5998214Y-17982214D02*
X5998214Y-18039357D01*
X6112500Y-17982214D02*
X6112500Y-18039357D01*
X6555357Y-18396500D02*
X6541071Y-18382214D01*
X6512500Y-18339357D01*
X6498214Y-18310786D01*
X6483928Y-18267929D01*
X6469643Y-18196500D01*
X6469643Y-18139357D01*
X6483928Y-18067929D01*
X6498214Y-18025072D01*
X6512500Y-17996500D01*
X6541071Y-17953643D01*
X6555357Y-17939357D01*
X6655357Y-18010786D02*
X6669643Y-17996500D01*
X6698214Y-17982214D01*
X6769643Y-17982214D01*
X6798214Y-17996500D01*
X6812500Y-18010786D01*
X6826786Y-18039357D01*
X6826786Y-18067929D01*
X6812500Y-18110786D01*
X6641071Y-18282214D01*
X6826786Y-18282214D01*
X7183928Y-18282214D02*
X7183928Y-17982214D01*
X7312500Y-18282214D02*
X7312500Y-18125072D01*
X7298214Y-18096500D01*
X7269643Y-18082214D01*
X7226786Y-18082214D01*
X7198214Y-18096500D01*
X7183928Y-18110786D01*
X7498214Y-18282214D02*
X7469643Y-18267929D01*
X7455357Y-18253643D01*
X7441071Y-18225072D01*
X7441071Y-18139357D01*
X7455357Y-18110786D01*
X7469643Y-18096500D01*
X7498214Y-18082214D01*
X7541071Y-18082214D01*
X7569643Y-18096500D01*
X7583928Y-18110786D01*
X7598214Y-18139357D01*
X7598214Y-18225072D01*
X7583928Y-18253643D01*
X7569643Y-18267929D01*
X7541071Y-18282214D01*
X7498214Y-18282214D01*
X7769643Y-18282214D02*
X7741071Y-18267929D01*
X7726786Y-18239357D01*
X7726786Y-17982214D01*
X7998214Y-18267929D02*
X7969643Y-18282214D01*
X7912500Y-18282214D01*
X7883928Y-18267929D01*
X7869643Y-18239357D01*
X7869643Y-18125072D01*
X7883928Y-18096500D01*
X7912500Y-18082214D01*
X7969643Y-18082214D01*
X7998214Y-18096500D01*
X8012500Y-18125072D01*
X8012500Y-18153643D01*
X7869643Y-18182214D01*
X8126786Y-18267929D02*
X8155357Y-18282214D01*
X8212500Y-18282214D01*
X8241071Y-18267929D01*
X8255357Y-18239357D01*
X8255357Y-18225072D01*
X8241071Y-18196500D01*
X8212500Y-18182214D01*
X8169643Y-18182214D01*
X8141071Y-18167929D01*
X8126786Y-18139357D01*
X8126786Y-18125072D01*
X8141071Y-18096500D01*
X8169643Y-18082214D01*
X8212500Y-18082214D01*
X8241071Y-18096500D01*
X8355357Y-18396500D02*
X8369643Y-18382214D01*
X8398214Y-18339357D01*
X8412500Y-18310786D01*
X8426786Y-18267929D01*
X8441071Y-18196500D01*
X8441071Y-18139357D01*
X8426786Y-18067929D01*
X8412500Y-18025072D01*
X8398214Y-17996500D01*
X8369643Y-17953643D01*
X8355357Y-17939357D01*
X1197500Y-18492500D02*
X1297500Y-18592500D01*
X1297500Y-18492500D02*
X1197500Y-18592500D01*
X1297500Y-18542500D02*
G75*
G03*
X1297500Y-18542500I-50000J0D01*
G01*
X1741071Y-18678214D02*
X1569643Y-18678214D01*
X1655357Y-18678214D02*
X1655357Y-18378214D01*
X1626786Y-18421072D01*
X1598214Y-18449643D01*
X1569643Y-18463929D01*
X1869643Y-18649643D02*
X1883928Y-18663929D01*
X1869643Y-18678214D01*
X1855357Y-18663929D01*
X1869643Y-18649643D01*
X1869643Y-18678214D01*
X2069643Y-18378214D02*
X2098214Y-18378214D01*
X2126786Y-18392500D01*
X2141071Y-18406786D01*
X2155357Y-18435357D01*
X2169643Y-18492500D01*
X2169643Y-18563929D01*
X2155357Y-18621072D01*
X2141071Y-18649643D01*
X2126786Y-18663929D01*
X2098214Y-18678214D01*
X2069643Y-18678214D01*
X2041071Y-18663929D01*
X2026786Y-18649643D01*
X2012500Y-18621072D01*
X1998214Y-18563929D01*
X1998214Y-18492500D01*
X2012500Y-18435357D01*
X2026786Y-18406786D01*
X2041071Y-18392500D01*
X2069643Y-18378214D01*
X2355357Y-18378214D02*
X2383928Y-18378214D01*
X2412500Y-18392500D01*
X2426786Y-18406786D01*
X2441071Y-18435357D01*
X2455357Y-18492500D01*
X2455357Y-18563929D01*
X2441071Y-18621072D01*
X2426786Y-18649643D01*
X2412500Y-18663929D01*
X2383928Y-18678214D01*
X2355357Y-18678214D01*
X2326786Y-18663929D01*
X2312500Y-18649643D01*
X2298214Y-18621072D01*
X2283928Y-18563929D01*
X2283928Y-18492500D01*
X2298214Y-18435357D01*
X2312500Y-18406786D01*
X2326786Y-18392500D01*
X2355357Y-18378214D01*
X2641071Y-18378214D02*
X2669643Y-18378214D01*
X2698214Y-18392500D01*
X2712500Y-18406786D01*
X2726786Y-18435357D01*
X2741071Y-18492500D01*
X2741071Y-18563929D01*
X2726786Y-18621072D01*
X2712500Y-18649643D01*
X2698214Y-18663929D01*
X2669643Y-18678214D01*
X2641071Y-18678214D01*
X2612500Y-18663929D01*
X2598214Y-18649643D01*
X2583928Y-18621072D01*
X2569643Y-18563929D01*
X2569643Y-18492500D01*
X2583928Y-18435357D01*
X2598214Y-18406786D01*
X2612500Y-18392500D01*
X2641071Y-18378214D01*
X2869643Y-18678214D02*
X2869643Y-18478214D01*
X2869643Y-18506786D02*
X2883928Y-18492500D01*
X2912500Y-18478214D01*
X2955357Y-18478214D01*
X2983928Y-18492500D01*
X2998214Y-18521072D01*
X2998214Y-18678214D01*
X2998214Y-18521072D02*
X3012500Y-18492500D01*
X3041071Y-18478214D01*
X3083928Y-18478214D01*
X3112500Y-18492500D01*
X3126786Y-18521072D01*
X3126786Y-18678214D01*
X3269643Y-18678214D02*
X3269643Y-18478214D01*
X3269643Y-18506786D02*
X3283928Y-18492500D01*
X3312500Y-18478214D01*
X3355357Y-18478214D01*
X3383928Y-18492500D01*
X3398214Y-18521072D01*
X3398214Y-18678214D01*
X3398214Y-18521072D02*
X3412500Y-18492500D01*
X3441071Y-18478214D01*
X3483928Y-18478214D01*
X3512500Y-18492500D01*
X3526786Y-18521072D01*
X3526786Y-18678214D01*
X4112500Y-18363929D02*
X3855357Y-18749643D01*
X4498214Y-18378214D02*
X4526786Y-18378214D01*
X4555357Y-18392500D01*
X4569643Y-18406786D01*
X4583928Y-18435357D01*
X4598214Y-18492500D01*
X4598214Y-18563929D01*
X4583928Y-18621072D01*
X4569643Y-18649643D01*
X4555357Y-18663929D01*
X4526786Y-18678214D01*
X4498214Y-18678214D01*
X4469643Y-18663929D01*
X4455357Y-18649643D01*
X4441071Y-18621072D01*
X4426786Y-18563929D01*
X4426786Y-18492500D01*
X4441071Y-18435357D01*
X4455357Y-18406786D01*
X4469643Y-18392500D01*
X4498214Y-18378214D01*
X4726786Y-18649643D02*
X4741071Y-18663929D01*
X4726786Y-18678214D01*
X4712500Y-18663929D01*
X4726786Y-18649643D01*
X4726786Y-18678214D01*
X4926786Y-18378214D02*
X4955357Y-18378214D01*
X4983928Y-18392500D01*
X4998214Y-18406786D01*
X5012500Y-18435357D01*
X5026786Y-18492500D01*
X5026786Y-18563929D01*
X5012500Y-18621072D01*
X4998214Y-18649643D01*
X4983928Y-18663929D01*
X4955357Y-18678214D01*
X4926786Y-18678214D01*
X4898214Y-18663929D01*
X4883928Y-18649643D01*
X4869643Y-18621072D01*
X4855357Y-18563929D01*
X4855357Y-18492500D01*
X4869643Y-18435357D01*
X4883928Y-18406786D01*
X4898214Y-18392500D01*
X4926786Y-18378214D01*
X5126786Y-18378214D02*
X5312500Y-18378214D01*
X5212500Y-18492500D01*
X5255357Y-18492500D01*
X5283928Y-18506786D01*
X5298214Y-18521072D01*
X5312500Y-18549643D01*
X5312500Y-18621072D01*
X5298214Y-18649643D01*
X5283928Y-18663929D01*
X5255357Y-18678214D01*
X5169643Y-18678214D01*
X5141071Y-18663929D01*
X5126786Y-18649643D01*
X5455357Y-18678214D02*
X5512500Y-18678214D01*
X5541071Y-18663929D01*
X5555357Y-18649643D01*
X5583928Y-18606786D01*
X5598214Y-18549643D01*
X5598214Y-18435357D01*
X5583928Y-18406786D01*
X5569643Y-18392500D01*
X5541071Y-18378214D01*
X5483928Y-18378214D01*
X5455357Y-18392500D01*
X5441071Y-18406786D01*
X5426786Y-18435357D01*
X5426786Y-18506786D01*
X5441071Y-18535357D01*
X5455357Y-18549643D01*
X5483928Y-18563929D01*
X5541071Y-18563929D01*
X5569643Y-18549643D01*
X5583928Y-18535357D01*
X5598214Y-18506786D01*
X5855357Y-18478214D02*
X5855357Y-18678214D01*
X5783928Y-18363929D02*
X5712500Y-18578214D01*
X5898214Y-18578214D01*
X5998214Y-18378214D02*
X5998214Y-18435357D01*
X6112500Y-18378214D02*
X6112500Y-18435357D01*
X6555357Y-18792500D02*
X6541071Y-18778214D01*
X6512500Y-18735357D01*
X6498214Y-18706786D01*
X6483928Y-18663929D01*
X6469643Y-18592500D01*
X6469643Y-18535357D01*
X6483928Y-18463929D01*
X6498214Y-18421072D01*
X6512500Y-18392500D01*
X6541071Y-18349643D01*
X6555357Y-18335357D01*
X6798214Y-18478214D02*
X6798214Y-18678214D01*
X6726786Y-18363929D02*
X6655357Y-18578214D01*
X6841071Y-18578214D01*
X7098214Y-18378214D02*
X6955357Y-18378214D01*
X6941071Y-18521072D01*
X6955357Y-18506786D01*
X6983928Y-18492500D01*
X7055357Y-18492500D01*
X7083928Y-18506786D01*
X7098214Y-18521072D01*
X7112500Y-18549643D01*
X7112500Y-18621072D01*
X7098214Y-18649643D01*
X7083928Y-18663929D01*
X7055357Y-18678214D01*
X6983928Y-18678214D01*
X6955357Y-18663929D01*
X6941071Y-18649643D01*
X7469643Y-18678214D02*
X7469643Y-18378214D01*
X7598214Y-18678214D02*
X7598214Y-18521072D01*
X7583928Y-18492500D01*
X7555357Y-18478214D01*
X7512500Y-18478214D01*
X7483928Y-18492500D01*
X7469643Y-18506786D01*
X7783928Y-18678214D02*
X7755357Y-18663929D01*
X7741071Y-18649643D01*
X7726786Y-18621072D01*
X7726786Y-18535357D01*
X7741071Y-18506786D01*
X7755357Y-18492500D01*
X7783928Y-18478214D01*
X7826786Y-18478214D01*
X7855357Y-18492500D01*
X7869643Y-18506786D01*
X7883928Y-18535357D01*
X7883928Y-18621072D01*
X7869643Y-18649643D01*
X7855357Y-18663929D01*
X7826786Y-18678214D01*
X7783928Y-18678214D01*
X8055357Y-18678214D02*
X8026786Y-18663929D01*
X8012500Y-18635357D01*
X8012500Y-18378214D01*
X8283928Y-18663929D02*
X8255357Y-18678214D01*
X8198214Y-18678214D01*
X8169643Y-18663929D01*
X8155357Y-18635357D01*
X8155357Y-18521072D01*
X8169643Y-18492500D01*
X8198214Y-18478214D01*
X8255357Y-18478214D01*
X8283928Y-18492500D01*
X8298214Y-18521072D01*
X8298214Y-18549643D01*
X8155357Y-18578214D01*
X8412500Y-18663929D02*
X8441071Y-18678214D01*
X8498214Y-18678214D01*
X8526786Y-18663929D01*
X8541071Y-18635357D01*
X8541071Y-18621072D01*
X8526786Y-18592500D01*
X8498214Y-18578214D01*
X8455357Y-18578214D01*
X8426786Y-18563929D01*
X8412500Y-18535357D01*
X8412500Y-18521072D01*
X8426786Y-18492500D01*
X8455357Y-18478214D01*
X8498214Y-18478214D01*
X8526786Y-18492500D01*
X8641071Y-18792500D02*
X8655357Y-18778214D01*
X8683928Y-18735357D01*
X8698214Y-18706786D01*
X8712500Y-18663929D01*
X8726786Y-18592500D01*
X8726786Y-18535357D01*
X8712500Y-18463929D01*
X8698214Y-18421072D01*
X8683928Y-18392500D01*
X8655357Y-18349643D01*
X8641071Y-18335357D01*
X1165500Y-18872500D02*
X1297500Y-19004500D01*
X1297500Y-18872500D02*
X1165500Y-19004500D01*
X1231500Y-18872500D02*
X1231500Y-19004500D01*
X1165500Y-18938500D02*
X1297500Y-18938500D01*
X1741071Y-19074214D02*
X1569643Y-19074214D01*
X1655357Y-19074214D02*
X1655357Y-18774214D01*
X1626786Y-18817072D01*
X1598214Y-18845643D01*
X1569643Y-18859929D01*
X1869643Y-19045643D02*
X1883928Y-19059929D01*
X1869643Y-19074214D01*
X1855357Y-19059929D01*
X1869643Y-19045643D01*
X1869643Y-19074214D01*
X1983928Y-18774214D02*
X2169643Y-18774214D01*
X2069643Y-18888500D01*
X2112500Y-18888500D01*
X2141071Y-18902786D01*
X2155357Y-18917072D01*
X2169643Y-18945643D01*
X2169643Y-19017072D01*
X2155357Y-19045643D01*
X2141071Y-19059929D01*
X2112500Y-19074214D01*
X2026786Y-19074214D01*
X1998214Y-19059929D01*
X1983928Y-19045643D01*
X2283928Y-18802786D02*
X2298214Y-18788500D01*
X2326786Y-18774214D01*
X2398214Y-18774214D01*
X2426786Y-18788500D01*
X2441071Y-18802786D01*
X2455357Y-18831357D01*
X2455357Y-18859929D01*
X2441071Y-18902786D01*
X2269643Y-19074214D01*
X2455357Y-19074214D01*
X2641071Y-18774214D02*
X2669643Y-18774214D01*
X2698214Y-18788500D01*
X2712500Y-18802786D01*
X2726786Y-18831357D01*
X2741071Y-18888500D01*
X2741071Y-18959929D01*
X2726786Y-19017072D01*
X2712500Y-19045643D01*
X2698214Y-19059929D01*
X2669643Y-19074214D01*
X2641071Y-19074214D01*
X2612500Y-19059929D01*
X2598214Y-19045643D01*
X2583928Y-19017072D01*
X2569643Y-18959929D01*
X2569643Y-18888500D01*
X2583928Y-18831357D01*
X2598214Y-18802786D01*
X2612500Y-18788500D01*
X2641071Y-18774214D01*
X2869643Y-19074214D02*
X2869643Y-18874214D01*
X2869643Y-18902786D02*
X2883928Y-18888500D01*
X2912500Y-18874214D01*
X2955357Y-18874214D01*
X2983928Y-18888500D01*
X2998214Y-18917072D01*
X2998214Y-19074214D01*
X2998214Y-18917072D02*
X3012500Y-18888500D01*
X3041071Y-18874214D01*
X3083928Y-18874214D01*
X3112500Y-18888500D01*
X3126786Y-18917072D01*
X3126786Y-19074214D01*
X3269643Y-19074214D02*
X3269643Y-18874214D01*
X3269643Y-18902786D02*
X3283928Y-18888500D01*
X3312500Y-18874214D01*
X3355357Y-18874214D01*
X3383928Y-18888500D01*
X3398214Y-18917072D01*
X3398214Y-19074214D01*
X3398214Y-18917072D02*
X3412500Y-18888500D01*
X3441071Y-18874214D01*
X3483928Y-18874214D01*
X3512500Y-18888500D01*
X3526786Y-18917072D01*
X3526786Y-19074214D01*
X4112500Y-18759929D02*
X3855357Y-19145643D01*
X4498214Y-18774214D02*
X4526786Y-18774214D01*
X4555357Y-18788500D01*
X4569643Y-18802786D01*
X4583928Y-18831357D01*
X4598214Y-18888500D01*
X4598214Y-18959929D01*
X4583928Y-19017072D01*
X4569643Y-19045643D01*
X4555357Y-19059929D01*
X4526786Y-19074214D01*
X4498214Y-19074214D01*
X4469643Y-19059929D01*
X4455357Y-19045643D01*
X4441071Y-19017072D01*
X4426786Y-18959929D01*
X4426786Y-18888500D01*
X4441071Y-18831357D01*
X4455357Y-18802786D01*
X4469643Y-18788500D01*
X4498214Y-18774214D01*
X4726786Y-19045643D02*
X4741071Y-19059929D01*
X4726786Y-19074214D01*
X4712500Y-19059929D01*
X4726786Y-19045643D01*
X4726786Y-19074214D01*
X4926786Y-18774214D02*
X4955357Y-18774214D01*
X4983928Y-18788500D01*
X4998214Y-18802786D01*
X5012500Y-18831357D01*
X5026786Y-18888500D01*
X5026786Y-18959929D01*
X5012500Y-19017072D01*
X4998214Y-19045643D01*
X4983928Y-19059929D01*
X4955357Y-19074214D01*
X4926786Y-19074214D01*
X4898214Y-19059929D01*
X4883928Y-19045643D01*
X4869643Y-19017072D01*
X4855357Y-18959929D01*
X4855357Y-18888500D01*
X4869643Y-18831357D01*
X4883928Y-18802786D01*
X4898214Y-18788500D01*
X4926786Y-18774214D01*
X5298214Y-18774214D02*
X5155357Y-18774214D01*
X5141071Y-18917072D01*
X5155357Y-18902786D01*
X5183928Y-18888500D01*
X5255357Y-18888500D01*
X5283928Y-18902786D01*
X5298214Y-18917072D01*
X5312500Y-18945643D01*
X5312500Y-19017072D01*
X5298214Y-19045643D01*
X5283928Y-19059929D01*
X5255357Y-19074214D01*
X5183928Y-19074214D01*
X5155357Y-19059929D01*
X5141071Y-19045643D01*
X5426786Y-18802786D02*
X5441071Y-18788500D01*
X5469643Y-18774214D01*
X5541071Y-18774214D01*
X5569643Y-18788500D01*
X5583928Y-18802786D01*
X5598214Y-18831357D01*
X5598214Y-18859929D01*
X5583928Y-18902786D01*
X5412500Y-19074214D01*
X5598214Y-19074214D01*
X5783928Y-18774214D02*
X5812500Y-18774214D01*
X5841071Y-18788500D01*
X5855357Y-18802786D01*
X5869643Y-18831357D01*
X5883928Y-18888500D01*
X5883928Y-18959929D01*
X5869643Y-19017072D01*
X5855357Y-19045643D01*
X5841071Y-19059929D01*
X5812500Y-19074214D01*
X5783928Y-19074214D01*
X5755357Y-19059929D01*
X5741071Y-19045643D01*
X5726786Y-19017072D01*
X5712500Y-18959929D01*
X5712500Y-18888500D01*
X5726786Y-18831357D01*
X5741071Y-18802786D01*
X5755357Y-18788500D01*
X5783928Y-18774214D01*
X5998214Y-18774214D02*
X5998214Y-18831357D01*
X6112500Y-18774214D02*
X6112500Y-18831357D01*
X6555357Y-19188500D02*
X6541071Y-19174214D01*
X6512500Y-19131357D01*
X6498214Y-19102786D01*
X6483928Y-19059929D01*
X6469643Y-18988500D01*
X6469643Y-18931357D01*
X6483928Y-18859929D01*
X6498214Y-18817072D01*
X6512500Y-18788500D01*
X6541071Y-18745643D01*
X6555357Y-18731357D01*
X6641071Y-18774214D02*
X6826786Y-18774214D01*
X6726786Y-18888500D01*
X6769643Y-18888500D01*
X6798214Y-18902786D01*
X6812500Y-18917072D01*
X6826786Y-18945643D01*
X6826786Y-19017072D01*
X6812500Y-19045643D01*
X6798214Y-19059929D01*
X6769643Y-19074214D01*
X6683928Y-19074214D01*
X6655357Y-19059929D01*
X6641071Y-19045643D01*
X7183928Y-19074214D02*
X7183928Y-18774214D01*
X7312500Y-19074214D02*
X7312500Y-18917072D01*
X7298214Y-18888500D01*
X7269643Y-18874214D01*
X7226786Y-18874214D01*
X7198214Y-18888500D01*
X7183928Y-18902786D01*
X7498214Y-19074214D02*
X7469643Y-19059929D01*
X7455357Y-19045643D01*
X7441071Y-19017072D01*
X7441071Y-18931357D01*
X7455357Y-18902786D01*
X7469643Y-18888500D01*
X7498214Y-18874214D01*
X7541071Y-18874214D01*
X7569643Y-18888500D01*
X7583928Y-18902786D01*
X7598214Y-18931357D01*
X7598214Y-19017072D01*
X7583928Y-19045643D01*
X7569643Y-19059929D01*
X7541071Y-19074214D01*
X7498214Y-19074214D01*
X7769643Y-19074214D02*
X7741071Y-19059929D01*
X7726786Y-19031357D01*
X7726786Y-18774214D01*
X7998214Y-19059929D02*
X7969643Y-19074214D01*
X7912500Y-19074214D01*
X7883928Y-19059929D01*
X7869643Y-19031357D01*
X7869643Y-18917072D01*
X7883928Y-18888500D01*
X7912500Y-18874214D01*
X7969643Y-18874214D01*
X7998214Y-18888500D01*
X8012500Y-18917072D01*
X8012500Y-18945643D01*
X7869643Y-18974214D01*
X8126786Y-19059929D02*
X8155357Y-19074214D01*
X8212500Y-19074214D01*
X8241071Y-19059929D01*
X8255357Y-19031357D01*
X8255357Y-19017072D01*
X8241071Y-18988500D01*
X8212500Y-18974214D01*
X8169643Y-18974214D01*
X8141071Y-18959929D01*
X8126786Y-18931357D01*
X8126786Y-18917072D01*
X8141071Y-18888500D01*
X8169643Y-18874214D01*
X8212500Y-18874214D01*
X8241071Y-18888500D01*
X8355357Y-19188500D02*
X8369643Y-19174214D01*
X8398214Y-19131357D01*
X8412500Y-19102786D01*
X8426786Y-19059929D01*
X8441071Y-18988500D01*
X8441071Y-18931357D01*
X8426786Y-18859929D01*
X8412500Y-18817072D01*
X8398214Y-18788500D01*
X8369643Y-18745643D01*
X8355357Y-18731357D01*
X1145500Y-19258500D02*
X1297500Y-19410500D01*
X1297500Y-19258500D02*
X1145500Y-19410500D01*
X1275241Y-19388241D02*
X1275241Y-19280760D01*
X1167759Y-19280760D01*
X1167759Y-19388241D01*
X1275241Y-19388241D01*
X1741071Y-19470214D02*
X1569643Y-19470214D01*
X1655357Y-19470214D02*
X1655357Y-19170214D01*
X1626786Y-19213072D01*
X1598214Y-19241643D01*
X1569643Y-19255929D01*
X1869643Y-19441643D02*
X1883928Y-19455929D01*
X1869643Y-19470214D01*
X1855357Y-19455929D01*
X1869643Y-19441643D01*
X1869643Y-19470214D01*
X2155357Y-19170214D02*
X2012500Y-19170214D01*
X1998214Y-19313072D01*
X2012500Y-19298786D01*
X2041071Y-19284500D01*
X2112500Y-19284500D01*
X2141071Y-19298786D01*
X2155357Y-19313072D01*
X2169643Y-19341643D01*
X2169643Y-19413072D01*
X2155357Y-19441643D01*
X2141071Y-19455929D01*
X2112500Y-19470214D01*
X2041071Y-19470214D01*
X2012500Y-19455929D01*
X1998214Y-19441643D01*
X2283928Y-19198786D02*
X2298214Y-19184500D01*
X2326786Y-19170214D01*
X2398214Y-19170214D01*
X2426786Y-19184500D01*
X2441071Y-19198786D01*
X2455357Y-19227357D01*
X2455357Y-19255929D01*
X2441071Y-19298786D01*
X2269643Y-19470214D01*
X2455357Y-19470214D01*
X2641071Y-19170214D02*
X2669643Y-19170214D01*
X2698214Y-19184500D01*
X2712500Y-19198786D01*
X2726786Y-19227357D01*
X2741071Y-19284500D01*
X2741071Y-19355929D01*
X2726786Y-19413072D01*
X2712500Y-19441643D01*
X2698214Y-19455929D01*
X2669643Y-19470214D01*
X2641071Y-19470214D01*
X2612500Y-19455929D01*
X2598214Y-19441643D01*
X2583928Y-19413072D01*
X2569643Y-19355929D01*
X2569643Y-19284500D01*
X2583928Y-19227357D01*
X2598214Y-19198786D01*
X2612500Y-19184500D01*
X2641071Y-19170214D01*
X2869643Y-19470214D02*
X2869643Y-19270214D01*
X2869643Y-19298786D02*
X2883928Y-19284500D01*
X2912500Y-19270214D01*
X2955357Y-19270214D01*
X2983928Y-19284500D01*
X2998214Y-19313072D01*
X2998214Y-19470214D01*
X2998214Y-19313072D02*
X3012500Y-19284500D01*
X3041071Y-19270214D01*
X3083928Y-19270214D01*
X3112500Y-19284500D01*
X3126786Y-19313072D01*
X3126786Y-19470214D01*
X3269643Y-19470214D02*
X3269643Y-19270214D01*
X3269643Y-19298786D02*
X3283928Y-19284500D01*
X3312500Y-19270214D01*
X3355357Y-19270214D01*
X3383928Y-19284500D01*
X3398214Y-19313072D01*
X3398214Y-19470214D01*
X3398214Y-19313072D02*
X3412500Y-19284500D01*
X3441071Y-19270214D01*
X3483928Y-19270214D01*
X3512500Y-19284500D01*
X3526786Y-19313072D01*
X3526786Y-19470214D01*
X4112500Y-19155929D02*
X3855357Y-19541643D01*
X4498214Y-19170214D02*
X4526786Y-19170214D01*
X4555357Y-19184500D01*
X4569643Y-19198786D01*
X4583928Y-19227357D01*
X4598214Y-19284500D01*
X4598214Y-19355929D01*
X4583928Y-19413072D01*
X4569643Y-19441643D01*
X4555357Y-19455929D01*
X4526786Y-19470214D01*
X4498214Y-19470214D01*
X4469643Y-19455929D01*
X4455357Y-19441643D01*
X4441071Y-19413072D01*
X4426786Y-19355929D01*
X4426786Y-19284500D01*
X4441071Y-19227357D01*
X4455357Y-19198786D01*
X4469643Y-19184500D01*
X4498214Y-19170214D01*
X4726786Y-19441643D02*
X4741071Y-19455929D01*
X4726786Y-19470214D01*
X4712500Y-19455929D01*
X4726786Y-19441643D01*
X4726786Y-19470214D01*
X4926786Y-19170214D02*
X4955357Y-19170214D01*
X4983928Y-19184500D01*
X4998214Y-19198786D01*
X5012500Y-19227357D01*
X5026786Y-19284500D01*
X5026786Y-19355929D01*
X5012500Y-19413072D01*
X4998214Y-19441643D01*
X4983928Y-19455929D01*
X4955357Y-19470214D01*
X4926786Y-19470214D01*
X4898214Y-19455929D01*
X4883928Y-19441643D01*
X4869643Y-19413072D01*
X4855357Y-19355929D01*
X4855357Y-19284500D01*
X4869643Y-19227357D01*
X4883928Y-19198786D01*
X4898214Y-19184500D01*
X4926786Y-19170214D01*
X5298214Y-19170214D02*
X5155357Y-19170214D01*
X5141071Y-19313072D01*
X5155357Y-19298786D01*
X5183928Y-19284500D01*
X5255357Y-19284500D01*
X5283928Y-19298786D01*
X5298214Y-19313072D01*
X5312500Y-19341643D01*
X5312500Y-19413072D01*
X5298214Y-19441643D01*
X5283928Y-19455929D01*
X5255357Y-19470214D01*
X5183928Y-19470214D01*
X5155357Y-19455929D01*
X5141071Y-19441643D01*
X5455357Y-19470214D02*
X5512500Y-19470214D01*
X5541071Y-19455929D01*
X5555357Y-19441643D01*
X5583928Y-19398786D01*
X5598214Y-19341643D01*
X5598214Y-19227357D01*
X5583928Y-19198786D01*
X5569643Y-19184500D01*
X5541071Y-19170214D01*
X5483928Y-19170214D01*
X5455357Y-19184500D01*
X5441071Y-19198786D01*
X5426786Y-19227357D01*
X5426786Y-19298786D01*
X5441071Y-19327357D01*
X5455357Y-19341643D01*
X5483928Y-19355929D01*
X5541071Y-19355929D01*
X5569643Y-19341643D01*
X5583928Y-19327357D01*
X5598214Y-19298786D01*
X5769643Y-19298786D02*
X5741071Y-19284500D01*
X5726786Y-19270214D01*
X5712500Y-19241643D01*
X5712500Y-19227357D01*
X5726786Y-19198786D01*
X5741071Y-19184500D01*
X5769643Y-19170214D01*
X5826786Y-19170214D01*
X5855357Y-19184500D01*
X5869643Y-19198786D01*
X5883928Y-19227357D01*
X5883928Y-19241643D01*
X5869643Y-19270214D01*
X5855357Y-19284500D01*
X5826786Y-19298786D01*
X5769643Y-19298786D01*
X5741071Y-19313072D01*
X5726786Y-19327357D01*
X5712500Y-19355929D01*
X5712500Y-19413072D01*
X5726786Y-19441643D01*
X5741071Y-19455929D01*
X5769643Y-19470214D01*
X5826786Y-19470214D01*
X5855357Y-19455929D01*
X5869643Y-19441643D01*
X5883928Y-19413072D01*
X5883928Y-19355929D01*
X5869643Y-19327357D01*
X5855357Y-19313072D01*
X5826786Y-19298786D01*
X5998214Y-19170214D02*
X5998214Y-19227357D01*
X6112500Y-19170214D02*
X6112500Y-19227357D01*
X6555357Y-19584500D02*
X6541071Y-19570214D01*
X6512500Y-19527357D01*
X6498214Y-19498786D01*
X6483928Y-19455929D01*
X6469643Y-19384500D01*
X6469643Y-19327357D01*
X6483928Y-19255929D01*
X6498214Y-19213072D01*
X6512500Y-19184500D01*
X6541071Y-19141643D01*
X6555357Y-19127357D01*
X6798214Y-19270214D02*
X6798214Y-19470214D01*
X6726786Y-19155929D02*
X6655357Y-19370214D01*
X6841071Y-19370214D01*
X7183928Y-19470214D02*
X7183928Y-19170214D01*
X7312500Y-19470214D02*
X7312500Y-19313072D01*
X7298214Y-19284500D01*
X7269643Y-19270214D01*
X7226786Y-19270214D01*
X7198214Y-19284500D01*
X7183928Y-19298786D01*
X7498214Y-19470214D02*
X7469643Y-19455929D01*
X7455357Y-19441643D01*
X7441071Y-19413072D01*
X7441071Y-19327357D01*
X7455357Y-19298786D01*
X7469643Y-19284500D01*
X7498214Y-19270214D01*
X7541071Y-19270214D01*
X7569643Y-19284500D01*
X7583928Y-19298786D01*
X7598214Y-19327357D01*
X7598214Y-19413072D01*
X7583928Y-19441643D01*
X7569643Y-19455929D01*
X7541071Y-19470214D01*
X7498214Y-19470214D01*
X7769643Y-19470214D02*
X7741071Y-19455929D01*
X7726786Y-19427357D01*
X7726786Y-19170214D01*
X7998214Y-19455929D02*
X7969643Y-19470214D01*
X7912500Y-19470214D01*
X7883928Y-19455929D01*
X7869643Y-19427357D01*
X7869643Y-19313072D01*
X7883928Y-19284500D01*
X7912500Y-19270214D01*
X7969643Y-19270214D01*
X7998214Y-19284500D01*
X8012500Y-19313072D01*
X8012500Y-19341643D01*
X7869643Y-19370214D01*
X8126786Y-19455929D02*
X8155357Y-19470214D01*
X8212500Y-19470214D01*
X8241071Y-19455929D01*
X8255357Y-19427357D01*
X8255357Y-19413072D01*
X8241071Y-19384500D01*
X8212500Y-19370214D01*
X8169643Y-19370214D01*
X8141071Y-19355929D01*
X8126786Y-19327357D01*
X8126786Y-19313072D01*
X8141071Y-19284500D01*
X8169643Y-19270214D01*
X8212500Y-19270214D01*
X8241071Y-19284500D01*
X8355357Y-19584500D02*
X8369643Y-19570214D01*
X8398214Y-19527357D01*
X8412500Y-19498786D01*
X8426786Y-19455929D01*
X8441071Y-19384500D01*
X8441071Y-19327357D01*
X8426786Y-19255929D01*
X8412500Y-19213072D01*
X8398214Y-19184500D01*
X8369643Y-19141643D01*
X8355357Y-19127357D01*
X897500Y-19530500D02*
X1297500Y-19930500D01*
X1297500Y-19530500D02*
X897500Y-19930500D01*
X1097500Y-19930500D02*
X1297500Y-19730500D01*
X1097500Y-19530500D01*
X897500Y-19730500D01*
X1097500Y-19930500D01*
X1712500Y-19666214D02*
X1712500Y-19866214D01*
X1641071Y-19551929D02*
X1569643Y-19766214D01*
X1755357Y-19766214D01*
X1869643Y-19837643D02*
X1883928Y-19851929D01*
X1869643Y-19866214D01*
X1855357Y-19851929D01*
X1869643Y-19837643D01*
X1869643Y-19866214D01*
X2069643Y-19566214D02*
X2098214Y-19566214D01*
X2126786Y-19580500D01*
X2141071Y-19594786D01*
X2155357Y-19623357D01*
X2169643Y-19680500D01*
X2169643Y-19751929D01*
X2155357Y-19809072D01*
X2141071Y-19837643D01*
X2126786Y-19851929D01*
X2098214Y-19866214D01*
X2069643Y-19866214D01*
X2041071Y-19851929D01*
X2026786Y-19837643D01*
X2012500Y-19809072D01*
X1998214Y-19751929D01*
X1998214Y-19680500D01*
X2012500Y-19623357D01*
X2026786Y-19594786D01*
X2041071Y-19580500D01*
X2069643Y-19566214D01*
X2355357Y-19566214D02*
X2383928Y-19566214D01*
X2412500Y-19580500D01*
X2426786Y-19594786D01*
X2441071Y-19623357D01*
X2455357Y-19680500D01*
X2455357Y-19751929D01*
X2441071Y-19809072D01*
X2426786Y-19837643D01*
X2412500Y-19851929D01*
X2383928Y-19866214D01*
X2355357Y-19866214D01*
X2326786Y-19851929D01*
X2312500Y-19837643D01*
X2298214Y-19809072D01*
X2283928Y-19751929D01*
X2283928Y-19680500D01*
X2298214Y-19623357D01*
X2312500Y-19594786D01*
X2326786Y-19580500D01*
X2355357Y-19566214D01*
X2641071Y-19566214D02*
X2669643Y-19566214D01*
X2698214Y-19580500D01*
X2712500Y-19594786D01*
X2726786Y-19623357D01*
X2741071Y-19680500D01*
X2741071Y-19751929D01*
X2726786Y-19809072D01*
X2712500Y-19837643D01*
X2698214Y-19851929D01*
X2669643Y-19866214D01*
X2641071Y-19866214D01*
X2612500Y-19851929D01*
X2598214Y-19837643D01*
X2583928Y-19809072D01*
X2569643Y-19751929D01*
X2569643Y-19680500D01*
X2583928Y-19623357D01*
X2598214Y-19594786D01*
X2612500Y-19580500D01*
X2641071Y-19566214D01*
X2869643Y-19866214D02*
X2869643Y-19666214D01*
X2869643Y-19694786D02*
X2883928Y-19680500D01*
X2912500Y-19666214D01*
X2955357Y-19666214D01*
X2983928Y-19680500D01*
X2998214Y-19709072D01*
X2998214Y-19866214D01*
X2998214Y-19709072D02*
X3012500Y-19680500D01*
X3041071Y-19666214D01*
X3083928Y-19666214D01*
X3112500Y-19680500D01*
X3126786Y-19709072D01*
X3126786Y-19866214D01*
X3269643Y-19866214D02*
X3269643Y-19666214D01*
X3269643Y-19694786D02*
X3283928Y-19680500D01*
X3312500Y-19666214D01*
X3355357Y-19666214D01*
X3383928Y-19680500D01*
X3398214Y-19709072D01*
X3398214Y-19866214D01*
X3398214Y-19709072D02*
X3412500Y-19680500D01*
X3441071Y-19666214D01*
X3483928Y-19666214D01*
X3512500Y-19680500D01*
X3526786Y-19709072D01*
X3526786Y-19866214D01*
X4112500Y-19551929D02*
X3855357Y-19937643D01*
X4498214Y-19566214D02*
X4526786Y-19566214D01*
X4555357Y-19580500D01*
X4569643Y-19594786D01*
X4583928Y-19623357D01*
X4598214Y-19680500D01*
X4598214Y-19751929D01*
X4583928Y-19809072D01*
X4569643Y-19837643D01*
X4555357Y-19851929D01*
X4526786Y-19866214D01*
X4498214Y-19866214D01*
X4469643Y-19851929D01*
X4455357Y-19837643D01*
X4441071Y-19809072D01*
X4426786Y-19751929D01*
X4426786Y-19680500D01*
X4441071Y-19623357D01*
X4455357Y-19594786D01*
X4469643Y-19580500D01*
X4498214Y-19566214D01*
X4726786Y-19837643D02*
X4741071Y-19851929D01*
X4726786Y-19866214D01*
X4712500Y-19851929D01*
X4726786Y-19837643D01*
X4726786Y-19866214D01*
X5026786Y-19866214D02*
X4855357Y-19866214D01*
X4941071Y-19866214D02*
X4941071Y-19566214D01*
X4912500Y-19609072D01*
X4883928Y-19637643D01*
X4855357Y-19651929D01*
X5298214Y-19566214D02*
X5155357Y-19566214D01*
X5141071Y-19709072D01*
X5155357Y-19694786D01*
X5183928Y-19680500D01*
X5255357Y-19680500D01*
X5283928Y-19694786D01*
X5298214Y-19709072D01*
X5312500Y-19737643D01*
X5312500Y-19809072D01*
X5298214Y-19837643D01*
X5283928Y-19851929D01*
X5255357Y-19866214D01*
X5183928Y-19866214D01*
X5155357Y-19851929D01*
X5141071Y-19837643D01*
X5412500Y-19566214D02*
X5612500Y-19566214D01*
X5483928Y-19866214D01*
X5869643Y-19566214D02*
X5726786Y-19566214D01*
X5712500Y-19709072D01*
X5726786Y-19694786D01*
X5755357Y-19680500D01*
X5826786Y-19680500D01*
X5855357Y-19694786D01*
X5869643Y-19709072D01*
X5883928Y-19737643D01*
X5883928Y-19809072D01*
X5869643Y-19837643D01*
X5855357Y-19851929D01*
X5826786Y-19866214D01*
X5755357Y-19866214D01*
X5726786Y-19851929D01*
X5712500Y-19837643D01*
X5998214Y-19566214D02*
X5998214Y-19623357D01*
X6112500Y-19566214D02*
X6112500Y-19623357D01*
X6555357Y-19980500D02*
X6541071Y-19966214D01*
X6512500Y-19923357D01*
X6498214Y-19894786D01*
X6483928Y-19851929D01*
X6469643Y-19780500D01*
X6469643Y-19723357D01*
X6483928Y-19651929D01*
X6498214Y-19609072D01*
X6512500Y-19580500D01*
X6541071Y-19537643D01*
X6555357Y-19523357D01*
X6826786Y-19866214D02*
X6655357Y-19866214D01*
X6741071Y-19866214D02*
X6741071Y-19566214D01*
X6712500Y-19609072D01*
X6683928Y-19637643D01*
X6655357Y-19651929D01*
X7183928Y-19866214D02*
X7183928Y-19566214D01*
X7312500Y-19866214D02*
X7312500Y-19709072D01*
X7298214Y-19680500D01*
X7269643Y-19666214D01*
X7226786Y-19666214D01*
X7198214Y-19680500D01*
X7183928Y-19694786D01*
X7498214Y-19866214D02*
X7469643Y-19851929D01*
X7455357Y-19837643D01*
X7441071Y-19809072D01*
X7441071Y-19723357D01*
X7455357Y-19694786D01*
X7469643Y-19680500D01*
X7498214Y-19666214D01*
X7541071Y-19666214D01*
X7569643Y-19680500D01*
X7583928Y-19694786D01*
X7598214Y-19723357D01*
X7598214Y-19809072D01*
X7583928Y-19837643D01*
X7569643Y-19851929D01*
X7541071Y-19866214D01*
X7498214Y-19866214D01*
X7769643Y-19866214D02*
X7741071Y-19851929D01*
X7726786Y-19823357D01*
X7726786Y-19566214D01*
X7998214Y-19851929D02*
X7969643Y-19866214D01*
X7912500Y-19866214D01*
X7883928Y-19851929D01*
X7869643Y-19823357D01*
X7869643Y-19709072D01*
X7883928Y-19680500D01*
X7912500Y-19666214D01*
X7969643Y-19666214D01*
X7998214Y-19680500D01*
X8012500Y-19709072D01*
X8012500Y-19737643D01*
X7869643Y-19766214D01*
X8126786Y-19851929D02*
X8155357Y-19866214D01*
X8212500Y-19866214D01*
X8241071Y-19851929D01*
X8255357Y-19823357D01*
X8255357Y-19809072D01*
X8241071Y-19780500D01*
X8212500Y-19766214D01*
X8169643Y-19766214D01*
X8141071Y-19751929D01*
X8126786Y-19723357D01*
X8126786Y-19709072D01*
X8141071Y-19680500D01*
X8169643Y-19666214D01*
X8212500Y-19666214D01*
X8241071Y-19680500D01*
X8612500Y-19751929D02*
X8841071Y-19751929D01*
X8726786Y-19866214D02*
X8726786Y-19637643D01*
X9369643Y-19866214D02*
X9198214Y-19866214D01*
X9283928Y-19866214D02*
X9283928Y-19566214D01*
X9255357Y-19609072D01*
X9226786Y-19637643D01*
X9198214Y-19651929D01*
X9712500Y-19851929D02*
X9741071Y-19866214D01*
X9798214Y-19866214D01*
X9826786Y-19851929D01*
X9841071Y-19823357D01*
X9841071Y-19809072D01*
X9826786Y-19780500D01*
X9798214Y-19766214D01*
X9755357Y-19766214D01*
X9726786Y-19751929D01*
X9712500Y-19723357D01*
X9712500Y-19709072D01*
X9726786Y-19680500D01*
X9755357Y-19666214D01*
X9798214Y-19666214D01*
X9826786Y-19680500D01*
X10012500Y-19866214D02*
X9983928Y-19851929D01*
X9969643Y-19823357D01*
X9969643Y-19566214D01*
X10169643Y-19866214D02*
X10141071Y-19851929D01*
X10126786Y-19837643D01*
X10112500Y-19809072D01*
X10112500Y-19723357D01*
X10126786Y-19694786D01*
X10141071Y-19680500D01*
X10169643Y-19666214D01*
X10212500Y-19666214D01*
X10241071Y-19680500D01*
X10255357Y-19694786D01*
X10269643Y-19723357D01*
X10269643Y-19809072D01*
X10255357Y-19837643D01*
X10241071Y-19851929D01*
X10212500Y-19866214D01*
X10169643Y-19866214D01*
X10355357Y-19666214D02*
X10469643Y-19666214D01*
X10398214Y-19566214D02*
X10398214Y-19823357D01*
X10412500Y-19851929D01*
X10441071Y-19866214D01*
X10469643Y-19866214D01*
X10541071Y-19980500D02*
X10555357Y-19966214D01*
X10583928Y-19923357D01*
X10598214Y-19894786D01*
X10612500Y-19851929D01*
X10626786Y-19780500D01*
X10626786Y-19723357D01*
X10612500Y-19651929D01*
X10598214Y-19609072D01*
X10583928Y-19580500D01*
X10555357Y-19537643D01*
X10541071Y-19523357D01*
M02*
