M48
; DRILL file {KiCad (5.1.12)-1} date 08/06/22 16:22:03
; FORMAT={-:-/ absolute / metric / decimal}
; #@! TF.CreationDate,2022-08-06T16:22:03+02:00
; #@! TF.GenerationSoftware,Kicad,Pcbnew,(5.1.12)-1
; #@! TF.FileFunction,Plated,1,2,PTH
FMAT,2
METRIC
T1C0.400
T2C0.650
T3C0.750
T4C0.760
T5C0.800
T6C1.000
T7C1.320
T8C1.520
T9C4.000
%
G90
G05
T1
X37.7Y-101.7
X37.765Y-103.035
X38.6Y-117.2
X39.2Y-101.8
X39.2Y-103.0
X42.0Y-113.4
X43.8Y-103.6
X44.8Y-113.2
X47.762Y-133.237
X48.6Y-105.6
X48.6Y-106.6
X48.6Y-107.6
X48.6Y-108.6
X48.6Y-109.6
X48.6Y-110.6
X48.6Y-115.2
X48.6Y-117.2
X49.6Y-104.4
X49.8Y-106.6
X49.8Y-108.2
X49.8Y-109.6
X50.0Y-114.4
X51.2Y-114.4
X52.2Y-121.0
X53.6Y-119.2
X55.4Y-125.2
X61.8Y-117.6
X64.4Y-113.6
X67.8Y-117.6
X68.2Y-126.2
X69.4Y-123.0
X70.0Y-123.8
X70.8Y-124.8
X71.0Y-123.2
X74.0Y-125.2
X75.8Y-130.4
X81.0Y-114.0
X83.6Y-133.0
X83.6Y-135.8
X83.6Y-138.6
X83.6Y-141.4
X87.825Y-89.625
X93.145Y-120.255
X96.0Y-133.0
X96.0Y-136.0
X96.0Y-139.0
X96.0Y-142.0
X96.345Y-120.255
T2
X58.6Y-109.0
X59.87Y-109.0
X61.14Y-109.0
X62.41Y-109.0
T3
X81.4Y-106.26
X81.4Y-107.53
X81.4Y-108.8
T4
X65.59Y-128.43
X65.59Y-136.37
X68.13Y-128.43
X68.13Y-136.37
X70.67Y-128.43
X70.67Y-136.37
X73.21Y-128.43
X73.21Y-136.37
T5
X31.8Y-101.76
X31.8Y-117.0
T6
X17.8Y-100.86
X17.8Y-103.4
X17.8Y-111.8
X17.8Y-114.34
X19.4Y-135.4
X22.0Y-114.8
X23.2Y-93.2
X26.4Y-114.8
X28.6Y-122.0
X28.6Y-124.54
X28.6Y-127.08
X28.6Y-129.62
X28.6Y-132.16
X32.4Y-93.0
X40.0Y-93.0
X40.0Y-95.54
X57.2Y-132.8
X60.8Y-124.4
X60.8Y-126.94
X62.4Y-97.6
X64.94Y-97.6
X67.48Y-97.6
X70.02Y-97.6
X72.56Y-97.6
X74.2Y-106.0
X74.2Y-108.54
X75.1Y-97.6
X77.64Y-97.6
X79.0Y-89.0
X80.18Y-97.6
X81.54Y-89.0
X84.8Y-101.4
X85.4Y-89.0
X85.6Y-114.0
X85.6Y-116.54
X85.6Y-119.08
X85.6Y-121.62
X85.6Y-124.16
X89.4Y-103.26
X89.4Y-105.8
X93.2Y-100.6
X93.2Y-103.14
X93.2Y-105.68
X93.2Y-108.22
X93.2Y-110.76
T7
X40.0Y-129.6
X40.0Y-132.15
X40.0Y-134.7
T8
X61.84Y-147.4
X66.92Y-147.4
X72.0Y-147.4
X77.08Y-147.4
T9
X17.6Y-89.0
T9
X106.4Y-152.0G85X106.4Y-152.0
G05
T0
M30
